M48
; DRILL file {KiCad (5.1.7)-1} date 10/27/20 01:06:43
; FORMAT={-:-/ absolute / inch / decimal}
; #@! TF.CreationDate,2020-10-27T01:06:43-05:00
; #@! TF.GenerationSoftware,Kicad,Pcbnew,(5.1.7)-1
; #@! TF.FileFunction,Plated,1,4,PTH
FMAT,2
INCH
T1C0.0100
T2C0.0299
T3C0.0315
T4C0.0394
T5C0.1181
%
G90
G05
T1
X2.74Y-3.652
X2.7626Y-3.8579
X2.8824Y-3.7034
X2.9861Y-2.6108
X3.0283Y-2.768
X3.0916Y-2.5725
X3.1Y-3.675
X3.1Y-3.725
X3.1Y-3.775
X3.1475Y-2.5925
X3.35Y-2.375
X3.375Y-2.425
X3.388Y-2.89
X3.4Y-2.375
X3.41Y-4.127
X3.4294Y-3.5734
X3.4312Y-3.8871
X3.45Y-2.425
X3.4775Y-4.0077
X3.542Y-2.892
X3.64Y-2.5
X3.64Y-2.8
X3.65Y-3.05
X3.65Y-3.075
X3.65Y-3.575
X3.675Y-3.05
X3.675Y-3.075
X3.678Y-2.892
X3.7Y-3.6
X3.7Y-3.65
X3.732Y-3.716
X3.75Y-2.15
X3.75Y-2.175
X3.75Y-2.2
X3.75Y-3.65
X3.8Y-4.075
X3.8Y-4.1
X3.825Y-4.075
X3.825Y-4.1
X4.0Y-3.9
X4.0Y-3.925
X4.017Y-3.3375
X4.025Y-3.9
X4.025Y-3.925
X4.032Y-2.914
X4.2005Y-3.1415
X4.225Y-3.407
X4.225Y-4.0
X4.227Y-2.5
X4.25Y-2.325
X4.25Y-2.35
X4.27Y-2.956
X4.27Y-3.072
X4.275Y-2.325
X4.275Y-2.35
X4.275Y-4.0
X4.325Y-3.825
X4.35Y-2.65
X4.35Y-3.725
X4.369Y-3.406
X4.525Y-2.15
X4.65Y-4.002
X4.725Y-3.475
X4.725Y-3.525
X4.725Y-3.575
X4.725Y-3.625
T2
X4.3373Y-3.236
X4.731Y-3.236
X4.1563Y-4.062
X4.55Y-4.062
T3
X3.4376Y-3.2641
X3.5376Y-3.2641
X3.6376Y-3.2641
X4.1554Y-4.2979
X4.2554Y-4.2979
X4.3554Y-4.2979
X2.7079Y-3.0397
X2.7866Y-3.0397
X4.1218Y-3.2583
X4.2005Y-3.2583
T4
X2.691Y-3.372
X2.791Y-3.372
X2.96Y-3.452
X2.96Y-3.552
X2.96Y-3.652
X2.96Y-3.752
X2.96Y-3.852
X2.96Y-3.952
X2.96Y-4.052
X3.26Y-3.452
X3.26Y-3.552
X3.26Y-3.652
X3.26Y-3.752
X3.26Y-3.852
X3.26Y-3.952
X3.26Y-4.052
X4.453Y-2.501
X4.453Y-2.601
X4.453Y-2.701
X4.453Y-2.801
X4.753Y-2.501
X4.753Y-2.601
X4.753Y-2.701
X4.753Y-2.801
X2.7115Y-4.0562
X2.8115Y-4.0562
X3.6164Y-2.172
X3.6164Y-2.272
X3.23Y-2.51
X3.23Y-2.61
X3.23Y-2.71
X3.23Y-2.81
X3.53Y-2.51
X3.53Y-2.61
X3.53Y-2.71
X3.53Y-2.81
X4.412Y-2.172
X4.412Y-2.272
X3.1388Y-4.2874
X3.1388Y-4.3874
X3.5662Y-3.4825
X3.5662Y-3.5825
X3.5662Y-3.6825
X3.5662Y-3.7825
X3.8662Y-3.4825
X3.8662Y-3.5825
X3.8662Y-3.6825
X3.8662Y-3.7825
X4.3587Y-3.021
X4.654Y-3.021
X2.7395Y-2.513
X2.8395Y-2.513
X3.65Y-4.032
X3.65Y-4.132
X4.27Y-3.622
X4.27Y-3.922
X4.37Y-3.622
X4.37Y-3.922
X4.47Y-3.622
X4.47Y-3.922
X4.57Y-3.622
X4.57Y-3.922
X3.8747Y-3.012
X4.17Y-3.012
X3.8816Y-2.172
X3.8816Y-2.272
X3.2347Y-3.012
X3.53Y-3.012
X3.4632Y-4.2874
X3.4632Y-4.3874
X3.965Y-4.037
X3.965Y-4.137
X4.1468Y-2.172
X4.1468Y-2.272
X2.7026Y-2.7385
X2.8026Y-2.7385
X3.87Y-2.5
X3.87Y-2.6
X3.87Y-2.7
X3.87Y-2.8
X4.17Y-2.5
X4.17Y-2.6
X4.17Y-2.7
X4.17Y-2.8
X3.7877Y-4.2874
X3.7877Y-4.3874
X3.3512Y-2.172
X3.3512Y-2.272
X3.086Y-2.172
X3.086Y-2.272
T5
X2.784Y-2.26
X4.67Y-2.26
X2.784Y-4.29
X4.67Y-4.29
T0
M30
