M48
; DRILL file {KiCad (5.1.7)-1} date 10/23/20 01:37:42
; FORMAT={-:-/ absolute / inch / decimal}
; #@! TF.CreationDate,2020-10-23T01:37:42-05:00
; #@! TF.GenerationSoftware,Kicad,Pcbnew,(5.1.7)-1
FMAT,2
INCH
T1C0.0100
T2C0.0299
T3C0.0315
T4C0.0394
%
G90
G05
T1
X2.74Y-3.652
X2.76Y-3.892
X2.96Y-2.66
X2.98Y-2.82
X3.1475Y-2.5925
X3.355Y-3.642
X3.375Y-3.532
X3.41Y-4.127
X3.4594Y-3.9726
X3.475Y-3.757
X3.64Y-2.5
X3.64Y-2.8
X3.815Y-2.5
X3.95Y-3.307
X3.996Y-2.574
X4.225Y-3.407
X4.227Y-2.5
X4.227Y-2.8
X4.369Y-3.406
X4.65Y-4.002
T2
X4.1563Y-4.062
X4.55Y-4.062
X4.3373Y-3.236
X4.731Y-3.236
T3
X4.631Y-2.29
X4.7097Y-2.29
X2.692Y-3.04
X2.7707Y-3.04
X4.25Y-4.307
X4.35Y-4.307
X4.45Y-4.307
T4
X3.23Y-2.51
X3.23Y-2.61
X3.23Y-2.71
X3.23Y-2.81
X3.53Y-2.51
X3.53Y-2.61
X3.53Y-2.71
X3.53Y-2.81
X2.7395Y-2.513
X2.8395Y-2.513
X3.9625Y-4.2995
X3.9625Y-4.3995
X3.4825Y-4.2995
X3.4825Y-4.3995
X3.8747Y-3.012
X4.17Y-3.012
X3.87Y-2.5
X3.87Y-2.6
X3.87Y-2.7
X3.87Y-2.8
X4.17Y-2.5
X4.17Y-2.6
X4.17Y-2.7
X4.17Y-2.8
X3.965Y-4.037
X3.965Y-4.137
X4.3587Y-3.021
X4.654Y-3.021
X4.27Y-3.622
X4.27Y-3.922
X4.37Y-3.622
X4.37Y-3.922
X4.47Y-3.622
X4.47Y-3.922
X4.57Y-3.622
X4.57Y-3.922
X3.696Y-2.182
X3.696Y-2.282
X3.65Y-4.032
X3.65Y-4.132
X3.396Y-2.182
X3.396Y-2.282
X2.96Y-3.452
X2.96Y-3.552
X2.96Y-3.652
X2.96Y-3.752
X2.96Y-3.852
X2.96Y-3.952
X2.96Y-4.052
X3.26Y-3.452
X3.26Y-3.552
X3.26Y-3.652
X3.26Y-3.752
X3.26Y-3.852
X3.26Y-3.952
X3.26Y-4.052
X3.996Y-2.182
X3.996Y-2.282
X3.2347Y-3.012
X3.53Y-3.012
X2.796Y-2.182
X2.796Y-2.282
X3.555Y-3.402
X3.555Y-3.502
X3.555Y-3.602
X3.555Y-3.702
X3.855Y-3.402
X3.855Y-3.502
X3.855Y-3.602
X3.855Y-3.702
X3.096Y-2.182
X3.096Y-2.282
X4.396Y-2.182
X4.396Y-2.282
X4.453Y-2.501
X4.453Y-2.601
X4.453Y-2.701
X4.453Y-2.801
X4.753Y-2.501
X4.753Y-2.601
X4.753Y-2.701
X4.753Y-2.801
X2.691Y-3.372
X2.791Y-3.372
X2.71Y-4.151
X2.81Y-4.151
X2.9825Y-4.2995
X2.9825Y-4.3995
T0
M30
