G04 #@! TF.GenerationSoftware,KiCad,Pcbnew,(5.1.7)-1*
G04 #@! TF.CreationDate,2020-10-23T01:37:35-05:00*
G04 #@! TF.ProjectId,tent_map_amplitude,74656e74-5f6d-4617-905f-616d706c6974,1*
G04 #@! TF.SameCoordinates,Original*
G04 #@! TF.FileFunction,Soldermask,Bot*
G04 #@! TF.FilePolarity,Negative*
%FSLAX46Y46*%
G04 Gerber Fmt 4.6, Leading zero omitted, Abs format (unit mm)*
G04 Created by KiCad (PCBNEW (5.1.7)-1) date 2020-10-23 01:37:35*
%MOMM*%
%LPD*%
G01*
G04 APERTURE LIST*
%ADD10C,1.803200*%
%ADD11C,2.203200*%
%ADD12C,1.643200*%
G04 APERTURE END LIST*
D10*
X119627400Y-58166000D03*
G36*
G01*
X116725800Y-58966000D02*
X116725800Y-57366000D01*
G75*
G02*
X116827400Y-57264400I101600J0D01*
G01*
X118427400Y-57264400D01*
G75*
G02*
X118529000Y-57366000I0J-101600D01*
G01*
X118529000Y-58966000D01*
G75*
G02*
X118427400Y-59067600I-101600J0D01*
G01*
X116827400Y-59067600D01*
G75*
G02*
X116725800Y-58966000I0J101600D01*
G01*
G37*
G36*
G01*
X67475200Y-78016000D02*
X67475200Y-76416000D01*
G75*
G02*
X67576800Y-76314400I101600J0D01*
G01*
X69176800Y-76314400D01*
G75*
G02*
X69278400Y-76416000I0J-101600D01*
G01*
X69278400Y-78016000D01*
G75*
G02*
X69176800Y-78117600I-101600J0D01*
G01*
X67576800Y-78117600D01*
G75*
G02*
X67475200Y-78016000I0J101600D01*
G01*
G37*
X70376800Y-77216000D03*
D11*
X71018400Y-55422800D03*
X71018400Y-57962800D03*
X82162000Y-76504800D03*
X89662000Y-76504800D03*
X98418000Y-76504800D03*
X105918000Y-76504800D03*
X110711600Y-76733400D03*
X118211600Y-76733400D03*
D10*
X89662000Y-63754000D03*
X89662000Y-66294000D03*
X89662000Y-68834000D03*
X89662000Y-71374000D03*
X82042000Y-71374000D03*
X82042000Y-68834000D03*
X82042000Y-66294000D03*
G36*
G01*
X81140400Y-64554000D02*
X81140400Y-62954000D01*
G75*
G02*
X81242000Y-62852400I101600J0D01*
G01*
X82842000Y-62852400D01*
G75*
G02*
X82943600Y-62954000I0J-101600D01*
G01*
X82943600Y-64554000D01*
G75*
G02*
X82842000Y-64655600I-101600J0D01*
G01*
X81242000Y-64655600D01*
G75*
G02*
X81140400Y-64554000I0J101600D01*
G01*
G37*
X105918000Y-63500000D03*
X105918000Y-66040000D03*
X105918000Y-68580000D03*
X105918000Y-71120000D03*
X98298000Y-71120000D03*
X98298000Y-68580000D03*
X98298000Y-66040000D03*
G36*
G01*
X97396400Y-64300000D02*
X97396400Y-62700000D01*
G75*
G02*
X97498000Y-62598400I101600J0D01*
G01*
X99098000Y-62598400D01*
G75*
G02*
X99199600Y-62700000I0J-101600D01*
G01*
X99199600Y-64300000D01*
G75*
G02*
X99098000Y-64401600I-101600J0D01*
G01*
X97498000Y-64401600D01*
G75*
G02*
X97396400Y-64300000I0J101600D01*
G01*
G37*
X120726200Y-63525400D03*
X120726200Y-66065400D03*
X120726200Y-68605400D03*
X120726200Y-71145400D03*
X113106200Y-71145400D03*
X113106200Y-68605400D03*
X113106200Y-66065400D03*
G36*
G01*
X112204600Y-64325400D02*
X112204600Y-62725400D01*
G75*
G02*
X112306200Y-62623800I101600J0D01*
G01*
X113906200Y-62623800D01*
G75*
G02*
X114007800Y-62725400I0J-101600D01*
G01*
X114007800Y-64325400D01*
G75*
G02*
X113906200Y-64427000I-101600J0D01*
G01*
X112306200Y-64427000D01*
G75*
G02*
X112204600Y-64325400I0J101600D01*
G01*
G37*
X116078000Y-99618800D03*
X113538000Y-99618800D03*
X110998000Y-99618800D03*
X108458000Y-99618800D03*
X108458000Y-91998800D03*
X110998000Y-91998800D03*
X113538000Y-91998800D03*
G36*
G01*
X115278000Y-91097200D02*
X116878000Y-91097200D01*
G75*
G02*
X116979600Y-91198800I0J-101600D01*
G01*
X116979600Y-92798800D01*
G75*
G02*
X116878000Y-92900400I-101600J0D01*
G01*
X115278000Y-92900400D01*
G75*
G02*
X115176400Y-92798800I0J101600D01*
G01*
X115176400Y-91198800D01*
G75*
G02*
X115278000Y-91097200I101600J0D01*
G01*
G37*
X97917000Y-86410800D03*
X97917000Y-88950800D03*
X97917000Y-91490800D03*
X97917000Y-94030800D03*
X90297000Y-94030800D03*
X90297000Y-91490800D03*
X90297000Y-88950800D03*
G36*
G01*
X89395400Y-87210800D02*
X89395400Y-85610800D01*
G75*
G02*
X89497000Y-85509200I101600J0D01*
G01*
X91097000Y-85509200D01*
G75*
G02*
X91198600Y-85610800I0J-101600D01*
G01*
X91198600Y-87210800D01*
G75*
G02*
X91097000Y-87312400I-101600J0D01*
G01*
X89497000Y-87312400D01*
G75*
G02*
X89395400Y-87210800I0J101600D01*
G01*
G37*
X82804000Y-87680800D03*
X82804000Y-90220800D03*
X82804000Y-92760800D03*
X82804000Y-95300800D03*
X82804000Y-97840800D03*
X82804000Y-100380800D03*
X82804000Y-102920800D03*
X75184000Y-102920800D03*
X75184000Y-100380800D03*
X75184000Y-97840800D03*
X75184000Y-95300800D03*
X75184000Y-92760800D03*
X75184000Y-90220800D03*
G36*
G01*
X74282400Y-88480800D02*
X74282400Y-86880800D01*
G75*
G02*
X74384000Y-86779200I101600J0D01*
G01*
X75984000Y-86779200D01*
G75*
G02*
X76085600Y-86880800I0J-101600D01*
G01*
X76085600Y-88480800D01*
G75*
G02*
X75984000Y-88582400I-101600J0D01*
G01*
X74384000Y-88582400D01*
G75*
G02*
X74282400Y-88480800I0J101600D01*
G01*
G37*
D11*
X86258400Y-57962800D03*
X86258400Y-55422800D03*
X93878400Y-55422800D03*
X93878400Y-57962800D03*
X101498400Y-55422800D03*
X101498400Y-57962800D03*
X78638400Y-55422800D03*
X78638400Y-57962800D03*
X70891400Y-85648800D03*
X68351400Y-85648800D03*
X71374000Y-105435400D03*
X68834000Y-105435400D03*
X100711000Y-102539800D03*
X100711000Y-105079800D03*
X92710000Y-102412800D03*
X92710000Y-104952800D03*
X100647500Y-111747300D03*
X100647500Y-109207300D03*
X75755500Y-111747300D03*
X75755500Y-109207300D03*
X88455500Y-111747300D03*
X88455500Y-109207300D03*
X72123300Y-63830200D03*
X69583300Y-63830200D03*
X111658400Y-55422800D03*
X111658400Y-57962800D03*
D12*
X113030000Y-109397800D03*
X110490000Y-109397800D03*
X107950000Y-109397800D03*
D11*
X105570000Y-103174800D03*
G36*
G01*
X116671600Y-102174800D02*
X116671600Y-104174800D01*
G75*
G02*
X116570000Y-104276400I-101600J0D01*
G01*
X114570000Y-104276400D01*
G75*
G02*
X114468400Y-104174800I0J101600D01*
G01*
X114468400Y-102174800D01*
G75*
G02*
X114570000Y-102073200I101600J0D01*
G01*
X116570000Y-102073200D01*
G75*
G02*
X116671600Y-102174800I0J-101600D01*
G01*
G37*
X120167400Y-82194400D03*
G36*
G01*
X109065800Y-83194400D02*
X109065800Y-81194400D01*
G75*
G02*
X109167400Y-81092800I101600J0D01*
G01*
X111167400Y-81092800D01*
G75*
G02*
X111269000Y-81194400I0J-101600D01*
G01*
X111269000Y-83194400D01*
G75*
G02*
X111167400Y-83296000I-101600J0D01*
G01*
X109167400Y-83296000D01*
G75*
G02*
X109065800Y-83194400I0J101600D01*
G01*
G37*
M02*
