G04 #@! TF.GenerationSoftware,KiCad,Pcbnew,(5.1.7)-1*
G04 #@! TF.CreationDate,2020-10-23T01:37:35-05:00*
G04 #@! TF.ProjectId,tent_map_amplitude,74656e74-5f6d-4617-905f-616d706c6974,1*
G04 #@! TF.SameCoordinates,Original*
G04 #@! TF.FileFunction,Copper,L3,Inr*
G04 #@! TF.FilePolarity,Positive*
%FSLAX46Y46*%
G04 Gerber Fmt 4.6, Leading zero omitted, Abs format (unit mm)*
G04 Created by KiCad (PCBNEW (5.1.7)-1) date 2020-10-23 01:37:35*
%MOMM*%
%LPD*%
G01*
G04 APERTURE LIST*
G04 #@! TA.AperFunction,ComponentPad*
%ADD10C,1.600000*%
G04 #@! TD*
G04 #@! TA.AperFunction,ComponentPad*
%ADD11R,1.600000X1.600000*%
G04 #@! TD*
G04 #@! TA.AperFunction,ComponentPad*
%ADD12C,2.000000*%
G04 #@! TD*
G04 #@! TA.AperFunction,ComponentPad*
%ADD13C,1.440000*%
G04 #@! TD*
G04 #@! TA.AperFunction,ComponentPad*
%ADD14R,2.000000X2.000000*%
G04 #@! TD*
G04 #@! TA.AperFunction,ViaPad*
%ADD15C,0.457200*%
G04 #@! TD*
G04 #@! TA.AperFunction,Conductor*
%ADD16C,0.762000*%
G04 #@! TD*
G04 #@! TA.AperFunction,Conductor*
%ADD17C,0.254000*%
G04 #@! TD*
G04 #@! TA.AperFunction,Conductor*
%ADD18C,0.152400*%
G04 #@! TD*
G04 APERTURE END LIST*
D10*
X119627400Y-58166000D03*
D11*
X117627400Y-58166000D03*
X68376800Y-77216000D03*
D10*
X70376800Y-77216000D03*
D12*
X71018400Y-55422800D03*
X71018400Y-57962800D03*
X82162000Y-76504800D03*
X89662000Y-76504800D03*
X98418000Y-76504800D03*
X105918000Y-76504800D03*
X110711600Y-76733400D03*
X118211600Y-76733400D03*
D10*
X89662000Y-63754000D03*
X89662000Y-66294000D03*
X89662000Y-68834000D03*
X89662000Y-71374000D03*
X82042000Y-71374000D03*
X82042000Y-68834000D03*
X82042000Y-66294000D03*
D11*
X82042000Y-63754000D03*
D10*
X105918000Y-63500000D03*
X105918000Y-66040000D03*
X105918000Y-68580000D03*
X105918000Y-71120000D03*
X98298000Y-71120000D03*
X98298000Y-68580000D03*
X98298000Y-66040000D03*
D11*
X98298000Y-63500000D03*
D10*
X120726200Y-63525400D03*
X120726200Y-66065400D03*
X120726200Y-68605400D03*
X120726200Y-71145400D03*
X113106200Y-71145400D03*
X113106200Y-68605400D03*
X113106200Y-66065400D03*
D11*
X113106200Y-63525400D03*
D10*
X116078000Y-99618800D03*
X113538000Y-99618800D03*
X110998000Y-99618800D03*
X108458000Y-99618800D03*
X108458000Y-91998800D03*
X110998000Y-91998800D03*
X113538000Y-91998800D03*
D11*
X116078000Y-91998800D03*
D10*
X97917000Y-86410800D03*
X97917000Y-88950800D03*
X97917000Y-91490800D03*
X97917000Y-94030800D03*
X90297000Y-94030800D03*
X90297000Y-91490800D03*
X90297000Y-88950800D03*
D11*
X90297000Y-86410800D03*
D10*
X82804000Y-87680800D03*
X82804000Y-90220800D03*
X82804000Y-92760800D03*
X82804000Y-95300800D03*
X82804000Y-97840800D03*
X82804000Y-100380800D03*
X82804000Y-102920800D03*
X75184000Y-102920800D03*
X75184000Y-100380800D03*
X75184000Y-97840800D03*
X75184000Y-95300800D03*
X75184000Y-92760800D03*
X75184000Y-90220800D03*
D11*
X75184000Y-87680800D03*
D12*
X86258400Y-57962800D03*
X86258400Y-55422800D03*
X93878400Y-55422800D03*
X93878400Y-57962800D03*
X101498400Y-55422800D03*
X101498400Y-57962800D03*
X78638400Y-55422800D03*
X78638400Y-57962800D03*
X70891400Y-85648800D03*
X68351400Y-85648800D03*
X71374000Y-105435400D03*
X68834000Y-105435400D03*
X100711000Y-102539800D03*
X100711000Y-105079800D03*
X92710000Y-102412800D03*
X92710000Y-104952800D03*
X100647500Y-111747300D03*
X100647500Y-109207300D03*
X75755500Y-111747300D03*
X75755500Y-109207300D03*
X88455500Y-111747300D03*
X88455500Y-109207300D03*
X72123300Y-63830200D03*
X69583300Y-63830200D03*
X111658400Y-55422800D03*
X111658400Y-57962800D03*
D13*
X113030000Y-109397800D03*
X110490000Y-109397800D03*
X107950000Y-109397800D03*
D12*
X105570000Y-103174800D03*
D14*
X115570000Y-103174800D03*
D12*
X120167400Y-82194400D03*
D14*
X110167400Y-82194400D03*
D15*
X118110000Y-101650800D03*
X70104000Y-98856800D03*
X69596000Y-92760800D03*
X107365800Y-71120000D03*
X107365800Y-63500000D03*
X92456000Y-63500000D03*
X92456000Y-71120000D03*
X75692000Y-71628000D03*
X75184000Y-67564000D03*
X86614000Y-104825800D03*
X85217000Y-92506800D03*
X85725000Y-89712800D03*
X107315000Y-86537800D03*
X88265000Y-95427800D03*
X100330000Y-83997800D03*
X87868001Y-100904799D03*
X110972600Y-86512400D03*
X96901000Y-63500000D03*
X79946500Y-65849500D03*
X101498400Y-65379600D03*
D16*
X83431841Y-86372799D02*
X76492001Y-86372799D01*
X86461601Y-89402559D02*
X83431841Y-86372799D01*
X86461601Y-92131243D02*
X86461601Y-89402559D01*
X76492001Y-86372799D02*
X75184000Y-87680800D01*
X89669159Y-95338801D02*
X86461601Y-92131243D01*
X107657999Y-95338801D02*
X89669159Y-95338801D01*
X110998000Y-91998800D02*
X107657999Y-95338801D01*
D17*
X117106799Y-67525999D02*
X103720999Y-67525999D01*
X120726200Y-71145400D02*
X117106799Y-67525999D01*
X101574600Y-65379600D02*
X101498400Y-65379600D01*
X103720999Y-67525999D02*
X101574600Y-65379600D01*
D16*
X104609999Y-62191999D02*
X105918000Y-63500000D01*
X75247599Y-62191999D02*
X104609999Y-62191999D01*
X71018400Y-57962800D02*
X75247599Y-62191999D01*
D17*
X69976148Y-54152813D02*
X69748413Y-54380548D01*
X69569482Y-54648337D01*
X69446232Y-54945888D01*
X69383400Y-55261767D01*
X69383400Y-55583833D01*
X69446232Y-55899712D01*
X69569482Y-56197263D01*
X69748413Y-56465052D01*
X69976148Y-56692787D01*
X69976167Y-56692800D01*
X69976148Y-56692813D01*
X69748413Y-56920548D01*
X69569482Y-57188337D01*
X69446232Y-57485888D01*
X69383400Y-57801767D01*
X69383400Y-58123833D01*
X69446232Y-58439712D01*
X69569482Y-58737263D01*
X69748413Y-59005052D01*
X69976148Y-59232787D01*
X70243937Y-59411718D01*
X70541488Y-59534968D01*
X70857367Y-59597800D01*
X71179433Y-59597800D01*
X71210400Y-59591640D01*
X74493891Y-62875132D01*
X74525703Y-62913895D01*
X74564464Y-62945705D01*
X74680409Y-63040859D01*
X74856912Y-63135201D01*
X75048428Y-63193297D01*
X75247599Y-63212914D01*
X75297501Y-63207999D01*
X80605445Y-63207999D01*
X80607000Y-63468250D01*
X80765750Y-63627000D01*
X81915000Y-63627000D01*
X81915000Y-63607000D01*
X82169000Y-63607000D01*
X82169000Y-63627000D01*
X83318250Y-63627000D01*
X83477000Y-63468250D01*
X83478555Y-63207999D01*
X88334929Y-63207999D01*
X88282147Y-63335426D01*
X88227000Y-63612665D01*
X88227000Y-63895335D01*
X88282147Y-64172574D01*
X88390320Y-64433727D01*
X88547363Y-64668759D01*
X88747241Y-64868637D01*
X88979759Y-65024000D01*
X88747241Y-65179363D01*
X88547363Y-65379241D01*
X88390320Y-65614273D01*
X88282147Y-65875426D01*
X88227000Y-66152665D01*
X88227000Y-66435335D01*
X88282147Y-66712574D01*
X88390320Y-66973727D01*
X88547363Y-67208759D01*
X88747241Y-67408637D01*
X88979759Y-67564000D01*
X88747241Y-67719363D01*
X88547363Y-67919241D01*
X88390320Y-68154273D01*
X88282147Y-68415426D01*
X88227000Y-68692665D01*
X88227000Y-68975335D01*
X88282147Y-69252574D01*
X88390320Y-69513727D01*
X88547363Y-69748759D01*
X88747241Y-69948637D01*
X88979759Y-70104000D01*
X88747241Y-70259363D01*
X88547363Y-70459241D01*
X88390320Y-70694273D01*
X88282147Y-70955426D01*
X88227000Y-71232665D01*
X88227000Y-71515335D01*
X88282147Y-71792574D01*
X88390320Y-72053727D01*
X88547363Y-72288759D01*
X88747241Y-72488637D01*
X88982273Y-72645680D01*
X89243426Y-72753853D01*
X89520665Y-72809000D01*
X89803335Y-72809000D01*
X90080574Y-72753853D01*
X90341727Y-72645680D01*
X90576759Y-72488637D01*
X90776637Y-72288759D01*
X90933680Y-72053727D01*
X91041853Y-71792574D01*
X91097000Y-71515335D01*
X91097000Y-71232665D01*
X91057671Y-71034943D01*
X91592400Y-71034943D01*
X91592400Y-71205057D01*
X91625587Y-71371903D01*
X91690687Y-71529068D01*
X91785198Y-71670513D01*
X91905487Y-71790802D01*
X92046932Y-71885313D01*
X92204097Y-71950413D01*
X92370943Y-71983600D01*
X92541057Y-71983600D01*
X92707903Y-71950413D01*
X92865068Y-71885313D01*
X93006513Y-71790802D01*
X93126802Y-71670513D01*
X93221313Y-71529068D01*
X93286413Y-71371903D01*
X93319600Y-71205057D01*
X93319600Y-71034943D01*
X93286413Y-70868097D01*
X93221313Y-70710932D01*
X93126802Y-70569487D01*
X93006513Y-70449198D01*
X92865068Y-70354687D01*
X92707903Y-70289587D01*
X92541057Y-70256400D01*
X92370943Y-70256400D01*
X92204097Y-70289587D01*
X92046932Y-70354687D01*
X91905487Y-70449198D01*
X91785198Y-70569487D01*
X91690687Y-70710932D01*
X91625587Y-70868097D01*
X91592400Y-71034943D01*
X91057671Y-71034943D01*
X91041853Y-70955426D01*
X90933680Y-70694273D01*
X90776637Y-70459241D01*
X90576759Y-70259363D01*
X90344241Y-70104000D01*
X90576759Y-69948637D01*
X90776637Y-69748759D01*
X90933680Y-69513727D01*
X91041853Y-69252574D01*
X91097000Y-68975335D01*
X91097000Y-68692665D01*
X91041853Y-68415426D01*
X90933680Y-68154273D01*
X90776637Y-67919241D01*
X90576759Y-67719363D01*
X90344241Y-67564000D01*
X90576759Y-67408637D01*
X90776637Y-67208759D01*
X90933680Y-66973727D01*
X91041853Y-66712574D01*
X91097000Y-66435335D01*
X91097000Y-66152665D01*
X91041853Y-65875426D01*
X90933680Y-65614273D01*
X90776637Y-65379241D01*
X90576759Y-65179363D01*
X90344241Y-65024000D01*
X90576759Y-64868637D01*
X90776637Y-64668759D01*
X90933680Y-64433727D01*
X91041853Y-64172574D01*
X91097000Y-63895335D01*
X91097000Y-63612665D01*
X91041853Y-63335426D01*
X90989071Y-63207999D01*
X91642196Y-63207999D01*
X91625587Y-63248097D01*
X91592400Y-63414943D01*
X91592400Y-63585057D01*
X91625587Y-63751903D01*
X91690687Y-63909068D01*
X91785198Y-64050513D01*
X91905487Y-64170802D01*
X92046932Y-64265313D01*
X92204097Y-64330413D01*
X92370943Y-64363600D01*
X92541057Y-64363600D01*
X92707903Y-64330413D01*
X92781326Y-64300000D01*
X96859928Y-64300000D01*
X96872188Y-64424482D01*
X96908498Y-64544180D01*
X96967463Y-64654494D01*
X97046815Y-64751185D01*
X97143506Y-64830537D01*
X97253820Y-64889502D01*
X97373518Y-64925812D01*
X97381961Y-64926643D01*
X97183363Y-65125241D01*
X97026320Y-65360273D01*
X96918147Y-65621426D01*
X96863000Y-65898665D01*
X96863000Y-66181335D01*
X96918147Y-66458574D01*
X97026320Y-66719727D01*
X97183363Y-66954759D01*
X97383241Y-67154637D01*
X97615759Y-67310000D01*
X97383241Y-67465363D01*
X97183363Y-67665241D01*
X97026320Y-67900273D01*
X96918147Y-68161426D01*
X96863000Y-68438665D01*
X96863000Y-68721335D01*
X96918147Y-68998574D01*
X97026320Y-69259727D01*
X97183363Y-69494759D01*
X97383241Y-69694637D01*
X97615759Y-69850000D01*
X97383241Y-70005363D01*
X97183363Y-70205241D01*
X97026320Y-70440273D01*
X96918147Y-70701426D01*
X96863000Y-70978665D01*
X96863000Y-71261335D01*
X96918147Y-71538574D01*
X97026320Y-71799727D01*
X97183363Y-72034759D01*
X97383241Y-72234637D01*
X97618273Y-72391680D01*
X97879426Y-72499853D01*
X98156665Y-72555000D01*
X98439335Y-72555000D01*
X98716574Y-72499853D01*
X98977727Y-72391680D01*
X99212759Y-72234637D01*
X99412637Y-72034759D01*
X99569680Y-71799727D01*
X99677853Y-71538574D01*
X99733000Y-71261335D01*
X99733000Y-70978665D01*
X99677853Y-70701426D01*
X99569680Y-70440273D01*
X99412637Y-70205241D01*
X99212759Y-70005363D01*
X98980241Y-69850000D01*
X99212759Y-69694637D01*
X99412637Y-69494759D01*
X99569680Y-69259727D01*
X99677853Y-68998574D01*
X99733000Y-68721335D01*
X99733000Y-68438665D01*
X99677853Y-68161426D01*
X99569680Y-67900273D01*
X99412637Y-67665241D01*
X99212759Y-67465363D01*
X98980241Y-67310000D01*
X99212759Y-67154637D01*
X99412637Y-66954759D01*
X99569680Y-66719727D01*
X99677853Y-66458574D01*
X99733000Y-66181335D01*
X99733000Y-65898665D01*
X99677853Y-65621426D01*
X99569680Y-65360273D01*
X99412637Y-65125241D01*
X99214039Y-64926643D01*
X99222482Y-64925812D01*
X99342180Y-64889502D01*
X99452494Y-64830537D01*
X99549185Y-64751185D01*
X99628537Y-64654494D01*
X99687502Y-64544180D01*
X99723812Y-64424482D01*
X99736072Y-64300000D01*
X99733000Y-63785750D01*
X99574250Y-63627000D01*
X98425000Y-63627000D01*
X98425000Y-63647000D01*
X98171000Y-63647000D01*
X98171000Y-63627000D01*
X97021750Y-63627000D01*
X96863000Y-63785750D01*
X96859928Y-64300000D01*
X92781326Y-64300000D01*
X92865068Y-64265313D01*
X93006513Y-64170802D01*
X93126802Y-64050513D01*
X93221313Y-63909068D01*
X93286413Y-63751903D01*
X93319600Y-63585057D01*
X93319600Y-63414943D01*
X93286413Y-63248097D01*
X93269804Y-63207999D01*
X96862963Y-63207999D01*
X96863000Y-63214250D01*
X97021750Y-63373000D01*
X98171000Y-63373000D01*
X98171000Y-63353000D01*
X98425000Y-63353000D01*
X98425000Y-63373000D01*
X99574250Y-63373000D01*
X99733000Y-63214250D01*
X99733037Y-63207999D01*
X104189159Y-63207999D01*
X104483000Y-63501840D01*
X104483000Y-63641335D01*
X104538147Y-63918574D01*
X104646320Y-64179727D01*
X104803363Y-64414759D01*
X105003241Y-64614637D01*
X105235759Y-64770000D01*
X105003241Y-64925363D01*
X104803363Y-65125241D01*
X104646320Y-65360273D01*
X104538147Y-65621426D01*
X104483000Y-65898665D01*
X104483000Y-66181335D01*
X104538147Y-66458574D01*
X104646320Y-66719727D01*
X104675902Y-66763999D01*
X104036629Y-66763999D01*
X102278245Y-65005615D01*
X102263713Y-64970532D01*
X102169202Y-64829087D01*
X102048913Y-64708798D01*
X101907468Y-64614287D01*
X101750303Y-64549187D01*
X101583457Y-64516000D01*
X101413343Y-64516000D01*
X101246497Y-64549187D01*
X101089332Y-64614287D01*
X100947887Y-64708798D01*
X100827598Y-64829087D01*
X100733087Y-64970532D01*
X100667987Y-65127697D01*
X100634800Y-65294543D01*
X100634800Y-65464657D01*
X100667987Y-65631503D01*
X100733087Y-65788668D01*
X100827598Y-65930113D01*
X100947887Y-66050402D01*
X101089332Y-66144913D01*
X101246497Y-66210013D01*
X101347467Y-66230097D01*
X103155715Y-68038345D01*
X103179577Y-68067421D01*
X103236959Y-68114513D01*
X103295606Y-68162644D01*
X103340848Y-68186826D01*
X103427984Y-68233401D01*
X103571621Y-68276973D01*
X103683573Y-68287999D01*
X103683576Y-68287999D01*
X103720999Y-68291685D01*
X103758422Y-68287999D01*
X104512970Y-68287999D01*
X104483000Y-68438665D01*
X104483000Y-68721335D01*
X104538147Y-68998574D01*
X104646320Y-69259727D01*
X104803363Y-69494759D01*
X105003241Y-69694637D01*
X105235759Y-69850000D01*
X105003241Y-70005363D01*
X104803363Y-70205241D01*
X104646320Y-70440273D01*
X104538147Y-70701426D01*
X104483000Y-70978665D01*
X104483000Y-71261335D01*
X104538147Y-71538574D01*
X104646320Y-71799727D01*
X104803363Y-72034759D01*
X105003241Y-72234637D01*
X105238273Y-72391680D01*
X105499426Y-72499853D01*
X105776665Y-72555000D01*
X106059335Y-72555000D01*
X106336574Y-72499853D01*
X106597727Y-72391680D01*
X106832759Y-72234637D01*
X107032637Y-72034759D01*
X107094393Y-71942334D01*
X107113897Y-71950413D01*
X107280743Y-71983600D01*
X107450857Y-71983600D01*
X107617703Y-71950413D01*
X107774868Y-71885313D01*
X107916313Y-71790802D01*
X108036602Y-71670513D01*
X108131113Y-71529068D01*
X108196213Y-71371903D01*
X108229400Y-71205057D01*
X108229400Y-71034943D01*
X108196213Y-70868097D01*
X108131113Y-70710932D01*
X108036602Y-70569487D01*
X107916313Y-70449198D01*
X107774868Y-70354687D01*
X107617703Y-70289587D01*
X107450857Y-70256400D01*
X107280743Y-70256400D01*
X107113897Y-70289587D01*
X107094393Y-70297666D01*
X107032637Y-70205241D01*
X106832759Y-70005363D01*
X106600241Y-69850000D01*
X106832759Y-69694637D01*
X107032637Y-69494759D01*
X107189680Y-69259727D01*
X107297853Y-68998574D01*
X107353000Y-68721335D01*
X107353000Y-68438665D01*
X107323030Y-68287999D01*
X111706222Y-68287999D01*
X111671200Y-68464065D01*
X111671200Y-68746735D01*
X111726347Y-69023974D01*
X111834520Y-69285127D01*
X111991563Y-69520159D01*
X112191441Y-69720037D01*
X112423959Y-69875400D01*
X112191441Y-70030763D01*
X111991563Y-70230641D01*
X111834520Y-70465673D01*
X111726347Y-70726826D01*
X111671200Y-71004065D01*
X111671200Y-71286735D01*
X111726347Y-71563974D01*
X111834520Y-71825127D01*
X111991563Y-72060159D01*
X112191441Y-72260037D01*
X112426473Y-72417080D01*
X112687626Y-72525253D01*
X112964865Y-72580400D01*
X113247535Y-72580400D01*
X113524774Y-72525253D01*
X113785927Y-72417080D01*
X114020959Y-72260037D01*
X114220837Y-72060159D01*
X114377880Y-71825127D01*
X114486053Y-71563974D01*
X114541200Y-71286735D01*
X114541200Y-71004065D01*
X114486053Y-70726826D01*
X114377880Y-70465673D01*
X114220837Y-70230641D01*
X114020959Y-70030763D01*
X113788441Y-69875400D01*
X114020959Y-69720037D01*
X114220837Y-69520159D01*
X114377880Y-69285127D01*
X114486053Y-69023974D01*
X114541200Y-68746735D01*
X114541200Y-68464065D01*
X114506178Y-68287999D01*
X116791169Y-68287999D01*
X119327043Y-70823874D01*
X119291200Y-71004065D01*
X119291200Y-71286735D01*
X119346347Y-71563974D01*
X119454520Y-71825127D01*
X119611563Y-72060159D01*
X119811441Y-72260037D01*
X120046473Y-72417080D01*
X120307626Y-72525253D01*
X120584865Y-72580400D01*
X120867535Y-72580400D01*
X121144774Y-72525253D01*
X121405927Y-72417080D01*
X121640959Y-72260037D01*
X121840837Y-72060159D01*
X121997880Y-71825127D01*
X122106053Y-71563974D01*
X122161200Y-71286735D01*
X122161200Y-71004065D01*
X122106053Y-70726826D01*
X121997880Y-70465673D01*
X121840837Y-70230641D01*
X121640959Y-70030763D01*
X121408441Y-69875400D01*
X121640959Y-69720037D01*
X121840837Y-69520159D01*
X121997880Y-69285127D01*
X122106053Y-69023974D01*
X122161200Y-68746735D01*
X122161200Y-68464065D01*
X122106053Y-68186826D01*
X121997880Y-67925673D01*
X121840837Y-67690641D01*
X121640959Y-67490763D01*
X121408441Y-67335400D01*
X121640959Y-67180037D01*
X121840837Y-66980159D01*
X121997880Y-66745127D01*
X122106053Y-66483974D01*
X122161200Y-66206735D01*
X122161200Y-65924065D01*
X122106053Y-65646826D01*
X121997880Y-65385673D01*
X121840837Y-65150641D01*
X121640959Y-64950763D01*
X121408441Y-64795400D01*
X121640959Y-64640037D01*
X121840837Y-64440159D01*
X121997880Y-64205127D01*
X122106053Y-63943974D01*
X122161200Y-63666735D01*
X122161200Y-63384065D01*
X122106053Y-63106826D01*
X121997880Y-62845673D01*
X121840837Y-62610641D01*
X121640959Y-62410763D01*
X121405927Y-62253720D01*
X121144774Y-62145547D01*
X120867535Y-62090400D01*
X120584865Y-62090400D01*
X120307626Y-62145547D01*
X120046473Y-62253720D01*
X119811441Y-62410763D01*
X119611563Y-62610641D01*
X119454520Y-62845673D01*
X119346347Y-63106826D01*
X119291200Y-63384065D01*
X119291200Y-63666735D01*
X119346347Y-63943974D01*
X119454520Y-64205127D01*
X119611563Y-64440159D01*
X119811441Y-64640037D01*
X120043959Y-64795400D01*
X119811441Y-64950763D01*
X119611563Y-65150641D01*
X119454520Y-65385673D01*
X119346347Y-65646826D01*
X119291200Y-65924065D01*
X119291200Y-66206735D01*
X119346347Y-66483974D01*
X119454520Y-66745127D01*
X119611563Y-66980159D01*
X119811441Y-67180037D01*
X120043959Y-67335400D01*
X119811441Y-67490763D01*
X119611563Y-67690641D01*
X119454520Y-67925673D01*
X119346347Y-68186826D01*
X119291200Y-68464065D01*
X119291200Y-68632770D01*
X117672083Y-67013653D01*
X117648221Y-66984577D01*
X117532191Y-66889354D01*
X117399814Y-66818597D01*
X117256177Y-66775025D01*
X117144225Y-66763999D01*
X117144222Y-66763999D01*
X117106799Y-66760313D01*
X117069376Y-66763999D01*
X114365270Y-66763999D01*
X114377880Y-66745127D01*
X114486053Y-66483974D01*
X114541200Y-66206735D01*
X114541200Y-65924065D01*
X114486053Y-65646826D01*
X114377880Y-65385673D01*
X114220837Y-65150641D01*
X114022239Y-64952043D01*
X114030682Y-64951212D01*
X114150380Y-64914902D01*
X114260694Y-64855937D01*
X114357385Y-64776585D01*
X114436737Y-64679894D01*
X114495702Y-64569580D01*
X114532012Y-64449882D01*
X114544272Y-64325400D01*
X114541200Y-63811150D01*
X114382450Y-63652400D01*
X113233200Y-63652400D01*
X113233200Y-63672400D01*
X112979200Y-63672400D01*
X112979200Y-63652400D01*
X111829950Y-63652400D01*
X111671200Y-63811150D01*
X111668128Y-64325400D01*
X111680388Y-64449882D01*
X111716698Y-64569580D01*
X111775663Y-64679894D01*
X111855015Y-64776585D01*
X111951706Y-64855937D01*
X112062020Y-64914902D01*
X112181718Y-64951212D01*
X112190161Y-64952043D01*
X111991563Y-65150641D01*
X111834520Y-65385673D01*
X111726347Y-65646826D01*
X111671200Y-65924065D01*
X111671200Y-66206735D01*
X111726347Y-66483974D01*
X111834520Y-66745127D01*
X111847130Y-66763999D01*
X107160098Y-66763999D01*
X107189680Y-66719727D01*
X107297853Y-66458574D01*
X107353000Y-66181335D01*
X107353000Y-65898665D01*
X107297853Y-65621426D01*
X107189680Y-65360273D01*
X107032637Y-65125241D01*
X106832759Y-64925363D01*
X106600241Y-64770000D01*
X106832759Y-64614637D01*
X107032637Y-64414759D01*
X107094393Y-64322334D01*
X107113897Y-64330413D01*
X107280743Y-64363600D01*
X107450857Y-64363600D01*
X107617703Y-64330413D01*
X107774868Y-64265313D01*
X107916313Y-64170802D01*
X108036602Y-64050513D01*
X108131113Y-63909068D01*
X108196213Y-63751903D01*
X108229400Y-63585057D01*
X108229400Y-63414943D01*
X108196213Y-63248097D01*
X108131113Y-63090932D01*
X108036602Y-62949487D01*
X107916313Y-62829198D01*
X107774868Y-62734687D01*
X107752448Y-62725400D01*
X111668128Y-62725400D01*
X111671200Y-63239650D01*
X111829950Y-63398400D01*
X112979200Y-63398400D01*
X112979200Y-62249150D01*
X113233200Y-62249150D01*
X113233200Y-63398400D01*
X114382450Y-63398400D01*
X114541200Y-63239650D01*
X114544272Y-62725400D01*
X114532012Y-62600918D01*
X114495702Y-62481220D01*
X114436737Y-62370906D01*
X114357385Y-62274215D01*
X114260694Y-62194863D01*
X114150380Y-62135898D01*
X114030682Y-62099588D01*
X113906200Y-62087328D01*
X113391950Y-62090400D01*
X113233200Y-62249150D01*
X112979200Y-62249150D01*
X112820450Y-62090400D01*
X112306200Y-62087328D01*
X112181718Y-62099588D01*
X112062020Y-62135898D01*
X111951706Y-62194863D01*
X111855015Y-62274215D01*
X111775663Y-62370906D01*
X111716698Y-62481220D01*
X111680388Y-62600918D01*
X111668128Y-62725400D01*
X107752448Y-62725400D01*
X107617703Y-62669587D01*
X107450857Y-62636400D01*
X107280743Y-62636400D01*
X107113897Y-62669587D01*
X107094393Y-62677666D01*
X107032637Y-62585241D01*
X106832759Y-62385363D01*
X106597727Y-62228320D01*
X106336574Y-62120147D01*
X106059335Y-62065000D01*
X105919840Y-62065000D01*
X105363711Y-61508871D01*
X105331895Y-61470103D01*
X105177189Y-61343139D01*
X105000686Y-61248797D01*
X104809170Y-61190701D01*
X104659901Y-61175999D01*
X104609999Y-61171084D01*
X104560097Y-61175999D01*
X75668440Y-61175999D01*
X72647240Y-58154800D01*
X72653400Y-58123833D01*
X72653400Y-57801767D01*
X72590568Y-57485888D01*
X72467318Y-57188337D01*
X72288387Y-56920548D01*
X72060652Y-56692813D01*
X72060633Y-56692800D01*
X72060652Y-56692787D01*
X72288387Y-56465052D01*
X72467318Y-56197263D01*
X72590568Y-55899712D01*
X72653400Y-55583833D01*
X72653400Y-55261767D01*
X72590568Y-54945888D01*
X72467318Y-54648337D01*
X72288387Y-54380548D01*
X72060652Y-54152813D01*
X71869366Y-54025000D01*
X77787434Y-54025000D01*
X77596148Y-54152813D01*
X77368413Y-54380548D01*
X77189482Y-54648337D01*
X77066232Y-54945888D01*
X77003400Y-55261767D01*
X77003400Y-55583833D01*
X77066232Y-55899712D01*
X77189482Y-56197263D01*
X77368413Y-56465052D01*
X77596148Y-56692787D01*
X77596167Y-56692800D01*
X77596148Y-56692813D01*
X77368413Y-56920548D01*
X77189482Y-57188337D01*
X77066232Y-57485888D01*
X77003400Y-57801767D01*
X77003400Y-58123833D01*
X77066232Y-58439712D01*
X77189482Y-58737263D01*
X77368413Y-59005052D01*
X77596148Y-59232787D01*
X77863937Y-59411718D01*
X78161488Y-59534968D01*
X78477367Y-59597800D01*
X78799433Y-59597800D01*
X79115312Y-59534968D01*
X79412863Y-59411718D01*
X79680652Y-59232787D01*
X79908387Y-59005052D01*
X80087318Y-58737263D01*
X80210568Y-58439712D01*
X80273400Y-58123833D01*
X80273400Y-57801767D01*
X80210568Y-57485888D01*
X80087318Y-57188337D01*
X79908387Y-56920548D01*
X79680652Y-56692813D01*
X79680633Y-56692800D01*
X79680652Y-56692787D01*
X79908387Y-56465052D01*
X80087318Y-56197263D01*
X80210568Y-55899712D01*
X80273400Y-55583833D01*
X80273400Y-55261767D01*
X80210568Y-54945888D01*
X80087318Y-54648337D01*
X79908387Y-54380548D01*
X79680652Y-54152813D01*
X79489366Y-54025000D01*
X85407434Y-54025000D01*
X85216148Y-54152813D01*
X84988413Y-54380548D01*
X84809482Y-54648337D01*
X84686232Y-54945888D01*
X84623400Y-55261767D01*
X84623400Y-55583833D01*
X84686232Y-55899712D01*
X84809482Y-56197263D01*
X84988413Y-56465052D01*
X85216148Y-56692787D01*
X85216167Y-56692800D01*
X85216148Y-56692813D01*
X84988413Y-56920548D01*
X84809482Y-57188337D01*
X84686232Y-57485888D01*
X84623400Y-57801767D01*
X84623400Y-58123833D01*
X84686232Y-58439712D01*
X84809482Y-58737263D01*
X84988413Y-59005052D01*
X85216148Y-59232787D01*
X85483937Y-59411718D01*
X85781488Y-59534968D01*
X86097367Y-59597800D01*
X86419433Y-59597800D01*
X86735312Y-59534968D01*
X87032863Y-59411718D01*
X87300652Y-59232787D01*
X87528387Y-59005052D01*
X87707318Y-58737263D01*
X87830568Y-58439712D01*
X87893400Y-58123833D01*
X87893400Y-57801767D01*
X87830568Y-57485888D01*
X87707318Y-57188337D01*
X87528387Y-56920548D01*
X87300652Y-56692813D01*
X87300633Y-56692800D01*
X87300652Y-56692787D01*
X87528387Y-56465052D01*
X87707318Y-56197263D01*
X87830568Y-55899712D01*
X87893400Y-55583833D01*
X87893400Y-55261767D01*
X87830568Y-54945888D01*
X87707318Y-54648337D01*
X87528387Y-54380548D01*
X87300652Y-54152813D01*
X87109366Y-54025000D01*
X93027434Y-54025000D01*
X92836148Y-54152813D01*
X92608413Y-54380548D01*
X92429482Y-54648337D01*
X92306232Y-54945888D01*
X92243400Y-55261767D01*
X92243400Y-55583833D01*
X92306232Y-55899712D01*
X92429482Y-56197263D01*
X92608413Y-56465052D01*
X92836148Y-56692787D01*
X92836167Y-56692800D01*
X92836148Y-56692813D01*
X92608413Y-56920548D01*
X92429482Y-57188337D01*
X92306232Y-57485888D01*
X92243400Y-57801767D01*
X92243400Y-58123833D01*
X92306232Y-58439712D01*
X92429482Y-58737263D01*
X92608413Y-59005052D01*
X92836148Y-59232787D01*
X93103937Y-59411718D01*
X93401488Y-59534968D01*
X93717367Y-59597800D01*
X94039433Y-59597800D01*
X94355312Y-59534968D01*
X94652863Y-59411718D01*
X94920652Y-59232787D01*
X95148387Y-59005052D01*
X95327318Y-58737263D01*
X95450568Y-58439712D01*
X95513400Y-58123833D01*
X95513400Y-57801767D01*
X95450568Y-57485888D01*
X95327318Y-57188337D01*
X95148387Y-56920548D01*
X94920652Y-56692813D01*
X94920633Y-56692800D01*
X94920652Y-56692787D01*
X95148387Y-56465052D01*
X95327318Y-56197263D01*
X95450568Y-55899712D01*
X95513400Y-55583833D01*
X95513400Y-55261767D01*
X95450568Y-54945888D01*
X95327318Y-54648337D01*
X95148387Y-54380548D01*
X94920652Y-54152813D01*
X94729366Y-54025000D01*
X100647434Y-54025000D01*
X100456148Y-54152813D01*
X100228413Y-54380548D01*
X100049482Y-54648337D01*
X99926232Y-54945888D01*
X99863400Y-55261767D01*
X99863400Y-55583833D01*
X99926232Y-55899712D01*
X100049482Y-56197263D01*
X100228413Y-56465052D01*
X100456148Y-56692787D01*
X100456167Y-56692800D01*
X100456148Y-56692813D01*
X100228413Y-56920548D01*
X100049482Y-57188337D01*
X99926232Y-57485888D01*
X99863400Y-57801767D01*
X99863400Y-58123833D01*
X99926232Y-58439712D01*
X100049482Y-58737263D01*
X100228413Y-59005052D01*
X100456148Y-59232787D01*
X100723937Y-59411718D01*
X101021488Y-59534968D01*
X101337367Y-59597800D01*
X101659433Y-59597800D01*
X101975312Y-59534968D01*
X102272863Y-59411718D01*
X102540652Y-59232787D01*
X102768387Y-59005052D01*
X102947318Y-58737263D01*
X103070568Y-58439712D01*
X103133400Y-58123833D01*
X103133400Y-57801767D01*
X103070568Y-57485888D01*
X102947318Y-57188337D01*
X102768387Y-56920548D01*
X102540652Y-56692813D01*
X102540633Y-56692800D01*
X102540652Y-56692787D01*
X102768387Y-56465052D01*
X102947318Y-56197263D01*
X103070568Y-55899712D01*
X103133400Y-55583833D01*
X103133400Y-55261767D01*
X103070568Y-54945888D01*
X102947318Y-54648337D01*
X102768387Y-54380548D01*
X102540652Y-54152813D01*
X102349366Y-54025000D01*
X110807434Y-54025000D01*
X110616148Y-54152813D01*
X110388413Y-54380548D01*
X110209482Y-54648337D01*
X110086232Y-54945888D01*
X110023400Y-55261767D01*
X110023400Y-55583833D01*
X110086232Y-55899712D01*
X110209482Y-56197263D01*
X110388413Y-56465052D01*
X110616148Y-56692787D01*
X110616167Y-56692800D01*
X110616148Y-56692813D01*
X110388413Y-56920548D01*
X110209482Y-57188337D01*
X110086232Y-57485888D01*
X110023400Y-57801767D01*
X110023400Y-58123833D01*
X110086232Y-58439712D01*
X110209482Y-58737263D01*
X110388413Y-59005052D01*
X110616148Y-59232787D01*
X110883937Y-59411718D01*
X111181488Y-59534968D01*
X111497367Y-59597800D01*
X111819433Y-59597800D01*
X112135312Y-59534968D01*
X112432863Y-59411718D01*
X112700652Y-59232787D01*
X112928387Y-59005052D01*
X113107318Y-58737263D01*
X113230568Y-58439712D01*
X113293400Y-58123833D01*
X113293400Y-57801767D01*
X113230568Y-57485888D01*
X113180909Y-57366000D01*
X116189328Y-57366000D01*
X116189328Y-58966000D01*
X116201588Y-59090482D01*
X116237898Y-59210180D01*
X116296863Y-59320494D01*
X116376215Y-59417185D01*
X116472906Y-59496537D01*
X116583220Y-59555502D01*
X116702918Y-59591812D01*
X116827400Y-59604072D01*
X118427400Y-59604072D01*
X118551882Y-59591812D01*
X118671580Y-59555502D01*
X118781894Y-59496537D01*
X118878585Y-59417185D01*
X118892190Y-59400607D01*
X118947673Y-59437680D01*
X119208826Y-59545853D01*
X119486065Y-59601000D01*
X119768735Y-59601000D01*
X120045974Y-59545853D01*
X120307127Y-59437680D01*
X120542159Y-59280637D01*
X120742037Y-59080759D01*
X120899080Y-58845727D01*
X121007253Y-58584574D01*
X121062400Y-58307335D01*
X121062400Y-58024665D01*
X121007253Y-57747426D01*
X120899080Y-57486273D01*
X120742037Y-57251241D01*
X120542159Y-57051363D01*
X120307127Y-56894320D01*
X120045974Y-56786147D01*
X119768735Y-56731000D01*
X119486065Y-56731000D01*
X119208826Y-56786147D01*
X118947673Y-56894320D01*
X118892190Y-56931393D01*
X118878585Y-56914815D01*
X118781894Y-56835463D01*
X118671580Y-56776498D01*
X118551882Y-56740188D01*
X118427400Y-56727928D01*
X116827400Y-56727928D01*
X116702918Y-56740188D01*
X116583220Y-56776498D01*
X116472906Y-56835463D01*
X116376215Y-56914815D01*
X116296863Y-57011506D01*
X116237898Y-57121820D01*
X116201588Y-57241518D01*
X116189328Y-57366000D01*
X113180909Y-57366000D01*
X113107318Y-57188337D01*
X112928387Y-56920548D01*
X112700652Y-56692813D01*
X112700633Y-56692800D01*
X112700652Y-56692787D01*
X112928387Y-56465052D01*
X113107318Y-56197263D01*
X113230568Y-55899712D01*
X113293400Y-55583833D01*
X113293400Y-55261767D01*
X113230568Y-54945888D01*
X113107318Y-54648337D01*
X112928387Y-54380548D01*
X112700652Y-54152813D01*
X112509366Y-54025000D01*
X122251000Y-54025000D01*
X122251001Y-112903800D01*
X101803239Y-112903800D01*
X101917487Y-112789552D01*
X102096418Y-112521763D01*
X102219668Y-112224212D01*
X102282500Y-111908333D01*
X102282500Y-111586267D01*
X102219668Y-111270388D01*
X102096418Y-110972837D01*
X101917487Y-110705048D01*
X101689752Y-110477313D01*
X101689733Y-110477300D01*
X101689752Y-110477287D01*
X101917487Y-110249552D01*
X102096418Y-109981763D01*
X102219668Y-109684212D01*
X102282500Y-109368333D01*
X102282500Y-109264344D01*
X106595000Y-109264344D01*
X106595000Y-109531256D01*
X106647072Y-109793039D01*
X106749215Y-110039633D01*
X106897503Y-110261562D01*
X107086238Y-110450297D01*
X107308167Y-110598585D01*
X107554761Y-110700728D01*
X107816544Y-110752800D01*
X108083456Y-110752800D01*
X108345239Y-110700728D01*
X108591833Y-110598585D01*
X108813762Y-110450297D01*
X109002497Y-110261562D01*
X109150785Y-110039633D01*
X109220000Y-109872534D01*
X109289215Y-110039633D01*
X109437503Y-110261562D01*
X109626238Y-110450297D01*
X109848167Y-110598585D01*
X110094761Y-110700728D01*
X110356544Y-110752800D01*
X110623456Y-110752800D01*
X110885239Y-110700728D01*
X111131833Y-110598585D01*
X111353762Y-110450297D01*
X111542497Y-110261562D01*
X111690785Y-110039633D01*
X111760000Y-109872534D01*
X111829215Y-110039633D01*
X111977503Y-110261562D01*
X112166238Y-110450297D01*
X112388167Y-110598585D01*
X112634761Y-110700728D01*
X112896544Y-110752800D01*
X113163456Y-110752800D01*
X113425239Y-110700728D01*
X113671833Y-110598585D01*
X113893762Y-110450297D01*
X114082497Y-110261562D01*
X114230785Y-110039633D01*
X114332928Y-109793039D01*
X114385000Y-109531256D01*
X114385000Y-109264344D01*
X114332928Y-109002561D01*
X114230785Y-108755967D01*
X114082497Y-108534038D01*
X113893762Y-108345303D01*
X113671833Y-108197015D01*
X113425239Y-108094872D01*
X113163456Y-108042800D01*
X112896544Y-108042800D01*
X112634761Y-108094872D01*
X112388167Y-108197015D01*
X112166238Y-108345303D01*
X111977503Y-108534038D01*
X111829215Y-108755967D01*
X111760000Y-108923066D01*
X111690785Y-108755967D01*
X111542497Y-108534038D01*
X111353762Y-108345303D01*
X111131833Y-108197015D01*
X110885239Y-108094872D01*
X110623456Y-108042800D01*
X110356544Y-108042800D01*
X110094761Y-108094872D01*
X109848167Y-108197015D01*
X109626238Y-108345303D01*
X109437503Y-108534038D01*
X109289215Y-108755967D01*
X109220000Y-108923066D01*
X109150785Y-108755967D01*
X109002497Y-108534038D01*
X108813762Y-108345303D01*
X108591833Y-108197015D01*
X108345239Y-108094872D01*
X108083456Y-108042800D01*
X107816544Y-108042800D01*
X107554761Y-108094872D01*
X107308167Y-108197015D01*
X107086238Y-108345303D01*
X106897503Y-108534038D01*
X106749215Y-108755967D01*
X106647072Y-109002561D01*
X106595000Y-109264344D01*
X102282500Y-109264344D01*
X102282500Y-109046267D01*
X102219668Y-108730388D01*
X102096418Y-108432837D01*
X101917487Y-108165048D01*
X101689752Y-107937313D01*
X101421963Y-107758382D01*
X101124412Y-107635132D01*
X100808533Y-107572300D01*
X100486467Y-107572300D01*
X100170588Y-107635132D01*
X99873037Y-107758382D01*
X99605248Y-107937313D01*
X99377513Y-108165048D01*
X99198582Y-108432837D01*
X99075332Y-108730388D01*
X99012500Y-109046267D01*
X99012500Y-109368333D01*
X99075332Y-109684212D01*
X99198582Y-109981763D01*
X99377513Y-110249552D01*
X99605248Y-110477287D01*
X99605267Y-110477300D01*
X99605248Y-110477313D01*
X99377513Y-110705048D01*
X99198582Y-110972837D01*
X99075332Y-111270388D01*
X99012500Y-111586267D01*
X99012500Y-111908333D01*
X99075332Y-112224212D01*
X99198582Y-112521763D01*
X99377513Y-112789552D01*
X99491761Y-112903800D01*
X89611239Y-112903800D01*
X89725487Y-112789552D01*
X89904418Y-112521763D01*
X90027668Y-112224212D01*
X90090500Y-111908333D01*
X90090500Y-111586267D01*
X90027668Y-111270388D01*
X89904418Y-110972837D01*
X89725487Y-110705048D01*
X89497752Y-110477313D01*
X89497733Y-110477300D01*
X89497752Y-110477287D01*
X89725487Y-110249552D01*
X89904418Y-109981763D01*
X90027668Y-109684212D01*
X90090500Y-109368333D01*
X90090500Y-109046267D01*
X90027668Y-108730388D01*
X89904418Y-108432837D01*
X89725487Y-108165048D01*
X89497752Y-107937313D01*
X89229963Y-107758382D01*
X88932412Y-107635132D01*
X88616533Y-107572300D01*
X88294467Y-107572300D01*
X87978588Y-107635132D01*
X87681037Y-107758382D01*
X87413248Y-107937313D01*
X87185513Y-108165048D01*
X87006582Y-108432837D01*
X86883332Y-108730388D01*
X86820500Y-109046267D01*
X86820500Y-109368333D01*
X86883332Y-109684212D01*
X87006582Y-109981763D01*
X87185513Y-110249552D01*
X87413248Y-110477287D01*
X87413267Y-110477300D01*
X87413248Y-110477313D01*
X87185513Y-110705048D01*
X87006582Y-110972837D01*
X86883332Y-111270388D01*
X86820500Y-111586267D01*
X86820500Y-111908333D01*
X86883332Y-112224212D01*
X87006582Y-112521763D01*
X87185513Y-112789552D01*
X87299761Y-112903800D01*
X76921558Y-112903800D01*
X77006583Y-112818775D01*
X76890915Y-112703107D01*
X77155314Y-112607344D01*
X77296204Y-112317729D01*
X77377884Y-112006192D01*
X77397218Y-111684705D01*
X77353461Y-111365625D01*
X77248295Y-111061212D01*
X77155314Y-110887256D01*
X76890913Y-110791492D01*
X75935105Y-111747300D01*
X75949248Y-111761443D01*
X75769643Y-111941048D01*
X75755500Y-111926905D01*
X75741358Y-111941048D01*
X75561753Y-111761443D01*
X75575895Y-111747300D01*
X74620087Y-110791492D01*
X74355686Y-110887256D01*
X74214796Y-111176871D01*
X74133116Y-111488408D01*
X74113782Y-111809895D01*
X74157539Y-112128975D01*
X74262705Y-112433388D01*
X74355686Y-112607344D01*
X74620085Y-112703107D01*
X74504417Y-112818775D01*
X74589442Y-112903800D01*
X67233000Y-112903800D01*
X67233000Y-110342713D01*
X74799692Y-110342713D01*
X74848438Y-110477300D01*
X74799692Y-110611887D01*
X75755500Y-111567695D01*
X76711308Y-110611887D01*
X76662562Y-110477300D01*
X76711308Y-110342713D01*
X75755500Y-109386905D01*
X74799692Y-110342713D01*
X67233000Y-110342713D01*
X67233000Y-109269895D01*
X74113782Y-109269895D01*
X74157539Y-109588975D01*
X74262705Y-109893388D01*
X74355686Y-110067344D01*
X74620087Y-110163108D01*
X75575895Y-109207300D01*
X75935105Y-109207300D01*
X76890913Y-110163108D01*
X77155314Y-110067344D01*
X77296204Y-109777729D01*
X77377884Y-109466192D01*
X77397218Y-109144705D01*
X77353461Y-108825625D01*
X77248295Y-108521212D01*
X77155314Y-108347256D01*
X76890913Y-108251492D01*
X75935105Y-109207300D01*
X75575895Y-109207300D01*
X74620087Y-108251492D01*
X74355686Y-108347256D01*
X74214796Y-108636871D01*
X74133116Y-108948408D01*
X74113782Y-109269895D01*
X67233000Y-109269895D01*
X67233000Y-108071887D01*
X74799692Y-108071887D01*
X75755500Y-109027695D01*
X76711308Y-108071887D01*
X76615544Y-107807486D01*
X76325929Y-107666596D01*
X76014392Y-107584916D01*
X75692905Y-107565582D01*
X75373825Y-107609339D01*
X75069412Y-107714505D01*
X74895456Y-107807486D01*
X74799692Y-108071887D01*
X67233000Y-108071887D01*
X67233000Y-105767363D01*
X67261832Y-105912312D01*
X67385082Y-106209863D01*
X67564013Y-106477652D01*
X67791748Y-106705387D01*
X68059537Y-106884318D01*
X68357088Y-107007568D01*
X68672967Y-107070400D01*
X68995033Y-107070400D01*
X69310912Y-107007568D01*
X69608463Y-106884318D01*
X69876252Y-106705387D01*
X70103987Y-106477652D01*
X70104000Y-106477633D01*
X70104013Y-106477652D01*
X70331748Y-106705387D01*
X70599537Y-106884318D01*
X70897088Y-107007568D01*
X71212967Y-107070400D01*
X71535033Y-107070400D01*
X71850912Y-107007568D01*
X72148463Y-106884318D01*
X72416252Y-106705387D01*
X72643987Y-106477652D01*
X72822918Y-106209863D01*
X72946168Y-105912312D01*
X73009000Y-105596433D01*
X73009000Y-105274367D01*
X72946168Y-104958488D01*
X72855975Y-104740743D01*
X85750400Y-104740743D01*
X85750400Y-104910857D01*
X85783587Y-105077703D01*
X85848687Y-105234868D01*
X85943198Y-105376313D01*
X86063487Y-105496602D01*
X86204932Y-105591113D01*
X86362097Y-105656213D01*
X86528943Y-105689400D01*
X86699057Y-105689400D01*
X86865903Y-105656213D01*
X87023068Y-105591113D01*
X87164513Y-105496602D01*
X87284802Y-105376313D01*
X87379313Y-105234868D01*
X87444413Y-105077703D01*
X87477600Y-104910857D01*
X87477600Y-104740743D01*
X87444413Y-104573897D01*
X87379313Y-104416732D01*
X87284802Y-104275287D01*
X87164513Y-104154998D01*
X87023068Y-104060487D01*
X86865903Y-103995387D01*
X86699057Y-103962200D01*
X86528943Y-103962200D01*
X86362097Y-103995387D01*
X86204932Y-104060487D01*
X86063487Y-104154998D01*
X85943198Y-104275287D01*
X85848687Y-104416732D01*
X85783587Y-104573897D01*
X85750400Y-104740743D01*
X72855975Y-104740743D01*
X72822918Y-104660937D01*
X72643987Y-104393148D01*
X72416252Y-104165413D01*
X72148463Y-103986482D01*
X71850912Y-103863232D01*
X71535033Y-103800400D01*
X71212967Y-103800400D01*
X70897088Y-103863232D01*
X70599537Y-103986482D01*
X70331748Y-104165413D01*
X70104013Y-104393148D01*
X70104000Y-104393167D01*
X70103987Y-104393148D01*
X69876252Y-104165413D01*
X69608463Y-103986482D01*
X69310912Y-103863232D01*
X68995033Y-103800400D01*
X68672967Y-103800400D01*
X68357088Y-103863232D01*
X68059537Y-103986482D01*
X67791748Y-104165413D01*
X67564013Y-104393148D01*
X67385082Y-104660937D01*
X67261832Y-104958488D01*
X67233000Y-105103437D01*
X67233000Y-98771743D01*
X69240400Y-98771743D01*
X69240400Y-98941857D01*
X69273587Y-99108703D01*
X69338687Y-99265868D01*
X69433198Y-99407313D01*
X69553487Y-99527602D01*
X69694932Y-99622113D01*
X69852097Y-99687213D01*
X70018943Y-99720400D01*
X70189057Y-99720400D01*
X70355903Y-99687213D01*
X70513068Y-99622113D01*
X70654513Y-99527602D01*
X70774802Y-99407313D01*
X70869313Y-99265868D01*
X70934413Y-99108703D01*
X70967600Y-98941857D01*
X70967600Y-98771743D01*
X70934413Y-98604897D01*
X70869313Y-98447732D01*
X70774802Y-98306287D01*
X70654513Y-98185998D01*
X70513068Y-98091487D01*
X70355903Y-98026387D01*
X70189057Y-97993200D01*
X70018943Y-97993200D01*
X69852097Y-98026387D01*
X69694932Y-98091487D01*
X69553487Y-98185998D01*
X69433198Y-98306287D01*
X69338687Y-98447732D01*
X69273587Y-98604897D01*
X69240400Y-98771743D01*
X67233000Y-98771743D01*
X67233000Y-95159465D01*
X73749000Y-95159465D01*
X73749000Y-95442135D01*
X73804147Y-95719374D01*
X73912320Y-95980527D01*
X74069363Y-96215559D01*
X74269241Y-96415437D01*
X74501759Y-96570800D01*
X74269241Y-96726163D01*
X74069363Y-96926041D01*
X73912320Y-97161073D01*
X73804147Y-97422226D01*
X73749000Y-97699465D01*
X73749000Y-97982135D01*
X73804147Y-98259374D01*
X73912320Y-98520527D01*
X74069363Y-98755559D01*
X74269241Y-98955437D01*
X74501759Y-99110800D01*
X74269241Y-99266163D01*
X74069363Y-99466041D01*
X73912320Y-99701073D01*
X73804147Y-99962226D01*
X73749000Y-100239465D01*
X73749000Y-100522135D01*
X73804147Y-100799374D01*
X73912320Y-101060527D01*
X74069363Y-101295559D01*
X74269241Y-101495437D01*
X74501759Y-101650800D01*
X74269241Y-101806163D01*
X74069363Y-102006041D01*
X73912320Y-102241073D01*
X73804147Y-102502226D01*
X73749000Y-102779465D01*
X73749000Y-103062135D01*
X73804147Y-103339374D01*
X73912320Y-103600527D01*
X74069363Y-103835559D01*
X74269241Y-104035437D01*
X74504273Y-104192480D01*
X74765426Y-104300653D01*
X75042665Y-104355800D01*
X75325335Y-104355800D01*
X75602574Y-104300653D01*
X75863727Y-104192480D01*
X76098759Y-104035437D01*
X76298637Y-103835559D01*
X76455680Y-103600527D01*
X76563853Y-103339374D01*
X76619000Y-103062135D01*
X76619000Y-102779465D01*
X76563853Y-102502226D01*
X76455680Y-102241073D01*
X76298637Y-102006041D01*
X76098759Y-101806163D01*
X75866241Y-101650800D01*
X76098759Y-101495437D01*
X76298637Y-101295559D01*
X76455680Y-101060527D01*
X76563853Y-100799374D01*
X76619000Y-100522135D01*
X76619000Y-100239465D01*
X76563853Y-99962226D01*
X76455680Y-99701073D01*
X76298637Y-99466041D01*
X76098759Y-99266163D01*
X75866241Y-99110800D01*
X76098759Y-98955437D01*
X76298637Y-98755559D01*
X76455680Y-98520527D01*
X76563853Y-98259374D01*
X76619000Y-97982135D01*
X76619000Y-97699465D01*
X76563853Y-97422226D01*
X76455680Y-97161073D01*
X76298637Y-96926041D01*
X76098759Y-96726163D01*
X75866241Y-96570800D01*
X76098759Y-96415437D01*
X76298637Y-96215559D01*
X76455680Y-95980527D01*
X76563853Y-95719374D01*
X76619000Y-95442135D01*
X76619000Y-95159465D01*
X76563853Y-94882226D01*
X76455680Y-94621073D01*
X76298637Y-94386041D01*
X76098759Y-94186163D01*
X75864872Y-94029885D01*
X75925514Y-93997471D01*
X75997097Y-93753502D01*
X75184000Y-92940405D01*
X74370903Y-93753502D01*
X74442486Y-93997471D01*
X74506992Y-94027994D01*
X74504273Y-94029120D01*
X74269241Y-94186163D01*
X74069363Y-94386041D01*
X73912320Y-94621073D01*
X73804147Y-94882226D01*
X73749000Y-95159465D01*
X67233000Y-95159465D01*
X67233000Y-92675743D01*
X68732400Y-92675743D01*
X68732400Y-92845857D01*
X68765587Y-93012703D01*
X68830687Y-93169868D01*
X68925198Y-93311313D01*
X69045487Y-93431602D01*
X69186932Y-93526113D01*
X69344097Y-93591213D01*
X69510943Y-93624400D01*
X69681057Y-93624400D01*
X69847903Y-93591213D01*
X70005068Y-93526113D01*
X70146513Y-93431602D01*
X70266802Y-93311313D01*
X70361313Y-93169868D01*
X70426413Y-93012703D01*
X70459600Y-92845857D01*
X70459600Y-92831312D01*
X73743783Y-92831312D01*
X73785213Y-93110930D01*
X73880397Y-93377092D01*
X73947329Y-93502314D01*
X74191298Y-93573897D01*
X75004395Y-92760800D01*
X75363605Y-92760800D01*
X76176702Y-93573897D01*
X76420671Y-93502314D01*
X76541571Y-93246804D01*
X76610300Y-92972616D01*
X76624217Y-92690288D01*
X76582787Y-92410670D01*
X76487603Y-92144508D01*
X76420671Y-92019286D01*
X76176702Y-91947703D01*
X75363605Y-92760800D01*
X75004395Y-92760800D01*
X74191298Y-91947703D01*
X73947329Y-92019286D01*
X73826429Y-92274796D01*
X73757700Y-92548984D01*
X73743783Y-92831312D01*
X70459600Y-92831312D01*
X70459600Y-92675743D01*
X70426413Y-92508897D01*
X70361313Y-92351732D01*
X70266802Y-92210287D01*
X70146513Y-92089998D01*
X70005068Y-91995487D01*
X69847903Y-91930387D01*
X69681057Y-91897200D01*
X69510943Y-91897200D01*
X69344097Y-91930387D01*
X69186932Y-91995487D01*
X69045487Y-92089998D01*
X68925198Y-92210287D01*
X68830687Y-92351732D01*
X68765587Y-92508897D01*
X68732400Y-92675743D01*
X67233000Y-92675743D01*
X67233000Y-86842639D01*
X67309148Y-86918787D01*
X67576937Y-87097718D01*
X67874488Y-87220968D01*
X68190367Y-87283800D01*
X68512433Y-87283800D01*
X68828312Y-87220968D01*
X69125863Y-87097718D01*
X69393652Y-86918787D01*
X69621387Y-86691052D01*
X69621400Y-86691033D01*
X69621413Y-86691052D01*
X69849148Y-86918787D01*
X70116937Y-87097718D01*
X70414488Y-87220968D01*
X70730367Y-87283800D01*
X71052433Y-87283800D01*
X71368312Y-87220968D01*
X71665863Y-87097718D01*
X71933652Y-86918787D01*
X71971639Y-86880800D01*
X73745928Y-86880800D01*
X73745928Y-88480800D01*
X73758188Y-88605282D01*
X73794498Y-88724980D01*
X73853463Y-88835294D01*
X73932815Y-88931985D01*
X74029506Y-89011337D01*
X74139820Y-89070302D01*
X74259518Y-89106612D01*
X74267961Y-89107443D01*
X74069363Y-89306041D01*
X73912320Y-89541073D01*
X73804147Y-89802226D01*
X73749000Y-90079465D01*
X73749000Y-90362135D01*
X73804147Y-90639374D01*
X73912320Y-90900527D01*
X74069363Y-91135559D01*
X74269241Y-91335437D01*
X74503128Y-91491715D01*
X74442486Y-91524129D01*
X74370903Y-91768098D01*
X75184000Y-92581195D01*
X75997097Y-91768098D01*
X75925514Y-91524129D01*
X75861008Y-91493606D01*
X75863727Y-91492480D01*
X76098759Y-91335437D01*
X76298637Y-91135559D01*
X76455680Y-90900527D01*
X76563853Y-90639374D01*
X76619000Y-90362135D01*
X76619000Y-90079465D01*
X76563853Y-89802226D01*
X76455680Y-89541073D01*
X76298637Y-89306041D01*
X76100039Y-89107443D01*
X76108482Y-89106612D01*
X76228180Y-89070302D01*
X76338494Y-89011337D01*
X76435185Y-88931985D01*
X76514537Y-88835294D01*
X76573502Y-88724980D01*
X76609812Y-88605282D01*
X76622072Y-88480800D01*
X76622072Y-87679569D01*
X76912842Y-87388799D01*
X81398970Y-87388799D01*
X81369000Y-87539465D01*
X81369000Y-87822135D01*
X81424147Y-88099374D01*
X81532320Y-88360527D01*
X81689363Y-88595559D01*
X81889241Y-88795437D01*
X82121759Y-88950800D01*
X81889241Y-89106163D01*
X81689363Y-89306041D01*
X81532320Y-89541073D01*
X81424147Y-89802226D01*
X81369000Y-90079465D01*
X81369000Y-90362135D01*
X81424147Y-90639374D01*
X81532320Y-90900527D01*
X81689363Y-91135559D01*
X81889241Y-91335437D01*
X82121759Y-91490800D01*
X81889241Y-91646163D01*
X81689363Y-91846041D01*
X81532320Y-92081073D01*
X81424147Y-92342226D01*
X81369000Y-92619465D01*
X81369000Y-92902135D01*
X81424147Y-93179374D01*
X81532320Y-93440527D01*
X81689363Y-93675559D01*
X81889241Y-93875437D01*
X82121759Y-94030800D01*
X81889241Y-94186163D01*
X81689363Y-94386041D01*
X81532320Y-94621073D01*
X81424147Y-94882226D01*
X81369000Y-95159465D01*
X81369000Y-95442135D01*
X81424147Y-95719374D01*
X81532320Y-95980527D01*
X81689363Y-96215559D01*
X81889241Y-96415437D01*
X82121759Y-96570800D01*
X81889241Y-96726163D01*
X81689363Y-96926041D01*
X81532320Y-97161073D01*
X81424147Y-97422226D01*
X81369000Y-97699465D01*
X81369000Y-97982135D01*
X81424147Y-98259374D01*
X81532320Y-98520527D01*
X81689363Y-98755559D01*
X81889241Y-98955437D01*
X82121759Y-99110800D01*
X81889241Y-99266163D01*
X81689363Y-99466041D01*
X81532320Y-99701073D01*
X81424147Y-99962226D01*
X81369000Y-100239465D01*
X81369000Y-100522135D01*
X81424147Y-100799374D01*
X81532320Y-101060527D01*
X81689363Y-101295559D01*
X81889241Y-101495437D01*
X82121759Y-101650800D01*
X81889241Y-101806163D01*
X81689363Y-102006041D01*
X81532320Y-102241073D01*
X81424147Y-102502226D01*
X81369000Y-102779465D01*
X81369000Y-103062135D01*
X81424147Y-103339374D01*
X81532320Y-103600527D01*
X81689363Y-103835559D01*
X81889241Y-104035437D01*
X82124273Y-104192480D01*
X82385426Y-104300653D01*
X82662665Y-104355800D01*
X82945335Y-104355800D01*
X83222574Y-104300653D01*
X83483727Y-104192480D01*
X83718759Y-104035437D01*
X83918637Y-103835559D01*
X84075680Y-103600527D01*
X84183853Y-103339374D01*
X84239000Y-103062135D01*
X84239000Y-102779465D01*
X84183853Y-102502226D01*
X84080110Y-102251767D01*
X91075000Y-102251767D01*
X91075000Y-102573833D01*
X91137832Y-102889712D01*
X91261082Y-103187263D01*
X91440013Y-103455052D01*
X91667748Y-103682787D01*
X91667767Y-103682800D01*
X91667748Y-103682813D01*
X91440013Y-103910548D01*
X91261082Y-104178337D01*
X91137832Y-104475888D01*
X91075000Y-104791767D01*
X91075000Y-105113833D01*
X91137832Y-105429712D01*
X91261082Y-105727263D01*
X91440013Y-105995052D01*
X91667748Y-106222787D01*
X91935537Y-106401718D01*
X92233088Y-106524968D01*
X92548967Y-106587800D01*
X92871033Y-106587800D01*
X93186912Y-106524968D01*
X93484463Y-106401718D01*
X93752252Y-106222787D01*
X93979987Y-105995052D01*
X94158918Y-105727263D01*
X94282168Y-105429712D01*
X94345000Y-105113833D01*
X94345000Y-104791767D01*
X94282168Y-104475888D01*
X94158918Y-104178337D01*
X93979987Y-103910548D01*
X93752252Y-103682813D01*
X93752233Y-103682800D01*
X93752252Y-103682787D01*
X93979987Y-103455052D01*
X94158918Y-103187263D01*
X94282168Y-102889712D01*
X94345000Y-102573833D01*
X94345000Y-102378767D01*
X99076000Y-102378767D01*
X99076000Y-102700833D01*
X99138832Y-103016712D01*
X99262082Y-103314263D01*
X99441013Y-103582052D01*
X99668748Y-103809787D01*
X99668767Y-103809800D01*
X99668748Y-103809813D01*
X99441013Y-104037548D01*
X99262082Y-104305337D01*
X99138832Y-104602888D01*
X99076000Y-104918767D01*
X99076000Y-105240833D01*
X99138832Y-105556712D01*
X99262082Y-105854263D01*
X99441013Y-106122052D01*
X99668748Y-106349787D01*
X99936537Y-106528718D01*
X100234088Y-106651968D01*
X100549967Y-106714800D01*
X100872033Y-106714800D01*
X101187912Y-106651968D01*
X101485463Y-106528718D01*
X101753252Y-106349787D01*
X101980987Y-106122052D01*
X102159918Y-105854263D01*
X102283168Y-105556712D01*
X102346000Y-105240833D01*
X102346000Y-104918767D01*
X102283168Y-104602888D01*
X102159918Y-104305337D01*
X101980987Y-104037548D01*
X101753252Y-103809813D01*
X101753233Y-103809800D01*
X101753252Y-103809787D01*
X101980987Y-103582052D01*
X102159918Y-103314263D01*
X102283168Y-103016712D01*
X102283753Y-103013767D01*
X103935000Y-103013767D01*
X103935000Y-103335833D01*
X103997832Y-103651712D01*
X104121082Y-103949263D01*
X104300013Y-104217052D01*
X104527748Y-104444787D01*
X104795537Y-104623718D01*
X105093088Y-104746968D01*
X105408967Y-104809800D01*
X105731033Y-104809800D01*
X106046912Y-104746968D01*
X106344463Y-104623718D01*
X106612252Y-104444787D01*
X106839987Y-104217052D01*
X107018918Y-103949263D01*
X107142168Y-103651712D01*
X107205000Y-103335833D01*
X107205000Y-103013767D01*
X107142168Y-102697888D01*
X107018918Y-102400337D01*
X106868219Y-102174800D01*
X113931928Y-102174800D01*
X113931928Y-104174800D01*
X113944188Y-104299282D01*
X113980498Y-104418980D01*
X114039463Y-104529294D01*
X114118815Y-104625985D01*
X114215506Y-104705337D01*
X114325820Y-104764302D01*
X114445518Y-104800612D01*
X114570000Y-104812872D01*
X116570000Y-104812872D01*
X116694482Y-104800612D01*
X116814180Y-104764302D01*
X116924494Y-104705337D01*
X117021185Y-104625985D01*
X117100537Y-104529294D01*
X117159502Y-104418980D01*
X117195812Y-104299282D01*
X117208072Y-104174800D01*
X117208072Y-102174800D01*
X117195812Y-102050318D01*
X117159502Y-101930620D01*
X117100537Y-101820306D01*
X117021185Y-101723615D01*
X116924494Y-101644263D01*
X116814180Y-101585298D01*
X116749716Y-101565743D01*
X117246400Y-101565743D01*
X117246400Y-101735857D01*
X117279587Y-101902703D01*
X117344687Y-102059868D01*
X117439198Y-102201313D01*
X117559487Y-102321602D01*
X117700932Y-102416113D01*
X117858097Y-102481213D01*
X118024943Y-102514400D01*
X118195057Y-102514400D01*
X118361903Y-102481213D01*
X118519068Y-102416113D01*
X118660513Y-102321602D01*
X118780802Y-102201313D01*
X118875313Y-102059868D01*
X118940413Y-101902703D01*
X118973600Y-101735857D01*
X118973600Y-101565743D01*
X118940413Y-101398897D01*
X118875313Y-101241732D01*
X118780802Y-101100287D01*
X118660513Y-100979998D01*
X118519068Y-100885487D01*
X118361903Y-100820387D01*
X118195057Y-100787200D01*
X118024943Y-100787200D01*
X117858097Y-100820387D01*
X117700932Y-100885487D01*
X117559487Y-100979998D01*
X117439198Y-101100287D01*
X117344687Y-101241732D01*
X117279587Y-101398897D01*
X117246400Y-101565743D01*
X116749716Y-101565743D01*
X116694482Y-101548988D01*
X116570000Y-101536728D01*
X114570000Y-101536728D01*
X114445518Y-101548988D01*
X114325820Y-101585298D01*
X114215506Y-101644263D01*
X114118815Y-101723615D01*
X114039463Y-101820306D01*
X113980498Y-101930620D01*
X113944188Y-102050318D01*
X113931928Y-102174800D01*
X106868219Y-102174800D01*
X106839987Y-102132548D01*
X106612252Y-101904813D01*
X106344463Y-101725882D01*
X106046912Y-101602632D01*
X105731033Y-101539800D01*
X105408967Y-101539800D01*
X105093088Y-101602632D01*
X104795537Y-101725882D01*
X104527748Y-101904813D01*
X104300013Y-102132548D01*
X104121082Y-102400337D01*
X103997832Y-102697888D01*
X103935000Y-103013767D01*
X102283753Y-103013767D01*
X102346000Y-102700833D01*
X102346000Y-102378767D01*
X102283168Y-102062888D01*
X102159918Y-101765337D01*
X101980987Y-101497548D01*
X101753252Y-101269813D01*
X101485463Y-101090882D01*
X101187912Y-100967632D01*
X100872033Y-100904800D01*
X100549967Y-100904800D01*
X100234088Y-100967632D01*
X99936537Y-101090882D01*
X99668748Y-101269813D01*
X99441013Y-101497548D01*
X99262082Y-101765337D01*
X99138832Y-102062888D01*
X99076000Y-102378767D01*
X94345000Y-102378767D01*
X94345000Y-102251767D01*
X94282168Y-101935888D01*
X94158918Y-101638337D01*
X93979987Y-101370548D01*
X93752252Y-101142813D01*
X93484463Y-100963882D01*
X93186912Y-100840632D01*
X92871033Y-100777800D01*
X92548967Y-100777800D01*
X92233088Y-100840632D01*
X91935537Y-100963882D01*
X91667748Y-101142813D01*
X91440013Y-101370548D01*
X91261082Y-101638337D01*
X91137832Y-101935888D01*
X91075000Y-102251767D01*
X84080110Y-102251767D01*
X84075680Y-102241073D01*
X83918637Y-102006041D01*
X83718759Y-101806163D01*
X83486241Y-101650800D01*
X83718759Y-101495437D01*
X83918637Y-101295559D01*
X84075680Y-101060527D01*
X84175416Y-100819742D01*
X87004401Y-100819742D01*
X87004401Y-100989856D01*
X87037588Y-101156702D01*
X87102688Y-101313867D01*
X87197199Y-101455312D01*
X87317488Y-101575601D01*
X87458933Y-101670112D01*
X87616098Y-101735212D01*
X87782944Y-101768399D01*
X87953058Y-101768399D01*
X88119904Y-101735212D01*
X88277069Y-101670112D01*
X88418514Y-101575601D01*
X88538803Y-101455312D01*
X88633314Y-101313867D01*
X88698414Y-101156702D01*
X88731601Y-100989856D01*
X88731601Y-100819742D01*
X88698414Y-100652896D01*
X88633314Y-100495731D01*
X88538803Y-100354286D01*
X88418514Y-100233997D01*
X88277069Y-100139486D01*
X88119904Y-100074386D01*
X87953058Y-100041199D01*
X87782944Y-100041199D01*
X87616098Y-100074386D01*
X87458933Y-100139486D01*
X87317488Y-100233997D01*
X87197199Y-100354286D01*
X87102688Y-100495731D01*
X87037588Y-100652896D01*
X87004401Y-100819742D01*
X84175416Y-100819742D01*
X84183853Y-100799374D01*
X84239000Y-100522135D01*
X84239000Y-100239465D01*
X84183853Y-99962226D01*
X84075680Y-99701073D01*
X83926271Y-99477465D01*
X107023000Y-99477465D01*
X107023000Y-99760135D01*
X107078147Y-100037374D01*
X107186320Y-100298527D01*
X107343363Y-100533559D01*
X107543241Y-100733437D01*
X107778273Y-100890480D01*
X108039426Y-100998653D01*
X108316665Y-101053800D01*
X108599335Y-101053800D01*
X108876574Y-100998653D01*
X109137727Y-100890480D01*
X109372759Y-100733437D01*
X109572637Y-100533559D01*
X109728000Y-100301041D01*
X109883363Y-100533559D01*
X110083241Y-100733437D01*
X110318273Y-100890480D01*
X110579426Y-100998653D01*
X110856665Y-101053800D01*
X111139335Y-101053800D01*
X111416574Y-100998653D01*
X111677727Y-100890480D01*
X111912759Y-100733437D01*
X112112637Y-100533559D01*
X112268000Y-100301041D01*
X112423363Y-100533559D01*
X112623241Y-100733437D01*
X112858273Y-100890480D01*
X113119426Y-100998653D01*
X113396665Y-101053800D01*
X113679335Y-101053800D01*
X113956574Y-100998653D01*
X114217727Y-100890480D01*
X114452759Y-100733437D01*
X114574694Y-100611502D01*
X115264903Y-100611502D01*
X115336486Y-100855471D01*
X115591996Y-100976371D01*
X115866184Y-101045100D01*
X116148512Y-101059017D01*
X116428130Y-101017587D01*
X116694292Y-100922403D01*
X116819514Y-100855471D01*
X116891097Y-100611502D01*
X116078000Y-99798405D01*
X115264903Y-100611502D01*
X114574694Y-100611502D01*
X114652637Y-100533559D01*
X114808915Y-100299672D01*
X114841329Y-100360314D01*
X115085298Y-100431897D01*
X115898395Y-99618800D01*
X116257605Y-99618800D01*
X117070702Y-100431897D01*
X117314671Y-100360314D01*
X117435571Y-100104804D01*
X117504300Y-99830616D01*
X117518217Y-99548288D01*
X117476787Y-99268670D01*
X117381603Y-99002508D01*
X117314671Y-98877286D01*
X117070702Y-98805703D01*
X116257605Y-99618800D01*
X115898395Y-99618800D01*
X115085298Y-98805703D01*
X114841329Y-98877286D01*
X114810806Y-98941792D01*
X114809680Y-98939073D01*
X114652637Y-98704041D01*
X114574694Y-98626098D01*
X115264903Y-98626098D01*
X116078000Y-99439195D01*
X116891097Y-98626098D01*
X116819514Y-98382129D01*
X116564004Y-98261229D01*
X116289816Y-98192500D01*
X116007488Y-98178583D01*
X115727870Y-98220013D01*
X115461708Y-98315197D01*
X115336486Y-98382129D01*
X115264903Y-98626098D01*
X114574694Y-98626098D01*
X114452759Y-98504163D01*
X114217727Y-98347120D01*
X113956574Y-98238947D01*
X113679335Y-98183800D01*
X113396665Y-98183800D01*
X113119426Y-98238947D01*
X112858273Y-98347120D01*
X112623241Y-98504163D01*
X112423363Y-98704041D01*
X112268000Y-98936559D01*
X112112637Y-98704041D01*
X111912759Y-98504163D01*
X111677727Y-98347120D01*
X111416574Y-98238947D01*
X111139335Y-98183800D01*
X110856665Y-98183800D01*
X110579426Y-98238947D01*
X110318273Y-98347120D01*
X110083241Y-98504163D01*
X109883363Y-98704041D01*
X109728000Y-98936559D01*
X109572637Y-98704041D01*
X109372759Y-98504163D01*
X109137727Y-98347120D01*
X108876574Y-98238947D01*
X108599335Y-98183800D01*
X108316665Y-98183800D01*
X108039426Y-98238947D01*
X107778273Y-98347120D01*
X107543241Y-98504163D01*
X107343363Y-98704041D01*
X107186320Y-98939073D01*
X107078147Y-99200226D01*
X107023000Y-99477465D01*
X83926271Y-99477465D01*
X83918637Y-99466041D01*
X83718759Y-99266163D01*
X83486241Y-99110800D01*
X83718759Y-98955437D01*
X83918637Y-98755559D01*
X84075680Y-98520527D01*
X84183853Y-98259374D01*
X84239000Y-97982135D01*
X84239000Y-97699465D01*
X84183853Y-97422226D01*
X84075680Y-97161073D01*
X83918637Y-96926041D01*
X83718759Y-96726163D01*
X83486241Y-96570800D01*
X83718759Y-96415437D01*
X83918637Y-96215559D01*
X84075680Y-95980527D01*
X84183853Y-95719374D01*
X84239000Y-95442135D01*
X84239000Y-95159465D01*
X84183853Y-94882226D01*
X84075680Y-94621073D01*
X83918637Y-94386041D01*
X83718759Y-94186163D01*
X83486241Y-94030800D01*
X83718759Y-93875437D01*
X83918637Y-93675559D01*
X84075680Y-93440527D01*
X84183853Y-93179374D01*
X84239000Y-92902135D01*
X84239000Y-92619465D01*
X84183853Y-92342226D01*
X84075680Y-92081073D01*
X83918637Y-91846041D01*
X83718759Y-91646163D01*
X83486241Y-91490800D01*
X83718759Y-91335437D01*
X83918637Y-91135559D01*
X84075680Y-90900527D01*
X84183853Y-90639374D01*
X84239000Y-90362135D01*
X84239000Y-90079465D01*
X84183853Y-89802226D01*
X84075680Y-89541073D01*
X83918637Y-89306041D01*
X83718759Y-89106163D01*
X83486241Y-88950800D01*
X83718759Y-88795437D01*
X83918637Y-88595559D01*
X84038449Y-88416247D01*
X84949801Y-89327599D01*
X84894587Y-89460897D01*
X84861400Y-89627743D01*
X84861400Y-89797857D01*
X84894587Y-89964703D01*
X84959687Y-90121868D01*
X85054198Y-90263313D01*
X85174487Y-90383602D01*
X85315932Y-90478113D01*
X85445602Y-90531824D01*
X85445601Y-91671752D01*
X85302057Y-91643200D01*
X85131943Y-91643200D01*
X84965097Y-91676387D01*
X84807932Y-91741487D01*
X84666487Y-91835998D01*
X84546198Y-91956287D01*
X84451687Y-92097732D01*
X84386587Y-92254897D01*
X84353400Y-92421743D01*
X84353400Y-92591857D01*
X84386587Y-92758703D01*
X84451687Y-92915868D01*
X84546198Y-93057313D01*
X84666487Y-93177602D01*
X84807932Y-93272113D01*
X84965097Y-93337213D01*
X85131943Y-93370400D01*
X85302057Y-93370400D01*
X85468903Y-93337213D01*
X85626068Y-93272113D01*
X85767513Y-93177602D01*
X85887802Y-93057313D01*
X85913048Y-93019530D01*
X87682501Y-94788984D01*
X87594198Y-94877287D01*
X87499687Y-95018732D01*
X87434587Y-95175897D01*
X87401400Y-95342743D01*
X87401400Y-95512857D01*
X87434587Y-95679703D01*
X87499687Y-95836868D01*
X87594198Y-95978313D01*
X87714487Y-96098602D01*
X87855932Y-96193113D01*
X88013097Y-96258213D01*
X88179943Y-96291400D01*
X88350057Y-96291400D01*
X88516903Y-96258213D01*
X88674068Y-96193113D01*
X88815513Y-96098602D01*
X88903816Y-96010299D01*
X88915451Y-96021934D01*
X88947263Y-96060697D01*
X89101969Y-96187661D01*
X89278472Y-96282003D01*
X89469988Y-96340099D01*
X89669158Y-96359716D01*
X89719060Y-96354801D01*
X107608097Y-96354801D01*
X107657999Y-96359716D01*
X107707901Y-96354801D01*
X107857170Y-96340099D01*
X108048686Y-96282003D01*
X108225189Y-96187661D01*
X108379895Y-96060697D01*
X108411711Y-96021929D01*
X110999841Y-93433800D01*
X111139335Y-93433800D01*
X111416574Y-93378653D01*
X111677727Y-93270480D01*
X111912759Y-93113437D01*
X112112637Y-92913559D01*
X112268000Y-92681041D01*
X112423363Y-92913559D01*
X112623241Y-93113437D01*
X112858273Y-93270480D01*
X113119426Y-93378653D01*
X113396665Y-93433800D01*
X113679335Y-93433800D01*
X113956574Y-93378653D01*
X114217727Y-93270480D01*
X114452759Y-93113437D01*
X114651357Y-92914839D01*
X114652188Y-92923282D01*
X114688498Y-93042980D01*
X114747463Y-93153294D01*
X114826815Y-93249985D01*
X114923506Y-93329337D01*
X115033820Y-93388302D01*
X115153518Y-93424612D01*
X115278000Y-93436872D01*
X116878000Y-93436872D01*
X117002482Y-93424612D01*
X117122180Y-93388302D01*
X117232494Y-93329337D01*
X117329185Y-93249985D01*
X117408537Y-93153294D01*
X117467502Y-93042980D01*
X117503812Y-92923282D01*
X117516072Y-92798800D01*
X117516072Y-91198800D01*
X117503812Y-91074318D01*
X117467502Y-90954620D01*
X117408537Y-90844306D01*
X117329185Y-90747615D01*
X117232494Y-90668263D01*
X117122180Y-90609298D01*
X117002482Y-90572988D01*
X116878000Y-90560728D01*
X115278000Y-90560728D01*
X115153518Y-90572988D01*
X115033820Y-90609298D01*
X114923506Y-90668263D01*
X114826815Y-90747615D01*
X114747463Y-90844306D01*
X114688498Y-90954620D01*
X114652188Y-91074318D01*
X114651357Y-91082761D01*
X114452759Y-90884163D01*
X114217727Y-90727120D01*
X113956574Y-90618947D01*
X113679335Y-90563800D01*
X113396665Y-90563800D01*
X113119426Y-90618947D01*
X112858273Y-90727120D01*
X112623241Y-90884163D01*
X112423363Y-91084041D01*
X112268000Y-91316559D01*
X112112637Y-91084041D01*
X111912759Y-90884163D01*
X111677727Y-90727120D01*
X111416574Y-90618947D01*
X111139335Y-90563800D01*
X110856665Y-90563800D01*
X110579426Y-90618947D01*
X110318273Y-90727120D01*
X110083241Y-90884163D01*
X109883363Y-91084041D01*
X109728000Y-91316559D01*
X109572637Y-91084041D01*
X109372759Y-90884163D01*
X109137727Y-90727120D01*
X108876574Y-90618947D01*
X108599335Y-90563800D01*
X108316665Y-90563800D01*
X108039426Y-90618947D01*
X107778273Y-90727120D01*
X107543241Y-90884163D01*
X107343363Y-91084041D01*
X107186320Y-91319073D01*
X107078147Y-91580226D01*
X107023000Y-91857465D01*
X107023000Y-92140135D01*
X107078147Y-92417374D01*
X107186320Y-92678527D01*
X107343363Y-92913559D01*
X107543241Y-93113437D01*
X107778273Y-93270480D01*
X108039426Y-93378653D01*
X108157767Y-93402193D01*
X107237159Y-94322801D01*
X99322030Y-94322801D01*
X99352000Y-94172135D01*
X99352000Y-93889465D01*
X99296853Y-93612226D01*
X99188680Y-93351073D01*
X99031637Y-93116041D01*
X98831759Y-92916163D01*
X98599241Y-92760800D01*
X98831759Y-92605437D01*
X99031637Y-92405559D01*
X99188680Y-92170527D01*
X99296853Y-91909374D01*
X99352000Y-91632135D01*
X99352000Y-91349465D01*
X99296853Y-91072226D01*
X99188680Y-90811073D01*
X99031637Y-90576041D01*
X98831759Y-90376163D01*
X98599241Y-90220800D01*
X98831759Y-90065437D01*
X99031637Y-89865559D01*
X99188680Y-89630527D01*
X99296853Y-89369374D01*
X99352000Y-89092135D01*
X99352000Y-88809465D01*
X99296853Y-88532226D01*
X99188680Y-88271073D01*
X99031637Y-88036041D01*
X98831759Y-87836163D01*
X98597872Y-87679885D01*
X98658514Y-87647471D01*
X98730097Y-87403502D01*
X97917000Y-86590405D01*
X97103903Y-87403502D01*
X97175486Y-87647471D01*
X97239992Y-87677994D01*
X97237273Y-87679120D01*
X97002241Y-87836163D01*
X96802363Y-88036041D01*
X96645320Y-88271073D01*
X96537147Y-88532226D01*
X96482000Y-88809465D01*
X96482000Y-89092135D01*
X96537147Y-89369374D01*
X96645320Y-89630527D01*
X96802363Y-89865559D01*
X97002241Y-90065437D01*
X97234759Y-90220800D01*
X97002241Y-90376163D01*
X96802363Y-90576041D01*
X96645320Y-90811073D01*
X96537147Y-91072226D01*
X96482000Y-91349465D01*
X96482000Y-91632135D01*
X96537147Y-91909374D01*
X96645320Y-92170527D01*
X96802363Y-92405559D01*
X97002241Y-92605437D01*
X97234759Y-92760800D01*
X97002241Y-92916163D01*
X96802363Y-93116041D01*
X96645320Y-93351073D01*
X96537147Y-93612226D01*
X96482000Y-93889465D01*
X96482000Y-94172135D01*
X96511970Y-94322801D01*
X91702030Y-94322801D01*
X91732000Y-94172135D01*
X91732000Y-93889465D01*
X91676853Y-93612226D01*
X91568680Y-93351073D01*
X91411637Y-93116041D01*
X91211759Y-92916163D01*
X90979241Y-92760800D01*
X91211759Y-92605437D01*
X91411637Y-92405559D01*
X91568680Y-92170527D01*
X91676853Y-91909374D01*
X91732000Y-91632135D01*
X91732000Y-91349465D01*
X91676853Y-91072226D01*
X91568680Y-90811073D01*
X91411637Y-90576041D01*
X91211759Y-90376163D01*
X90979241Y-90220800D01*
X91211759Y-90065437D01*
X91411637Y-89865559D01*
X91568680Y-89630527D01*
X91676853Y-89369374D01*
X91732000Y-89092135D01*
X91732000Y-88809465D01*
X91676853Y-88532226D01*
X91568680Y-88271073D01*
X91411637Y-88036041D01*
X91213039Y-87837443D01*
X91221482Y-87836612D01*
X91341180Y-87800302D01*
X91451494Y-87741337D01*
X91548185Y-87661985D01*
X91627537Y-87565294D01*
X91686502Y-87454980D01*
X91722812Y-87335282D01*
X91735072Y-87210800D01*
X91735072Y-86481312D01*
X96476783Y-86481312D01*
X96518213Y-86760930D01*
X96613397Y-87027092D01*
X96680329Y-87152314D01*
X96924298Y-87223897D01*
X97737395Y-86410800D01*
X98096605Y-86410800D01*
X98909702Y-87223897D01*
X99153671Y-87152314D01*
X99274571Y-86896804D01*
X99343300Y-86622616D01*
X99351673Y-86452743D01*
X106451400Y-86452743D01*
X106451400Y-86622857D01*
X106484587Y-86789703D01*
X106549687Y-86946868D01*
X106644198Y-87088313D01*
X106764487Y-87208602D01*
X106905932Y-87303113D01*
X107063097Y-87368213D01*
X107229943Y-87401400D01*
X107400057Y-87401400D01*
X107566903Y-87368213D01*
X107724068Y-87303113D01*
X107865513Y-87208602D01*
X107985802Y-87088313D01*
X108080313Y-86946868D01*
X108145413Y-86789703D01*
X108178600Y-86622857D01*
X108178600Y-86452743D01*
X108145413Y-86285897D01*
X108080313Y-86128732D01*
X107985802Y-85987287D01*
X107865513Y-85866998D01*
X107724068Y-85772487D01*
X107566903Y-85707387D01*
X107400057Y-85674200D01*
X107229943Y-85674200D01*
X107063097Y-85707387D01*
X106905932Y-85772487D01*
X106764487Y-85866998D01*
X106644198Y-85987287D01*
X106549687Y-86128732D01*
X106484587Y-86285897D01*
X106451400Y-86452743D01*
X99351673Y-86452743D01*
X99357217Y-86340288D01*
X99315787Y-86060670D01*
X99220603Y-85794508D01*
X99153671Y-85669286D01*
X98909702Y-85597703D01*
X98096605Y-86410800D01*
X97737395Y-86410800D01*
X96924298Y-85597703D01*
X96680329Y-85669286D01*
X96559429Y-85924796D01*
X96490700Y-86198984D01*
X96476783Y-86481312D01*
X91735072Y-86481312D01*
X91735072Y-85610800D01*
X91722812Y-85486318D01*
X91702118Y-85418098D01*
X97103903Y-85418098D01*
X97917000Y-86231195D01*
X98730097Y-85418098D01*
X98658514Y-85174129D01*
X98403004Y-85053229D01*
X98128816Y-84984500D01*
X97846488Y-84970583D01*
X97566870Y-85012013D01*
X97300708Y-85107197D01*
X97175486Y-85174129D01*
X97103903Y-85418098D01*
X91702118Y-85418098D01*
X91686502Y-85366620D01*
X91627537Y-85256306D01*
X91548185Y-85159615D01*
X91451494Y-85080263D01*
X91341180Y-85021298D01*
X91221482Y-84984988D01*
X91097000Y-84972728D01*
X89497000Y-84972728D01*
X89372518Y-84984988D01*
X89252820Y-85021298D01*
X89142506Y-85080263D01*
X89045815Y-85159615D01*
X88966463Y-85256306D01*
X88907498Y-85366620D01*
X88871188Y-85486318D01*
X88858928Y-85610800D01*
X88858928Y-87210800D01*
X88871188Y-87335282D01*
X88907498Y-87454980D01*
X88966463Y-87565294D01*
X89045815Y-87661985D01*
X89142506Y-87741337D01*
X89252820Y-87800302D01*
X89372518Y-87836612D01*
X89380961Y-87837443D01*
X89182363Y-88036041D01*
X89025320Y-88271073D01*
X88917147Y-88532226D01*
X88862000Y-88809465D01*
X88862000Y-89092135D01*
X88917147Y-89369374D01*
X89025320Y-89630527D01*
X89182363Y-89865559D01*
X89382241Y-90065437D01*
X89614759Y-90220800D01*
X89382241Y-90376163D01*
X89182363Y-90576041D01*
X89025320Y-90811073D01*
X88917147Y-91072226D01*
X88862000Y-91349465D01*
X88862000Y-91632135D01*
X88917147Y-91909374D01*
X89025320Y-92170527D01*
X89182363Y-92405559D01*
X89382241Y-92605437D01*
X89614759Y-92760800D01*
X89382241Y-92916163D01*
X89182363Y-93116041D01*
X89062551Y-93295353D01*
X87477601Y-91710403D01*
X87477601Y-89452461D01*
X87482516Y-89402559D01*
X87462899Y-89203388D01*
X87404803Y-89011872D01*
X87404517Y-89011337D01*
X87310461Y-88835369D01*
X87183497Y-88680663D01*
X87144734Y-88648851D01*
X84185553Y-85689671D01*
X84153737Y-85650903D01*
X83999031Y-85523939D01*
X83822528Y-85429597D01*
X83631012Y-85371501D01*
X83481743Y-85356799D01*
X83431841Y-85351884D01*
X83381939Y-85356799D01*
X76541903Y-85356799D01*
X76492001Y-85351884D01*
X76442099Y-85356799D01*
X76292830Y-85371501D01*
X76101314Y-85429597D01*
X75924811Y-85523939D01*
X75770105Y-85650903D01*
X75738293Y-85689666D01*
X75185231Y-86242728D01*
X74384000Y-86242728D01*
X74259518Y-86254988D01*
X74139820Y-86291298D01*
X74029506Y-86350263D01*
X73932815Y-86429615D01*
X73853463Y-86526306D01*
X73794498Y-86636620D01*
X73758188Y-86756318D01*
X73745928Y-86880800D01*
X71971639Y-86880800D01*
X72161387Y-86691052D01*
X72340318Y-86423263D01*
X72463568Y-86125712D01*
X72526400Y-85809833D01*
X72526400Y-85487767D01*
X72463568Y-85171888D01*
X72340318Y-84874337D01*
X72161387Y-84606548D01*
X71933652Y-84378813D01*
X71665863Y-84199882D01*
X71368312Y-84076632D01*
X71052433Y-84013800D01*
X70730367Y-84013800D01*
X70414488Y-84076632D01*
X70116937Y-84199882D01*
X69849148Y-84378813D01*
X69621413Y-84606548D01*
X69621400Y-84606567D01*
X69621387Y-84606548D01*
X69393652Y-84378813D01*
X69125863Y-84199882D01*
X68828312Y-84076632D01*
X68512433Y-84013800D01*
X68190367Y-84013800D01*
X67874488Y-84076632D01*
X67576937Y-84199882D01*
X67309148Y-84378813D01*
X67233000Y-84454961D01*
X67233000Y-83912743D01*
X99466400Y-83912743D01*
X99466400Y-84082857D01*
X99499587Y-84249703D01*
X99564687Y-84406868D01*
X99659198Y-84548313D01*
X99779487Y-84668602D01*
X99920932Y-84763113D01*
X100078097Y-84828213D01*
X100244943Y-84861400D01*
X100415057Y-84861400D01*
X100581903Y-84828213D01*
X100739068Y-84763113D01*
X100880513Y-84668602D01*
X101000802Y-84548313D01*
X101095313Y-84406868D01*
X101160413Y-84249703D01*
X101193600Y-84082857D01*
X101193600Y-83912743D01*
X101160413Y-83745897D01*
X101095313Y-83588732D01*
X101000802Y-83447287D01*
X100880513Y-83326998D01*
X100739068Y-83232487D01*
X100581903Y-83167387D01*
X100415057Y-83134200D01*
X100244943Y-83134200D01*
X100078097Y-83167387D01*
X99920932Y-83232487D01*
X99779487Y-83326998D01*
X99659198Y-83447287D01*
X99564687Y-83588732D01*
X99499587Y-83745897D01*
X99466400Y-83912743D01*
X67233000Y-83912743D01*
X67233000Y-81194400D01*
X108529328Y-81194400D01*
X108529328Y-83194400D01*
X108541588Y-83318882D01*
X108577898Y-83438580D01*
X108636863Y-83548894D01*
X108716215Y-83645585D01*
X108812906Y-83724937D01*
X108923220Y-83783902D01*
X109042918Y-83820212D01*
X109167400Y-83832472D01*
X111167400Y-83832472D01*
X111291882Y-83820212D01*
X111411580Y-83783902D01*
X111521894Y-83724937D01*
X111618585Y-83645585D01*
X111697937Y-83548894D01*
X111756902Y-83438580D01*
X111793212Y-83318882D01*
X111805472Y-83194400D01*
X111805472Y-82033367D01*
X118532400Y-82033367D01*
X118532400Y-82355433D01*
X118595232Y-82671312D01*
X118718482Y-82968863D01*
X118897413Y-83236652D01*
X119125148Y-83464387D01*
X119392937Y-83643318D01*
X119690488Y-83766568D01*
X120006367Y-83829400D01*
X120328433Y-83829400D01*
X120644312Y-83766568D01*
X120941863Y-83643318D01*
X121209652Y-83464387D01*
X121437387Y-83236652D01*
X121616318Y-82968863D01*
X121739568Y-82671312D01*
X121802400Y-82355433D01*
X121802400Y-82033367D01*
X121739568Y-81717488D01*
X121616318Y-81419937D01*
X121437387Y-81152148D01*
X121209652Y-80924413D01*
X120941863Y-80745482D01*
X120644312Y-80622232D01*
X120328433Y-80559400D01*
X120006367Y-80559400D01*
X119690488Y-80622232D01*
X119392937Y-80745482D01*
X119125148Y-80924413D01*
X118897413Y-81152148D01*
X118718482Y-81419937D01*
X118595232Y-81717488D01*
X118532400Y-82033367D01*
X111805472Y-82033367D01*
X111805472Y-81194400D01*
X111793212Y-81069918D01*
X111756902Y-80950220D01*
X111697937Y-80839906D01*
X111618585Y-80743215D01*
X111521894Y-80663863D01*
X111411580Y-80604898D01*
X111291882Y-80568588D01*
X111167400Y-80556328D01*
X109167400Y-80556328D01*
X109042918Y-80568588D01*
X108923220Y-80604898D01*
X108812906Y-80663863D01*
X108716215Y-80743215D01*
X108636863Y-80839906D01*
X108577898Y-80950220D01*
X108541588Y-81069918D01*
X108529328Y-81194400D01*
X67233000Y-81194400D01*
X67233000Y-78552253D01*
X67332620Y-78605502D01*
X67452318Y-78641812D01*
X67576800Y-78654072D01*
X68091050Y-78651000D01*
X68249800Y-78492250D01*
X68249800Y-77343000D01*
X68229800Y-77343000D01*
X68229800Y-77089000D01*
X68249800Y-77089000D01*
X68249800Y-75939750D01*
X68503800Y-75939750D01*
X68503800Y-77089000D01*
X68523800Y-77089000D01*
X68523800Y-77343000D01*
X68503800Y-77343000D01*
X68503800Y-78492250D01*
X68662550Y-78651000D01*
X69176800Y-78654072D01*
X69301282Y-78641812D01*
X69420980Y-78605502D01*
X69531294Y-78546537D01*
X69627985Y-78467185D01*
X69641590Y-78450607D01*
X69697073Y-78487680D01*
X69958226Y-78595853D01*
X70235465Y-78651000D01*
X70518135Y-78651000D01*
X70795374Y-78595853D01*
X71056527Y-78487680D01*
X71291559Y-78330637D01*
X71491437Y-78130759D01*
X71648480Y-77895727D01*
X71756653Y-77634574D01*
X71811800Y-77357335D01*
X71811800Y-77074665D01*
X71756653Y-76797426D01*
X71648480Y-76536273D01*
X71519852Y-76343767D01*
X80527000Y-76343767D01*
X80527000Y-76665833D01*
X80589832Y-76981712D01*
X80713082Y-77279263D01*
X80892013Y-77547052D01*
X81119748Y-77774787D01*
X81387537Y-77953718D01*
X81685088Y-78076968D01*
X82000967Y-78139800D01*
X82323033Y-78139800D01*
X82638912Y-78076968D01*
X82936463Y-77953718D01*
X83204252Y-77774787D01*
X83431987Y-77547052D01*
X83610918Y-77279263D01*
X83734168Y-76981712D01*
X83797000Y-76665833D01*
X83797000Y-76343767D01*
X88027000Y-76343767D01*
X88027000Y-76665833D01*
X88089832Y-76981712D01*
X88213082Y-77279263D01*
X88392013Y-77547052D01*
X88619748Y-77774787D01*
X88887537Y-77953718D01*
X89185088Y-78076968D01*
X89500967Y-78139800D01*
X89823033Y-78139800D01*
X90138912Y-78076968D01*
X90436463Y-77953718D01*
X90704252Y-77774787D01*
X90931987Y-77547052D01*
X91110918Y-77279263D01*
X91234168Y-76981712D01*
X91297000Y-76665833D01*
X91297000Y-76343767D01*
X96783000Y-76343767D01*
X96783000Y-76665833D01*
X96845832Y-76981712D01*
X96969082Y-77279263D01*
X97148013Y-77547052D01*
X97375748Y-77774787D01*
X97643537Y-77953718D01*
X97941088Y-78076968D01*
X98256967Y-78139800D01*
X98579033Y-78139800D01*
X98894912Y-78076968D01*
X99192463Y-77953718D01*
X99460252Y-77774787D01*
X99687987Y-77547052D01*
X99866918Y-77279263D01*
X99990168Y-76981712D01*
X100053000Y-76665833D01*
X100053000Y-76343767D01*
X104283000Y-76343767D01*
X104283000Y-76665833D01*
X104345832Y-76981712D01*
X104469082Y-77279263D01*
X104648013Y-77547052D01*
X104875748Y-77774787D01*
X105143537Y-77953718D01*
X105441088Y-78076968D01*
X105756967Y-78139800D01*
X106079033Y-78139800D01*
X106394912Y-78076968D01*
X106692463Y-77953718D01*
X106960252Y-77774787D01*
X107187987Y-77547052D01*
X107366918Y-77279263D01*
X107490168Y-76981712D01*
X107553000Y-76665833D01*
X107553000Y-76572367D01*
X109076600Y-76572367D01*
X109076600Y-76894433D01*
X109139432Y-77210312D01*
X109262682Y-77507863D01*
X109441613Y-77775652D01*
X109669348Y-78003387D01*
X109937137Y-78182318D01*
X110234688Y-78305568D01*
X110550567Y-78368400D01*
X110872633Y-78368400D01*
X111188512Y-78305568D01*
X111486063Y-78182318D01*
X111753852Y-78003387D01*
X111981587Y-77775652D01*
X112160518Y-77507863D01*
X112283768Y-77210312D01*
X112346600Y-76894433D01*
X112346600Y-76572367D01*
X116576600Y-76572367D01*
X116576600Y-76894433D01*
X116639432Y-77210312D01*
X116762682Y-77507863D01*
X116941613Y-77775652D01*
X117169348Y-78003387D01*
X117437137Y-78182318D01*
X117734688Y-78305568D01*
X118050567Y-78368400D01*
X118372633Y-78368400D01*
X118688512Y-78305568D01*
X118986063Y-78182318D01*
X119253852Y-78003387D01*
X119481587Y-77775652D01*
X119660518Y-77507863D01*
X119783768Y-77210312D01*
X119846600Y-76894433D01*
X119846600Y-76572367D01*
X119783768Y-76256488D01*
X119660518Y-75958937D01*
X119481587Y-75691148D01*
X119253852Y-75463413D01*
X118986063Y-75284482D01*
X118688512Y-75161232D01*
X118372633Y-75098400D01*
X118050567Y-75098400D01*
X117734688Y-75161232D01*
X117437137Y-75284482D01*
X117169348Y-75463413D01*
X116941613Y-75691148D01*
X116762682Y-75958937D01*
X116639432Y-76256488D01*
X116576600Y-76572367D01*
X112346600Y-76572367D01*
X112283768Y-76256488D01*
X112160518Y-75958937D01*
X111981587Y-75691148D01*
X111753852Y-75463413D01*
X111486063Y-75284482D01*
X111188512Y-75161232D01*
X110872633Y-75098400D01*
X110550567Y-75098400D01*
X110234688Y-75161232D01*
X109937137Y-75284482D01*
X109669348Y-75463413D01*
X109441613Y-75691148D01*
X109262682Y-75958937D01*
X109139432Y-76256488D01*
X109076600Y-76572367D01*
X107553000Y-76572367D01*
X107553000Y-76343767D01*
X107490168Y-76027888D01*
X107366918Y-75730337D01*
X107187987Y-75462548D01*
X106960252Y-75234813D01*
X106692463Y-75055882D01*
X106394912Y-74932632D01*
X106079033Y-74869800D01*
X105756967Y-74869800D01*
X105441088Y-74932632D01*
X105143537Y-75055882D01*
X104875748Y-75234813D01*
X104648013Y-75462548D01*
X104469082Y-75730337D01*
X104345832Y-76027888D01*
X104283000Y-76343767D01*
X100053000Y-76343767D01*
X99990168Y-76027888D01*
X99866918Y-75730337D01*
X99687987Y-75462548D01*
X99460252Y-75234813D01*
X99192463Y-75055882D01*
X98894912Y-74932632D01*
X98579033Y-74869800D01*
X98256967Y-74869800D01*
X97941088Y-74932632D01*
X97643537Y-75055882D01*
X97375748Y-75234813D01*
X97148013Y-75462548D01*
X96969082Y-75730337D01*
X96845832Y-76027888D01*
X96783000Y-76343767D01*
X91297000Y-76343767D01*
X91234168Y-76027888D01*
X91110918Y-75730337D01*
X90931987Y-75462548D01*
X90704252Y-75234813D01*
X90436463Y-75055882D01*
X90138912Y-74932632D01*
X89823033Y-74869800D01*
X89500967Y-74869800D01*
X89185088Y-74932632D01*
X88887537Y-75055882D01*
X88619748Y-75234813D01*
X88392013Y-75462548D01*
X88213082Y-75730337D01*
X88089832Y-76027888D01*
X88027000Y-76343767D01*
X83797000Y-76343767D01*
X83734168Y-76027888D01*
X83610918Y-75730337D01*
X83431987Y-75462548D01*
X83204252Y-75234813D01*
X82936463Y-75055882D01*
X82638912Y-74932632D01*
X82323033Y-74869800D01*
X82000967Y-74869800D01*
X81685088Y-74932632D01*
X81387537Y-75055882D01*
X81119748Y-75234813D01*
X80892013Y-75462548D01*
X80713082Y-75730337D01*
X80589832Y-76027888D01*
X80527000Y-76343767D01*
X71519852Y-76343767D01*
X71491437Y-76301241D01*
X71291559Y-76101363D01*
X71056527Y-75944320D01*
X70795374Y-75836147D01*
X70518135Y-75781000D01*
X70235465Y-75781000D01*
X69958226Y-75836147D01*
X69697073Y-75944320D01*
X69641590Y-75981393D01*
X69627985Y-75964815D01*
X69531294Y-75885463D01*
X69420980Y-75826498D01*
X69301282Y-75790188D01*
X69176800Y-75777928D01*
X68662550Y-75781000D01*
X68503800Y-75939750D01*
X68249800Y-75939750D01*
X68091050Y-75781000D01*
X67576800Y-75777928D01*
X67452318Y-75790188D01*
X67332620Y-75826498D01*
X67233000Y-75879747D01*
X67233000Y-71542943D01*
X74828400Y-71542943D01*
X74828400Y-71713057D01*
X74861587Y-71879903D01*
X74926687Y-72037068D01*
X75021198Y-72178513D01*
X75141487Y-72298802D01*
X75282932Y-72393313D01*
X75440097Y-72458413D01*
X75606943Y-72491600D01*
X75777057Y-72491600D01*
X75943903Y-72458413D01*
X76101068Y-72393313D01*
X76242513Y-72298802D01*
X76362802Y-72178513D01*
X76457313Y-72037068D01*
X76522413Y-71879903D01*
X76555600Y-71713057D01*
X76555600Y-71542943D01*
X76522413Y-71376097D01*
X76457313Y-71218932D01*
X76362802Y-71077487D01*
X76242513Y-70957198D01*
X76101068Y-70862687D01*
X75943903Y-70797587D01*
X75777057Y-70764400D01*
X75606943Y-70764400D01*
X75440097Y-70797587D01*
X75282932Y-70862687D01*
X75141487Y-70957198D01*
X75021198Y-71077487D01*
X74926687Y-71218932D01*
X74861587Y-71376097D01*
X74828400Y-71542943D01*
X67233000Y-71542943D01*
X67233000Y-67478943D01*
X74320400Y-67478943D01*
X74320400Y-67649057D01*
X74353587Y-67815903D01*
X74418687Y-67973068D01*
X74513198Y-68114513D01*
X74633487Y-68234802D01*
X74774932Y-68329313D01*
X74932097Y-68394413D01*
X75098943Y-68427600D01*
X75269057Y-68427600D01*
X75435903Y-68394413D01*
X75593068Y-68329313D01*
X75734513Y-68234802D01*
X75854802Y-68114513D01*
X75949313Y-67973068D01*
X76014413Y-67815903D01*
X76047600Y-67649057D01*
X76047600Y-67478943D01*
X76014413Y-67312097D01*
X75949313Y-67154932D01*
X75854802Y-67013487D01*
X75734513Y-66893198D01*
X75593068Y-66798687D01*
X75435903Y-66733587D01*
X75269057Y-66700400D01*
X75098943Y-66700400D01*
X74932097Y-66733587D01*
X74774932Y-66798687D01*
X74633487Y-66893198D01*
X74513198Y-67013487D01*
X74418687Y-67154932D01*
X74353587Y-67312097D01*
X74320400Y-67478943D01*
X67233000Y-67478943D01*
X67233000Y-63669167D01*
X67948300Y-63669167D01*
X67948300Y-63991233D01*
X68011132Y-64307112D01*
X68134382Y-64604663D01*
X68313313Y-64872452D01*
X68541048Y-65100187D01*
X68808837Y-65279118D01*
X69106388Y-65402368D01*
X69422267Y-65465200D01*
X69744333Y-65465200D01*
X70060212Y-65402368D01*
X70357763Y-65279118D01*
X70625552Y-65100187D01*
X70853287Y-64872452D01*
X70853300Y-64872433D01*
X70853313Y-64872452D01*
X71081048Y-65100187D01*
X71348837Y-65279118D01*
X71646388Y-65402368D01*
X71962267Y-65465200D01*
X72284333Y-65465200D01*
X72600212Y-65402368D01*
X72897763Y-65279118D01*
X73165552Y-65100187D01*
X73393287Y-64872452D01*
X73572218Y-64604663D01*
X73593203Y-64554000D01*
X80603928Y-64554000D01*
X80616188Y-64678482D01*
X80652498Y-64798180D01*
X80711463Y-64908494D01*
X80790815Y-65005185D01*
X80887506Y-65084537D01*
X80997820Y-65143502D01*
X81117518Y-65179812D01*
X81125961Y-65180643D01*
X80927363Y-65379241D01*
X80770320Y-65614273D01*
X80662147Y-65875426D01*
X80607000Y-66152665D01*
X80607000Y-66435335D01*
X80662147Y-66712574D01*
X80770320Y-66973727D01*
X80927363Y-67208759D01*
X81127241Y-67408637D01*
X81359759Y-67564000D01*
X81127241Y-67719363D01*
X80927363Y-67919241D01*
X80770320Y-68154273D01*
X80662147Y-68415426D01*
X80607000Y-68692665D01*
X80607000Y-68975335D01*
X80662147Y-69252574D01*
X80770320Y-69513727D01*
X80927363Y-69748759D01*
X81127241Y-69948637D01*
X81359759Y-70104000D01*
X81127241Y-70259363D01*
X80927363Y-70459241D01*
X80770320Y-70694273D01*
X80662147Y-70955426D01*
X80607000Y-71232665D01*
X80607000Y-71515335D01*
X80662147Y-71792574D01*
X80770320Y-72053727D01*
X80927363Y-72288759D01*
X81127241Y-72488637D01*
X81362273Y-72645680D01*
X81623426Y-72753853D01*
X81900665Y-72809000D01*
X82183335Y-72809000D01*
X82460574Y-72753853D01*
X82721727Y-72645680D01*
X82956759Y-72488637D01*
X83156637Y-72288759D01*
X83313680Y-72053727D01*
X83421853Y-71792574D01*
X83477000Y-71515335D01*
X83477000Y-71232665D01*
X83421853Y-70955426D01*
X83313680Y-70694273D01*
X83156637Y-70459241D01*
X82956759Y-70259363D01*
X82724241Y-70104000D01*
X82956759Y-69948637D01*
X83156637Y-69748759D01*
X83313680Y-69513727D01*
X83421853Y-69252574D01*
X83477000Y-68975335D01*
X83477000Y-68692665D01*
X83421853Y-68415426D01*
X83313680Y-68154273D01*
X83156637Y-67919241D01*
X82956759Y-67719363D01*
X82724241Y-67564000D01*
X82956759Y-67408637D01*
X83156637Y-67208759D01*
X83313680Y-66973727D01*
X83421853Y-66712574D01*
X83477000Y-66435335D01*
X83477000Y-66152665D01*
X83421853Y-65875426D01*
X83313680Y-65614273D01*
X83156637Y-65379241D01*
X82958039Y-65180643D01*
X82966482Y-65179812D01*
X83086180Y-65143502D01*
X83196494Y-65084537D01*
X83293185Y-65005185D01*
X83372537Y-64908494D01*
X83431502Y-64798180D01*
X83467812Y-64678482D01*
X83480072Y-64554000D01*
X83477000Y-64039750D01*
X83318250Y-63881000D01*
X82169000Y-63881000D01*
X82169000Y-63901000D01*
X81915000Y-63901000D01*
X81915000Y-63881000D01*
X80765750Y-63881000D01*
X80607000Y-64039750D01*
X80603928Y-64554000D01*
X73593203Y-64554000D01*
X73695468Y-64307112D01*
X73758300Y-63991233D01*
X73758300Y-63669167D01*
X73695468Y-63353288D01*
X73572218Y-63055737D01*
X73393287Y-62787948D01*
X73165552Y-62560213D01*
X72897763Y-62381282D01*
X72600212Y-62258032D01*
X72284333Y-62195200D01*
X71962267Y-62195200D01*
X71646388Y-62258032D01*
X71348837Y-62381282D01*
X71081048Y-62560213D01*
X70853313Y-62787948D01*
X70853300Y-62787967D01*
X70853287Y-62787948D01*
X70625552Y-62560213D01*
X70357763Y-62381282D01*
X70060212Y-62258032D01*
X69744333Y-62195200D01*
X69422267Y-62195200D01*
X69106388Y-62258032D01*
X68808837Y-62381282D01*
X68541048Y-62560213D01*
X68313313Y-62787948D01*
X68134382Y-63055737D01*
X68011132Y-63353288D01*
X67948300Y-63669167D01*
X67233000Y-63669167D01*
X67233000Y-54025000D01*
X70167434Y-54025000D01*
X69976148Y-54152813D01*
G04 #@! TA.AperFunction,Conductor*
D18*
G36*
X69976148Y-54152813D02*
G01*
X69748413Y-54380548D01*
X69569482Y-54648337D01*
X69446232Y-54945888D01*
X69383400Y-55261767D01*
X69383400Y-55583833D01*
X69446232Y-55899712D01*
X69569482Y-56197263D01*
X69748413Y-56465052D01*
X69976148Y-56692787D01*
X69976167Y-56692800D01*
X69976148Y-56692813D01*
X69748413Y-56920548D01*
X69569482Y-57188337D01*
X69446232Y-57485888D01*
X69383400Y-57801767D01*
X69383400Y-58123833D01*
X69446232Y-58439712D01*
X69569482Y-58737263D01*
X69748413Y-59005052D01*
X69976148Y-59232787D01*
X70243937Y-59411718D01*
X70541488Y-59534968D01*
X70857367Y-59597800D01*
X71179433Y-59597800D01*
X71210400Y-59591640D01*
X74493891Y-62875132D01*
X74525703Y-62913895D01*
X74564464Y-62945705D01*
X74680409Y-63040859D01*
X74856912Y-63135201D01*
X75048428Y-63193297D01*
X75247599Y-63212914D01*
X75297501Y-63207999D01*
X80605445Y-63207999D01*
X80607000Y-63468250D01*
X80765750Y-63627000D01*
X81915000Y-63627000D01*
X81915000Y-63607000D01*
X82169000Y-63607000D01*
X82169000Y-63627000D01*
X83318250Y-63627000D01*
X83477000Y-63468250D01*
X83478555Y-63207999D01*
X88334929Y-63207999D01*
X88282147Y-63335426D01*
X88227000Y-63612665D01*
X88227000Y-63895335D01*
X88282147Y-64172574D01*
X88390320Y-64433727D01*
X88547363Y-64668759D01*
X88747241Y-64868637D01*
X88979759Y-65024000D01*
X88747241Y-65179363D01*
X88547363Y-65379241D01*
X88390320Y-65614273D01*
X88282147Y-65875426D01*
X88227000Y-66152665D01*
X88227000Y-66435335D01*
X88282147Y-66712574D01*
X88390320Y-66973727D01*
X88547363Y-67208759D01*
X88747241Y-67408637D01*
X88979759Y-67564000D01*
X88747241Y-67719363D01*
X88547363Y-67919241D01*
X88390320Y-68154273D01*
X88282147Y-68415426D01*
X88227000Y-68692665D01*
X88227000Y-68975335D01*
X88282147Y-69252574D01*
X88390320Y-69513727D01*
X88547363Y-69748759D01*
X88747241Y-69948637D01*
X88979759Y-70104000D01*
X88747241Y-70259363D01*
X88547363Y-70459241D01*
X88390320Y-70694273D01*
X88282147Y-70955426D01*
X88227000Y-71232665D01*
X88227000Y-71515335D01*
X88282147Y-71792574D01*
X88390320Y-72053727D01*
X88547363Y-72288759D01*
X88747241Y-72488637D01*
X88982273Y-72645680D01*
X89243426Y-72753853D01*
X89520665Y-72809000D01*
X89803335Y-72809000D01*
X90080574Y-72753853D01*
X90341727Y-72645680D01*
X90576759Y-72488637D01*
X90776637Y-72288759D01*
X90933680Y-72053727D01*
X91041853Y-71792574D01*
X91097000Y-71515335D01*
X91097000Y-71232665D01*
X91057671Y-71034943D01*
X91592400Y-71034943D01*
X91592400Y-71205057D01*
X91625587Y-71371903D01*
X91690687Y-71529068D01*
X91785198Y-71670513D01*
X91905487Y-71790802D01*
X92046932Y-71885313D01*
X92204097Y-71950413D01*
X92370943Y-71983600D01*
X92541057Y-71983600D01*
X92707903Y-71950413D01*
X92865068Y-71885313D01*
X93006513Y-71790802D01*
X93126802Y-71670513D01*
X93221313Y-71529068D01*
X93286413Y-71371903D01*
X93319600Y-71205057D01*
X93319600Y-71034943D01*
X93286413Y-70868097D01*
X93221313Y-70710932D01*
X93126802Y-70569487D01*
X93006513Y-70449198D01*
X92865068Y-70354687D01*
X92707903Y-70289587D01*
X92541057Y-70256400D01*
X92370943Y-70256400D01*
X92204097Y-70289587D01*
X92046932Y-70354687D01*
X91905487Y-70449198D01*
X91785198Y-70569487D01*
X91690687Y-70710932D01*
X91625587Y-70868097D01*
X91592400Y-71034943D01*
X91057671Y-71034943D01*
X91041853Y-70955426D01*
X90933680Y-70694273D01*
X90776637Y-70459241D01*
X90576759Y-70259363D01*
X90344241Y-70104000D01*
X90576759Y-69948637D01*
X90776637Y-69748759D01*
X90933680Y-69513727D01*
X91041853Y-69252574D01*
X91097000Y-68975335D01*
X91097000Y-68692665D01*
X91041853Y-68415426D01*
X90933680Y-68154273D01*
X90776637Y-67919241D01*
X90576759Y-67719363D01*
X90344241Y-67564000D01*
X90576759Y-67408637D01*
X90776637Y-67208759D01*
X90933680Y-66973727D01*
X91041853Y-66712574D01*
X91097000Y-66435335D01*
X91097000Y-66152665D01*
X91041853Y-65875426D01*
X90933680Y-65614273D01*
X90776637Y-65379241D01*
X90576759Y-65179363D01*
X90344241Y-65024000D01*
X90576759Y-64868637D01*
X90776637Y-64668759D01*
X90933680Y-64433727D01*
X91041853Y-64172574D01*
X91097000Y-63895335D01*
X91097000Y-63612665D01*
X91041853Y-63335426D01*
X90989071Y-63207999D01*
X91642196Y-63207999D01*
X91625587Y-63248097D01*
X91592400Y-63414943D01*
X91592400Y-63585057D01*
X91625587Y-63751903D01*
X91690687Y-63909068D01*
X91785198Y-64050513D01*
X91905487Y-64170802D01*
X92046932Y-64265313D01*
X92204097Y-64330413D01*
X92370943Y-64363600D01*
X92541057Y-64363600D01*
X92707903Y-64330413D01*
X92781326Y-64300000D01*
X96859928Y-64300000D01*
X96872188Y-64424482D01*
X96908498Y-64544180D01*
X96967463Y-64654494D01*
X97046815Y-64751185D01*
X97143506Y-64830537D01*
X97253820Y-64889502D01*
X97373518Y-64925812D01*
X97381961Y-64926643D01*
X97183363Y-65125241D01*
X97026320Y-65360273D01*
X96918147Y-65621426D01*
X96863000Y-65898665D01*
X96863000Y-66181335D01*
X96918147Y-66458574D01*
X97026320Y-66719727D01*
X97183363Y-66954759D01*
X97383241Y-67154637D01*
X97615759Y-67310000D01*
X97383241Y-67465363D01*
X97183363Y-67665241D01*
X97026320Y-67900273D01*
X96918147Y-68161426D01*
X96863000Y-68438665D01*
X96863000Y-68721335D01*
X96918147Y-68998574D01*
X97026320Y-69259727D01*
X97183363Y-69494759D01*
X97383241Y-69694637D01*
X97615759Y-69850000D01*
X97383241Y-70005363D01*
X97183363Y-70205241D01*
X97026320Y-70440273D01*
X96918147Y-70701426D01*
X96863000Y-70978665D01*
X96863000Y-71261335D01*
X96918147Y-71538574D01*
X97026320Y-71799727D01*
X97183363Y-72034759D01*
X97383241Y-72234637D01*
X97618273Y-72391680D01*
X97879426Y-72499853D01*
X98156665Y-72555000D01*
X98439335Y-72555000D01*
X98716574Y-72499853D01*
X98977727Y-72391680D01*
X99212759Y-72234637D01*
X99412637Y-72034759D01*
X99569680Y-71799727D01*
X99677853Y-71538574D01*
X99733000Y-71261335D01*
X99733000Y-70978665D01*
X99677853Y-70701426D01*
X99569680Y-70440273D01*
X99412637Y-70205241D01*
X99212759Y-70005363D01*
X98980241Y-69850000D01*
X99212759Y-69694637D01*
X99412637Y-69494759D01*
X99569680Y-69259727D01*
X99677853Y-68998574D01*
X99733000Y-68721335D01*
X99733000Y-68438665D01*
X99677853Y-68161426D01*
X99569680Y-67900273D01*
X99412637Y-67665241D01*
X99212759Y-67465363D01*
X98980241Y-67310000D01*
X99212759Y-67154637D01*
X99412637Y-66954759D01*
X99569680Y-66719727D01*
X99677853Y-66458574D01*
X99733000Y-66181335D01*
X99733000Y-65898665D01*
X99677853Y-65621426D01*
X99569680Y-65360273D01*
X99412637Y-65125241D01*
X99214039Y-64926643D01*
X99222482Y-64925812D01*
X99342180Y-64889502D01*
X99452494Y-64830537D01*
X99549185Y-64751185D01*
X99628537Y-64654494D01*
X99687502Y-64544180D01*
X99723812Y-64424482D01*
X99736072Y-64300000D01*
X99733000Y-63785750D01*
X99574250Y-63627000D01*
X98425000Y-63627000D01*
X98425000Y-63647000D01*
X98171000Y-63647000D01*
X98171000Y-63627000D01*
X97021750Y-63627000D01*
X96863000Y-63785750D01*
X96859928Y-64300000D01*
X92781326Y-64300000D01*
X92865068Y-64265313D01*
X93006513Y-64170802D01*
X93126802Y-64050513D01*
X93221313Y-63909068D01*
X93286413Y-63751903D01*
X93319600Y-63585057D01*
X93319600Y-63414943D01*
X93286413Y-63248097D01*
X93269804Y-63207999D01*
X96862963Y-63207999D01*
X96863000Y-63214250D01*
X97021750Y-63373000D01*
X98171000Y-63373000D01*
X98171000Y-63353000D01*
X98425000Y-63353000D01*
X98425000Y-63373000D01*
X99574250Y-63373000D01*
X99733000Y-63214250D01*
X99733037Y-63207999D01*
X104189159Y-63207999D01*
X104483000Y-63501840D01*
X104483000Y-63641335D01*
X104538147Y-63918574D01*
X104646320Y-64179727D01*
X104803363Y-64414759D01*
X105003241Y-64614637D01*
X105235759Y-64770000D01*
X105003241Y-64925363D01*
X104803363Y-65125241D01*
X104646320Y-65360273D01*
X104538147Y-65621426D01*
X104483000Y-65898665D01*
X104483000Y-66181335D01*
X104538147Y-66458574D01*
X104646320Y-66719727D01*
X104675902Y-66763999D01*
X104036629Y-66763999D01*
X102278245Y-65005615D01*
X102263713Y-64970532D01*
X102169202Y-64829087D01*
X102048913Y-64708798D01*
X101907468Y-64614287D01*
X101750303Y-64549187D01*
X101583457Y-64516000D01*
X101413343Y-64516000D01*
X101246497Y-64549187D01*
X101089332Y-64614287D01*
X100947887Y-64708798D01*
X100827598Y-64829087D01*
X100733087Y-64970532D01*
X100667987Y-65127697D01*
X100634800Y-65294543D01*
X100634800Y-65464657D01*
X100667987Y-65631503D01*
X100733087Y-65788668D01*
X100827598Y-65930113D01*
X100947887Y-66050402D01*
X101089332Y-66144913D01*
X101246497Y-66210013D01*
X101347467Y-66230097D01*
X103155715Y-68038345D01*
X103179577Y-68067421D01*
X103236959Y-68114513D01*
X103295606Y-68162644D01*
X103340848Y-68186826D01*
X103427984Y-68233401D01*
X103571621Y-68276973D01*
X103683573Y-68287999D01*
X103683576Y-68287999D01*
X103720999Y-68291685D01*
X103758422Y-68287999D01*
X104512970Y-68287999D01*
X104483000Y-68438665D01*
X104483000Y-68721335D01*
X104538147Y-68998574D01*
X104646320Y-69259727D01*
X104803363Y-69494759D01*
X105003241Y-69694637D01*
X105235759Y-69850000D01*
X105003241Y-70005363D01*
X104803363Y-70205241D01*
X104646320Y-70440273D01*
X104538147Y-70701426D01*
X104483000Y-70978665D01*
X104483000Y-71261335D01*
X104538147Y-71538574D01*
X104646320Y-71799727D01*
X104803363Y-72034759D01*
X105003241Y-72234637D01*
X105238273Y-72391680D01*
X105499426Y-72499853D01*
X105776665Y-72555000D01*
X106059335Y-72555000D01*
X106336574Y-72499853D01*
X106597727Y-72391680D01*
X106832759Y-72234637D01*
X107032637Y-72034759D01*
X107094393Y-71942334D01*
X107113897Y-71950413D01*
X107280743Y-71983600D01*
X107450857Y-71983600D01*
X107617703Y-71950413D01*
X107774868Y-71885313D01*
X107916313Y-71790802D01*
X108036602Y-71670513D01*
X108131113Y-71529068D01*
X108196213Y-71371903D01*
X108229400Y-71205057D01*
X108229400Y-71034943D01*
X108196213Y-70868097D01*
X108131113Y-70710932D01*
X108036602Y-70569487D01*
X107916313Y-70449198D01*
X107774868Y-70354687D01*
X107617703Y-70289587D01*
X107450857Y-70256400D01*
X107280743Y-70256400D01*
X107113897Y-70289587D01*
X107094393Y-70297666D01*
X107032637Y-70205241D01*
X106832759Y-70005363D01*
X106600241Y-69850000D01*
X106832759Y-69694637D01*
X107032637Y-69494759D01*
X107189680Y-69259727D01*
X107297853Y-68998574D01*
X107353000Y-68721335D01*
X107353000Y-68438665D01*
X107323030Y-68287999D01*
X111706222Y-68287999D01*
X111671200Y-68464065D01*
X111671200Y-68746735D01*
X111726347Y-69023974D01*
X111834520Y-69285127D01*
X111991563Y-69520159D01*
X112191441Y-69720037D01*
X112423959Y-69875400D01*
X112191441Y-70030763D01*
X111991563Y-70230641D01*
X111834520Y-70465673D01*
X111726347Y-70726826D01*
X111671200Y-71004065D01*
X111671200Y-71286735D01*
X111726347Y-71563974D01*
X111834520Y-71825127D01*
X111991563Y-72060159D01*
X112191441Y-72260037D01*
X112426473Y-72417080D01*
X112687626Y-72525253D01*
X112964865Y-72580400D01*
X113247535Y-72580400D01*
X113524774Y-72525253D01*
X113785927Y-72417080D01*
X114020959Y-72260037D01*
X114220837Y-72060159D01*
X114377880Y-71825127D01*
X114486053Y-71563974D01*
X114541200Y-71286735D01*
X114541200Y-71004065D01*
X114486053Y-70726826D01*
X114377880Y-70465673D01*
X114220837Y-70230641D01*
X114020959Y-70030763D01*
X113788441Y-69875400D01*
X114020959Y-69720037D01*
X114220837Y-69520159D01*
X114377880Y-69285127D01*
X114486053Y-69023974D01*
X114541200Y-68746735D01*
X114541200Y-68464065D01*
X114506178Y-68287999D01*
X116791169Y-68287999D01*
X119327043Y-70823874D01*
X119291200Y-71004065D01*
X119291200Y-71286735D01*
X119346347Y-71563974D01*
X119454520Y-71825127D01*
X119611563Y-72060159D01*
X119811441Y-72260037D01*
X120046473Y-72417080D01*
X120307626Y-72525253D01*
X120584865Y-72580400D01*
X120867535Y-72580400D01*
X121144774Y-72525253D01*
X121405927Y-72417080D01*
X121640959Y-72260037D01*
X121840837Y-72060159D01*
X121997880Y-71825127D01*
X122106053Y-71563974D01*
X122161200Y-71286735D01*
X122161200Y-71004065D01*
X122106053Y-70726826D01*
X121997880Y-70465673D01*
X121840837Y-70230641D01*
X121640959Y-70030763D01*
X121408441Y-69875400D01*
X121640959Y-69720037D01*
X121840837Y-69520159D01*
X121997880Y-69285127D01*
X122106053Y-69023974D01*
X122161200Y-68746735D01*
X122161200Y-68464065D01*
X122106053Y-68186826D01*
X121997880Y-67925673D01*
X121840837Y-67690641D01*
X121640959Y-67490763D01*
X121408441Y-67335400D01*
X121640959Y-67180037D01*
X121840837Y-66980159D01*
X121997880Y-66745127D01*
X122106053Y-66483974D01*
X122161200Y-66206735D01*
X122161200Y-65924065D01*
X122106053Y-65646826D01*
X121997880Y-65385673D01*
X121840837Y-65150641D01*
X121640959Y-64950763D01*
X121408441Y-64795400D01*
X121640959Y-64640037D01*
X121840837Y-64440159D01*
X121997880Y-64205127D01*
X122106053Y-63943974D01*
X122161200Y-63666735D01*
X122161200Y-63384065D01*
X122106053Y-63106826D01*
X121997880Y-62845673D01*
X121840837Y-62610641D01*
X121640959Y-62410763D01*
X121405927Y-62253720D01*
X121144774Y-62145547D01*
X120867535Y-62090400D01*
X120584865Y-62090400D01*
X120307626Y-62145547D01*
X120046473Y-62253720D01*
X119811441Y-62410763D01*
X119611563Y-62610641D01*
X119454520Y-62845673D01*
X119346347Y-63106826D01*
X119291200Y-63384065D01*
X119291200Y-63666735D01*
X119346347Y-63943974D01*
X119454520Y-64205127D01*
X119611563Y-64440159D01*
X119811441Y-64640037D01*
X120043959Y-64795400D01*
X119811441Y-64950763D01*
X119611563Y-65150641D01*
X119454520Y-65385673D01*
X119346347Y-65646826D01*
X119291200Y-65924065D01*
X119291200Y-66206735D01*
X119346347Y-66483974D01*
X119454520Y-66745127D01*
X119611563Y-66980159D01*
X119811441Y-67180037D01*
X120043959Y-67335400D01*
X119811441Y-67490763D01*
X119611563Y-67690641D01*
X119454520Y-67925673D01*
X119346347Y-68186826D01*
X119291200Y-68464065D01*
X119291200Y-68632770D01*
X117672083Y-67013653D01*
X117648221Y-66984577D01*
X117532191Y-66889354D01*
X117399814Y-66818597D01*
X117256177Y-66775025D01*
X117144225Y-66763999D01*
X117144222Y-66763999D01*
X117106799Y-66760313D01*
X117069376Y-66763999D01*
X114365270Y-66763999D01*
X114377880Y-66745127D01*
X114486053Y-66483974D01*
X114541200Y-66206735D01*
X114541200Y-65924065D01*
X114486053Y-65646826D01*
X114377880Y-65385673D01*
X114220837Y-65150641D01*
X114022239Y-64952043D01*
X114030682Y-64951212D01*
X114150380Y-64914902D01*
X114260694Y-64855937D01*
X114357385Y-64776585D01*
X114436737Y-64679894D01*
X114495702Y-64569580D01*
X114532012Y-64449882D01*
X114544272Y-64325400D01*
X114541200Y-63811150D01*
X114382450Y-63652400D01*
X113233200Y-63652400D01*
X113233200Y-63672400D01*
X112979200Y-63672400D01*
X112979200Y-63652400D01*
X111829950Y-63652400D01*
X111671200Y-63811150D01*
X111668128Y-64325400D01*
X111680388Y-64449882D01*
X111716698Y-64569580D01*
X111775663Y-64679894D01*
X111855015Y-64776585D01*
X111951706Y-64855937D01*
X112062020Y-64914902D01*
X112181718Y-64951212D01*
X112190161Y-64952043D01*
X111991563Y-65150641D01*
X111834520Y-65385673D01*
X111726347Y-65646826D01*
X111671200Y-65924065D01*
X111671200Y-66206735D01*
X111726347Y-66483974D01*
X111834520Y-66745127D01*
X111847130Y-66763999D01*
X107160098Y-66763999D01*
X107189680Y-66719727D01*
X107297853Y-66458574D01*
X107353000Y-66181335D01*
X107353000Y-65898665D01*
X107297853Y-65621426D01*
X107189680Y-65360273D01*
X107032637Y-65125241D01*
X106832759Y-64925363D01*
X106600241Y-64770000D01*
X106832759Y-64614637D01*
X107032637Y-64414759D01*
X107094393Y-64322334D01*
X107113897Y-64330413D01*
X107280743Y-64363600D01*
X107450857Y-64363600D01*
X107617703Y-64330413D01*
X107774868Y-64265313D01*
X107916313Y-64170802D01*
X108036602Y-64050513D01*
X108131113Y-63909068D01*
X108196213Y-63751903D01*
X108229400Y-63585057D01*
X108229400Y-63414943D01*
X108196213Y-63248097D01*
X108131113Y-63090932D01*
X108036602Y-62949487D01*
X107916313Y-62829198D01*
X107774868Y-62734687D01*
X107752448Y-62725400D01*
X111668128Y-62725400D01*
X111671200Y-63239650D01*
X111829950Y-63398400D01*
X112979200Y-63398400D01*
X112979200Y-62249150D01*
X113233200Y-62249150D01*
X113233200Y-63398400D01*
X114382450Y-63398400D01*
X114541200Y-63239650D01*
X114544272Y-62725400D01*
X114532012Y-62600918D01*
X114495702Y-62481220D01*
X114436737Y-62370906D01*
X114357385Y-62274215D01*
X114260694Y-62194863D01*
X114150380Y-62135898D01*
X114030682Y-62099588D01*
X113906200Y-62087328D01*
X113391950Y-62090400D01*
X113233200Y-62249150D01*
X112979200Y-62249150D01*
X112820450Y-62090400D01*
X112306200Y-62087328D01*
X112181718Y-62099588D01*
X112062020Y-62135898D01*
X111951706Y-62194863D01*
X111855015Y-62274215D01*
X111775663Y-62370906D01*
X111716698Y-62481220D01*
X111680388Y-62600918D01*
X111668128Y-62725400D01*
X107752448Y-62725400D01*
X107617703Y-62669587D01*
X107450857Y-62636400D01*
X107280743Y-62636400D01*
X107113897Y-62669587D01*
X107094393Y-62677666D01*
X107032637Y-62585241D01*
X106832759Y-62385363D01*
X106597727Y-62228320D01*
X106336574Y-62120147D01*
X106059335Y-62065000D01*
X105919840Y-62065000D01*
X105363711Y-61508871D01*
X105331895Y-61470103D01*
X105177189Y-61343139D01*
X105000686Y-61248797D01*
X104809170Y-61190701D01*
X104659901Y-61175999D01*
X104609999Y-61171084D01*
X104560097Y-61175999D01*
X75668440Y-61175999D01*
X72647240Y-58154800D01*
X72653400Y-58123833D01*
X72653400Y-57801767D01*
X72590568Y-57485888D01*
X72467318Y-57188337D01*
X72288387Y-56920548D01*
X72060652Y-56692813D01*
X72060633Y-56692800D01*
X72060652Y-56692787D01*
X72288387Y-56465052D01*
X72467318Y-56197263D01*
X72590568Y-55899712D01*
X72653400Y-55583833D01*
X72653400Y-55261767D01*
X72590568Y-54945888D01*
X72467318Y-54648337D01*
X72288387Y-54380548D01*
X72060652Y-54152813D01*
X71869366Y-54025000D01*
X77787434Y-54025000D01*
X77596148Y-54152813D01*
X77368413Y-54380548D01*
X77189482Y-54648337D01*
X77066232Y-54945888D01*
X77003400Y-55261767D01*
X77003400Y-55583833D01*
X77066232Y-55899712D01*
X77189482Y-56197263D01*
X77368413Y-56465052D01*
X77596148Y-56692787D01*
X77596167Y-56692800D01*
X77596148Y-56692813D01*
X77368413Y-56920548D01*
X77189482Y-57188337D01*
X77066232Y-57485888D01*
X77003400Y-57801767D01*
X77003400Y-58123833D01*
X77066232Y-58439712D01*
X77189482Y-58737263D01*
X77368413Y-59005052D01*
X77596148Y-59232787D01*
X77863937Y-59411718D01*
X78161488Y-59534968D01*
X78477367Y-59597800D01*
X78799433Y-59597800D01*
X79115312Y-59534968D01*
X79412863Y-59411718D01*
X79680652Y-59232787D01*
X79908387Y-59005052D01*
X80087318Y-58737263D01*
X80210568Y-58439712D01*
X80273400Y-58123833D01*
X80273400Y-57801767D01*
X80210568Y-57485888D01*
X80087318Y-57188337D01*
X79908387Y-56920548D01*
X79680652Y-56692813D01*
X79680633Y-56692800D01*
X79680652Y-56692787D01*
X79908387Y-56465052D01*
X80087318Y-56197263D01*
X80210568Y-55899712D01*
X80273400Y-55583833D01*
X80273400Y-55261767D01*
X80210568Y-54945888D01*
X80087318Y-54648337D01*
X79908387Y-54380548D01*
X79680652Y-54152813D01*
X79489366Y-54025000D01*
X85407434Y-54025000D01*
X85216148Y-54152813D01*
X84988413Y-54380548D01*
X84809482Y-54648337D01*
X84686232Y-54945888D01*
X84623400Y-55261767D01*
X84623400Y-55583833D01*
X84686232Y-55899712D01*
X84809482Y-56197263D01*
X84988413Y-56465052D01*
X85216148Y-56692787D01*
X85216167Y-56692800D01*
X85216148Y-56692813D01*
X84988413Y-56920548D01*
X84809482Y-57188337D01*
X84686232Y-57485888D01*
X84623400Y-57801767D01*
X84623400Y-58123833D01*
X84686232Y-58439712D01*
X84809482Y-58737263D01*
X84988413Y-59005052D01*
X85216148Y-59232787D01*
X85483937Y-59411718D01*
X85781488Y-59534968D01*
X86097367Y-59597800D01*
X86419433Y-59597800D01*
X86735312Y-59534968D01*
X87032863Y-59411718D01*
X87300652Y-59232787D01*
X87528387Y-59005052D01*
X87707318Y-58737263D01*
X87830568Y-58439712D01*
X87893400Y-58123833D01*
X87893400Y-57801767D01*
X87830568Y-57485888D01*
X87707318Y-57188337D01*
X87528387Y-56920548D01*
X87300652Y-56692813D01*
X87300633Y-56692800D01*
X87300652Y-56692787D01*
X87528387Y-56465052D01*
X87707318Y-56197263D01*
X87830568Y-55899712D01*
X87893400Y-55583833D01*
X87893400Y-55261767D01*
X87830568Y-54945888D01*
X87707318Y-54648337D01*
X87528387Y-54380548D01*
X87300652Y-54152813D01*
X87109366Y-54025000D01*
X93027434Y-54025000D01*
X92836148Y-54152813D01*
X92608413Y-54380548D01*
X92429482Y-54648337D01*
X92306232Y-54945888D01*
X92243400Y-55261767D01*
X92243400Y-55583833D01*
X92306232Y-55899712D01*
X92429482Y-56197263D01*
X92608413Y-56465052D01*
X92836148Y-56692787D01*
X92836167Y-56692800D01*
X92836148Y-56692813D01*
X92608413Y-56920548D01*
X92429482Y-57188337D01*
X92306232Y-57485888D01*
X92243400Y-57801767D01*
X92243400Y-58123833D01*
X92306232Y-58439712D01*
X92429482Y-58737263D01*
X92608413Y-59005052D01*
X92836148Y-59232787D01*
X93103937Y-59411718D01*
X93401488Y-59534968D01*
X93717367Y-59597800D01*
X94039433Y-59597800D01*
X94355312Y-59534968D01*
X94652863Y-59411718D01*
X94920652Y-59232787D01*
X95148387Y-59005052D01*
X95327318Y-58737263D01*
X95450568Y-58439712D01*
X95513400Y-58123833D01*
X95513400Y-57801767D01*
X95450568Y-57485888D01*
X95327318Y-57188337D01*
X95148387Y-56920548D01*
X94920652Y-56692813D01*
X94920633Y-56692800D01*
X94920652Y-56692787D01*
X95148387Y-56465052D01*
X95327318Y-56197263D01*
X95450568Y-55899712D01*
X95513400Y-55583833D01*
X95513400Y-55261767D01*
X95450568Y-54945888D01*
X95327318Y-54648337D01*
X95148387Y-54380548D01*
X94920652Y-54152813D01*
X94729366Y-54025000D01*
X100647434Y-54025000D01*
X100456148Y-54152813D01*
X100228413Y-54380548D01*
X100049482Y-54648337D01*
X99926232Y-54945888D01*
X99863400Y-55261767D01*
X99863400Y-55583833D01*
X99926232Y-55899712D01*
X100049482Y-56197263D01*
X100228413Y-56465052D01*
X100456148Y-56692787D01*
X100456167Y-56692800D01*
X100456148Y-56692813D01*
X100228413Y-56920548D01*
X100049482Y-57188337D01*
X99926232Y-57485888D01*
X99863400Y-57801767D01*
X99863400Y-58123833D01*
X99926232Y-58439712D01*
X100049482Y-58737263D01*
X100228413Y-59005052D01*
X100456148Y-59232787D01*
X100723937Y-59411718D01*
X101021488Y-59534968D01*
X101337367Y-59597800D01*
X101659433Y-59597800D01*
X101975312Y-59534968D01*
X102272863Y-59411718D01*
X102540652Y-59232787D01*
X102768387Y-59005052D01*
X102947318Y-58737263D01*
X103070568Y-58439712D01*
X103133400Y-58123833D01*
X103133400Y-57801767D01*
X103070568Y-57485888D01*
X102947318Y-57188337D01*
X102768387Y-56920548D01*
X102540652Y-56692813D01*
X102540633Y-56692800D01*
X102540652Y-56692787D01*
X102768387Y-56465052D01*
X102947318Y-56197263D01*
X103070568Y-55899712D01*
X103133400Y-55583833D01*
X103133400Y-55261767D01*
X103070568Y-54945888D01*
X102947318Y-54648337D01*
X102768387Y-54380548D01*
X102540652Y-54152813D01*
X102349366Y-54025000D01*
X110807434Y-54025000D01*
X110616148Y-54152813D01*
X110388413Y-54380548D01*
X110209482Y-54648337D01*
X110086232Y-54945888D01*
X110023400Y-55261767D01*
X110023400Y-55583833D01*
X110086232Y-55899712D01*
X110209482Y-56197263D01*
X110388413Y-56465052D01*
X110616148Y-56692787D01*
X110616167Y-56692800D01*
X110616148Y-56692813D01*
X110388413Y-56920548D01*
X110209482Y-57188337D01*
X110086232Y-57485888D01*
X110023400Y-57801767D01*
X110023400Y-58123833D01*
X110086232Y-58439712D01*
X110209482Y-58737263D01*
X110388413Y-59005052D01*
X110616148Y-59232787D01*
X110883937Y-59411718D01*
X111181488Y-59534968D01*
X111497367Y-59597800D01*
X111819433Y-59597800D01*
X112135312Y-59534968D01*
X112432863Y-59411718D01*
X112700652Y-59232787D01*
X112928387Y-59005052D01*
X113107318Y-58737263D01*
X113230568Y-58439712D01*
X113293400Y-58123833D01*
X113293400Y-57801767D01*
X113230568Y-57485888D01*
X113180909Y-57366000D01*
X116189328Y-57366000D01*
X116189328Y-58966000D01*
X116201588Y-59090482D01*
X116237898Y-59210180D01*
X116296863Y-59320494D01*
X116376215Y-59417185D01*
X116472906Y-59496537D01*
X116583220Y-59555502D01*
X116702918Y-59591812D01*
X116827400Y-59604072D01*
X118427400Y-59604072D01*
X118551882Y-59591812D01*
X118671580Y-59555502D01*
X118781894Y-59496537D01*
X118878585Y-59417185D01*
X118892190Y-59400607D01*
X118947673Y-59437680D01*
X119208826Y-59545853D01*
X119486065Y-59601000D01*
X119768735Y-59601000D01*
X120045974Y-59545853D01*
X120307127Y-59437680D01*
X120542159Y-59280637D01*
X120742037Y-59080759D01*
X120899080Y-58845727D01*
X121007253Y-58584574D01*
X121062400Y-58307335D01*
X121062400Y-58024665D01*
X121007253Y-57747426D01*
X120899080Y-57486273D01*
X120742037Y-57251241D01*
X120542159Y-57051363D01*
X120307127Y-56894320D01*
X120045974Y-56786147D01*
X119768735Y-56731000D01*
X119486065Y-56731000D01*
X119208826Y-56786147D01*
X118947673Y-56894320D01*
X118892190Y-56931393D01*
X118878585Y-56914815D01*
X118781894Y-56835463D01*
X118671580Y-56776498D01*
X118551882Y-56740188D01*
X118427400Y-56727928D01*
X116827400Y-56727928D01*
X116702918Y-56740188D01*
X116583220Y-56776498D01*
X116472906Y-56835463D01*
X116376215Y-56914815D01*
X116296863Y-57011506D01*
X116237898Y-57121820D01*
X116201588Y-57241518D01*
X116189328Y-57366000D01*
X113180909Y-57366000D01*
X113107318Y-57188337D01*
X112928387Y-56920548D01*
X112700652Y-56692813D01*
X112700633Y-56692800D01*
X112700652Y-56692787D01*
X112928387Y-56465052D01*
X113107318Y-56197263D01*
X113230568Y-55899712D01*
X113293400Y-55583833D01*
X113293400Y-55261767D01*
X113230568Y-54945888D01*
X113107318Y-54648337D01*
X112928387Y-54380548D01*
X112700652Y-54152813D01*
X112509366Y-54025000D01*
X122251000Y-54025000D01*
X122251001Y-112903800D01*
X101803239Y-112903800D01*
X101917487Y-112789552D01*
X102096418Y-112521763D01*
X102219668Y-112224212D01*
X102282500Y-111908333D01*
X102282500Y-111586267D01*
X102219668Y-111270388D01*
X102096418Y-110972837D01*
X101917487Y-110705048D01*
X101689752Y-110477313D01*
X101689733Y-110477300D01*
X101689752Y-110477287D01*
X101917487Y-110249552D01*
X102096418Y-109981763D01*
X102219668Y-109684212D01*
X102282500Y-109368333D01*
X102282500Y-109264344D01*
X106595000Y-109264344D01*
X106595000Y-109531256D01*
X106647072Y-109793039D01*
X106749215Y-110039633D01*
X106897503Y-110261562D01*
X107086238Y-110450297D01*
X107308167Y-110598585D01*
X107554761Y-110700728D01*
X107816544Y-110752800D01*
X108083456Y-110752800D01*
X108345239Y-110700728D01*
X108591833Y-110598585D01*
X108813762Y-110450297D01*
X109002497Y-110261562D01*
X109150785Y-110039633D01*
X109220000Y-109872534D01*
X109289215Y-110039633D01*
X109437503Y-110261562D01*
X109626238Y-110450297D01*
X109848167Y-110598585D01*
X110094761Y-110700728D01*
X110356544Y-110752800D01*
X110623456Y-110752800D01*
X110885239Y-110700728D01*
X111131833Y-110598585D01*
X111353762Y-110450297D01*
X111542497Y-110261562D01*
X111690785Y-110039633D01*
X111760000Y-109872534D01*
X111829215Y-110039633D01*
X111977503Y-110261562D01*
X112166238Y-110450297D01*
X112388167Y-110598585D01*
X112634761Y-110700728D01*
X112896544Y-110752800D01*
X113163456Y-110752800D01*
X113425239Y-110700728D01*
X113671833Y-110598585D01*
X113893762Y-110450297D01*
X114082497Y-110261562D01*
X114230785Y-110039633D01*
X114332928Y-109793039D01*
X114385000Y-109531256D01*
X114385000Y-109264344D01*
X114332928Y-109002561D01*
X114230785Y-108755967D01*
X114082497Y-108534038D01*
X113893762Y-108345303D01*
X113671833Y-108197015D01*
X113425239Y-108094872D01*
X113163456Y-108042800D01*
X112896544Y-108042800D01*
X112634761Y-108094872D01*
X112388167Y-108197015D01*
X112166238Y-108345303D01*
X111977503Y-108534038D01*
X111829215Y-108755967D01*
X111760000Y-108923066D01*
X111690785Y-108755967D01*
X111542497Y-108534038D01*
X111353762Y-108345303D01*
X111131833Y-108197015D01*
X110885239Y-108094872D01*
X110623456Y-108042800D01*
X110356544Y-108042800D01*
X110094761Y-108094872D01*
X109848167Y-108197015D01*
X109626238Y-108345303D01*
X109437503Y-108534038D01*
X109289215Y-108755967D01*
X109220000Y-108923066D01*
X109150785Y-108755967D01*
X109002497Y-108534038D01*
X108813762Y-108345303D01*
X108591833Y-108197015D01*
X108345239Y-108094872D01*
X108083456Y-108042800D01*
X107816544Y-108042800D01*
X107554761Y-108094872D01*
X107308167Y-108197015D01*
X107086238Y-108345303D01*
X106897503Y-108534038D01*
X106749215Y-108755967D01*
X106647072Y-109002561D01*
X106595000Y-109264344D01*
X102282500Y-109264344D01*
X102282500Y-109046267D01*
X102219668Y-108730388D01*
X102096418Y-108432837D01*
X101917487Y-108165048D01*
X101689752Y-107937313D01*
X101421963Y-107758382D01*
X101124412Y-107635132D01*
X100808533Y-107572300D01*
X100486467Y-107572300D01*
X100170588Y-107635132D01*
X99873037Y-107758382D01*
X99605248Y-107937313D01*
X99377513Y-108165048D01*
X99198582Y-108432837D01*
X99075332Y-108730388D01*
X99012500Y-109046267D01*
X99012500Y-109368333D01*
X99075332Y-109684212D01*
X99198582Y-109981763D01*
X99377513Y-110249552D01*
X99605248Y-110477287D01*
X99605267Y-110477300D01*
X99605248Y-110477313D01*
X99377513Y-110705048D01*
X99198582Y-110972837D01*
X99075332Y-111270388D01*
X99012500Y-111586267D01*
X99012500Y-111908333D01*
X99075332Y-112224212D01*
X99198582Y-112521763D01*
X99377513Y-112789552D01*
X99491761Y-112903800D01*
X89611239Y-112903800D01*
X89725487Y-112789552D01*
X89904418Y-112521763D01*
X90027668Y-112224212D01*
X90090500Y-111908333D01*
X90090500Y-111586267D01*
X90027668Y-111270388D01*
X89904418Y-110972837D01*
X89725487Y-110705048D01*
X89497752Y-110477313D01*
X89497733Y-110477300D01*
X89497752Y-110477287D01*
X89725487Y-110249552D01*
X89904418Y-109981763D01*
X90027668Y-109684212D01*
X90090500Y-109368333D01*
X90090500Y-109046267D01*
X90027668Y-108730388D01*
X89904418Y-108432837D01*
X89725487Y-108165048D01*
X89497752Y-107937313D01*
X89229963Y-107758382D01*
X88932412Y-107635132D01*
X88616533Y-107572300D01*
X88294467Y-107572300D01*
X87978588Y-107635132D01*
X87681037Y-107758382D01*
X87413248Y-107937313D01*
X87185513Y-108165048D01*
X87006582Y-108432837D01*
X86883332Y-108730388D01*
X86820500Y-109046267D01*
X86820500Y-109368333D01*
X86883332Y-109684212D01*
X87006582Y-109981763D01*
X87185513Y-110249552D01*
X87413248Y-110477287D01*
X87413267Y-110477300D01*
X87413248Y-110477313D01*
X87185513Y-110705048D01*
X87006582Y-110972837D01*
X86883332Y-111270388D01*
X86820500Y-111586267D01*
X86820500Y-111908333D01*
X86883332Y-112224212D01*
X87006582Y-112521763D01*
X87185513Y-112789552D01*
X87299761Y-112903800D01*
X76921558Y-112903800D01*
X77006583Y-112818775D01*
X76890915Y-112703107D01*
X77155314Y-112607344D01*
X77296204Y-112317729D01*
X77377884Y-112006192D01*
X77397218Y-111684705D01*
X77353461Y-111365625D01*
X77248295Y-111061212D01*
X77155314Y-110887256D01*
X76890913Y-110791492D01*
X75935105Y-111747300D01*
X75949248Y-111761443D01*
X75769643Y-111941048D01*
X75755500Y-111926905D01*
X75741358Y-111941048D01*
X75561753Y-111761443D01*
X75575895Y-111747300D01*
X74620087Y-110791492D01*
X74355686Y-110887256D01*
X74214796Y-111176871D01*
X74133116Y-111488408D01*
X74113782Y-111809895D01*
X74157539Y-112128975D01*
X74262705Y-112433388D01*
X74355686Y-112607344D01*
X74620085Y-112703107D01*
X74504417Y-112818775D01*
X74589442Y-112903800D01*
X67233000Y-112903800D01*
X67233000Y-110342713D01*
X74799692Y-110342713D01*
X74848438Y-110477300D01*
X74799692Y-110611887D01*
X75755500Y-111567695D01*
X76711308Y-110611887D01*
X76662562Y-110477300D01*
X76711308Y-110342713D01*
X75755500Y-109386905D01*
X74799692Y-110342713D01*
X67233000Y-110342713D01*
X67233000Y-109269895D01*
X74113782Y-109269895D01*
X74157539Y-109588975D01*
X74262705Y-109893388D01*
X74355686Y-110067344D01*
X74620087Y-110163108D01*
X75575895Y-109207300D01*
X75935105Y-109207300D01*
X76890913Y-110163108D01*
X77155314Y-110067344D01*
X77296204Y-109777729D01*
X77377884Y-109466192D01*
X77397218Y-109144705D01*
X77353461Y-108825625D01*
X77248295Y-108521212D01*
X77155314Y-108347256D01*
X76890913Y-108251492D01*
X75935105Y-109207300D01*
X75575895Y-109207300D01*
X74620087Y-108251492D01*
X74355686Y-108347256D01*
X74214796Y-108636871D01*
X74133116Y-108948408D01*
X74113782Y-109269895D01*
X67233000Y-109269895D01*
X67233000Y-108071887D01*
X74799692Y-108071887D01*
X75755500Y-109027695D01*
X76711308Y-108071887D01*
X76615544Y-107807486D01*
X76325929Y-107666596D01*
X76014392Y-107584916D01*
X75692905Y-107565582D01*
X75373825Y-107609339D01*
X75069412Y-107714505D01*
X74895456Y-107807486D01*
X74799692Y-108071887D01*
X67233000Y-108071887D01*
X67233000Y-105767363D01*
X67261832Y-105912312D01*
X67385082Y-106209863D01*
X67564013Y-106477652D01*
X67791748Y-106705387D01*
X68059537Y-106884318D01*
X68357088Y-107007568D01*
X68672967Y-107070400D01*
X68995033Y-107070400D01*
X69310912Y-107007568D01*
X69608463Y-106884318D01*
X69876252Y-106705387D01*
X70103987Y-106477652D01*
X70104000Y-106477633D01*
X70104013Y-106477652D01*
X70331748Y-106705387D01*
X70599537Y-106884318D01*
X70897088Y-107007568D01*
X71212967Y-107070400D01*
X71535033Y-107070400D01*
X71850912Y-107007568D01*
X72148463Y-106884318D01*
X72416252Y-106705387D01*
X72643987Y-106477652D01*
X72822918Y-106209863D01*
X72946168Y-105912312D01*
X73009000Y-105596433D01*
X73009000Y-105274367D01*
X72946168Y-104958488D01*
X72855975Y-104740743D01*
X85750400Y-104740743D01*
X85750400Y-104910857D01*
X85783587Y-105077703D01*
X85848687Y-105234868D01*
X85943198Y-105376313D01*
X86063487Y-105496602D01*
X86204932Y-105591113D01*
X86362097Y-105656213D01*
X86528943Y-105689400D01*
X86699057Y-105689400D01*
X86865903Y-105656213D01*
X87023068Y-105591113D01*
X87164513Y-105496602D01*
X87284802Y-105376313D01*
X87379313Y-105234868D01*
X87444413Y-105077703D01*
X87477600Y-104910857D01*
X87477600Y-104740743D01*
X87444413Y-104573897D01*
X87379313Y-104416732D01*
X87284802Y-104275287D01*
X87164513Y-104154998D01*
X87023068Y-104060487D01*
X86865903Y-103995387D01*
X86699057Y-103962200D01*
X86528943Y-103962200D01*
X86362097Y-103995387D01*
X86204932Y-104060487D01*
X86063487Y-104154998D01*
X85943198Y-104275287D01*
X85848687Y-104416732D01*
X85783587Y-104573897D01*
X85750400Y-104740743D01*
X72855975Y-104740743D01*
X72822918Y-104660937D01*
X72643987Y-104393148D01*
X72416252Y-104165413D01*
X72148463Y-103986482D01*
X71850912Y-103863232D01*
X71535033Y-103800400D01*
X71212967Y-103800400D01*
X70897088Y-103863232D01*
X70599537Y-103986482D01*
X70331748Y-104165413D01*
X70104013Y-104393148D01*
X70104000Y-104393167D01*
X70103987Y-104393148D01*
X69876252Y-104165413D01*
X69608463Y-103986482D01*
X69310912Y-103863232D01*
X68995033Y-103800400D01*
X68672967Y-103800400D01*
X68357088Y-103863232D01*
X68059537Y-103986482D01*
X67791748Y-104165413D01*
X67564013Y-104393148D01*
X67385082Y-104660937D01*
X67261832Y-104958488D01*
X67233000Y-105103437D01*
X67233000Y-98771743D01*
X69240400Y-98771743D01*
X69240400Y-98941857D01*
X69273587Y-99108703D01*
X69338687Y-99265868D01*
X69433198Y-99407313D01*
X69553487Y-99527602D01*
X69694932Y-99622113D01*
X69852097Y-99687213D01*
X70018943Y-99720400D01*
X70189057Y-99720400D01*
X70355903Y-99687213D01*
X70513068Y-99622113D01*
X70654513Y-99527602D01*
X70774802Y-99407313D01*
X70869313Y-99265868D01*
X70934413Y-99108703D01*
X70967600Y-98941857D01*
X70967600Y-98771743D01*
X70934413Y-98604897D01*
X70869313Y-98447732D01*
X70774802Y-98306287D01*
X70654513Y-98185998D01*
X70513068Y-98091487D01*
X70355903Y-98026387D01*
X70189057Y-97993200D01*
X70018943Y-97993200D01*
X69852097Y-98026387D01*
X69694932Y-98091487D01*
X69553487Y-98185998D01*
X69433198Y-98306287D01*
X69338687Y-98447732D01*
X69273587Y-98604897D01*
X69240400Y-98771743D01*
X67233000Y-98771743D01*
X67233000Y-95159465D01*
X73749000Y-95159465D01*
X73749000Y-95442135D01*
X73804147Y-95719374D01*
X73912320Y-95980527D01*
X74069363Y-96215559D01*
X74269241Y-96415437D01*
X74501759Y-96570800D01*
X74269241Y-96726163D01*
X74069363Y-96926041D01*
X73912320Y-97161073D01*
X73804147Y-97422226D01*
X73749000Y-97699465D01*
X73749000Y-97982135D01*
X73804147Y-98259374D01*
X73912320Y-98520527D01*
X74069363Y-98755559D01*
X74269241Y-98955437D01*
X74501759Y-99110800D01*
X74269241Y-99266163D01*
X74069363Y-99466041D01*
X73912320Y-99701073D01*
X73804147Y-99962226D01*
X73749000Y-100239465D01*
X73749000Y-100522135D01*
X73804147Y-100799374D01*
X73912320Y-101060527D01*
X74069363Y-101295559D01*
X74269241Y-101495437D01*
X74501759Y-101650800D01*
X74269241Y-101806163D01*
X74069363Y-102006041D01*
X73912320Y-102241073D01*
X73804147Y-102502226D01*
X73749000Y-102779465D01*
X73749000Y-103062135D01*
X73804147Y-103339374D01*
X73912320Y-103600527D01*
X74069363Y-103835559D01*
X74269241Y-104035437D01*
X74504273Y-104192480D01*
X74765426Y-104300653D01*
X75042665Y-104355800D01*
X75325335Y-104355800D01*
X75602574Y-104300653D01*
X75863727Y-104192480D01*
X76098759Y-104035437D01*
X76298637Y-103835559D01*
X76455680Y-103600527D01*
X76563853Y-103339374D01*
X76619000Y-103062135D01*
X76619000Y-102779465D01*
X76563853Y-102502226D01*
X76455680Y-102241073D01*
X76298637Y-102006041D01*
X76098759Y-101806163D01*
X75866241Y-101650800D01*
X76098759Y-101495437D01*
X76298637Y-101295559D01*
X76455680Y-101060527D01*
X76563853Y-100799374D01*
X76619000Y-100522135D01*
X76619000Y-100239465D01*
X76563853Y-99962226D01*
X76455680Y-99701073D01*
X76298637Y-99466041D01*
X76098759Y-99266163D01*
X75866241Y-99110800D01*
X76098759Y-98955437D01*
X76298637Y-98755559D01*
X76455680Y-98520527D01*
X76563853Y-98259374D01*
X76619000Y-97982135D01*
X76619000Y-97699465D01*
X76563853Y-97422226D01*
X76455680Y-97161073D01*
X76298637Y-96926041D01*
X76098759Y-96726163D01*
X75866241Y-96570800D01*
X76098759Y-96415437D01*
X76298637Y-96215559D01*
X76455680Y-95980527D01*
X76563853Y-95719374D01*
X76619000Y-95442135D01*
X76619000Y-95159465D01*
X76563853Y-94882226D01*
X76455680Y-94621073D01*
X76298637Y-94386041D01*
X76098759Y-94186163D01*
X75864872Y-94029885D01*
X75925514Y-93997471D01*
X75997097Y-93753502D01*
X75184000Y-92940405D01*
X74370903Y-93753502D01*
X74442486Y-93997471D01*
X74506992Y-94027994D01*
X74504273Y-94029120D01*
X74269241Y-94186163D01*
X74069363Y-94386041D01*
X73912320Y-94621073D01*
X73804147Y-94882226D01*
X73749000Y-95159465D01*
X67233000Y-95159465D01*
X67233000Y-92675743D01*
X68732400Y-92675743D01*
X68732400Y-92845857D01*
X68765587Y-93012703D01*
X68830687Y-93169868D01*
X68925198Y-93311313D01*
X69045487Y-93431602D01*
X69186932Y-93526113D01*
X69344097Y-93591213D01*
X69510943Y-93624400D01*
X69681057Y-93624400D01*
X69847903Y-93591213D01*
X70005068Y-93526113D01*
X70146513Y-93431602D01*
X70266802Y-93311313D01*
X70361313Y-93169868D01*
X70426413Y-93012703D01*
X70459600Y-92845857D01*
X70459600Y-92831312D01*
X73743783Y-92831312D01*
X73785213Y-93110930D01*
X73880397Y-93377092D01*
X73947329Y-93502314D01*
X74191298Y-93573897D01*
X75004395Y-92760800D01*
X75363605Y-92760800D01*
X76176702Y-93573897D01*
X76420671Y-93502314D01*
X76541571Y-93246804D01*
X76610300Y-92972616D01*
X76624217Y-92690288D01*
X76582787Y-92410670D01*
X76487603Y-92144508D01*
X76420671Y-92019286D01*
X76176702Y-91947703D01*
X75363605Y-92760800D01*
X75004395Y-92760800D01*
X74191298Y-91947703D01*
X73947329Y-92019286D01*
X73826429Y-92274796D01*
X73757700Y-92548984D01*
X73743783Y-92831312D01*
X70459600Y-92831312D01*
X70459600Y-92675743D01*
X70426413Y-92508897D01*
X70361313Y-92351732D01*
X70266802Y-92210287D01*
X70146513Y-92089998D01*
X70005068Y-91995487D01*
X69847903Y-91930387D01*
X69681057Y-91897200D01*
X69510943Y-91897200D01*
X69344097Y-91930387D01*
X69186932Y-91995487D01*
X69045487Y-92089998D01*
X68925198Y-92210287D01*
X68830687Y-92351732D01*
X68765587Y-92508897D01*
X68732400Y-92675743D01*
X67233000Y-92675743D01*
X67233000Y-86842639D01*
X67309148Y-86918787D01*
X67576937Y-87097718D01*
X67874488Y-87220968D01*
X68190367Y-87283800D01*
X68512433Y-87283800D01*
X68828312Y-87220968D01*
X69125863Y-87097718D01*
X69393652Y-86918787D01*
X69621387Y-86691052D01*
X69621400Y-86691033D01*
X69621413Y-86691052D01*
X69849148Y-86918787D01*
X70116937Y-87097718D01*
X70414488Y-87220968D01*
X70730367Y-87283800D01*
X71052433Y-87283800D01*
X71368312Y-87220968D01*
X71665863Y-87097718D01*
X71933652Y-86918787D01*
X71971639Y-86880800D01*
X73745928Y-86880800D01*
X73745928Y-88480800D01*
X73758188Y-88605282D01*
X73794498Y-88724980D01*
X73853463Y-88835294D01*
X73932815Y-88931985D01*
X74029506Y-89011337D01*
X74139820Y-89070302D01*
X74259518Y-89106612D01*
X74267961Y-89107443D01*
X74069363Y-89306041D01*
X73912320Y-89541073D01*
X73804147Y-89802226D01*
X73749000Y-90079465D01*
X73749000Y-90362135D01*
X73804147Y-90639374D01*
X73912320Y-90900527D01*
X74069363Y-91135559D01*
X74269241Y-91335437D01*
X74503128Y-91491715D01*
X74442486Y-91524129D01*
X74370903Y-91768098D01*
X75184000Y-92581195D01*
X75997097Y-91768098D01*
X75925514Y-91524129D01*
X75861008Y-91493606D01*
X75863727Y-91492480D01*
X76098759Y-91335437D01*
X76298637Y-91135559D01*
X76455680Y-90900527D01*
X76563853Y-90639374D01*
X76619000Y-90362135D01*
X76619000Y-90079465D01*
X76563853Y-89802226D01*
X76455680Y-89541073D01*
X76298637Y-89306041D01*
X76100039Y-89107443D01*
X76108482Y-89106612D01*
X76228180Y-89070302D01*
X76338494Y-89011337D01*
X76435185Y-88931985D01*
X76514537Y-88835294D01*
X76573502Y-88724980D01*
X76609812Y-88605282D01*
X76622072Y-88480800D01*
X76622072Y-87679569D01*
X76912842Y-87388799D01*
X81398970Y-87388799D01*
X81369000Y-87539465D01*
X81369000Y-87822135D01*
X81424147Y-88099374D01*
X81532320Y-88360527D01*
X81689363Y-88595559D01*
X81889241Y-88795437D01*
X82121759Y-88950800D01*
X81889241Y-89106163D01*
X81689363Y-89306041D01*
X81532320Y-89541073D01*
X81424147Y-89802226D01*
X81369000Y-90079465D01*
X81369000Y-90362135D01*
X81424147Y-90639374D01*
X81532320Y-90900527D01*
X81689363Y-91135559D01*
X81889241Y-91335437D01*
X82121759Y-91490800D01*
X81889241Y-91646163D01*
X81689363Y-91846041D01*
X81532320Y-92081073D01*
X81424147Y-92342226D01*
X81369000Y-92619465D01*
X81369000Y-92902135D01*
X81424147Y-93179374D01*
X81532320Y-93440527D01*
X81689363Y-93675559D01*
X81889241Y-93875437D01*
X82121759Y-94030800D01*
X81889241Y-94186163D01*
X81689363Y-94386041D01*
X81532320Y-94621073D01*
X81424147Y-94882226D01*
X81369000Y-95159465D01*
X81369000Y-95442135D01*
X81424147Y-95719374D01*
X81532320Y-95980527D01*
X81689363Y-96215559D01*
X81889241Y-96415437D01*
X82121759Y-96570800D01*
X81889241Y-96726163D01*
X81689363Y-96926041D01*
X81532320Y-97161073D01*
X81424147Y-97422226D01*
X81369000Y-97699465D01*
X81369000Y-97982135D01*
X81424147Y-98259374D01*
X81532320Y-98520527D01*
X81689363Y-98755559D01*
X81889241Y-98955437D01*
X82121759Y-99110800D01*
X81889241Y-99266163D01*
X81689363Y-99466041D01*
X81532320Y-99701073D01*
X81424147Y-99962226D01*
X81369000Y-100239465D01*
X81369000Y-100522135D01*
X81424147Y-100799374D01*
X81532320Y-101060527D01*
X81689363Y-101295559D01*
X81889241Y-101495437D01*
X82121759Y-101650800D01*
X81889241Y-101806163D01*
X81689363Y-102006041D01*
X81532320Y-102241073D01*
X81424147Y-102502226D01*
X81369000Y-102779465D01*
X81369000Y-103062135D01*
X81424147Y-103339374D01*
X81532320Y-103600527D01*
X81689363Y-103835559D01*
X81889241Y-104035437D01*
X82124273Y-104192480D01*
X82385426Y-104300653D01*
X82662665Y-104355800D01*
X82945335Y-104355800D01*
X83222574Y-104300653D01*
X83483727Y-104192480D01*
X83718759Y-104035437D01*
X83918637Y-103835559D01*
X84075680Y-103600527D01*
X84183853Y-103339374D01*
X84239000Y-103062135D01*
X84239000Y-102779465D01*
X84183853Y-102502226D01*
X84080110Y-102251767D01*
X91075000Y-102251767D01*
X91075000Y-102573833D01*
X91137832Y-102889712D01*
X91261082Y-103187263D01*
X91440013Y-103455052D01*
X91667748Y-103682787D01*
X91667767Y-103682800D01*
X91667748Y-103682813D01*
X91440013Y-103910548D01*
X91261082Y-104178337D01*
X91137832Y-104475888D01*
X91075000Y-104791767D01*
X91075000Y-105113833D01*
X91137832Y-105429712D01*
X91261082Y-105727263D01*
X91440013Y-105995052D01*
X91667748Y-106222787D01*
X91935537Y-106401718D01*
X92233088Y-106524968D01*
X92548967Y-106587800D01*
X92871033Y-106587800D01*
X93186912Y-106524968D01*
X93484463Y-106401718D01*
X93752252Y-106222787D01*
X93979987Y-105995052D01*
X94158918Y-105727263D01*
X94282168Y-105429712D01*
X94345000Y-105113833D01*
X94345000Y-104791767D01*
X94282168Y-104475888D01*
X94158918Y-104178337D01*
X93979987Y-103910548D01*
X93752252Y-103682813D01*
X93752233Y-103682800D01*
X93752252Y-103682787D01*
X93979987Y-103455052D01*
X94158918Y-103187263D01*
X94282168Y-102889712D01*
X94345000Y-102573833D01*
X94345000Y-102378767D01*
X99076000Y-102378767D01*
X99076000Y-102700833D01*
X99138832Y-103016712D01*
X99262082Y-103314263D01*
X99441013Y-103582052D01*
X99668748Y-103809787D01*
X99668767Y-103809800D01*
X99668748Y-103809813D01*
X99441013Y-104037548D01*
X99262082Y-104305337D01*
X99138832Y-104602888D01*
X99076000Y-104918767D01*
X99076000Y-105240833D01*
X99138832Y-105556712D01*
X99262082Y-105854263D01*
X99441013Y-106122052D01*
X99668748Y-106349787D01*
X99936537Y-106528718D01*
X100234088Y-106651968D01*
X100549967Y-106714800D01*
X100872033Y-106714800D01*
X101187912Y-106651968D01*
X101485463Y-106528718D01*
X101753252Y-106349787D01*
X101980987Y-106122052D01*
X102159918Y-105854263D01*
X102283168Y-105556712D01*
X102346000Y-105240833D01*
X102346000Y-104918767D01*
X102283168Y-104602888D01*
X102159918Y-104305337D01*
X101980987Y-104037548D01*
X101753252Y-103809813D01*
X101753233Y-103809800D01*
X101753252Y-103809787D01*
X101980987Y-103582052D01*
X102159918Y-103314263D01*
X102283168Y-103016712D01*
X102283753Y-103013767D01*
X103935000Y-103013767D01*
X103935000Y-103335833D01*
X103997832Y-103651712D01*
X104121082Y-103949263D01*
X104300013Y-104217052D01*
X104527748Y-104444787D01*
X104795537Y-104623718D01*
X105093088Y-104746968D01*
X105408967Y-104809800D01*
X105731033Y-104809800D01*
X106046912Y-104746968D01*
X106344463Y-104623718D01*
X106612252Y-104444787D01*
X106839987Y-104217052D01*
X107018918Y-103949263D01*
X107142168Y-103651712D01*
X107205000Y-103335833D01*
X107205000Y-103013767D01*
X107142168Y-102697888D01*
X107018918Y-102400337D01*
X106868219Y-102174800D01*
X113931928Y-102174800D01*
X113931928Y-104174800D01*
X113944188Y-104299282D01*
X113980498Y-104418980D01*
X114039463Y-104529294D01*
X114118815Y-104625985D01*
X114215506Y-104705337D01*
X114325820Y-104764302D01*
X114445518Y-104800612D01*
X114570000Y-104812872D01*
X116570000Y-104812872D01*
X116694482Y-104800612D01*
X116814180Y-104764302D01*
X116924494Y-104705337D01*
X117021185Y-104625985D01*
X117100537Y-104529294D01*
X117159502Y-104418980D01*
X117195812Y-104299282D01*
X117208072Y-104174800D01*
X117208072Y-102174800D01*
X117195812Y-102050318D01*
X117159502Y-101930620D01*
X117100537Y-101820306D01*
X117021185Y-101723615D01*
X116924494Y-101644263D01*
X116814180Y-101585298D01*
X116749716Y-101565743D01*
X117246400Y-101565743D01*
X117246400Y-101735857D01*
X117279587Y-101902703D01*
X117344687Y-102059868D01*
X117439198Y-102201313D01*
X117559487Y-102321602D01*
X117700932Y-102416113D01*
X117858097Y-102481213D01*
X118024943Y-102514400D01*
X118195057Y-102514400D01*
X118361903Y-102481213D01*
X118519068Y-102416113D01*
X118660513Y-102321602D01*
X118780802Y-102201313D01*
X118875313Y-102059868D01*
X118940413Y-101902703D01*
X118973600Y-101735857D01*
X118973600Y-101565743D01*
X118940413Y-101398897D01*
X118875313Y-101241732D01*
X118780802Y-101100287D01*
X118660513Y-100979998D01*
X118519068Y-100885487D01*
X118361903Y-100820387D01*
X118195057Y-100787200D01*
X118024943Y-100787200D01*
X117858097Y-100820387D01*
X117700932Y-100885487D01*
X117559487Y-100979998D01*
X117439198Y-101100287D01*
X117344687Y-101241732D01*
X117279587Y-101398897D01*
X117246400Y-101565743D01*
X116749716Y-101565743D01*
X116694482Y-101548988D01*
X116570000Y-101536728D01*
X114570000Y-101536728D01*
X114445518Y-101548988D01*
X114325820Y-101585298D01*
X114215506Y-101644263D01*
X114118815Y-101723615D01*
X114039463Y-101820306D01*
X113980498Y-101930620D01*
X113944188Y-102050318D01*
X113931928Y-102174800D01*
X106868219Y-102174800D01*
X106839987Y-102132548D01*
X106612252Y-101904813D01*
X106344463Y-101725882D01*
X106046912Y-101602632D01*
X105731033Y-101539800D01*
X105408967Y-101539800D01*
X105093088Y-101602632D01*
X104795537Y-101725882D01*
X104527748Y-101904813D01*
X104300013Y-102132548D01*
X104121082Y-102400337D01*
X103997832Y-102697888D01*
X103935000Y-103013767D01*
X102283753Y-103013767D01*
X102346000Y-102700833D01*
X102346000Y-102378767D01*
X102283168Y-102062888D01*
X102159918Y-101765337D01*
X101980987Y-101497548D01*
X101753252Y-101269813D01*
X101485463Y-101090882D01*
X101187912Y-100967632D01*
X100872033Y-100904800D01*
X100549967Y-100904800D01*
X100234088Y-100967632D01*
X99936537Y-101090882D01*
X99668748Y-101269813D01*
X99441013Y-101497548D01*
X99262082Y-101765337D01*
X99138832Y-102062888D01*
X99076000Y-102378767D01*
X94345000Y-102378767D01*
X94345000Y-102251767D01*
X94282168Y-101935888D01*
X94158918Y-101638337D01*
X93979987Y-101370548D01*
X93752252Y-101142813D01*
X93484463Y-100963882D01*
X93186912Y-100840632D01*
X92871033Y-100777800D01*
X92548967Y-100777800D01*
X92233088Y-100840632D01*
X91935537Y-100963882D01*
X91667748Y-101142813D01*
X91440013Y-101370548D01*
X91261082Y-101638337D01*
X91137832Y-101935888D01*
X91075000Y-102251767D01*
X84080110Y-102251767D01*
X84075680Y-102241073D01*
X83918637Y-102006041D01*
X83718759Y-101806163D01*
X83486241Y-101650800D01*
X83718759Y-101495437D01*
X83918637Y-101295559D01*
X84075680Y-101060527D01*
X84175416Y-100819742D01*
X87004401Y-100819742D01*
X87004401Y-100989856D01*
X87037588Y-101156702D01*
X87102688Y-101313867D01*
X87197199Y-101455312D01*
X87317488Y-101575601D01*
X87458933Y-101670112D01*
X87616098Y-101735212D01*
X87782944Y-101768399D01*
X87953058Y-101768399D01*
X88119904Y-101735212D01*
X88277069Y-101670112D01*
X88418514Y-101575601D01*
X88538803Y-101455312D01*
X88633314Y-101313867D01*
X88698414Y-101156702D01*
X88731601Y-100989856D01*
X88731601Y-100819742D01*
X88698414Y-100652896D01*
X88633314Y-100495731D01*
X88538803Y-100354286D01*
X88418514Y-100233997D01*
X88277069Y-100139486D01*
X88119904Y-100074386D01*
X87953058Y-100041199D01*
X87782944Y-100041199D01*
X87616098Y-100074386D01*
X87458933Y-100139486D01*
X87317488Y-100233997D01*
X87197199Y-100354286D01*
X87102688Y-100495731D01*
X87037588Y-100652896D01*
X87004401Y-100819742D01*
X84175416Y-100819742D01*
X84183853Y-100799374D01*
X84239000Y-100522135D01*
X84239000Y-100239465D01*
X84183853Y-99962226D01*
X84075680Y-99701073D01*
X83926271Y-99477465D01*
X107023000Y-99477465D01*
X107023000Y-99760135D01*
X107078147Y-100037374D01*
X107186320Y-100298527D01*
X107343363Y-100533559D01*
X107543241Y-100733437D01*
X107778273Y-100890480D01*
X108039426Y-100998653D01*
X108316665Y-101053800D01*
X108599335Y-101053800D01*
X108876574Y-100998653D01*
X109137727Y-100890480D01*
X109372759Y-100733437D01*
X109572637Y-100533559D01*
X109728000Y-100301041D01*
X109883363Y-100533559D01*
X110083241Y-100733437D01*
X110318273Y-100890480D01*
X110579426Y-100998653D01*
X110856665Y-101053800D01*
X111139335Y-101053800D01*
X111416574Y-100998653D01*
X111677727Y-100890480D01*
X111912759Y-100733437D01*
X112112637Y-100533559D01*
X112268000Y-100301041D01*
X112423363Y-100533559D01*
X112623241Y-100733437D01*
X112858273Y-100890480D01*
X113119426Y-100998653D01*
X113396665Y-101053800D01*
X113679335Y-101053800D01*
X113956574Y-100998653D01*
X114217727Y-100890480D01*
X114452759Y-100733437D01*
X114574694Y-100611502D01*
X115264903Y-100611502D01*
X115336486Y-100855471D01*
X115591996Y-100976371D01*
X115866184Y-101045100D01*
X116148512Y-101059017D01*
X116428130Y-101017587D01*
X116694292Y-100922403D01*
X116819514Y-100855471D01*
X116891097Y-100611502D01*
X116078000Y-99798405D01*
X115264903Y-100611502D01*
X114574694Y-100611502D01*
X114652637Y-100533559D01*
X114808915Y-100299672D01*
X114841329Y-100360314D01*
X115085298Y-100431897D01*
X115898395Y-99618800D01*
X116257605Y-99618800D01*
X117070702Y-100431897D01*
X117314671Y-100360314D01*
X117435571Y-100104804D01*
X117504300Y-99830616D01*
X117518217Y-99548288D01*
X117476787Y-99268670D01*
X117381603Y-99002508D01*
X117314671Y-98877286D01*
X117070702Y-98805703D01*
X116257605Y-99618800D01*
X115898395Y-99618800D01*
X115085298Y-98805703D01*
X114841329Y-98877286D01*
X114810806Y-98941792D01*
X114809680Y-98939073D01*
X114652637Y-98704041D01*
X114574694Y-98626098D01*
X115264903Y-98626098D01*
X116078000Y-99439195D01*
X116891097Y-98626098D01*
X116819514Y-98382129D01*
X116564004Y-98261229D01*
X116289816Y-98192500D01*
X116007488Y-98178583D01*
X115727870Y-98220013D01*
X115461708Y-98315197D01*
X115336486Y-98382129D01*
X115264903Y-98626098D01*
X114574694Y-98626098D01*
X114452759Y-98504163D01*
X114217727Y-98347120D01*
X113956574Y-98238947D01*
X113679335Y-98183800D01*
X113396665Y-98183800D01*
X113119426Y-98238947D01*
X112858273Y-98347120D01*
X112623241Y-98504163D01*
X112423363Y-98704041D01*
X112268000Y-98936559D01*
X112112637Y-98704041D01*
X111912759Y-98504163D01*
X111677727Y-98347120D01*
X111416574Y-98238947D01*
X111139335Y-98183800D01*
X110856665Y-98183800D01*
X110579426Y-98238947D01*
X110318273Y-98347120D01*
X110083241Y-98504163D01*
X109883363Y-98704041D01*
X109728000Y-98936559D01*
X109572637Y-98704041D01*
X109372759Y-98504163D01*
X109137727Y-98347120D01*
X108876574Y-98238947D01*
X108599335Y-98183800D01*
X108316665Y-98183800D01*
X108039426Y-98238947D01*
X107778273Y-98347120D01*
X107543241Y-98504163D01*
X107343363Y-98704041D01*
X107186320Y-98939073D01*
X107078147Y-99200226D01*
X107023000Y-99477465D01*
X83926271Y-99477465D01*
X83918637Y-99466041D01*
X83718759Y-99266163D01*
X83486241Y-99110800D01*
X83718759Y-98955437D01*
X83918637Y-98755559D01*
X84075680Y-98520527D01*
X84183853Y-98259374D01*
X84239000Y-97982135D01*
X84239000Y-97699465D01*
X84183853Y-97422226D01*
X84075680Y-97161073D01*
X83918637Y-96926041D01*
X83718759Y-96726163D01*
X83486241Y-96570800D01*
X83718759Y-96415437D01*
X83918637Y-96215559D01*
X84075680Y-95980527D01*
X84183853Y-95719374D01*
X84239000Y-95442135D01*
X84239000Y-95159465D01*
X84183853Y-94882226D01*
X84075680Y-94621073D01*
X83918637Y-94386041D01*
X83718759Y-94186163D01*
X83486241Y-94030800D01*
X83718759Y-93875437D01*
X83918637Y-93675559D01*
X84075680Y-93440527D01*
X84183853Y-93179374D01*
X84239000Y-92902135D01*
X84239000Y-92619465D01*
X84183853Y-92342226D01*
X84075680Y-92081073D01*
X83918637Y-91846041D01*
X83718759Y-91646163D01*
X83486241Y-91490800D01*
X83718759Y-91335437D01*
X83918637Y-91135559D01*
X84075680Y-90900527D01*
X84183853Y-90639374D01*
X84239000Y-90362135D01*
X84239000Y-90079465D01*
X84183853Y-89802226D01*
X84075680Y-89541073D01*
X83918637Y-89306041D01*
X83718759Y-89106163D01*
X83486241Y-88950800D01*
X83718759Y-88795437D01*
X83918637Y-88595559D01*
X84038449Y-88416247D01*
X84949801Y-89327599D01*
X84894587Y-89460897D01*
X84861400Y-89627743D01*
X84861400Y-89797857D01*
X84894587Y-89964703D01*
X84959687Y-90121868D01*
X85054198Y-90263313D01*
X85174487Y-90383602D01*
X85315932Y-90478113D01*
X85445602Y-90531824D01*
X85445601Y-91671752D01*
X85302057Y-91643200D01*
X85131943Y-91643200D01*
X84965097Y-91676387D01*
X84807932Y-91741487D01*
X84666487Y-91835998D01*
X84546198Y-91956287D01*
X84451687Y-92097732D01*
X84386587Y-92254897D01*
X84353400Y-92421743D01*
X84353400Y-92591857D01*
X84386587Y-92758703D01*
X84451687Y-92915868D01*
X84546198Y-93057313D01*
X84666487Y-93177602D01*
X84807932Y-93272113D01*
X84965097Y-93337213D01*
X85131943Y-93370400D01*
X85302057Y-93370400D01*
X85468903Y-93337213D01*
X85626068Y-93272113D01*
X85767513Y-93177602D01*
X85887802Y-93057313D01*
X85913048Y-93019530D01*
X87682501Y-94788984D01*
X87594198Y-94877287D01*
X87499687Y-95018732D01*
X87434587Y-95175897D01*
X87401400Y-95342743D01*
X87401400Y-95512857D01*
X87434587Y-95679703D01*
X87499687Y-95836868D01*
X87594198Y-95978313D01*
X87714487Y-96098602D01*
X87855932Y-96193113D01*
X88013097Y-96258213D01*
X88179943Y-96291400D01*
X88350057Y-96291400D01*
X88516903Y-96258213D01*
X88674068Y-96193113D01*
X88815513Y-96098602D01*
X88903816Y-96010299D01*
X88915451Y-96021934D01*
X88947263Y-96060697D01*
X89101969Y-96187661D01*
X89278472Y-96282003D01*
X89469988Y-96340099D01*
X89669158Y-96359716D01*
X89719060Y-96354801D01*
X107608097Y-96354801D01*
X107657999Y-96359716D01*
X107707901Y-96354801D01*
X107857170Y-96340099D01*
X108048686Y-96282003D01*
X108225189Y-96187661D01*
X108379895Y-96060697D01*
X108411711Y-96021929D01*
X110999841Y-93433800D01*
X111139335Y-93433800D01*
X111416574Y-93378653D01*
X111677727Y-93270480D01*
X111912759Y-93113437D01*
X112112637Y-92913559D01*
X112268000Y-92681041D01*
X112423363Y-92913559D01*
X112623241Y-93113437D01*
X112858273Y-93270480D01*
X113119426Y-93378653D01*
X113396665Y-93433800D01*
X113679335Y-93433800D01*
X113956574Y-93378653D01*
X114217727Y-93270480D01*
X114452759Y-93113437D01*
X114651357Y-92914839D01*
X114652188Y-92923282D01*
X114688498Y-93042980D01*
X114747463Y-93153294D01*
X114826815Y-93249985D01*
X114923506Y-93329337D01*
X115033820Y-93388302D01*
X115153518Y-93424612D01*
X115278000Y-93436872D01*
X116878000Y-93436872D01*
X117002482Y-93424612D01*
X117122180Y-93388302D01*
X117232494Y-93329337D01*
X117329185Y-93249985D01*
X117408537Y-93153294D01*
X117467502Y-93042980D01*
X117503812Y-92923282D01*
X117516072Y-92798800D01*
X117516072Y-91198800D01*
X117503812Y-91074318D01*
X117467502Y-90954620D01*
X117408537Y-90844306D01*
X117329185Y-90747615D01*
X117232494Y-90668263D01*
X117122180Y-90609298D01*
X117002482Y-90572988D01*
X116878000Y-90560728D01*
X115278000Y-90560728D01*
X115153518Y-90572988D01*
X115033820Y-90609298D01*
X114923506Y-90668263D01*
X114826815Y-90747615D01*
X114747463Y-90844306D01*
X114688498Y-90954620D01*
X114652188Y-91074318D01*
X114651357Y-91082761D01*
X114452759Y-90884163D01*
X114217727Y-90727120D01*
X113956574Y-90618947D01*
X113679335Y-90563800D01*
X113396665Y-90563800D01*
X113119426Y-90618947D01*
X112858273Y-90727120D01*
X112623241Y-90884163D01*
X112423363Y-91084041D01*
X112268000Y-91316559D01*
X112112637Y-91084041D01*
X111912759Y-90884163D01*
X111677727Y-90727120D01*
X111416574Y-90618947D01*
X111139335Y-90563800D01*
X110856665Y-90563800D01*
X110579426Y-90618947D01*
X110318273Y-90727120D01*
X110083241Y-90884163D01*
X109883363Y-91084041D01*
X109728000Y-91316559D01*
X109572637Y-91084041D01*
X109372759Y-90884163D01*
X109137727Y-90727120D01*
X108876574Y-90618947D01*
X108599335Y-90563800D01*
X108316665Y-90563800D01*
X108039426Y-90618947D01*
X107778273Y-90727120D01*
X107543241Y-90884163D01*
X107343363Y-91084041D01*
X107186320Y-91319073D01*
X107078147Y-91580226D01*
X107023000Y-91857465D01*
X107023000Y-92140135D01*
X107078147Y-92417374D01*
X107186320Y-92678527D01*
X107343363Y-92913559D01*
X107543241Y-93113437D01*
X107778273Y-93270480D01*
X108039426Y-93378653D01*
X108157767Y-93402193D01*
X107237159Y-94322801D01*
X99322030Y-94322801D01*
X99352000Y-94172135D01*
X99352000Y-93889465D01*
X99296853Y-93612226D01*
X99188680Y-93351073D01*
X99031637Y-93116041D01*
X98831759Y-92916163D01*
X98599241Y-92760800D01*
X98831759Y-92605437D01*
X99031637Y-92405559D01*
X99188680Y-92170527D01*
X99296853Y-91909374D01*
X99352000Y-91632135D01*
X99352000Y-91349465D01*
X99296853Y-91072226D01*
X99188680Y-90811073D01*
X99031637Y-90576041D01*
X98831759Y-90376163D01*
X98599241Y-90220800D01*
X98831759Y-90065437D01*
X99031637Y-89865559D01*
X99188680Y-89630527D01*
X99296853Y-89369374D01*
X99352000Y-89092135D01*
X99352000Y-88809465D01*
X99296853Y-88532226D01*
X99188680Y-88271073D01*
X99031637Y-88036041D01*
X98831759Y-87836163D01*
X98597872Y-87679885D01*
X98658514Y-87647471D01*
X98730097Y-87403502D01*
X97917000Y-86590405D01*
X97103903Y-87403502D01*
X97175486Y-87647471D01*
X97239992Y-87677994D01*
X97237273Y-87679120D01*
X97002241Y-87836163D01*
X96802363Y-88036041D01*
X96645320Y-88271073D01*
X96537147Y-88532226D01*
X96482000Y-88809465D01*
X96482000Y-89092135D01*
X96537147Y-89369374D01*
X96645320Y-89630527D01*
X96802363Y-89865559D01*
X97002241Y-90065437D01*
X97234759Y-90220800D01*
X97002241Y-90376163D01*
X96802363Y-90576041D01*
X96645320Y-90811073D01*
X96537147Y-91072226D01*
X96482000Y-91349465D01*
X96482000Y-91632135D01*
X96537147Y-91909374D01*
X96645320Y-92170527D01*
X96802363Y-92405559D01*
X97002241Y-92605437D01*
X97234759Y-92760800D01*
X97002241Y-92916163D01*
X96802363Y-93116041D01*
X96645320Y-93351073D01*
X96537147Y-93612226D01*
X96482000Y-93889465D01*
X96482000Y-94172135D01*
X96511970Y-94322801D01*
X91702030Y-94322801D01*
X91732000Y-94172135D01*
X91732000Y-93889465D01*
X91676853Y-93612226D01*
X91568680Y-93351073D01*
X91411637Y-93116041D01*
X91211759Y-92916163D01*
X90979241Y-92760800D01*
X91211759Y-92605437D01*
X91411637Y-92405559D01*
X91568680Y-92170527D01*
X91676853Y-91909374D01*
X91732000Y-91632135D01*
X91732000Y-91349465D01*
X91676853Y-91072226D01*
X91568680Y-90811073D01*
X91411637Y-90576041D01*
X91211759Y-90376163D01*
X90979241Y-90220800D01*
X91211759Y-90065437D01*
X91411637Y-89865559D01*
X91568680Y-89630527D01*
X91676853Y-89369374D01*
X91732000Y-89092135D01*
X91732000Y-88809465D01*
X91676853Y-88532226D01*
X91568680Y-88271073D01*
X91411637Y-88036041D01*
X91213039Y-87837443D01*
X91221482Y-87836612D01*
X91341180Y-87800302D01*
X91451494Y-87741337D01*
X91548185Y-87661985D01*
X91627537Y-87565294D01*
X91686502Y-87454980D01*
X91722812Y-87335282D01*
X91735072Y-87210800D01*
X91735072Y-86481312D01*
X96476783Y-86481312D01*
X96518213Y-86760930D01*
X96613397Y-87027092D01*
X96680329Y-87152314D01*
X96924298Y-87223897D01*
X97737395Y-86410800D01*
X98096605Y-86410800D01*
X98909702Y-87223897D01*
X99153671Y-87152314D01*
X99274571Y-86896804D01*
X99343300Y-86622616D01*
X99351673Y-86452743D01*
X106451400Y-86452743D01*
X106451400Y-86622857D01*
X106484587Y-86789703D01*
X106549687Y-86946868D01*
X106644198Y-87088313D01*
X106764487Y-87208602D01*
X106905932Y-87303113D01*
X107063097Y-87368213D01*
X107229943Y-87401400D01*
X107400057Y-87401400D01*
X107566903Y-87368213D01*
X107724068Y-87303113D01*
X107865513Y-87208602D01*
X107985802Y-87088313D01*
X108080313Y-86946868D01*
X108145413Y-86789703D01*
X108178600Y-86622857D01*
X108178600Y-86452743D01*
X108145413Y-86285897D01*
X108080313Y-86128732D01*
X107985802Y-85987287D01*
X107865513Y-85866998D01*
X107724068Y-85772487D01*
X107566903Y-85707387D01*
X107400057Y-85674200D01*
X107229943Y-85674200D01*
X107063097Y-85707387D01*
X106905932Y-85772487D01*
X106764487Y-85866998D01*
X106644198Y-85987287D01*
X106549687Y-86128732D01*
X106484587Y-86285897D01*
X106451400Y-86452743D01*
X99351673Y-86452743D01*
X99357217Y-86340288D01*
X99315787Y-86060670D01*
X99220603Y-85794508D01*
X99153671Y-85669286D01*
X98909702Y-85597703D01*
X98096605Y-86410800D01*
X97737395Y-86410800D01*
X96924298Y-85597703D01*
X96680329Y-85669286D01*
X96559429Y-85924796D01*
X96490700Y-86198984D01*
X96476783Y-86481312D01*
X91735072Y-86481312D01*
X91735072Y-85610800D01*
X91722812Y-85486318D01*
X91702118Y-85418098D01*
X97103903Y-85418098D01*
X97917000Y-86231195D01*
X98730097Y-85418098D01*
X98658514Y-85174129D01*
X98403004Y-85053229D01*
X98128816Y-84984500D01*
X97846488Y-84970583D01*
X97566870Y-85012013D01*
X97300708Y-85107197D01*
X97175486Y-85174129D01*
X97103903Y-85418098D01*
X91702118Y-85418098D01*
X91686502Y-85366620D01*
X91627537Y-85256306D01*
X91548185Y-85159615D01*
X91451494Y-85080263D01*
X91341180Y-85021298D01*
X91221482Y-84984988D01*
X91097000Y-84972728D01*
X89497000Y-84972728D01*
X89372518Y-84984988D01*
X89252820Y-85021298D01*
X89142506Y-85080263D01*
X89045815Y-85159615D01*
X88966463Y-85256306D01*
X88907498Y-85366620D01*
X88871188Y-85486318D01*
X88858928Y-85610800D01*
X88858928Y-87210800D01*
X88871188Y-87335282D01*
X88907498Y-87454980D01*
X88966463Y-87565294D01*
X89045815Y-87661985D01*
X89142506Y-87741337D01*
X89252820Y-87800302D01*
X89372518Y-87836612D01*
X89380961Y-87837443D01*
X89182363Y-88036041D01*
X89025320Y-88271073D01*
X88917147Y-88532226D01*
X88862000Y-88809465D01*
X88862000Y-89092135D01*
X88917147Y-89369374D01*
X89025320Y-89630527D01*
X89182363Y-89865559D01*
X89382241Y-90065437D01*
X89614759Y-90220800D01*
X89382241Y-90376163D01*
X89182363Y-90576041D01*
X89025320Y-90811073D01*
X88917147Y-91072226D01*
X88862000Y-91349465D01*
X88862000Y-91632135D01*
X88917147Y-91909374D01*
X89025320Y-92170527D01*
X89182363Y-92405559D01*
X89382241Y-92605437D01*
X89614759Y-92760800D01*
X89382241Y-92916163D01*
X89182363Y-93116041D01*
X89062551Y-93295353D01*
X87477601Y-91710403D01*
X87477601Y-89452461D01*
X87482516Y-89402559D01*
X87462899Y-89203388D01*
X87404803Y-89011872D01*
X87404517Y-89011337D01*
X87310461Y-88835369D01*
X87183497Y-88680663D01*
X87144734Y-88648851D01*
X84185553Y-85689671D01*
X84153737Y-85650903D01*
X83999031Y-85523939D01*
X83822528Y-85429597D01*
X83631012Y-85371501D01*
X83481743Y-85356799D01*
X83431841Y-85351884D01*
X83381939Y-85356799D01*
X76541903Y-85356799D01*
X76492001Y-85351884D01*
X76442099Y-85356799D01*
X76292830Y-85371501D01*
X76101314Y-85429597D01*
X75924811Y-85523939D01*
X75770105Y-85650903D01*
X75738293Y-85689666D01*
X75185231Y-86242728D01*
X74384000Y-86242728D01*
X74259518Y-86254988D01*
X74139820Y-86291298D01*
X74029506Y-86350263D01*
X73932815Y-86429615D01*
X73853463Y-86526306D01*
X73794498Y-86636620D01*
X73758188Y-86756318D01*
X73745928Y-86880800D01*
X71971639Y-86880800D01*
X72161387Y-86691052D01*
X72340318Y-86423263D01*
X72463568Y-86125712D01*
X72526400Y-85809833D01*
X72526400Y-85487767D01*
X72463568Y-85171888D01*
X72340318Y-84874337D01*
X72161387Y-84606548D01*
X71933652Y-84378813D01*
X71665863Y-84199882D01*
X71368312Y-84076632D01*
X71052433Y-84013800D01*
X70730367Y-84013800D01*
X70414488Y-84076632D01*
X70116937Y-84199882D01*
X69849148Y-84378813D01*
X69621413Y-84606548D01*
X69621400Y-84606567D01*
X69621387Y-84606548D01*
X69393652Y-84378813D01*
X69125863Y-84199882D01*
X68828312Y-84076632D01*
X68512433Y-84013800D01*
X68190367Y-84013800D01*
X67874488Y-84076632D01*
X67576937Y-84199882D01*
X67309148Y-84378813D01*
X67233000Y-84454961D01*
X67233000Y-83912743D01*
X99466400Y-83912743D01*
X99466400Y-84082857D01*
X99499587Y-84249703D01*
X99564687Y-84406868D01*
X99659198Y-84548313D01*
X99779487Y-84668602D01*
X99920932Y-84763113D01*
X100078097Y-84828213D01*
X100244943Y-84861400D01*
X100415057Y-84861400D01*
X100581903Y-84828213D01*
X100739068Y-84763113D01*
X100880513Y-84668602D01*
X101000802Y-84548313D01*
X101095313Y-84406868D01*
X101160413Y-84249703D01*
X101193600Y-84082857D01*
X101193600Y-83912743D01*
X101160413Y-83745897D01*
X101095313Y-83588732D01*
X101000802Y-83447287D01*
X100880513Y-83326998D01*
X100739068Y-83232487D01*
X100581903Y-83167387D01*
X100415057Y-83134200D01*
X100244943Y-83134200D01*
X100078097Y-83167387D01*
X99920932Y-83232487D01*
X99779487Y-83326998D01*
X99659198Y-83447287D01*
X99564687Y-83588732D01*
X99499587Y-83745897D01*
X99466400Y-83912743D01*
X67233000Y-83912743D01*
X67233000Y-81194400D01*
X108529328Y-81194400D01*
X108529328Y-83194400D01*
X108541588Y-83318882D01*
X108577898Y-83438580D01*
X108636863Y-83548894D01*
X108716215Y-83645585D01*
X108812906Y-83724937D01*
X108923220Y-83783902D01*
X109042918Y-83820212D01*
X109167400Y-83832472D01*
X111167400Y-83832472D01*
X111291882Y-83820212D01*
X111411580Y-83783902D01*
X111521894Y-83724937D01*
X111618585Y-83645585D01*
X111697937Y-83548894D01*
X111756902Y-83438580D01*
X111793212Y-83318882D01*
X111805472Y-83194400D01*
X111805472Y-82033367D01*
X118532400Y-82033367D01*
X118532400Y-82355433D01*
X118595232Y-82671312D01*
X118718482Y-82968863D01*
X118897413Y-83236652D01*
X119125148Y-83464387D01*
X119392937Y-83643318D01*
X119690488Y-83766568D01*
X120006367Y-83829400D01*
X120328433Y-83829400D01*
X120644312Y-83766568D01*
X120941863Y-83643318D01*
X121209652Y-83464387D01*
X121437387Y-83236652D01*
X121616318Y-82968863D01*
X121739568Y-82671312D01*
X121802400Y-82355433D01*
X121802400Y-82033367D01*
X121739568Y-81717488D01*
X121616318Y-81419937D01*
X121437387Y-81152148D01*
X121209652Y-80924413D01*
X120941863Y-80745482D01*
X120644312Y-80622232D01*
X120328433Y-80559400D01*
X120006367Y-80559400D01*
X119690488Y-80622232D01*
X119392937Y-80745482D01*
X119125148Y-80924413D01*
X118897413Y-81152148D01*
X118718482Y-81419937D01*
X118595232Y-81717488D01*
X118532400Y-82033367D01*
X111805472Y-82033367D01*
X111805472Y-81194400D01*
X111793212Y-81069918D01*
X111756902Y-80950220D01*
X111697937Y-80839906D01*
X111618585Y-80743215D01*
X111521894Y-80663863D01*
X111411580Y-80604898D01*
X111291882Y-80568588D01*
X111167400Y-80556328D01*
X109167400Y-80556328D01*
X109042918Y-80568588D01*
X108923220Y-80604898D01*
X108812906Y-80663863D01*
X108716215Y-80743215D01*
X108636863Y-80839906D01*
X108577898Y-80950220D01*
X108541588Y-81069918D01*
X108529328Y-81194400D01*
X67233000Y-81194400D01*
X67233000Y-78552253D01*
X67332620Y-78605502D01*
X67452318Y-78641812D01*
X67576800Y-78654072D01*
X68091050Y-78651000D01*
X68249800Y-78492250D01*
X68249800Y-77343000D01*
X68229800Y-77343000D01*
X68229800Y-77089000D01*
X68249800Y-77089000D01*
X68249800Y-75939750D01*
X68503800Y-75939750D01*
X68503800Y-77089000D01*
X68523800Y-77089000D01*
X68523800Y-77343000D01*
X68503800Y-77343000D01*
X68503800Y-78492250D01*
X68662550Y-78651000D01*
X69176800Y-78654072D01*
X69301282Y-78641812D01*
X69420980Y-78605502D01*
X69531294Y-78546537D01*
X69627985Y-78467185D01*
X69641590Y-78450607D01*
X69697073Y-78487680D01*
X69958226Y-78595853D01*
X70235465Y-78651000D01*
X70518135Y-78651000D01*
X70795374Y-78595853D01*
X71056527Y-78487680D01*
X71291559Y-78330637D01*
X71491437Y-78130759D01*
X71648480Y-77895727D01*
X71756653Y-77634574D01*
X71811800Y-77357335D01*
X71811800Y-77074665D01*
X71756653Y-76797426D01*
X71648480Y-76536273D01*
X71519852Y-76343767D01*
X80527000Y-76343767D01*
X80527000Y-76665833D01*
X80589832Y-76981712D01*
X80713082Y-77279263D01*
X80892013Y-77547052D01*
X81119748Y-77774787D01*
X81387537Y-77953718D01*
X81685088Y-78076968D01*
X82000967Y-78139800D01*
X82323033Y-78139800D01*
X82638912Y-78076968D01*
X82936463Y-77953718D01*
X83204252Y-77774787D01*
X83431987Y-77547052D01*
X83610918Y-77279263D01*
X83734168Y-76981712D01*
X83797000Y-76665833D01*
X83797000Y-76343767D01*
X88027000Y-76343767D01*
X88027000Y-76665833D01*
X88089832Y-76981712D01*
X88213082Y-77279263D01*
X88392013Y-77547052D01*
X88619748Y-77774787D01*
X88887537Y-77953718D01*
X89185088Y-78076968D01*
X89500967Y-78139800D01*
X89823033Y-78139800D01*
X90138912Y-78076968D01*
X90436463Y-77953718D01*
X90704252Y-77774787D01*
X90931987Y-77547052D01*
X91110918Y-77279263D01*
X91234168Y-76981712D01*
X91297000Y-76665833D01*
X91297000Y-76343767D01*
X96783000Y-76343767D01*
X96783000Y-76665833D01*
X96845832Y-76981712D01*
X96969082Y-77279263D01*
X97148013Y-77547052D01*
X97375748Y-77774787D01*
X97643537Y-77953718D01*
X97941088Y-78076968D01*
X98256967Y-78139800D01*
X98579033Y-78139800D01*
X98894912Y-78076968D01*
X99192463Y-77953718D01*
X99460252Y-77774787D01*
X99687987Y-77547052D01*
X99866918Y-77279263D01*
X99990168Y-76981712D01*
X100053000Y-76665833D01*
X100053000Y-76343767D01*
X104283000Y-76343767D01*
X104283000Y-76665833D01*
X104345832Y-76981712D01*
X104469082Y-77279263D01*
X104648013Y-77547052D01*
X104875748Y-77774787D01*
X105143537Y-77953718D01*
X105441088Y-78076968D01*
X105756967Y-78139800D01*
X106079033Y-78139800D01*
X106394912Y-78076968D01*
X106692463Y-77953718D01*
X106960252Y-77774787D01*
X107187987Y-77547052D01*
X107366918Y-77279263D01*
X107490168Y-76981712D01*
X107553000Y-76665833D01*
X107553000Y-76572367D01*
X109076600Y-76572367D01*
X109076600Y-76894433D01*
X109139432Y-77210312D01*
X109262682Y-77507863D01*
X109441613Y-77775652D01*
X109669348Y-78003387D01*
X109937137Y-78182318D01*
X110234688Y-78305568D01*
X110550567Y-78368400D01*
X110872633Y-78368400D01*
X111188512Y-78305568D01*
X111486063Y-78182318D01*
X111753852Y-78003387D01*
X111981587Y-77775652D01*
X112160518Y-77507863D01*
X112283768Y-77210312D01*
X112346600Y-76894433D01*
X112346600Y-76572367D01*
X116576600Y-76572367D01*
X116576600Y-76894433D01*
X116639432Y-77210312D01*
X116762682Y-77507863D01*
X116941613Y-77775652D01*
X117169348Y-78003387D01*
X117437137Y-78182318D01*
X117734688Y-78305568D01*
X118050567Y-78368400D01*
X118372633Y-78368400D01*
X118688512Y-78305568D01*
X118986063Y-78182318D01*
X119253852Y-78003387D01*
X119481587Y-77775652D01*
X119660518Y-77507863D01*
X119783768Y-77210312D01*
X119846600Y-76894433D01*
X119846600Y-76572367D01*
X119783768Y-76256488D01*
X119660518Y-75958937D01*
X119481587Y-75691148D01*
X119253852Y-75463413D01*
X118986063Y-75284482D01*
X118688512Y-75161232D01*
X118372633Y-75098400D01*
X118050567Y-75098400D01*
X117734688Y-75161232D01*
X117437137Y-75284482D01*
X117169348Y-75463413D01*
X116941613Y-75691148D01*
X116762682Y-75958937D01*
X116639432Y-76256488D01*
X116576600Y-76572367D01*
X112346600Y-76572367D01*
X112283768Y-76256488D01*
X112160518Y-75958937D01*
X111981587Y-75691148D01*
X111753852Y-75463413D01*
X111486063Y-75284482D01*
X111188512Y-75161232D01*
X110872633Y-75098400D01*
X110550567Y-75098400D01*
X110234688Y-75161232D01*
X109937137Y-75284482D01*
X109669348Y-75463413D01*
X109441613Y-75691148D01*
X109262682Y-75958937D01*
X109139432Y-76256488D01*
X109076600Y-76572367D01*
X107553000Y-76572367D01*
X107553000Y-76343767D01*
X107490168Y-76027888D01*
X107366918Y-75730337D01*
X107187987Y-75462548D01*
X106960252Y-75234813D01*
X106692463Y-75055882D01*
X106394912Y-74932632D01*
X106079033Y-74869800D01*
X105756967Y-74869800D01*
X105441088Y-74932632D01*
X105143537Y-75055882D01*
X104875748Y-75234813D01*
X104648013Y-75462548D01*
X104469082Y-75730337D01*
X104345832Y-76027888D01*
X104283000Y-76343767D01*
X100053000Y-76343767D01*
X99990168Y-76027888D01*
X99866918Y-75730337D01*
X99687987Y-75462548D01*
X99460252Y-75234813D01*
X99192463Y-75055882D01*
X98894912Y-74932632D01*
X98579033Y-74869800D01*
X98256967Y-74869800D01*
X97941088Y-74932632D01*
X97643537Y-75055882D01*
X97375748Y-75234813D01*
X97148013Y-75462548D01*
X96969082Y-75730337D01*
X96845832Y-76027888D01*
X96783000Y-76343767D01*
X91297000Y-76343767D01*
X91234168Y-76027888D01*
X91110918Y-75730337D01*
X90931987Y-75462548D01*
X90704252Y-75234813D01*
X90436463Y-75055882D01*
X90138912Y-74932632D01*
X89823033Y-74869800D01*
X89500967Y-74869800D01*
X89185088Y-74932632D01*
X88887537Y-75055882D01*
X88619748Y-75234813D01*
X88392013Y-75462548D01*
X88213082Y-75730337D01*
X88089832Y-76027888D01*
X88027000Y-76343767D01*
X83797000Y-76343767D01*
X83734168Y-76027888D01*
X83610918Y-75730337D01*
X83431987Y-75462548D01*
X83204252Y-75234813D01*
X82936463Y-75055882D01*
X82638912Y-74932632D01*
X82323033Y-74869800D01*
X82000967Y-74869800D01*
X81685088Y-74932632D01*
X81387537Y-75055882D01*
X81119748Y-75234813D01*
X80892013Y-75462548D01*
X80713082Y-75730337D01*
X80589832Y-76027888D01*
X80527000Y-76343767D01*
X71519852Y-76343767D01*
X71491437Y-76301241D01*
X71291559Y-76101363D01*
X71056527Y-75944320D01*
X70795374Y-75836147D01*
X70518135Y-75781000D01*
X70235465Y-75781000D01*
X69958226Y-75836147D01*
X69697073Y-75944320D01*
X69641590Y-75981393D01*
X69627985Y-75964815D01*
X69531294Y-75885463D01*
X69420980Y-75826498D01*
X69301282Y-75790188D01*
X69176800Y-75777928D01*
X68662550Y-75781000D01*
X68503800Y-75939750D01*
X68249800Y-75939750D01*
X68091050Y-75781000D01*
X67576800Y-75777928D01*
X67452318Y-75790188D01*
X67332620Y-75826498D01*
X67233000Y-75879747D01*
X67233000Y-71542943D01*
X74828400Y-71542943D01*
X74828400Y-71713057D01*
X74861587Y-71879903D01*
X74926687Y-72037068D01*
X75021198Y-72178513D01*
X75141487Y-72298802D01*
X75282932Y-72393313D01*
X75440097Y-72458413D01*
X75606943Y-72491600D01*
X75777057Y-72491600D01*
X75943903Y-72458413D01*
X76101068Y-72393313D01*
X76242513Y-72298802D01*
X76362802Y-72178513D01*
X76457313Y-72037068D01*
X76522413Y-71879903D01*
X76555600Y-71713057D01*
X76555600Y-71542943D01*
X76522413Y-71376097D01*
X76457313Y-71218932D01*
X76362802Y-71077487D01*
X76242513Y-70957198D01*
X76101068Y-70862687D01*
X75943903Y-70797587D01*
X75777057Y-70764400D01*
X75606943Y-70764400D01*
X75440097Y-70797587D01*
X75282932Y-70862687D01*
X75141487Y-70957198D01*
X75021198Y-71077487D01*
X74926687Y-71218932D01*
X74861587Y-71376097D01*
X74828400Y-71542943D01*
X67233000Y-71542943D01*
X67233000Y-67478943D01*
X74320400Y-67478943D01*
X74320400Y-67649057D01*
X74353587Y-67815903D01*
X74418687Y-67973068D01*
X74513198Y-68114513D01*
X74633487Y-68234802D01*
X74774932Y-68329313D01*
X74932097Y-68394413D01*
X75098943Y-68427600D01*
X75269057Y-68427600D01*
X75435903Y-68394413D01*
X75593068Y-68329313D01*
X75734513Y-68234802D01*
X75854802Y-68114513D01*
X75949313Y-67973068D01*
X76014413Y-67815903D01*
X76047600Y-67649057D01*
X76047600Y-67478943D01*
X76014413Y-67312097D01*
X75949313Y-67154932D01*
X75854802Y-67013487D01*
X75734513Y-66893198D01*
X75593068Y-66798687D01*
X75435903Y-66733587D01*
X75269057Y-66700400D01*
X75098943Y-66700400D01*
X74932097Y-66733587D01*
X74774932Y-66798687D01*
X74633487Y-66893198D01*
X74513198Y-67013487D01*
X74418687Y-67154932D01*
X74353587Y-67312097D01*
X74320400Y-67478943D01*
X67233000Y-67478943D01*
X67233000Y-63669167D01*
X67948300Y-63669167D01*
X67948300Y-63991233D01*
X68011132Y-64307112D01*
X68134382Y-64604663D01*
X68313313Y-64872452D01*
X68541048Y-65100187D01*
X68808837Y-65279118D01*
X69106388Y-65402368D01*
X69422267Y-65465200D01*
X69744333Y-65465200D01*
X70060212Y-65402368D01*
X70357763Y-65279118D01*
X70625552Y-65100187D01*
X70853287Y-64872452D01*
X70853300Y-64872433D01*
X70853313Y-64872452D01*
X71081048Y-65100187D01*
X71348837Y-65279118D01*
X71646388Y-65402368D01*
X71962267Y-65465200D01*
X72284333Y-65465200D01*
X72600212Y-65402368D01*
X72897763Y-65279118D01*
X73165552Y-65100187D01*
X73393287Y-64872452D01*
X73572218Y-64604663D01*
X73593203Y-64554000D01*
X80603928Y-64554000D01*
X80616188Y-64678482D01*
X80652498Y-64798180D01*
X80711463Y-64908494D01*
X80790815Y-65005185D01*
X80887506Y-65084537D01*
X80997820Y-65143502D01*
X81117518Y-65179812D01*
X81125961Y-65180643D01*
X80927363Y-65379241D01*
X80770320Y-65614273D01*
X80662147Y-65875426D01*
X80607000Y-66152665D01*
X80607000Y-66435335D01*
X80662147Y-66712574D01*
X80770320Y-66973727D01*
X80927363Y-67208759D01*
X81127241Y-67408637D01*
X81359759Y-67564000D01*
X81127241Y-67719363D01*
X80927363Y-67919241D01*
X80770320Y-68154273D01*
X80662147Y-68415426D01*
X80607000Y-68692665D01*
X80607000Y-68975335D01*
X80662147Y-69252574D01*
X80770320Y-69513727D01*
X80927363Y-69748759D01*
X81127241Y-69948637D01*
X81359759Y-70104000D01*
X81127241Y-70259363D01*
X80927363Y-70459241D01*
X80770320Y-70694273D01*
X80662147Y-70955426D01*
X80607000Y-71232665D01*
X80607000Y-71515335D01*
X80662147Y-71792574D01*
X80770320Y-72053727D01*
X80927363Y-72288759D01*
X81127241Y-72488637D01*
X81362273Y-72645680D01*
X81623426Y-72753853D01*
X81900665Y-72809000D01*
X82183335Y-72809000D01*
X82460574Y-72753853D01*
X82721727Y-72645680D01*
X82956759Y-72488637D01*
X83156637Y-72288759D01*
X83313680Y-72053727D01*
X83421853Y-71792574D01*
X83477000Y-71515335D01*
X83477000Y-71232665D01*
X83421853Y-70955426D01*
X83313680Y-70694273D01*
X83156637Y-70459241D01*
X82956759Y-70259363D01*
X82724241Y-70104000D01*
X82956759Y-69948637D01*
X83156637Y-69748759D01*
X83313680Y-69513727D01*
X83421853Y-69252574D01*
X83477000Y-68975335D01*
X83477000Y-68692665D01*
X83421853Y-68415426D01*
X83313680Y-68154273D01*
X83156637Y-67919241D01*
X82956759Y-67719363D01*
X82724241Y-67564000D01*
X82956759Y-67408637D01*
X83156637Y-67208759D01*
X83313680Y-66973727D01*
X83421853Y-66712574D01*
X83477000Y-66435335D01*
X83477000Y-66152665D01*
X83421853Y-65875426D01*
X83313680Y-65614273D01*
X83156637Y-65379241D01*
X82958039Y-65180643D01*
X82966482Y-65179812D01*
X83086180Y-65143502D01*
X83196494Y-65084537D01*
X83293185Y-65005185D01*
X83372537Y-64908494D01*
X83431502Y-64798180D01*
X83467812Y-64678482D01*
X83480072Y-64554000D01*
X83477000Y-64039750D01*
X83318250Y-63881000D01*
X82169000Y-63881000D01*
X82169000Y-63901000D01*
X81915000Y-63901000D01*
X81915000Y-63881000D01*
X80765750Y-63881000D01*
X80607000Y-64039750D01*
X80603928Y-64554000D01*
X73593203Y-64554000D01*
X73695468Y-64307112D01*
X73758300Y-63991233D01*
X73758300Y-63669167D01*
X73695468Y-63353288D01*
X73572218Y-63055737D01*
X73393287Y-62787948D01*
X73165552Y-62560213D01*
X72897763Y-62381282D01*
X72600212Y-62258032D01*
X72284333Y-62195200D01*
X71962267Y-62195200D01*
X71646388Y-62258032D01*
X71348837Y-62381282D01*
X71081048Y-62560213D01*
X70853313Y-62787948D01*
X70853300Y-62787967D01*
X70853287Y-62787948D01*
X70625552Y-62560213D01*
X70357763Y-62381282D01*
X70060212Y-62258032D01*
X69744333Y-62195200D01*
X69422267Y-62195200D01*
X69106388Y-62258032D01*
X68808837Y-62381282D01*
X68541048Y-62560213D01*
X68313313Y-62787948D01*
X68134382Y-63055737D01*
X68011132Y-63353288D01*
X67948300Y-63669167D01*
X67233000Y-63669167D01*
X67233000Y-54025000D01*
X70167434Y-54025000D01*
X69976148Y-54152813D01*
G37*
G04 #@! TD.AperFunction*
M02*
