G04 #@! TF.GenerationSoftware,KiCad,Pcbnew,(5.1.7)-1*
G04 #@! TF.CreationDate,2020-10-27T01:06:40-05:00*
G04 #@! TF.ProjectId,tent_map_amplitude,74656e74-5f6d-4617-905f-616d706c6974,1*
G04 #@! TF.SameCoordinates,Original*
G04 #@! TF.FileFunction,Legend,Top*
G04 #@! TF.FilePolarity,Positive*
%FSLAX46Y46*%
G04 Gerber Fmt 4.6, Leading zero omitted, Abs format (unit mm)*
G04 Created by KiCad (PCBNEW (5.1.7)-1) date 2020-10-27 01:06:40*
%MOMM*%
%LPD*%
G01*
G04 APERTURE LIST*
%ADD10C,0.120000*%
%ADD11C,0.100000*%
%ADD12C,0.150000*%
G04 APERTURE END LIST*
D10*
X80925520Y-107699960D02*
X78525520Y-107699960D01*
X78525520Y-107699960D02*
X78525520Y-112599960D01*
X78525520Y-112599960D02*
X80925520Y-112599960D01*
X80925520Y-112599960D02*
X80925520Y-107699960D01*
X84970040Y-80378140D02*
X94740040Y-80378140D01*
X84970040Y-85448140D02*
X94740040Y-85448140D01*
X84970040Y-80378140D02*
X84970040Y-85448140D01*
X94740040Y-80378140D02*
X94740040Y-85448140D01*
X72346560Y-68358020D02*
X67446560Y-68358020D01*
X72346560Y-70758020D02*
X72346560Y-68358020D01*
X67446560Y-70758020D02*
X72346560Y-70758020D01*
X67446560Y-68358020D02*
X67446560Y-70758020D01*
X108313720Y-82760820D02*
G75*
G03*
X108313720Y-82760820I-2620000J0D01*
G01*
X105693720Y-83800820D02*
X105693720Y-85340820D01*
X105693720Y-80180820D02*
X105693720Y-81720820D01*
X105733720Y-83800820D02*
X105733720Y-85340820D01*
X105733720Y-80180820D02*
X105733720Y-81720820D01*
X105773720Y-80181820D02*
X105773720Y-81720820D01*
X105773720Y-83800820D02*
X105773720Y-85339820D01*
X105813720Y-80182820D02*
X105813720Y-81720820D01*
X105813720Y-83800820D02*
X105813720Y-85338820D01*
X105853720Y-80184820D02*
X105853720Y-81720820D01*
X105853720Y-83800820D02*
X105853720Y-85336820D01*
X105893720Y-80187820D02*
X105893720Y-81720820D01*
X105893720Y-83800820D02*
X105893720Y-85333820D01*
X105933720Y-80191820D02*
X105933720Y-81720820D01*
X105933720Y-83800820D02*
X105933720Y-85329820D01*
X105973720Y-80195820D02*
X105973720Y-81720820D01*
X105973720Y-83800820D02*
X105973720Y-85325820D01*
X106013720Y-80199820D02*
X106013720Y-81720820D01*
X106013720Y-83800820D02*
X106013720Y-85321820D01*
X106053720Y-80204820D02*
X106053720Y-81720820D01*
X106053720Y-83800820D02*
X106053720Y-85316820D01*
X106093720Y-80210820D02*
X106093720Y-81720820D01*
X106093720Y-83800820D02*
X106093720Y-85310820D01*
X106133720Y-80217820D02*
X106133720Y-81720820D01*
X106133720Y-83800820D02*
X106133720Y-85303820D01*
X106173720Y-80224820D02*
X106173720Y-81720820D01*
X106173720Y-83800820D02*
X106173720Y-85296820D01*
X106213720Y-80232820D02*
X106213720Y-81720820D01*
X106213720Y-83800820D02*
X106213720Y-85288820D01*
X106253720Y-80240820D02*
X106253720Y-81720820D01*
X106253720Y-83800820D02*
X106253720Y-85280820D01*
X106293720Y-80249820D02*
X106293720Y-81720820D01*
X106293720Y-83800820D02*
X106293720Y-85271820D01*
X106333720Y-80259820D02*
X106333720Y-81720820D01*
X106333720Y-83800820D02*
X106333720Y-85261820D01*
X106373720Y-80269820D02*
X106373720Y-81720820D01*
X106373720Y-83800820D02*
X106373720Y-85251820D01*
X106414720Y-80280820D02*
X106414720Y-81720820D01*
X106414720Y-83800820D02*
X106414720Y-85240820D01*
X106454720Y-80292820D02*
X106454720Y-81720820D01*
X106454720Y-83800820D02*
X106454720Y-85228820D01*
X106494720Y-80305820D02*
X106494720Y-81720820D01*
X106494720Y-83800820D02*
X106494720Y-85215820D01*
X106534720Y-80318820D02*
X106534720Y-81720820D01*
X106534720Y-83800820D02*
X106534720Y-85202820D01*
X106574720Y-80332820D02*
X106574720Y-81720820D01*
X106574720Y-83800820D02*
X106574720Y-85188820D01*
X106614720Y-80346820D02*
X106614720Y-81720820D01*
X106614720Y-83800820D02*
X106614720Y-85174820D01*
X106654720Y-80362820D02*
X106654720Y-81720820D01*
X106654720Y-83800820D02*
X106654720Y-85158820D01*
X106694720Y-80378820D02*
X106694720Y-81720820D01*
X106694720Y-83800820D02*
X106694720Y-85142820D01*
X106734720Y-80395820D02*
X106734720Y-81720820D01*
X106734720Y-83800820D02*
X106734720Y-85125820D01*
X106774720Y-80412820D02*
X106774720Y-81720820D01*
X106774720Y-83800820D02*
X106774720Y-85108820D01*
X106814720Y-80431820D02*
X106814720Y-81720820D01*
X106814720Y-83800820D02*
X106814720Y-85089820D01*
X106854720Y-80450820D02*
X106854720Y-81720820D01*
X106854720Y-83800820D02*
X106854720Y-85070820D01*
X106894720Y-80470820D02*
X106894720Y-81720820D01*
X106894720Y-83800820D02*
X106894720Y-85050820D01*
X106934720Y-80492820D02*
X106934720Y-81720820D01*
X106934720Y-83800820D02*
X106934720Y-85028820D01*
X106974720Y-80513820D02*
X106974720Y-81720820D01*
X106974720Y-83800820D02*
X106974720Y-85007820D01*
X107014720Y-80536820D02*
X107014720Y-81720820D01*
X107014720Y-83800820D02*
X107014720Y-84984820D01*
X107054720Y-80560820D02*
X107054720Y-81720820D01*
X107054720Y-83800820D02*
X107054720Y-84960820D01*
X107094720Y-80585820D02*
X107094720Y-81720820D01*
X107094720Y-83800820D02*
X107094720Y-84935820D01*
X107134720Y-80611820D02*
X107134720Y-81720820D01*
X107134720Y-83800820D02*
X107134720Y-84909820D01*
X107174720Y-80638820D02*
X107174720Y-81720820D01*
X107174720Y-83800820D02*
X107174720Y-84882820D01*
X107214720Y-80665820D02*
X107214720Y-81720820D01*
X107214720Y-83800820D02*
X107214720Y-84855820D01*
X107254720Y-80695820D02*
X107254720Y-81720820D01*
X107254720Y-83800820D02*
X107254720Y-84825820D01*
X107294720Y-80725820D02*
X107294720Y-81720820D01*
X107294720Y-83800820D02*
X107294720Y-84795820D01*
X107334720Y-80756820D02*
X107334720Y-81720820D01*
X107334720Y-83800820D02*
X107334720Y-84764820D01*
X107374720Y-80789820D02*
X107374720Y-81720820D01*
X107374720Y-83800820D02*
X107374720Y-84731820D01*
X107414720Y-80823820D02*
X107414720Y-81720820D01*
X107414720Y-83800820D02*
X107414720Y-84697820D01*
X107454720Y-80859820D02*
X107454720Y-81720820D01*
X107454720Y-83800820D02*
X107454720Y-84661820D01*
X107494720Y-80896820D02*
X107494720Y-81720820D01*
X107494720Y-83800820D02*
X107494720Y-84624820D01*
X107534720Y-80934820D02*
X107534720Y-81720820D01*
X107534720Y-83800820D02*
X107534720Y-84586820D01*
X107574720Y-80975820D02*
X107574720Y-81720820D01*
X107574720Y-83800820D02*
X107574720Y-84545820D01*
X107614720Y-81017820D02*
X107614720Y-81720820D01*
X107614720Y-83800820D02*
X107614720Y-84503820D01*
X107654720Y-81061820D02*
X107654720Y-81720820D01*
X107654720Y-83800820D02*
X107654720Y-84459820D01*
X107694720Y-81107820D02*
X107694720Y-81720820D01*
X107694720Y-83800820D02*
X107694720Y-84413820D01*
X107734720Y-81155820D02*
X107734720Y-84365820D01*
X107774720Y-81206820D02*
X107774720Y-84314820D01*
X107814720Y-81260820D02*
X107814720Y-84260820D01*
X107854720Y-81317820D02*
X107854720Y-84203820D01*
X107894720Y-81377820D02*
X107894720Y-84143820D01*
X107934720Y-81441820D02*
X107934720Y-84079820D01*
X107974720Y-81509820D02*
X107974720Y-84011820D01*
X108014720Y-81582820D02*
X108014720Y-83938820D01*
X108054720Y-81662820D02*
X108054720Y-83858820D01*
X108094720Y-81749820D02*
X108094720Y-83771820D01*
X108134720Y-81845820D02*
X108134720Y-83675820D01*
X108174720Y-81955820D02*
X108174720Y-83565820D01*
X108214720Y-82083820D02*
X108214720Y-83437820D01*
X108254720Y-82242820D02*
X108254720Y-83278820D01*
X108294720Y-82476820D02*
X108294720Y-83044820D01*
X102888945Y-81285820D02*
X103388945Y-81285820D01*
X103138945Y-81035820D02*
X103138945Y-81535820D01*
X67225885Y-75483380D02*
X67225885Y-75983380D01*
X66975885Y-75733380D02*
X67475885Y-75733380D01*
X72381660Y-76924380D02*
X72381660Y-77492380D01*
X72341660Y-76690380D02*
X72341660Y-77726380D01*
X72301660Y-76531380D02*
X72301660Y-77885380D01*
X72261660Y-76403380D02*
X72261660Y-78013380D01*
X72221660Y-76293380D02*
X72221660Y-78123380D01*
X72181660Y-76197380D02*
X72181660Y-78219380D01*
X72141660Y-76110380D02*
X72141660Y-78306380D01*
X72101660Y-76030380D02*
X72101660Y-78386380D01*
X72061660Y-75957380D02*
X72061660Y-78459380D01*
X72021660Y-75889380D02*
X72021660Y-78527380D01*
X71981660Y-75825380D02*
X71981660Y-78591380D01*
X71941660Y-75765380D02*
X71941660Y-78651380D01*
X71901660Y-75708380D02*
X71901660Y-78708380D01*
X71861660Y-75654380D02*
X71861660Y-78762380D01*
X71821660Y-75603380D02*
X71821660Y-78813380D01*
X71781660Y-78248380D02*
X71781660Y-78861380D01*
X71781660Y-75555380D02*
X71781660Y-76168380D01*
X71741660Y-78248380D02*
X71741660Y-78907380D01*
X71741660Y-75509380D02*
X71741660Y-76168380D01*
X71701660Y-78248380D02*
X71701660Y-78951380D01*
X71701660Y-75465380D02*
X71701660Y-76168380D01*
X71661660Y-78248380D02*
X71661660Y-78993380D01*
X71661660Y-75423380D02*
X71661660Y-76168380D01*
X71621660Y-78248380D02*
X71621660Y-79034380D01*
X71621660Y-75382380D02*
X71621660Y-76168380D01*
X71581660Y-78248380D02*
X71581660Y-79072380D01*
X71581660Y-75344380D02*
X71581660Y-76168380D01*
X71541660Y-78248380D02*
X71541660Y-79109380D01*
X71541660Y-75307380D02*
X71541660Y-76168380D01*
X71501660Y-78248380D02*
X71501660Y-79145380D01*
X71501660Y-75271380D02*
X71501660Y-76168380D01*
X71461660Y-78248380D02*
X71461660Y-79179380D01*
X71461660Y-75237380D02*
X71461660Y-76168380D01*
X71421660Y-78248380D02*
X71421660Y-79212380D01*
X71421660Y-75204380D02*
X71421660Y-76168380D01*
X71381660Y-78248380D02*
X71381660Y-79243380D01*
X71381660Y-75173380D02*
X71381660Y-76168380D01*
X71341660Y-78248380D02*
X71341660Y-79273380D01*
X71341660Y-75143380D02*
X71341660Y-76168380D01*
X71301660Y-78248380D02*
X71301660Y-79303380D01*
X71301660Y-75113380D02*
X71301660Y-76168380D01*
X71261660Y-78248380D02*
X71261660Y-79330380D01*
X71261660Y-75086380D02*
X71261660Y-76168380D01*
X71221660Y-78248380D02*
X71221660Y-79357380D01*
X71221660Y-75059380D02*
X71221660Y-76168380D01*
X71181660Y-78248380D02*
X71181660Y-79383380D01*
X71181660Y-75033380D02*
X71181660Y-76168380D01*
X71141660Y-78248380D02*
X71141660Y-79408380D01*
X71141660Y-75008380D02*
X71141660Y-76168380D01*
X71101660Y-78248380D02*
X71101660Y-79432380D01*
X71101660Y-74984380D02*
X71101660Y-76168380D01*
X71061660Y-78248380D02*
X71061660Y-79455380D01*
X71061660Y-74961380D02*
X71061660Y-76168380D01*
X71021660Y-78248380D02*
X71021660Y-79476380D01*
X71021660Y-74940380D02*
X71021660Y-76168380D01*
X70981660Y-78248380D02*
X70981660Y-79498380D01*
X70981660Y-74918380D02*
X70981660Y-76168380D01*
X70941660Y-78248380D02*
X70941660Y-79518380D01*
X70941660Y-74898380D02*
X70941660Y-76168380D01*
X70901660Y-78248380D02*
X70901660Y-79537380D01*
X70901660Y-74879380D02*
X70901660Y-76168380D01*
X70861660Y-78248380D02*
X70861660Y-79556380D01*
X70861660Y-74860380D02*
X70861660Y-76168380D01*
X70821660Y-78248380D02*
X70821660Y-79573380D01*
X70821660Y-74843380D02*
X70821660Y-76168380D01*
X70781660Y-78248380D02*
X70781660Y-79590380D01*
X70781660Y-74826380D02*
X70781660Y-76168380D01*
X70741660Y-78248380D02*
X70741660Y-79606380D01*
X70741660Y-74810380D02*
X70741660Y-76168380D01*
X70701660Y-78248380D02*
X70701660Y-79622380D01*
X70701660Y-74794380D02*
X70701660Y-76168380D01*
X70661660Y-78248380D02*
X70661660Y-79636380D01*
X70661660Y-74780380D02*
X70661660Y-76168380D01*
X70621660Y-78248380D02*
X70621660Y-79650380D01*
X70621660Y-74766380D02*
X70621660Y-76168380D01*
X70581660Y-78248380D02*
X70581660Y-79663380D01*
X70581660Y-74753380D02*
X70581660Y-76168380D01*
X70541660Y-78248380D02*
X70541660Y-79676380D01*
X70541660Y-74740380D02*
X70541660Y-76168380D01*
X70501660Y-78248380D02*
X70501660Y-79688380D01*
X70501660Y-74728380D02*
X70501660Y-76168380D01*
X70460660Y-78248380D02*
X70460660Y-79699380D01*
X70460660Y-74717380D02*
X70460660Y-76168380D01*
X70420660Y-78248380D02*
X70420660Y-79709380D01*
X70420660Y-74707380D02*
X70420660Y-76168380D01*
X70380660Y-78248380D02*
X70380660Y-79719380D01*
X70380660Y-74697380D02*
X70380660Y-76168380D01*
X70340660Y-78248380D02*
X70340660Y-79728380D01*
X70340660Y-74688380D02*
X70340660Y-76168380D01*
X70300660Y-78248380D02*
X70300660Y-79736380D01*
X70300660Y-74680380D02*
X70300660Y-76168380D01*
X70260660Y-78248380D02*
X70260660Y-79744380D01*
X70260660Y-74672380D02*
X70260660Y-76168380D01*
X70220660Y-78248380D02*
X70220660Y-79751380D01*
X70220660Y-74665380D02*
X70220660Y-76168380D01*
X70180660Y-78248380D02*
X70180660Y-79758380D01*
X70180660Y-74658380D02*
X70180660Y-76168380D01*
X70140660Y-78248380D02*
X70140660Y-79764380D01*
X70140660Y-74652380D02*
X70140660Y-76168380D01*
X70100660Y-78248380D02*
X70100660Y-79769380D01*
X70100660Y-74647380D02*
X70100660Y-76168380D01*
X70060660Y-78248380D02*
X70060660Y-79773380D01*
X70060660Y-74643380D02*
X70060660Y-76168380D01*
X70020660Y-78248380D02*
X70020660Y-79777380D01*
X70020660Y-74639380D02*
X70020660Y-76168380D01*
X69980660Y-78248380D02*
X69980660Y-79781380D01*
X69980660Y-74635380D02*
X69980660Y-76168380D01*
X69940660Y-78248380D02*
X69940660Y-79784380D01*
X69940660Y-74632380D02*
X69940660Y-76168380D01*
X69900660Y-78248380D02*
X69900660Y-79786380D01*
X69900660Y-74630380D02*
X69900660Y-76168380D01*
X69860660Y-78248380D02*
X69860660Y-79787380D01*
X69860660Y-74629380D02*
X69860660Y-76168380D01*
X69820660Y-74628380D02*
X69820660Y-76168380D01*
X69820660Y-78248380D02*
X69820660Y-79788380D01*
X69780660Y-74628380D02*
X69780660Y-76168380D01*
X69780660Y-78248380D02*
X69780660Y-79788380D01*
X72400660Y-77208380D02*
G75*
G03*
X72400660Y-77208380I-2620000J0D01*
G01*
X97392640Y-58908800D02*
X99792640Y-58908800D01*
X99792640Y-58908800D02*
X99792640Y-54008800D01*
X99792640Y-54008800D02*
X97392640Y-54008800D01*
X97392640Y-54008800D02*
X97392640Y-58908800D01*
X91182000Y-79124800D02*
X80642000Y-79124800D01*
X91182000Y-73884800D02*
X80642000Y-73884800D01*
X91182000Y-79124800D02*
X91182000Y-73884800D01*
X80642000Y-79124800D02*
X80642000Y-73884800D01*
X107438000Y-79124800D02*
X96898000Y-79124800D01*
X107438000Y-73884800D02*
X96898000Y-73884800D01*
X107438000Y-79124800D02*
X107438000Y-73884800D01*
X96898000Y-79124800D02*
X96898000Y-73884800D01*
X119731600Y-79353400D02*
X109191600Y-79353400D01*
X119731600Y-74113400D02*
X109191600Y-74113400D01*
X119731600Y-79353400D02*
X119731600Y-74113400D01*
X109191600Y-79353400D02*
X109191600Y-74113400D01*
D11*
X82442000Y-62854000D02*
X82442000Y-62554000D01*
X82442000Y-62554000D02*
X82742000Y-62554000D01*
X89242000Y-62854000D02*
X89242000Y-62554000D01*
X89242000Y-62554000D02*
X88942000Y-62554000D01*
X89242000Y-72254000D02*
X89242000Y-72554000D01*
X89242000Y-72554000D02*
X88942000Y-72554000D01*
X82442000Y-72254000D02*
X82442000Y-72554000D01*
X82442000Y-72554000D02*
X82742000Y-72554000D01*
X98698000Y-62600000D02*
X98698000Y-62300000D01*
X98698000Y-62300000D02*
X98998000Y-62300000D01*
X105498000Y-62600000D02*
X105498000Y-62300000D01*
X105498000Y-62300000D02*
X105198000Y-62300000D01*
X105498000Y-72000000D02*
X105498000Y-72300000D01*
X105498000Y-72300000D02*
X105198000Y-72300000D01*
X98698000Y-72000000D02*
X98698000Y-72300000D01*
X98698000Y-72300000D02*
X98998000Y-72300000D01*
X113506200Y-62625400D02*
X113506200Y-62325400D01*
X113506200Y-62325400D02*
X113806200Y-62325400D01*
X120306200Y-62625400D02*
X120306200Y-62325400D01*
X120306200Y-62325400D02*
X120006200Y-62325400D01*
X120306200Y-72025400D02*
X120306200Y-72325400D01*
X120306200Y-72325400D02*
X120006200Y-72325400D01*
X113506200Y-72025400D02*
X113506200Y-72325400D01*
X113506200Y-72325400D02*
X113806200Y-72325400D01*
X116978000Y-92398800D02*
X117278000Y-92398800D01*
X117278000Y-92398800D02*
X117278000Y-92698800D01*
X116978000Y-99198800D02*
X117278000Y-99198800D01*
X117278000Y-99198800D02*
X117278000Y-98898800D01*
X107578000Y-99198800D02*
X107278000Y-99198800D01*
X107278000Y-99198800D02*
X107278000Y-98898800D01*
X107578000Y-92398800D02*
X107278000Y-92398800D01*
X107278000Y-92398800D02*
X107278000Y-92698800D01*
X90981480Y-87555500D02*
X90981480Y-87255500D01*
X90981480Y-87255500D02*
X91281480Y-87255500D01*
X97781480Y-87555500D02*
X97781480Y-87255500D01*
X97781480Y-87255500D02*
X97481480Y-87255500D01*
X97781480Y-96955500D02*
X97781480Y-97255500D01*
X97781480Y-97255500D02*
X97481480Y-97255500D01*
X90981480Y-96955500D02*
X90981480Y-97255500D01*
X90981480Y-97255500D02*
X91281480Y-97255500D01*
X75104000Y-86480800D02*
X74854000Y-86480800D01*
X75484000Y-86480800D02*
X75114000Y-86480800D01*
X76784000Y-85480800D02*
X76484000Y-85480800D01*
X76484000Y-85480800D02*
X75484000Y-86480800D01*
X82384000Y-85980800D02*
X82384000Y-85580800D01*
X82384000Y-85580800D02*
X81984000Y-85580800D01*
X81884000Y-105080800D02*
X82384000Y-105080800D01*
X82384000Y-105080800D02*
X82384000Y-104680800D01*
X75584000Y-104680800D02*
X75584000Y-105080800D01*
X75584000Y-105080800D02*
X75984000Y-105080800D01*
D10*
X86320480Y-53968800D02*
X83920480Y-53968800D01*
X83920480Y-53968800D02*
X83920480Y-58868800D01*
X83920480Y-58868800D02*
X86320480Y-58868800D01*
X86320480Y-58868800D02*
X86320480Y-53968800D01*
X90656560Y-58908800D02*
X93056560Y-58908800D01*
X93056560Y-58908800D02*
X93056560Y-54008800D01*
X93056560Y-54008800D02*
X90656560Y-54008800D01*
X90656560Y-54008800D02*
X90656560Y-58908800D01*
X104128720Y-58908800D02*
X106528720Y-58908800D01*
X106528720Y-58908800D02*
X106528720Y-54008800D01*
X106528720Y-54008800D02*
X104128720Y-54008800D01*
X104128720Y-54008800D02*
X104128720Y-58908800D01*
X77184400Y-58908800D02*
X79584400Y-58908800D01*
X79584400Y-58908800D02*
X79584400Y-54008800D01*
X79584400Y-54008800D02*
X77184400Y-54008800D01*
X77184400Y-54008800D02*
X77184400Y-58908800D01*
X67151400Y-84448800D02*
X67151400Y-86848800D01*
X67151400Y-86848800D02*
X72051400Y-86848800D01*
X72051400Y-86848800D02*
X72051400Y-84448800D01*
X72051400Y-84448800D02*
X67151400Y-84448800D01*
X67672100Y-101827480D02*
X67672100Y-104227480D01*
X67672100Y-104227480D02*
X72572100Y-104227480D01*
X72572100Y-104227480D02*
X72572100Y-101827480D01*
X72572100Y-101827480D02*
X67672100Y-101827480D01*
X99511000Y-106279800D02*
X101911000Y-106279800D01*
X101911000Y-106279800D02*
X101911000Y-101379800D01*
X101911000Y-101379800D02*
X99511000Y-101379800D01*
X99511000Y-101379800D02*
X99511000Y-106279800D01*
X91510000Y-106152800D02*
X93910000Y-106152800D01*
X93910000Y-106152800D02*
X93910000Y-101252800D01*
X93910000Y-101252800D02*
X91510000Y-101252800D01*
X91510000Y-101252800D02*
X91510000Y-106152800D01*
X97407580Y-107699960D02*
X95007580Y-107699960D01*
X95007580Y-107699960D02*
X95007580Y-112599960D01*
X95007580Y-112599960D02*
X97407580Y-112599960D01*
X97407580Y-112599960D02*
X97407580Y-107699960D01*
X89166550Y-107699960D02*
X86766550Y-107699960D01*
X86766550Y-107699960D02*
X86766550Y-112599960D01*
X86766550Y-112599960D02*
X89166550Y-112599960D01*
X89166550Y-112599960D02*
X89166550Y-107699960D01*
X68383300Y-62630200D02*
X68383300Y-65030200D01*
X68383300Y-65030200D02*
X73283300Y-65030200D01*
X73283300Y-65030200D02*
X73283300Y-62630200D01*
X73283300Y-62630200D02*
X68383300Y-62630200D01*
X110864800Y-58908800D02*
X113264800Y-58908800D01*
X113264800Y-58908800D02*
X113264800Y-54008800D01*
X113264800Y-54008800D02*
X110864800Y-54008800D01*
X110864800Y-54008800D02*
X110864800Y-58908800D01*
X112972160Y-111696660D02*
X103202160Y-111696660D01*
X112972160Y-106626660D02*
X103202160Y-106626660D01*
X112972160Y-111696660D02*
X112972160Y-106626660D01*
X103202160Y-111696660D02*
X103202160Y-106626660D01*
X71429104Y-100249660D02*
X70974976Y-100249660D01*
X71429104Y-98779660D02*
X70974976Y-98779660D01*
X72937040Y-95747596D02*
X72937040Y-96201724D01*
X71467040Y-95747596D02*
X71467040Y-96201724D01*
X111733000Y-88231736D02*
X111733000Y-88685864D01*
X110263000Y-88231736D02*
X110263000Y-88685864D01*
X101971780Y-92079836D02*
X101971780Y-92533964D01*
X100501780Y-92079836D02*
X100501780Y-92533964D01*
X74449000Y-79763864D02*
X74449000Y-79309736D01*
X75919000Y-79763864D02*
X75919000Y-79309736D01*
X102476544Y-97318500D02*
X102022416Y-97318500D01*
X102476544Y-95848500D02*
X102022416Y-95848500D01*
X78221064Y-64489000D02*
X77766936Y-64489000D01*
X78221064Y-63019000D02*
X77766936Y-63019000D01*
D11*
X111370000Y-103174800D02*
X111370000Y-102574800D01*
X111370000Y-103174800D02*
X111370000Y-103774800D01*
X111370000Y-103174800D02*
X112070000Y-103174800D01*
X108570000Y-103174800D02*
X110370000Y-103174800D01*
X110370000Y-103874800D02*
X110370000Y-102474800D01*
X110370000Y-102474800D02*
X111370000Y-103174800D01*
X111370000Y-103174800D02*
X110370000Y-103874800D01*
X112070000Y-103174800D02*
X112870000Y-103174800D01*
X106870000Y-103174800D02*
X108570000Y-103174800D01*
X112870000Y-103174800D02*
X112870000Y-102374800D01*
X112870000Y-102374800D02*
X108570000Y-102374800D01*
X108570000Y-102374800D02*
X108570000Y-103174800D01*
X114270000Y-103174800D02*
X112870000Y-103174800D01*
X112870000Y-103174800D02*
X112870000Y-103974800D01*
X112870000Y-103974800D02*
X108570000Y-103974800D01*
X108570000Y-103974800D02*
X108570000Y-103174800D01*
X114367400Y-82194400D02*
X114367400Y-82794400D01*
X114367400Y-82194400D02*
X114367400Y-81594400D01*
X114367400Y-82194400D02*
X113667400Y-82194400D01*
X117167400Y-82194400D02*
X115367400Y-82194400D01*
X115367400Y-81494400D02*
X115367400Y-82894400D01*
X115367400Y-82894400D02*
X114367400Y-82194400D01*
X114367400Y-82194400D02*
X115367400Y-81494400D01*
X113667400Y-82194400D02*
X112867400Y-82194400D01*
X118867400Y-82194400D02*
X117167400Y-82194400D01*
X112867400Y-82194400D02*
X112867400Y-82994400D01*
X112867400Y-82994400D02*
X117167400Y-82994400D01*
X117167400Y-82994400D02*
X117167400Y-82194400D01*
X111467400Y-82194400D02*
X112867400Y-82194400D01*
X112867400Y-82194400D02*
X112867400Y-81394400D01*
X112867400Y-81394400D02*
X117167400Y-81394400D01*
X117167400Y-81394400D02*
X117167400Y-82194400D01*
D10*
X108050000Y-88414048D02*
X108050000Y-88936552D01*
X106580000Y-88414048D02*
X106580000Y-88936552D01*
X77441248Y-66829000D02*
X77963752Y-66829000D01*
X77441248Y-68299000D02*
X77963752Y-68299000D01*
X89155728Y-98007500D02*
X89678232Y-98007500D01*
X89155728Y-99477500D02*
X89678232Y-99477500D01*
X94459248Y-62765000D02*
X94981752Y-62765000D01*
X94459248Y-64235000D02*
X94981752Y-64235000D01*
X87841760Y-92513608D02*
X87841760Y-93036112D01*
X86371760Y-92513608D02*
X86371760Y-93036112D01*
X99838232Y-85507500D02*
X99315728Y-85507500D01*
X99838232Y-84037500D02*
X99315728Y-84037500D01*
X71867752Y-93495800D02*
X71345248Y-93495800D01*
X71867752Y-92025800D02*
X71345248Y-92025800D01*
X78217752Y-72363000D02*
X77695248Y-72363000D01*
X78217752Y-70893000D02*
X77695248Y-70893000D01*
X94981752Y-71855000D02*
X94459248Y-71855000D01*
X94981752Y-70385000D02*
X94459248Y-70385000D01*
X118899000Y-100917552D02*
X118899000Y-100395048D01*
X120369000Y-100917552D02*
X120369000Y-100395048D01*
X109637552Y-64235000D02*
X109115048Y-64235000D01*
X109637552Y-62765000D02*
X109115048Y-62765000D01*
X111148800Y-69186248D02*
X111148800Y-69708752D01*
X109678800Y-69186248D02*
X109678800Y-69708752D01*
X87349000Y-102554048D02*
X87349000Y-103076552D01*
X85879000Y-102554048D02*
X85879000Y-103076552D01*
D12*
X77077900Y-111261864D02*
X77077900Y-110690436D01*
X78077900Y-110976150D02*
X77077900Y-110976150D01*
X78077900Y-110357102D02*
X77077900Y-110357102D01*
X77077900Y-109976150D01*
X77125520Y-109880912D01*
X77173139Y-109833293D01*
X77268377Y-109785674D01*
X77411234Y-109785674D01*
X77506472Y-109833293D01*
X77554091Y-109880912D01*
X77601710Y-109976150D01*
X77601710Y-110357102D01*
X77411234Y-108928531D02*
X78077900Y-108928531D01*
X77030281Y-109166626D02*
X77744567Y-109404721D01*
X77744567Y-108785674D01*
X80877900Y-110852340D02*
X81877900Y-110519007D01*
X80877900Y-110185674D01*
X81496948Y-109852340D02*
X81496948Y-109090436D01*
X81877900Y-109471388D02*
X81115996Y-109471388D01*
X93963881Y-79768960D02*
X93630548Y-79292770D01*
X93392453Y-79768960D02*
X93392453Y-78768960D01*
X93773405Y-78768960D01*
X93868643Y-78816580D01*
X93916262Y-78864199D01*
X93963881Y-78959437D01*
X93963881Y-79102294D01*
X93916262Y-79197532D01*
X93868643Y-79245151D01*
X93773405Y-79292770D01*
X93392453Y-79292770D01*
X94249596Y-78768960D02*
X94582929Y-79768960D01*
X94916262Y-78768960D01*
X95201977Y-78864199D02*
X95249596Y-78816580D01*
X95344834Y-78768960D01*
X95582929Y-78768960D01*
X95678167Y-78816580D01*
X95725786Y-78864199D01*
X95773405Y-78959437D01*
X95773405Y-79054675D01*
X95725786Y-79197532D01*
X95154358Y-79768960D01*
X95773405Y-79768960D01*
X68008464Y-71110400D02*
X68579893Y-71110400D01*
X68294179Y-72110400D02*
X68294179Y-71110400D01*
X68913226Y-72110400D02*
X68913226Y-71110400D01*
X69294179Y-71110400D01*
X69389417Y-71158020D01*
X69437036Y-71205639D01*
X69484655Y-71300877D01*
X69484655Y-71443734D01*
X69437036Y-71538972D01*
X69389417Y-71586591D01*
X69294179Y-71634210D01*
X68913226Y-71634210D01*
X70437036Y-72110400D02*
X69865607Y-72110400D01*
X70151321Y-72110400D02*
X70151321Y-71110400D01*
X70056083Y-71253258D01*
X69960845Y-71348496D01*
X69865607Y-71396115D01*
X71341798Y-71110400D02*
X70865607Y-71110400D01*
X70817988Y-71586591D01*
X70865607Y-71538972D01*
X70960845Y-71491353D01*
X71198940Y-71491353D01*
X71294179Y-71538972D01*
X71341798Y-71586591D01*
X71389417Y-71681829D01*
X71389417Y-71919924D01*
X71341798Y-72015162D01*
X71294179Y-72062781D01*
X71198940Y-72110400D01*
X70960845Y-72110400D01*
X70865607Y-72062781D01*
X70817988Y-72015162D01*
X67503702Y-67310400D02*
X67837036Y-68310400D01*
X68170369Y-67310400D01*
X68503702Y-67929448D02*
X69265607Y-67929448D01*
X68884655Y-68310400D02*
X68884655Y-67548496D01*
X69646560Y-67310400D02*
X70265607Y-67310400D01*
X69932274Y-67691353D01*
X70075131Y-67691353D01*
X70170369Y-67738972D01*
X70217988Y-67786591D01*
X70265607Y-67881829D01*
X70265607Y-68119924D01*
X70217988Y-68215162D01*
X70170369Y-68262781D01*
X70075131Y-68310400D01*
X69789417Y-68310400D01*
X69694179Y-68262781D01*
X69646560Y-68215162D01*
X70694179Y-68215162D02*
X70741798Y-68262781D01*
X70694179Y-68310400D01*
X70646560Y-68262781D01*
X70694179Y-68215162D01*
X70694179Y-68310400D01*
X71075131Y-67310400D02*
X71694179Y-67310400D01*
X71360845Y-67691353D01*
X71503702Y-67691353D01*
X71598940Y-67738972D01*
X71646560Y-67786591D01*
X71694179Y-67881829D01*
X71694179Y-68119924D01*
X71646560Y-68215162D01*
X71598940Y-68262781D01*
X71503702Y-68310400D01*
X71217988Y-68310400D01*
X71122750Y-68262781D01*
X71075131Y-68215162D01*
X108731322Y-79013346D02*
X108778941Y-79060965D01*
X108826560Y-79203822D01*
X108826560Y-79299060D01*
X108778941Y-79441918D01*
X108683703Y-79537156D01*
X108588465Y-79584775D01*
X108397989Y-79632394D01*
X108255132Y-79632394D01*
X108064656Y-79584775D01*
X107969418Y-79537156D01*
X107874180Y-79441918D01*
X107826560Y-79299060D01*
X107826560Y-79203822D01*
X107874180Y-79060965D01*
X107921799Y-79013346D01*
X108826560Y-78537156D02*
X108826560Y-78346680D01*
X108778941Y-78251441D01*
X108731322Y-78203822D01*
X108588465Y-78108584D01*
X108397989Y-78060965D01*
X108017037Y-78060965D01*
X107921799Y-78108584D01*
X107874180Y-78156203D01*
X107826560Y-78251441D01*
X107826560Y-78441918D01*
X107874180Y-78537156D01*
X107921799Y-78584775D01*
X108017037Y-78632394D01*
X108255132Y-78632394D01*
X108350370Y-78584775D01*
X108397989Y-78537156D01*
X108445608Y-78441918D01*
X108445608Y-78251441D01*
X108397989Y-78156203D01*
X108350370Y-78108584D01*
X108255132Y-78060965D01*
X101962982Y-80322680D02*
X101391554Y-80322680D01*
X101677268Y-80322680D02*
X101677268Y-79322680D01*
X101582030Y-79465538D01*
X101486792Y-79560776D01*
X101391554Y-79608395D01*
X102582030Y-79322680D02*
X102677268Y-79322680D01*
X102772506Y-79370300D01*
X102820125Y-79417919D01*
X102867744Y-79513157D01*
X102915363Y-79703633D01*
X102915363Y-79941728D01*
X102867744Y-80132204D01*
X102820125Y-80227442D01*
X102772506Y-80275061D01*
X102677268Y-80322680D01*
X102582030Y-80322680D01*
X102486792Y-80275061D01*
X102439173Y-80227442D01*
X102391554Y-80132204D01*
X102343935Y-79941728D01*
X102343935Y-79703633D01*
X102391554Y-79513157D01*
X102439173Y-79417919D01*
X102486792Y-79370300D01*
X102582030Y-79322680D01*
X103772506Y-79656014D02*
X103772506Y-80322680D01*
X103343935Y-79656014D02*
X103343935Y-80179823D01*
X103391554Y-80275061D01*
X103486792Y-80322680D01*
X103629649Y-80322680D01*
X103724887Y-80275061D01*
X103772506Y-80227442D01*
X69613993Y-73815522D02*
X69566374Y-73863141D01*
X69423517Y-73910760D01*
X69328279Y-73910760D01*
X69185421Y-73863141D01*
X69090183Y-73767903D01*
X69042564Y-73672665D01*
X68994945Y-73482189D01*
X68994945Y-73339332D01*
X69042564Y-73148856D01*
X69090183Y-73053618D01*
X69185421Y-72958380D01*
X69328279Y-72910760D01*
X69423517Y-72910760D01*
X69566374Y-72958380D01*
X69613993Y-73005999D01*
X70185421Y-73339332D02*
X70090183Y-73291713D01*
X70042564Y-73244094D01*
X69994945Y-73148856D01*
X69994945Y-73101237D01*
X70042564Y-73005999D01*
X70090183Y-72958380D01*
X70185421Y-72910760D01*
X70375898Y-72910760D01*
X70471136Y-72958380D01*
X70518755Y-73005999D01*
X70566374Y-73101237D01*
X70566374Y-73148856D01*
X70518755Y-73244094D01*
X70471136Y-73291713D01*
X70375898Y-73339332D01*
X70185421Y-73339332D01*
X70090183Y-73386951D01*
X70042564Y-73434570D01*
X69994945Y-73529808D01*
X69994945Y-73720284D01*
X70042564Y-73815522D01*
X70090183Y-73863141D01*
X70185421Y-73910760D01*
X70375898Y-73910760D01*
X70471136Y-73863141D01*
X70518755Y-73815522D01*
X70566374Y-73720284D01*
X70566374Y-73529808D01*
X70518755Y-73434570D01*
X70471136Y-73386951D01*
X70375898Y-73339332D01*
X69503302Y-81470760D02*
X68931874Y-81470760D01*
X69217588Y-81470760D02*
X69217588Y-80470760D01*
X69122350Y-80613618D01*
X69027112Y-80708856D01*
X68931874Y-80756475D01*
X70122350Y-80470760D02*
X70217588Y-80470760D01*
X70312826Y-80518380D01*
X70360445Y-80565999D01*
X70408064Y-80661237D01*
X70455683Y-80851713D01*
X70455683Y-81089808D01*
X70408064Y-81280284D01*
X70360445Y-81375522D01*
X70312826Y-81423141D01*
X70217588Y-81470760D01*
X70122350Y-81470760D01*
X70027112Y-81423141D01*
X69979493Y-81375522D01*
X69931874Y-81280284D01*
X69884255Y-81089808D01*
X69884255Y-80851713D01*
X69931874Y-80661237D01*
X69979493Y-80565999D01*
X70027112Y-80518380D01*
X70122350Y-80470760D01*
X71312826Y-80804094D02*
X71312826Y-81470760D01*
X70884255Y-80804094D02*
X70884255Y-81327903D01*
X70931874Y-81423141D01*
X71027112Y-81470760D01*
X71169969Y-81470760D01*
X71265207Y-81423141D01*
X71312826Y-81375522D01*
X100145020Y-58346895D02*
X100145020Y-57775466D01*
X101145020Y-58061180D02*
X100145020Y-58061180D01*
X101145020Y-57442133D02*
X100145020Y-57442133D01*
X100145020Y-57061180D01*
X100192640Y-56965942D01*
X100240259Y-56918323D01*
X100335497Y-56870704D01*
X100478354Y-56870704D01*
X100573592Y-56918323D01*
X100621211Y-56965942D01*
X100668830Y-57061180D01*
X100668830Y-57442133D01*
X101145020Y-55918323D02*
X101145020Y-56489752D01*
X101145020Y-56204038D02*
X100145020Y-56204038D01*
X100287878Y-56299276D01*
X100383116Y-56394514D01*
X100430735Y-56489752D01*
X100240259Y-55537371D02*
X100192640Y-55489752D01*
X100145020Y-55394514D01*
X100145020Y-55156419D01*
X100192640Y-55061180D01*
X100240259Y-55013561D01*
X100335497Y-54965942D01*
X100430735Y-54965942D01*
X100573592Y-55013561D01*
X101145020Y-55584990D01*
X101145020Y-54965942D01*
X96345020Y-59637371D02*
X97345020Y-59304038D01*
X96345020Y-58970704D01*
X97297401Y-58208800D02*
X97345020Y-58304038D01*
X97345020Y-58494514D01*
X97297401Y-58589752D01*
X97249782Y-58637371D01*
X97154544Y-58684990D01*
X96868830Y-58684990D01*
X96773592Y-58637371D01*
X96725973Y-58589752D01*
X96678354Y-58494514D01*
X96678354Y-58304038D01*
X96725973Y-58208800D01*
X97345020Y-57637371D02*
X97297401Y-57732609D01*
X97202163Y-57780228D01*
X96345020Y-57780228D01*
X97345020Y-57113561D02*
X97297401Y-57208800D01*
X97249782Y-57256419D01*
X97154544Y-57304038D01*
X96868830Y-57304038D01*
X96773592Y-57256419D01*
X96725973Y-57208800D01*
X96678354Y-57113561D01*
X96678354Y-56970704D01*
X96725973Y-56875466D01*
X96773592Y-56827847D01*
X96868830Y-56780228D01*
X97154544Y-56780228D01*
X97249782Y-56827847D01*
X97297401Y-56875466D01*
X97345020Y-56970704D01*
X97345020Y-57113561D01*
X97297401Y-55923085D02*
X97345020Y-56018323D01*
X97345020Y-56208800D01*
X97297401Y-56304038D01*
X97249782Y-56351657D01*
X97154544Y-56399276D01*
X96868830Y-56399276D01*
X96773592Y-56351657D01*
X96725973Y-56304038D01*
X96678354Y-56208800D01*
X96678354Y-56018323D01*
X96725973Y-55923085D01*
X97345020Y-55494514D02*
X96345020Y-55494514D01*
X96964068Y-55399276D02*
X97345020Y-55113561D01*
X96678354Y-55113561D02*
X97059306Y-55494514D01*
X96964068Y-54684990D02*
X96964068Y-53923085D01*
X92029042Y-75238882D02*
X91981423Y-75286501D01*
X91838566Y-75334120D01*
X91743328Y-75334120D01*
X91600471Y-75286501D01*
X91505233Y-75191263D01*
X91457614Y-75096025D01*
X91409995Y-74905549D01*
X91409995Y-74762692D01*
X91457614Y-74572216D01*
X91505233Y-74476978D01*
X91600471Y-74381740D01*
X91743328Y-74334120D01*
X91838566Y-74334120D01*
X91981423Y-74381740D01*
X92029042Y-74429359D01*
X92981423Y-75334120D02*
X92409995Y-75334120D01*
X92695709Y-75334120D02*
X92695709Y-74334120D01*
X92600471Y-74476978D01*
X92505233Y-74572216D01*
X92409995Y-74619835D01*
X93552852Y-74762692D02*
X93457614Y-74715073D01*
X93409995Y-74667454D01*
X93362376Y-74572216D01*
X93362376Y-74524597D01*
X93409995Y-74429359D01*
X93457614Y-74381740D01*
X93552852Y-74334120D01*
X93743328Y-74334120D01*
X93838566Y-74381740D01*
X93886185Y-74429359D01*
X93933804Y-74524597D01*
X93933804Y-74572216D01*
X93886185Y-74667454D01*
X93838566Y-74715073D01*
X93743328Y-74762692D01*
X93552852Y-74762692D01*
X93457614Y-74810311D01*
X93409995Y-74857930D01*
X93362376Y-74953168D01*
X93362376Y-75143644D01*
X93409995Y-75238882D01*
X93457614Y-75286501D01*
X93552852Y-75334120D01*
X93743328Y-75334120D01*
X93838566Y-75286501D01*
X93886185Y-75238882D01*
X93933804Y-75143644D01*
X93933804Y-74953168D01*
X93886185Y-74857930D01*
X93838566Y-74810311D01*
X93743328Y-74762692D01*
X91818294Y-75665080D02*
X91913532Y-75665080D01*
X92008770Y-75712700D01*
X92056389Y-75760319D01*
X92104008Y-75855557D01*
X92151627Y-76046033D01*
X92151627Y-76284128D01*
X92104008Y-76474604D01*
X92056389Y-76569842D01*
X92008770Y-76617461D01*
X91913532Y-76665080D01*
X91818294Y-76665080D01*
X91723056Y-76617461D01*
X91675437Y-76569842D01*
X91627818Y-76474604D01*
X91580199Y-76284128D01*
X91580199Y-76046033D01*
X91627818Y-75855557D01*
X91675437Y-75760319D01*
X91723056Y-75712700D01*
X91818294Y-75665080D01*
X92580199Y-76569842D02*
X92627818Y-76617461D01*
X92580199Y-76665080D01*
X92532580Y-76617461D01*
X92580199Y-76569842D01*
X92580199Y-76665080D01*
X93580199Y-76665080D02*
X93008770Y-76665080D01*
X93294484Y-76665080D02*
X93294484Y-75665080D01*
X93199246Y-75807938D01*
X93104008Y-75903176D01*
X93008770Y-75950795D01*
X94437341Y-75998414D02*
X94437341Y-76665080D01*
X94008770Y-75998414D02*
X94008770Y-76522223D01*
X94056389Y-76617461D01*
X94151627Y-76665080D01*
X94294484Y-76665080D01*
X94389722Y-76617461D01*
X94437341Y-76569842D01*
X100883482Y-81591422D02*
X100835863Y-81639041D01*
X100693006Y-81686660D01*
X100597768Y-81686660D01*
X100454911Y-81639041D01*
X100359673Y-81543803D01*
X100312054Y-81448565D01*
X100264435Y-81258089D01*
X100264435Y-81115232D01*
X100312054Y-80924756D01*
X100359673Y-80829518D01*
X100454911Y-80734280D01*
X100597768Y-80686660D01*
X100693006Y-80686660D01*
X100835863Y-80734280D01*
X100883482Y-80781899D01*
X101835863Y-81686660D02*
X101264435Y-81686660D01*
X101550149Y-81686660D02*
X101550149Y-80686660D01*
X101454911Y-80829518D01*
X101359673Y-80924756D01*
X101264435Y-80972375D01*
X102169197Y-80686660D02*
X102835863Y-80686660D01*
X102407292Y-81686660D01*
X107656380Y-77559065D02*
X107656380Y-77463827D01*
X107704000Y-77368589D01*
X107751619Y-77320970D01*
X107846857Y-77273351D01*
X108037333Y-77225732D01*
X108275428Y-77225732D01*
X108465904Y-77273351D01*
X108561142Y-77320970D01*
X108608761Y-77368589D01*
X108656380Y-77463827D01*
X108656380Y-77559065D01*
X108608761Y-77654303D01*
X108561142Y-77701922D01*
X108465904Y-77749541D01*
X108275428Y-77797160D01*
X108037333Y-77797160D01*
X107846857Y-77749541D01*
X107751619Y-77701922D01*
X107704000Y-77654303D01*
X107656380Y-77559065D01*
X108561142Y-76797160D02*
X108608761Y-76749541D01*
X108656380Y-76797160D01*
X108608761Y-76844780D01*
X108561142Y-76797160D01*
X108656380Y-76797160D01*
X108656380Y-75797160D02*
X108656380Y-76368589D01*
X108656380Y-76082875D02*
X107656380Y-76082875D01*
X107799238Y-76178113D01*
X107894476Y-76273351D01*
X107942095Y-76368589D01*
X107989714Y-74940018D02*
X108656380Y-74940018D01*
X107989714Y-75368589D02*
X108513523Y-75368589D01*
X108608761Y-75320970D01*
X108656380Y-75225732D01*
X108656380Y-75082875D01*
X108608761Y-74987637D01*
X108561142Y-74940018D01*
X121311942Y-78824057D02*
X121359561Y-78871676D01*
X121407180Y-79014533D01*
X121407180Y-79109771D01*
X121359561Y-79252628D01*
X121264323Y-79347866D01*
X121169085Y-79395485D01*
X120978609Y-79443104D01*
X120835752Y-79443104D01*
X120645276Y-79395485D01*
X120550038Y-79347866D01*
X120454800Y-79252628D01*
X120407180Y-79109771D01*
X120407180Y-79014533D01*
X120454800Y-78871676D01*
X120502419Y-78824057D01*
X121407180Y-77871676D02*
X121407180Y-78443104D01*
X121407180Y-78157390D02*
X120407180Y-78157390D01*
X120550038Y-78252628D01*
X120645276Y-78347866D01*
X120692895Y-78443104D01*
X120407180Y-77014533D02*
X120407180Y-77205009D01*
X120454800Y-77300247D01*
X120502419Y-77347866D01*
X120645276Y-77443104D01*
X120835752Y-77490723D01*
X121216704Y-77490723D01*
X121311942Y-77443104D01*
X121359561Y-77395485D01*
X121407180Y-77300247D01*
X121407180Y-77109771D01*
X121359561Y-77014533D01*
X121311942Y-76966914D01*
X121216704Y-76919295D01*
X120978609Y-76919295D01*
X120883371Y-76966914D01*
X120835752Y-77014533D01*
X120788133Y-77109771D01*
X120788133Y-77300247D01*
X120835752Y-77395485D01*
X120883371Y-77443104D01*
X120978609Y-77490723D01*
X120191280Y-75839485D02*
X120191280Y-75744247D01*
X120238900Y-75649009D01*
X120286519Y-75601390D01*
X120381757Y-75553771D01*
X120572233Y-75506152D01*
X120810328Y-75506152D01*
X121000804Y-75553771D01*
X121096042Y-75601390D01*
X121143661Y-75649009D01*
X121191280Y-75744247D01*
X121191280Y-75839485D01*
X121143661Y-75934723D01*
X121096042Y-75982342D01*
X121000804Y-76029961D01*
X120810328Y-76077580D01*
X120572233Y-76077580D01*
X120381757Y-76029961D01*
X120286519Y-75982342D01*
X120238900Y-75934723D01*
X120191280Y-75839485D01*
X121096042Y-75077580D02*
X121143661Y-75029961D01*
X121191280Y-75077580D01*
X121143661Y-75125200D01*
X121096042Y-75077580D01*
X121191280Y-75077580D01*
X121191280Y-74077580D02*
X121191280Y-74649009D01*
X121191280Y-74363295D02*
X120191280Y-74363295D01*
X120334138Y-74458533D01*
X120429376Y-74553771D01*
X120476995Y-74649009D01*
X120524614Y-73220438D02*
X121191280Y-73220438D01*
X120524614Y-73649009D02*
X121048423Y-73649009D01*
X121143661Y-73601390D01*
X121191280Y-73506152D01*
X121191280Y-73363295D01*
X121143661Y-73268057D01*
X121096042Y-73220438D01*
X81534095Y-60869580D02*
X81534095Y-61679104D01*
X81581714Y-61774342D01*
X81629333Y-61821961D01*
X81724571Y-61869580D01*
X81915047Y-61869580D01*
X82010285Y-61821961D01*
X82057904Y-61774342D01*
X82105523Y-61679104D01*
X82105523Y-60869580D01*
X83010285Y-60869580D02*
X82819809Y-60869580D01*
X82724571Y-60917200D01*
X82676952Y-60964819D01*
X82581714Y-61107676D01*
X82534095Y-61298152D01*
X82534095Y-61679104D01*
X82581714Y-61774342D01*
X82629333Y-61821961D01*
X82724571Y-61869580D01*
X82915047Y-61869580D01*
X83010285Y-61821961D01*
X83057904Y-61774342D01*
X83105523Y-61679104D01*
X83105523Y-61441009D01*
X83057904Y-61345771D01*
X83010285Y-61298152D01*
X82915047Y-61250533D01*
X82724571Y-61250533D01*
X82629333Y-61298152D01*
X82581714Y-61345771D01*
X82534095Y-61441009D01*
X97790095Y-60564780D02*
X97790095Y-61374304D01*
X97837714Y-61469542D01*
X97885333Y-61517161D01*
X97980571Y-61564780D01*
X98171047Y-61564780D01*
X98266285Y-61517161D01*
X98313904Y-61469542D01*
X98361523Y-61374304D01*
X98361523Y-60564780D01*
X99313904Y-60564780D02*
X98837714Y-60564780D01*
X98790095Y-61040971D01*
X98837714Y-60993352D01*
X98932952Y-60945733D01*
X99171047Y-60945733D01*
X99266285Y-60993352D01*
X99313904Y-61040971D01*
X99361523Y-61136209D01*
X99361523Y-61374304D01*
X99313904Y-61469542D01*
X99266285Y-61517161D01*
X99171047Y-61564780D01*
X98932952Y-61564780D01*
X98837714Y-61517161D01*
X98790095Y-61469542D01*
X112623695Y-60717180D02*
X112623695Y-61526704D01*
X112671314Y-61621942D01*
X112718933Y-61669561D01*
X112814171Y-61717180D01*
X113004647Y-61717180D01*
X113099885Y-61669561D01*
X113147504Y-61621942D01*
X113195123Y-61526704D01*
X113195123Y-60717180D01*
X114099885Y-61050514D02*
X114099885Y-61717180D01*
X113861790Y-60669561D02*
X113623695Y-61383847D01*
X114242742Y-61383847D01*
X117816380Y-92862304D02*
X118625904Y-92862304D01*
X118721142Y-92814685D01*
X118768761Y-92767066D01*
X118816380Y-92671828D01*
X118816380Y-92481352D01*
X118768761Y-92386114D01*
X118721142Y-92338495D01*
X118625904Y-92290876D01*
X117816380Y-92290876D01*
X117816380Y-91909923D02*
X117816380Y-91290876D01*
X118197333Y-91624209D01*
X118197333Y-91481352D01*
X118244952Y-91386114D01*
X118292571Y-91338495D01*
X118387809Y-91290876D01*
X118625904Y-91290876D01*
X118721142Y-91338495D01*
X118768761Y-91386114D01*
X118816380Y-91481352D01*
X118816380Y-91767066D01*
X118768761Y-91862304D01*
X118721142Y-91909923D01*
X105497380Y-98795942D02*
X105497380Y-98224514D01*
X106497380Y-98510228D02*
X105497380Y-98510228D01*
X106497380Y-97414990D02*
X106497380Y-97891180D01*
X105497380Y-97891180D01*
X105497380Y-96891180D02*
X105497380Y-96795942D01*
X105545000Y-96700704D01*
X105592619Y-96653085D01*
X105687857Y-96605466D01*
X105878333Y-96557847D01*
X106116428Y-96557847D01*
X106306904Y-96605466D01*
X106402142Y-96653085D01*
X106449761Y-96700704D01*
X106497380Y-96795942D01*
X106497380Y-96891180D01*
X106449761Y-96986419D01*
X106402142Y-97034038D01*
X106306904Y-97081657D01*
X106116428Y-97129276D01*
X105878333Y-97129276D01*
X105687857Y-97081657D01*
X105592619Y-97034038D01*
X105545000Y-96986419D01*
X105497380Y-96891180D01*
X105925952Y-95986419D02*
X105878333Y-96081657D01*
X105830714Y-96129276D01*
X105735476Y-96176895D01*
X105687857Y-96176895D01*
X105592619Y-96129276D01*
X105545000Y-96081657D01*
X105497380Y-95986419D01*
X105497380Y-95795942D01*
X105545000Y-95700704D01*
X105592619Y-95653085D01*
X105687857Y-95605466D01*
X105735476Y-95605466D01*
X105830714Y-95653085D01*
X105878333Y-95700704D01*
X105925952Y-95795942D01*
X105925952Y-95986419D01*
X105973571Y-96081657D01*
X106021190Y-96129276D01*
X106116428Y-96176895D01*
X106306904Y-96176895D01*
X106402142Y-96129276D01*
X106449761Y-96081657D01*
X106497380Y-95986419D01*
X106497380Y-95795942D01*
X106449761Y-95700704D01*
X106402142Y-95653085D01*
X106306904Y-95605466D01*
X106116428Y-95605466D01*
X106021190Y-95653085D01*
X105973571Y-95700704D01*
X105925952Y-95795942D01*
X105592619Y-95224514D02*
X105545000Y-95176895D01*
X105497380Y-95081657D01*
X105497380Y-94843561D01*
X105545000Y-94748323D01*
X105592619Y-94700704D01*
X105687857Y-94653085D01*
X105783095Y-94653085D01*
X105925952Y-94700704D01*
X106497380Y-95272133D01*
X106497380Y-94653085D01*
X106497380Y-94224514D02*
X105497380Y-94224514D01*
X106497380Y-93748323D02*
X105497380Y-93748323D01*
X105497380Y-93367371D01*
X105545000Y-93272133D01*
X105592619Y-93224514D01*
X105687857Y-93176895D01*
X105830714Y-93176895D01*
X105925952Y-93224514D01*
X105973571Y-93272133D01*
X106021190Y-93367371D01*
X106021190Y-93748323D01*
X90474895Y-85835240D02*
X90474895Y-86644764D01*
X90522514Y-86740002D01*
X90570133Y-86787621D01*
X90665371Y-86835240D01*
X90855847Y-86835240D01*
X90951085Y-86787621D01*
X90998704Y-86740002D01*
X91046323Y-86644764D01*
X91046323Y-85835240D01*
X91474895Y-85930479D02*
X91522514Y-85882860D01*
X91617752Y-85835240D01*
X91855847Y-85835240D01*
X91951085Y-85882860D01*
X91998704Y-85930479D01*
X92046323Y-86025717D01*
X92046323Y-86120955D01*
X91998704Y-86263812D01*
X91427276Y-86835240D01*
X92046323Y-86835240D01*
X93312337Y-98194880D02*
X93883765Y-98194880D01*
X93598051Y-99194880D02*
X93598051Y-98194880D01*
X94693289Y-99194880D02*
X94217099Y-99194880D01*
X94217099Y-98194880D01*
X95217099Y-98194880D02*
X95312337Y-98194880D01*
X95407575Y-98242500D01*
X95455194Y-98290119D01*
X95502813Y-98385357D01*
X95550432Y-98575833D01*
X95550432Y-98813928D01*
X95502813Y-99004404D01*
X95455194Y-99099642D01*
X95407575Y-99147261D01*
X95312337Y-99194880D01*
X95217099Y-99194880D01*
X95121860Y-99147261D01*
X95074241Y-99099642D01*
X95026622Y-99004404D01*
X94979003Y-98813928D01*
X94979003Y-98575833D01*
X95026622Y-98385357D01*
X95074241Y-98290119D01*
X95121860Y-98242500D01*
X95217099Y-98194880D01*
X96121860Y-98623452D02*
X96026622Y-98575833D01*
X95979003Y-98528214D01*
X95931384Y-98432976D01*
X95931384Y-98385357D01*
X95979003Y-98290119D01*
X96026622Y-98242500D01*
X96121860Y-98194880D01*
X96312337Y-98194880D01*
X96407575Y-98242500D01*
X96455194Y-98290119D01*
X96502813Y-98385357D01*
X96502813Y-98432976D01*
X96455194Y-98528214D01*
X96407575Y-98575833D01*
X96312337Y-98623452D01*
X96121860Y-98623452D01*
X96026622Y-98671071D01*
X95979003Y-98718690D01*
X95931384Y-98813928D01*
X95931384Y-99004404D01*
X95979003Y-99099642D01*
X96026622Y-99147261D01*
X96121860Y-99194880D01*
X96312337Y-99194880D01*
X96407575Y-99147261D01*
X96455194Y-99099642D01*
X96502813Y-99004404D01*
X96502813Y-98813928D01*
X96455194Y-98718690D01*
X96407575Y-98671071D01*
X96312337Y-98623452D01*
X96883765Y-98290119D02*
X96931384Y-98242500D01*
X97026622Y-98194880D01*
X97264718Y-98194880D01*
X97359956Y-98242500D01*
X97407575Y-98290119D01*
X97455194Y-98385357D01*
X97455194Y-98480595D01*
X97407575Y-98623452D01*
X96836146Y-99194880D01*
X97455194Y-99194880D01*
X97883765Y-99194880D02*
X97883765Y-98194880D01*
X98359956Y-99194880D02*
X98359956Y-98194880D01*
X98740908Y-98194880D01*
X98836146Y-98242500D01*
X98883765Y-98290119D01*
X98931384Y-98385357D01*
X98931384Y-98528214D01*
X98883765Y-98623452D01*
X98836146Y-98671071D01*
X98740908Y-98718690D01*
X98359956Y-98718690D01*
X74269695Y-84389980D02*
X74269695Y-85199504D01*
X74317314Y-85294742D01*
X74364933Y-85342361D01*
X74460171Y-85389980D01*
X74650647Y-85389980D01*
X74745885Y-85342361D01*
X74793504Y-85294742D01*
X74841123Y-85199504D01*
X74841123Y-84389980D01*
X75841123Y-85389980D02*
X75269695Y-85389980D01*
X75555409Y-85389980D02*
X75555409Y-84389980D01*
X75460171Y-84532838D01*
X75364933Y-84628076D01*
X75269695Y-84675695D01*
X76798182Y-83396080D02*
X76321992Y-83396080D01*
X76321992Y-82396080D01*
X77131516Y-83396080D02*
X77131516Y-82396080D01*
X77464849Y-83110366D01*
X77798182Y-82396080D01*
X77798182Y-83396080D01*
X78179135Y-82396080D02*
X78798182Y-82396080D01*
X78464849Y-82777033D01*
X78607706Y-82777033D01*
X78702944Y-82824652D01*
X78750563Y-82872271D01*
X78798182Y-82967509D01*
X78798182Y-83205604D01*
X78750563Y-83300842D01*
X78702944Y-83348461D01*
X78607706Y-83396080D01*
X78321992Y-83396080D01*
X78226754Y-83348461D01*
X78179135Y-83300842D01*
X79131516Y-82396080D02*
X79750563Y-82396080D01*
X79417230Y-82777033D01*
X79560087Y-82777033D01*
X79655325Y-82824652D01*
X79702944Y-82872271D01*
X79750563Y-82967509D01*
X79750563Y-83205604D01*
X79702944Y-83300842D01*
X79655325Y-83348461D01*
X79560087Y-83396080D01*
X79274373Y-83396080D01*
X79179135Y-83348461D01*
X79131516Y-83300842D01*
X80226754Y-83396080D02*
X80417230Y-83396080D01*
X80512468Y-83348461D01*
X80560087Y-83300842D01*
X80655325Y-83157985D01*
X80702944Y-82967509D01*
X80702944Y-82586557D01*
X80655325Y-82491319D01*
X80607706Y-82443700D01*
X80512468Y-82396080D01*
X80321992Y-82396080D01*
X80226754Y-82443700D01*
X80179135Y-82491319D01*
X80131516Y-82586557D01*
X80131516Y-82824652D01*
X80179135Y-82919890D01*
X80226754Y-82967509D01*
X80321992Y-83015128D01*
X80512468Y-83015128D01*
X80607706Y-82967509D01*
X80655325Y-82919890D01*
X80702944Y-82824652D01*
X81083897Y-83110366D02*
X81560087Y-83110366D01*
X80988659Y-83396080D02*
X81321992Y-82396080D01*
X81655325Y-83396080D01*
X81988659Y-83396080D02*
X81988659Y-82396080D01*
X82560087Y-83396080D01*
X82560087Y-82396080D01*
X86675980Y-57821295D02*
X86675980Y-57249866D01*
X87675980Y-57535580D02*
X86675980Y-57535580D01*
X87675980Y-56916533D02*
X86675980Y-56916533D01*
X86675980Y-56535580D01*
X86723600Y-56440342D01*
X86771219Y-56392723D01*
X86866457Y-56345104D01*
X87009314Y-56345104D01*
X87104552Y-56392723D01*
X87152171Y-56440342D01*
X87199790Y-56535580D01*
X87199790Y-56916533D01*
X87675980Y-55392723D02*
X87675980Y-55964152D01*
X87675980Y-55678438D02*
X86675980Y-55678438D01*
X86818838Y-55773676D01*
X86914076Y-55868914D01*
X86961695Y-55964152D01*
X87009314Y-54535580D02*
X87675980Y-54535580D01*
X86628361Y-54773676D02*
X87342647Y-55011771D01*
X87342647Y-54392723D01*
X82662780Y-57680076D02*
X83662780Y-57346742D01*
X82662780Y-57013409D01*
X83615161Y-56727695D02*
X83662780Y-56632457D01*
X83662780Y-56441980D01*
X83615161Y-56346742D01*
X83519923Y-56299123D01*
X83472304Y-56299123D01*
X83377066Y-56346742D01*
X83329447Y-56441980D01*
X83329447Y-56584838D01*
X83281828Y-56680076D01*
X83186590Y-56727695D01*
X83138971Y-56727695D01*
X83043733Y-56680076D01*
X82996114Y-56584838D01*
X82996114Y-56441980D01*
X83043733Y-56346742D01*
X82996114Y-55870552D02*
X83662780Y-55870552D01*
X83091352Y-55870552D02*
X83043733Y-55822933D01*
X82996114Y-55727695D01*
X82996114Y-55584838D01*
X83043733Y-55489600D01*
X83138971Y-55441980D01*
X83662780Y-55441980D01*
X93408940Y-58346895D02*
X93408940Y-57775466D01*
X94408940Y-58061180D02*
X93408940Y-58061180D01*
X94408940Y-57442133D02*
X93408940Y-57442133D01*
X93408940Y-57061180D01*
X93456560Y-56965942D01*
X93504179Y-56918323D01*
X93599417Y-56870704D01*
X93742274Y-56870704D01*
X93837512Y-56918323D01*
X93885131Y-56965942D01*
X93932750Y-57061180D01*
X93932750Y-57442133D01*
X94408940Y-55918323D02*
X94408940Y-56489752D01*
X94408940Y-56204038D02*
X93408940Y-56204038D01*
X93551798Y-56299276D01*
X93647036Y-56394514D01*
X93694655Y-56489752D01*
X93408940Y-55584990D02*
X93408940Y-54965942D01*
X93789893Y-55299276D01*
X93789893Y-55156419D01*
X93837512Y-55061180D01*
X93885131Y-55013561D01*
X93980369Y-54965942D01*
X94218464Y-54965942D01*
X94313702Y-55013561D01*
X94361321Y-55061180D01*
X94408940Y-55156419D01*
X94408940Y-55442133D01*
X94361321Y-55537371D01*
X94313702Y-55584990D01*
X89608940Y-59994514D02*
X90608940Y-59661180D01*
X89608940Y-59327847D01*
X90561321Y-59042133D02*
X90608940Y-58946895D01*
X90608940Y-58756419D01*
X90561321Y-58661180D01*
X90466083Y-58613561D01*
X90418464Y-58613561D01*
X90323226Y-58661180D01*
X90275607Y-58756419D01*
X90275607Y-58899276D01*
X90227988Y-58994514D01*
X90132750Y-59042133D01*
X90085131Y-59042133D01*
X89989893Y-58994514D01*
X89942274Y-58899276D01*
X89942274Y-58756419D01*
X89989893Y-58661180D01*
X89942274Y-58184990D02*
X90608940Y-58184990D01*
X90037512Y-58184990D02*
X89989893Y-58137371D01*
X89942274Y-58042133D01*
X89942274Y-57899276D01*
X89989893Y-57804038D01*
X90085131Y-57756419D01*
X90608940Y-57756419D01*
X90227988Y-57280228D02*
X90227988Y-56518323D01*
X90608940Y-56899276D02*
X89847036Y-56899276D01*
X90608940Y-55518323D02*
X90608940Y-56089752D01*
X90608940Y-55804038D02*
X89608940Y-55804038D01*
X89751798Y-55899276D01*
X89847036Y-55994514D01*
X89894655Y-56089752D01*
X89561321Y-54375466D02*
X90847036Y-55232609D01*
X89704179Y-54089752D02*
X89656560Y-54042133D01*
X89608940Y-53946895D01*
X89608940Y-53708800D01*
X89656560Y-53613561D01*
X89704179Y-53565942D01*
X89799417Y-53518323D01*
X89894655Y-53518323D01*
X90037512Y-53565942D01*
X90608940Y-54137371D01*
X90608940Y-53518323D01*
X106881100Y-58346895D02*
X106881100Y-57775466D01*
X107881100Y-58061180D02*
X106881100Y-58061180D01*
X107881100Y-57442133D02*
X106881100Y-57442133D01*
X106881100Y-57061180D01*
X106928720Y-56965942D01*
X106976339Y-56918323D01*
X107071577Y-56870704D01*
X107214434Y-56870704D01*
X107309672Y-56918323D01*
X107357291Y-56965942D01*
X107404910Y-57061180D01*
X107404910Y-57442133D01*
X107881100Y-55918323D02*
X107881100Y-56489752D01*
X107881100Y-56204038D02*
X106881100Y-56204038D01*
X107023958Y-56299276D01*
X107119196Y-56394514D01*
X107166815Y-56489752D01*
X107881100Y-54965942D02*
X107881100Y-55537371D01*
X107881100Y-55251657D02*
X106881100Y-55251657D01*
X107023958Y-55346895D01*
X107119196Y-55442133D01*
X107166815Y-55537371D01*
X103081100Y-58994514D02*
X104081100Y-58661180D01*
X103081100Y-58327847D01*
X104033481Y-58042133D02*
X104081100Y-57946895D01*
X104081100Y-57756419D01*
X104033481Y-57661180D01*
X103938243Y-57613561D01*
X103890624Y-57613561D01*
X103795386Y-57661180D01*
X103747767Y-57756419D01*
X103747767Y-57899276D01*
X103700148Y-57994514D01*
X103604910Y-58042133D01*
X103557291Y-58042133D01*
X103462053Y-57994514D01*
X103414434Y-57899276D01*
X103414434Y-57756419D01*
X103462053Y-57661180D01*
X103414434Y-57184990D02*
X104081100Y-57184990D01*
X103509672Y-57184990D02*
X103462053Y-57137371D01*
X103414434Y-57042133D01*
X103414434Y-56899276D01*
X103462053Y-56804038D01*
X103557291Y-56756419D01*
X104081100Y-56756419D01*
X103700148Y-56280228D02*
X103700148Y-55518323D01*
X104081100Y-55899276D02*
X103319196Y-55899276D01*
X104081100Y-54518323D02*
X104081100Y-55089752D01*
X104081100Y-54804038D02*
X103081100Y-54804038D01*
X103223958Y-54899276D01*
X103319196Y-54994514D01*
X103366815Y-55089752D01*
X79936780Y-58346895D02*
X79936780Y-57775466D01*
X80936780Y-58061180D02*
X79936780Y-58061180D01*
X80936780Y-57442133D02*
X79936780Y-57442133D01*
X79936780Y-57061180D01*
X79984400Y-56965942D01*
X80032019Y-56918323D01*
X80127257Y-56870704D01*
X80270114Y-56870704D01*
X80365352Y-56918323D01*
X80412971Y-56965942D01*
X80460590Y-57061180D01*
X80460590Y-57442133D01*
X80936780Y-55918323D02*
X80936780Y-56489752D01*
X80936780Y-56204038D02*
X79936780Y-56204038D01*
X80079638Y-56299276D01*
X80174876Y-56394514D01*
X80222495Y-56489752D01*
X79936780Y-55299276D02*
X79936780Y-55204038D01*
X79984400Y-55108800D01*
X80032019Y-55061180D01*
X80127257Y-55013561D01*
X80317733Y-54965942D01*
X80555828Y-54965942D01*
X80746304Y-55013561D01*
X80841542Y-55061180D01*
X80889161Y-55108800D01*
X80936780Y-55204038D01*
X80936780Y-55299276D01*
X80889161Y-55394514D01*
X80841542Y-55442133D01*
X80746304Y-55489752D01*
X80555828Y-55537371D01*
X80317733Y-55537371D01*
X80127257Y-55489752D01*
X80032019Y-55442133D01*
X79984400Y-55394514D01*
X79936780Y-55299276D01*
X76136780Y-59018323D02*
X77136780Y-58684990D01*
X76136780Y-58351657D01*
X77089161Y-57589752D02*
X77136780Y-57684990D01*
X77136780Y-57875466D01*
X77089161Y-57970704D01*
X77041542Y-58018323D01*
X76946304Y-58065942D01*
X76660590Y-58065942D01*
X76565352Y-58018323D01*
X76517733Y-57970704D01*
X76470114Y-57875466D01*
X76470114Y-57684990D01*
X76517733Y-57589752D01*
X77136780Y-57018323D02*
X77089161Y-57113561D01*
X76993923Y-57161180D01*
X76136780Y-57161180D01*
X77136780Y-56494514D02*
X77089161Y-56589752D01*
X77041542Y-56637371D01*
X76946304Y-56684990D01*
X76660590Y-56684990D01*
X76565352Y-56637371D01*
X76517733Y-56589752D01*
X76470114Y-56494514D01*
X76470114Y-56351657D01*
X76517733Y-56256419D01*
X76565352Y-56208800D01*
X76660590Y-56161180D01*
X76946304Y-56161180D01*
X77041542Y-56208800D01*
X77089161Y-56256419D01*
X77136780Y-56351657D01*
X77136780Y-56494514D01*
X77089161Y-55304038D02*
X77136780Y-55399276D01*
X77136780Y-55589752D01*
X77089161Y-55684990D01*
X77041542Y-55732609D01*
X76946304Y-55780228D01*
X76660590Y-55780228D01*
X76565352Y-55732609D01*
X76517733Y-55684990D01*
X76470114Y-55589752D01*
X76470114Y-55399276D01*
X76517733Y-55304038D01*
X77136780Y-54875466D02*
X76136780Y-54875466D01*
X76755828Y-54780228D02*
X77136780Y-54494514D01*
X76470114Y-54494514D02*
X76851066Y-54875466D01*
X68283295Y-87437980D02*
X68854723Y-87437980D01*
X68569009Y-88437980D02*
X68569009Y-87437980D01*
X69188057Y-88437980D02*
X69188057Y-87437980D01*
X69569009Y-87437980D01*
X69664247Y-87485600D01*
X69711866Y-87533219D01*
X69759485Y-87628457D01*
X69759485Y-87771314D01*
X69711866Y-87866552D01*
X69664247Y-87914171D01*
X69569009Y-87961790D01*
X69188057Y-87961790D01*
X70235676Y-88437980D02*
X70426152Y-88437980D01*
X70521390Y-88390361D01*
X70569009Y-88342742D01*
X70664247Y-88199885D01*
X70711866Y-88009409D01*
X70711866Y-87628457D01*
X70664247Y-87533219D01*
X70616628Y-87485600D01*
X70521390Y-87437980D01*
X70330914Y-87437980D01*
X70235676Y-87485600D01*
X70188057Y-87533219D01*
X70140438Y-87628457D01*
X70140438Y-87866552D01*
X70188057Y-87961790D01*
X70235676Y-88009409D01*
X70330914Y-88057028D01*
X70521390Y-88057028D01*
X70616628Y-88009409D01*
X70664247Y-87961790D01*
X70711866Y-87866552D01*
X66732495Y-82611980D02*
X67065828Y-83611980D01*
X67399161Y-82611980D01*
X68161066Y-83564361D02*
X68065828Y-83611980D01*
X67875352Y-83611980D01*
X67780114Y-83564361D01*
X67732495Y-83516742D01*
X67684876Y-83421504D01*
X67684876Y-83135790D01*
X67732495Y-83040552D01*
X67780114Y-82992933D01*
X67875352Y-82945314D01*
X68065828Y-82945314D01*
X68161066Y-82992933D01*
X68732495Y-83611980D02*
X68637257Y-83564361D01*
X68589638Y-83516742D01*
X68542019Y-83421504D01*
X68542019Y-83135790D01*
X68589638Y-83040552D01*
X68637257Y-82992933D01*
X68732495Y-82945314D01*
X68875352Y-82945314D01*
X68970590Y-82992933D01*
X69018209Y-83040552D01*
X69065828Y-83135790D01*
X69065828Y-83421504D01*
X69018209Y-83516742D01*
X68970590Y-83564361D01*
X68875352Y-83611980D01*
X68732495Y-83611980D01*
X69494400Y-83611980D02*
X69494400Y-82945314D01*
X69494400Y-83040552D02*
X69542019Y-82992933D01*
X69637257Y-82945314D01*
X69780114Y-82945314D01*
X69875352Y-82992933D01*
X69922971Y-83088171D01*
X69922971Y-83611980D01*
X69922971Y-83088171D02*
X69970590Y-82992933D01*
X70065828Y-82945314D01*
X70208685Y-82945314D01*
X70303923Y-82992933D01*
X70351542Y-83088171D01*
X70351542Y-83611980D01*
X70827733Y-82945314D02*
X70827733Y-83945314D01*
X70827733Y-82992933D02*
X70922971Y-82945314D01*
X71113447Y-82945314D01*
X71208685Y-82992933D01*
X71256304Y-83040552D01*
X71303923Y-83135790D01*
X71303923Y-83421504D01*
X71256304Y-83516742D01*
X71208685Y-83564361D01*
X71113447Y-83611980D01*
X70922971Y-83611980D01*
X70827733Y-83564361D01*
X71684876Y-83326266D02*
X72161066Y-83326266D01*
X71589638Y-83611980D02*
X71922971Y-82611980D01*
X72256304Y-83611980D01*
X66683095Y-104862380D02*
X67254523Y-104862380D01*
X66968809Y-105862380D02*
X66968809Y-104862380D01*
X67587857Y-105862380D02*
X67587857Y-104862380D01*
X67968809Y-104862380D01*
X68064047Y-104910000D01*
X68111666Y-104957619D01*
X68159285Y-105052857D01*
X68159285Y-105195714D01*
X68111666Y-105290952D01*
X68064047Y-105338571D01*
X67968809Y-105386190D01*
X67587857Y-105386190D01*
X68730714Y-105290952D02*
X68635476Y-105243333D01*
X68587857Y-105195714D01*
X68540238Y-105100476D01*
X68540238Y-105052857D01*
X68587857Y-104957619D01*
X68635476Y-104910000D01*
X68730714Y-104862380D01*
X68921190Y-104862380D01*
X69016428Y-104910000D01*
X69064047Y-104957619D01*
X69111666Y-105052857D01*
X69111666Y-105100476D01*
X69064047Y-105195714D01*
X69016428Y-105243333D01*
X68921190Y-105290952D01*
X68730714Y-105290952D01*
X68635476Y-105338571D01*
X68587857Y-105386190D01*
X68540238Y-105481428D01*
X68540238Y-105671904D01*
X68587857Y-105767142D01*
X68635476Y-105814761D01*
X68730714Y-105862380D01*
X68921190Y-105862380D01*
X69016428Y-105814761D01*
X69064047Y-105767142D01*
X69111666Y-105671904D01*
X69111666Y-105481428D01*
X69064047Y-105386190D01*
X69016428Y-105338571D01*
X68921190Y-105290952D01*
X68110195Y-101779860D02*
X68110195Y-101256051D01*
X68062576Y-101160813D01*
X67967338Y-101113194D01*
X67776861Y-101113194D01*
X67681623Y-101160813D01*
X68110195Y-101732241D02*
X68014957Y-101779860D01*
X67776861Y-101779860D01*
X67681623Y-101732241D01*
X67634004Y-101637003D01*
X67634004Y-101541765D01*
X67681623Y-101446527D01*
X67776861Y-101398908D01*
X68014957Y-101398908D01*
X68110195Y-101351289D01*
X68586385Y-101113194D02*
X68586385Y-101779860D01*
X68586385Y-101208432D02*
X68634004Y-101160813D01*
X68729242Y-101113194D01*
X68872100Y-101113194D01*
X68967338Y-101160813D01*
X69014957Y-101256051D01*
X69014957Y-101779860D01*
X69919719Y-101779860D02*
X69919719Y-101256051D01*
X69872100Y-101160813D01*
X69776861Y-101113194D01*
X69586385Y-101113194D01*
X69491147Y-101160813D01*
X69919719Y-101732241D02*
X69824480Y-101779860D01*
X69586385Y-101779860D01*
X69491147Y-101732241D01*
X69443528Y-101637003D01*
X69443528Y-101541765D01*
X69491147Y-101446527D01*
X69586385Y-101398908D01*
X69824480Y-101398908D01*
X69919719Y-101351289D01*
X70157814Y-101875099D02*
X70919719Y-101875099D01*
X71157814Y-101779860D02*
X71157814Y-101113194D01*
X71157814Y-100779860D02*
X71110195Y-100827480D01*
X71157814Y-100875099D01*
X71205433Y-100827480D01*
X71157814Y-100779860D01*
X71157814Y-100875099D01*
X71634004Y-101113194D02*
X71634004Y-101779860D01*
X71634004Y-101208432D02*
X71681623Y-101160813D01*
X71776861Y-101113194D01*
X71919719Y-101113194D01*
X72014957Y-101160813D01*
X72062576Y-101256051D01*
X72062576Y-101779860D01*
X102263380Y-105241704D02*
X102263380Y-104670276D01*
X103263380Y-104955990D02*
X102263380Y-104955990D01*
X103263380Y-104336942D02*
X102263380Y-104336942D01*
X102263380Y-103955990D01*
X102311000Y-103860752D01*
X102358619Y-103813133D01*
X102453857Y-103765514D01*
X102596714Y-103765514D01*
X102691952Y-103813133D01*
X102739571Y-103860752D01*
X102787190Y-103955990D01*
X102787190Y-104336942D01*
X102263380Y-103432180D02*
X102263380Y-102765514D01*
X103263380Y-103194085D01*
X98463380Y-105698847D02*
X99463380Y-105365514D01*
X98463380Y-105032180D01*
X99415761Y-104270276D02*
X99463380Y-104365514D01*
X99463380Y-104555990D01*
X99415761Y-104651228D01*
X99368142Y-104698847D01*
X99272904Y-104746466D01*
X98987190Y-104746466D01*
X98891952Y-104698847D01*
X98844333Y-104651228D01*
X98796714Y-104555990D01*
X98796714Y-104365514D01*
X98844333Y-104270276D01*
X98796714Y-103984561D02*
X98796714Y-103603609D01*
X98463380Y-103841704D02*
X99320523Y-103841704D01*
X99415761Y-103794085D01*
X99463380Y-103698847D01*
X99463380Y-103603609D01*
X99463380Y-103270276D02*
X98796714Y-103270276D01*
X98987190Y-103270276D02*
X98891952Y-103222657D01*
X98844333Y-103175038D01*
X98796714Y-103079800D01*
X98796714Y-102984561D01*
X99463380Y-102508371D02*
X99415761Y-102603609D01*
X99320523Y-102651228D01*
X98463380Y-102651228D01*
X94262380Y-105114704D02*
X94262380Y-104543276D01*
X95262380Y-104828990D02*
X94262380Y-104828990D01*
X95262380Y-104209942D02*
X94262380Y-104209942D01*
X94262380Y-103828990D01*
X94310000Y-103733752D01*
X94357619Y-103686133D01*
X94452857Y-103638514D01*
X94595714Y-103638514D01*
X94690952Y-103686133D01*
X94738571Y-103733752D01*
X94786190Y-103828990D01*
X94786190Y-104209942D01*
X94262380Y-102781371D02*
X94262380Y-102971847D01*
X94310000Y-103067085D01*
X94357619Y-103114704D01*
X94500476Y-103209942D01*
X94690952Y-103257561D01*
X95071904Y-103257561D01*
X95167142Y-103209942D01*
X95214761Y-103162323D01*
X95262380Y-103067085D01*
X95262380Y-102876609D01*
X95214761Y-102781371D01*
X95167142Y-102733752D01*
X95071904Y-102686133D01*
X94833809Y-102686133D01*
X94738571Y-102733752D01*
X94690952Y-102781371D01*
X94643333Y-102876609D01*
X94643333Y-103067085D01*
X94690952Y-103162323D01*
X94738571Y-103209942D01*
X94833809Y-103257561D01*
X90462380Y-106500419D02*
X91462380Y-106167085D01*
X90462380Y-105833752D01*
X91462380Y-105500419D02*
X90462380Y-105500419D01*
X90843333Y-105500419D02*
X90795714Y-105405180D01*
X90795714Y-105214704D01*
X90843333Y-105119466D01*
X90890952Y-105071847D01*
X90986190Y-105024228D01*
X91271904Y-105024228D01*
X91367142Y-105071847D01*
X91414761Y-105119466D01*
X91462380Y-105214704D01*
X91462380Y-105405180D01*
X91414761Y-105500419D01*
X90795714Y-104167085D02*
X91462380Y-104167085D01*
X90795714Y-104595657D02*
X91319523Y-104595657D01*
X91414761Y-104548038D01*
X91462380Y-104452800D01*
X91462380Y-104309942D01*
X91414761Y-104214704D01*
X91367142Y-104167085D01*
X90795714Y-103833752D02*
X90795714Y-103452800D01*
X91462380Y-103690895D02*
X90605238Y-103690895D01*
X90510000Y-103643276D01*
X90462380Y-103548038D01*
X90462380Y-103452800D01*
X90795714Y-103262323D02*
X90795714Y-102881371D01*
X91462380Y-103119466D02*
X90605238Y-103119466D01*
X90510000Y-103071847D01*
X90462380Y-102976609D01*
X90462380Y-102881371D01*
X91414761Y-102167085D02*
X91462380Y-102262323D01*
X91462380Y-102452800D01*
X91414761Y-102548038D01*
X91319523Y-102595657D01*
X90938571Y-102595657D01*
X90843333Y-102548038D01*
X90795714Y-102452800D01*
X90795714Y-102262323D01*
X90843333Y-102167085D01*
X90938571Y-102119466D01*
X91033809Y-102119466D01*
X91129047Y-102595657D01*
X91462380Y-101690895D02*
X90795714Y-101690895D01*
X90986190Y-101690895D02*
X90890952Y-101643276D01*
X90843333Y-101595657D01*
X90795714Y-101500419D01*
X90795714Y-101405180D01*
X93559960Y-111261864D02*
X93559960Y-110690436D01*
X94559960Y-110976150D02*
X93559960Y-110976150D01*
X94559960Y-110357102D02*
X93559960Y-110357102D01*
X93559960Y-109976150D01*
X93607580Y-109880912D01*
X93655199Y-109833293D01*
X93750437Y-109785674D01*
X93893294Y-109785674D01*
X93988532Y-109833293D01*
X94036151Y-109880912D01*
X94083770Y-109976150D01*
X94083770Y-110357102D01*
X93559960Y-108880912D02*
X93559960Y-109357102D01*
X94036151Y-109404721D01*
X93988532Y-109357102D01*
X93940913Y-109261864D01*
X93940913Y-109023769D01*
X93988532Y-108928531D01*
X94036151Y-108880912D01*
X94131389Y-108833293D01*
X94369484Y-108833293D01*
X94464722Y-108880912D01*
X94512341Y-108928531D01*
X94559960Y-109023769D01*
X94559960Y-109261864D01*
X94512341Y-109357102D01*
X94464722Y-109404721D01*
X97730060Y-110754040D02*
X98730060Y-110420707D01*
X97730060Y-110087374D01*
X98349108Y-109754040D02*
X98349108Y-108992136D01*
X85318930Y-111261864D02*
X85318930Y-110690436D01*
X86318930Y-110976150D02*
X85318930Y-110976150D01*
X86318930Y-110357102D02*
X85318930Y-110357102D01*
X85318930Y-109976150D01*
X85366550Y-109880912D01*
X85414169Y-109833293D01*
X85509407Y-109785674D01*
X85652264Y-109785674D01*
X85747502Y-109833293D01*
X85795121Y-109880912D01*
X85842740Y-109976150D01*
X85842740Y-110357102D01*
X85318930Y-109452340D02*
X85318930Y-108833293D01*
X85699883Y-109166626D01*
X85699883Y-109023769D01*
X85747502Y-108928531D01*
X85795121Y-108880912D01*
X85890359Y-108833293D01*
X86128454Y-108833293D01*
X86223692Y-108880912D01*
X86271311Y-108928531D01*
X86318930Y-109023769D01*
X86318930Y-109309483D01*
X86271311Y-109404721D01*
X86223692Y-109452340D01*
X89166550Y-110661864D02*
X89118930Y-110757102D01*
X89118930Y-110899960D01*
X89166550Y-111042817D01*
X89261788Y-111138055D01*
X89357026Y-111185674D01*
X89547502Y-111233293D01*
X89690359Y-111233293D01*
X89880835Y-111185674D01*
X89976073Y-111138055D01*
X90071311Y-111042817D01*
X90118930Y-110899960D01*
X90118930Y-110804721D01*
X90071311Y-110661864D01*
X90023692Y-110614245D01*
X89690359Y-110614245D01*
X89690359Y-110804721D01*
X90118930Y-110185674D02*
X89118930Y-110185674D01*
X90118930Y-109614245D01*
X89118930Y-109614245D01*
X90118930Y-109138055D02*
X89118930Y-109138055D01*
X89118930Y-108899960D01*
X89166550Y-108757102D01*
X89261788Y-108661864D01*
X89357026Y-108614245D01*
X89547502Y-108566626D01*
X89690359Y-108566626D01*
X89880835Y-108614245D01*
X89976073Y-108661864D01*
X90071311Y-108757102D01*
X90118930Y-108899960D01*
X90118930Y-109138055D01*
X69438995Y-65365380D02*
X70010423Y-65365380D01*
X69724709Y-66365380D02*
X69724709Y-65365380D01*
X70343757Y-66365380D02*
X70343757Y-65365380D01*
X70724709Y-65365380D01*
X70819947Y-65413000D01*
X70867566Y-65460619D01*
X70915185Y-65555857D01*
X70915185Y-65698714D01*
X70867566Y-65793952D01*
X70819947Y-65841571D01*
X70724709Y-65889190D01*
X70343757Y-65889190D01*
X71296138Y-65460619D02*
X71343757Y-65413000D01*
X71438995Y-65365380D01*
X71677090Y-65365380D01*
X71772328Y-65413000D01*
X71819947Y-65460619D01*
X71867566Y-65555857D01*
X71867566Y-65651095D01*
X71819947Y-65793952D01*
X71248519Y-66365380D01*
X71867566Y-66365380D01*
X68350095Y-62250580D02*
X68350095Y-61726771D01*
X68302476Y-61631533D01*
X68207238Y-61583914D01*
X68016761Y-61583914D01*
X67921523Y-61631533D01*
X68350095Y-62202961D02*
X68254857Y-62250580D01*
X68016761Y-62250580D01*
X67921523Y-62202961D01*
X67873904Y-62107723D01*
X67873904Y-62012485D01*
X67921523Y-61917247D01*
X68016761Y-61869628D01*
X68254857Y-61869628D01*
X68350095Y-61822009D01*
X68826285Y-61583914D02*
X68826285Y-62250580D01*
X68826285Y-61679152D02*
X68873904Y-61631533D01*
X68969142Y-61583914D01*
X69112000Y-61583914D01*
X69207238Y-61631533D01*
X69254857Y-61726771D01*
X69254857Y-62250580D01*
X70159619Y-62250580D02*
X70159619Y-61726771D01*
X70112000Y-61631533D01*
X70016761Y-61583914D01*
X69826285Y-61583914D01*
X69731047Y-61631533D01*
X70159619Y-62202961D02*
X70064380Y-62250580D01*
X69826285Y-62250580D01*
X69731047Y-62202961D01*
X69683428Y-62107723D01*
X69683428Y-62012485D01*
X69731047Y-61917247D01*
X69826285Y-61869628D01*
X70064380Y-61869628D01*
X70159619Y-61822009D01*
X70397714Y-62345819D02*
X71159619Y-62345819D01*
X71540571Y-62250580D02*
X71445333Y-62202961D01*
X71397714Y-62155342D01*
X71350095Y-62060104D01*
X71350095Y-61774390D01*
X71397714Y-61679152D01*
X71445333Y-61631533D01*
X71540571Y-61583914D01*
X71683428Y-61583914D01*
X71778666Y-61631533D01*
X71826285Y-61679152D01*
X71873904Y-61774390D01*
X71873904Y-62060104D01*
X71826285Y-62155342D01*
X71778666Y-62202961D01*
X71683428Y-62250580D01*
X71540571Y-62250580D01*
X72731047Y-61583914D02*
X72731047Y-62250580D01*
X72302476Y-61583914D02*
X72302476Y-62107723D01*
X72350095Y-62202961D01*
X72445333Y-62250580D01*
X72588190Y-62250580D01*
X72683428Y-62202961D01*
X72731047Y-62155342D01*
X73064380Y-61583914D02*
X73445333Y-61583914D01*
X73207238Y-61250580D02*
X73207238Y-62107723D01*
X73254857Y-62202961D01*
X73350095Y-62250580D01*
X73445333Y-62250580D01*
X113617180Y-57870704D02*
X113617180Y-57299276D01*
X114617180Y-57584990D02*
X113617180Y-57584990D01*
X114617180Y-56965942D02*
X113617180Y-56965942D01*
X113617180Y-56584990D01*
X113664800Y-56489752D01*
X113712419Y-56442133D01*
X113807657Y-56394514D01*
X113950514Y-56394514D01*
X114045752Y-56442133D01*
X114093371Y-56489752D01*
X114140990Y-56584990D01*
X114140990Y-56965942D01*
X114617180Y-55442133D02*
X114617180Y-56013561D01*
X114617180Y-55727847D02*
X113617180Y-55727847D01*
X113760038Y-55823085D01*
X113855276Y-55918323D01*
X113902895Y-56013561D01*
X109817180Y-57470704D02*
X110817180Y-57137371D01*
X109817180Y-56804038D01*
X110769561Y-56042133D02*
X110817180Y-56137371D01*
X110817180Y-56327847D01*
X110769561Y-56423085D01*
X110721942Y-56470704D01*
X110626704Y-56518323D01*
X110340990Y-56518323D01*
X110245752Y-56470704D01*
X110198133Y-56423085D01*
X110150514Y-56327847D01*
X110150514Y-56137371D01*
X110198133Y-56042133D01*
X107441121Y-113073440D02*
X107107788Y-112597250D01*
X106869693Y-113073440D02*
X106869693Y-112073440D01*
X107250645Y-112073440D01*
X107345883Y-112121060D01*
X107393502Y-112168679D01*
X107441121Y-112263917D01*
X107441121Y-112406774D01*
X107393502Y-112502012D01*
X107345883Y-112549631D01*
X107250645Y-112597250D01*
X106869693Y-112597250D01*
X107726836Y-112073440D02*
X108060169Y-113073440D01*
X108393502Y-112073440D01*
X109250645Y-113073440D02*
X108679217Y-113073440D01*
X108964931Y-113073440D02*
X108964931Y-112073440D01*
X108869693Y-112216298D01*
X108774455Y-112311536D01*
X108679217Y-112359155D01*
X67778333Y-100147380D02*
X67445000Y-99671190D01*
X67206904Y-100147380D02*
X67206904Y-99147380D01*
X67587857Y-99147380D01*
X67683095Y-99195000D01*
X67730714Y-99242619D01*
X67778333Y-99337857D01*
X67778333Y-99480714D01*
X67730714Y-99575952D01*
X67683095Y-99623571D01*
X67587857Y-99671190D01*
X67206904Y-99671190D01*
X68349761Y-99575952D02*
X68254523Y-99528333D01*
X68206904Y-99480714D01*
X68159285Y-99385476D01*
X68159285Y-99337857D01*
X68206904Y-99242619D01*
X68254523Y-99195000D01*
X68349761Y-99147380D01*
X68540238Y-99147380D01*
X68635476Y-99195000D01*
X68683095Y-99242619D01*
X68730714Y-99337857D01*
X68730714Y-99385476D01*
X68683095Y-99480714D01*
X68635476Y-99528333D01*
X68540238Y-99575952D01*
X68349761Y-99575952D01*
X68254523Y-99623571D01*
X68206904Y-99671190D01*
X68159285Y-99766428D01*
X68159285Y-99956904D01*
X68206904Y-100052142D01*
X68254523Y-100099761D01*
X68349761Y-100147380D01*
X68540238Y-100147380D01*
X68635476Y-100099761D01*
X68683095Y-100052142D01*
X68730714Y-99956904D01*
X68730714Y-99766428D01*
X68683095Y-99671190D01*
X68635476Y-99623571D01*
X68540238Y-99575952D01*
X67415801Y-98877380D02*
X66844373Y-98877380D01*
X67130087Y-98877380D02*
X67130087Y-97877380D01*
X67034849Y-98020238D01*
X66939611Y-98115476D01*
X66844373Y-98163095D01*
X68034849Y-97877380D02*
X68130087Y-97877380D01*
X68225325Y-97925000D01*
X68272944Y-97972619D01*
X68320563Y-98067857D01*
X68368182Y-98258333D01*
X68368182Y-98496428D01*
X68320563Y-98686904D01*
X68272944Y-98782142D01*
X68225325Y-98829761D01*
X68130087Y-98877380D01*
X68034849Y-98877380D01*
X67939611Y-98829761D01*
X67891992Y-98782142D01*
X67844373Y-98686904D01*
X67796754Y-98496428D01*
X67796754Y-98258333D01*
X67844373Y-98067857D01*
X67891992Y-97972619D01*
X67939611Y-97925000D01*
X68034849Y-97877380D01*
X68796754Y-98877380D02*
X68796754Y-97877380D01*
X68891992Y-98496428D02*
X69177706Y-98877380D01*
X69177706Y-98210714D02*
X68796754Y-98591666D01*
X71130420Y-96141326D02*
X70654230Y-96474660D01*
X71130420Y-96712755D02*
X70130420Y-96712755D01*
X70130420Y-96331802D01*
X70178040Y-96236564D01*
X70225659Y-96188945D01*
X70320897Y-96141326D01*
X70463754Y-96141326D01*
X70558992Y-96188945D01*
X70606611Y-96236564D01*
X70654230Y-96331802D01*
X70654230Y-96712755D01*
X70130420Y-95807993D02*
X70130420Y-95141326D01*
X71130420Y-95569898D01*
X69733420Y-96426898D02*
X69733420Y-96998326D01*
X69733420Y-96712612D02*
X68733420Y-96712612D01*
X68876278Y-96807850D01*
X68971516Y-96903088D01*
X69019135Y-96998326D01*
X68733420Y-95807850D02*
X68733420Y-95712612D01*
X68781040Y-95617374D01*
X68828659Y-95569755D01*
X68923897Y-95522136D01*
X69114373Y-95474517D01*
X69352468Y-95474517D01*
X69542944Y-95522136D01*
X69638182Y-95569755D01*
X69685801Y-95617374D01*
X69733420Y-95712612D01*
X69733420Y-95807850D01*
X69685801Y-95903088D01*
X69638182Y-95950707D01*
X69542944Y-95998326D01*
X69352468Y-96045945D01*
X69114373Y-96045945D01*
X68923897Y-95998326D01*
X68828659Y-95950707D01*
X68781040Y-95903088D01*
X68733420Y-95807850D01*
X69733420Y-95045945D02*
X68733420Y-95045945D01*
X69352468Y-94950707D02*
X69733420Y-94664993D01*
X69066754Y-94664993D02*
X69447706Y-95045945D01*
X112821980Y-85713866D02*
X112345790Y-86047200D01*
X112821980Y-86285295D02*
X111821980Y-86285295D01*
X111821980Y-85904342D01*
X111869600Y-85809104D01*
X111917219Y-85761485D01*
X112012457Y-85713866D01*
X112155314Y-85713866D01*
X112250552Y-85761485D01*
X112298171Y-85809104D01*
X112345790Y-85904342D01*
X112345790Y-86285295D01*
X111821980Y-84856723D02*
X111821980Y-85047200D01*
X111869600Y-85142438D01*
X111917219Y-85190057D01*
X112060076Y-85285295D01*
X112250552Y-85332914D01*
X112631504Y-85332914D01*
X112726742Y-85285295D01*
X112774361Y-85237676D01*
X112821980Y-85142438D01*
X112821980Y-84951961D01*
X112774361Y-84856723D01*
X112726742Y-84809104D01*
X112631504Y-84761485D01*
X112393409Y-84761485D01*
X112298171Y-84809104D01*
X112250552Y-84856723D01*
X112202933Y-84951961D01*
X112202933Y-85142438D01*
X112250552Y-85237676D01*
X112298171Y-85285295D01*
X112393409Y-85332914D01*
X113228380Y-88580838D02*
X113228380Y-89152266D01*
X113228380Y-88866552D02*
X112228380Y-88866552D01*
X112371238Y-88961790D01*
X112466476Y-89057028D01*
X112514095Y-89152266D01*
X112228380Y-87961790D02*
X112228380Y-87866552D01*
X112276000Y-87771314D01*
X112323619Y-87723695D01*
X112418857Y-87676076D01*
X112609333Y-87628457D01*
X112847428Y-87628457D01*
X113037904Y-87676076D01*
X113133142Y-87723695D01*
X113180761Y-87771314D01*
X113228380Y-87866552D01*
X113228380Y-87961790D01*
X113180761Y-88057028D01*
X113133142Y-88104647D01*
X113037904Y-88152266D01*
X112847428Y-88199885D01*
X112609333Y-88199885D01*
X112418857Y-88152266D01*
X112323619Y-88104647D01*
X112276000Y-88057028D01*
X112228380Y-87961790D01*
X113228380Y-87199885D02*
X112228380Y-87199885D01*
X112847428Y-87104647D02*
X113228380Y-86818933D01*
X112561714Y-86818933D02*
X112942666Y-87199885D01*
X103339160Y-92473566D02*
X102862970Y-92806900D01*
X103339160Y-93044995D02*
X102339160Y-93044995D01*
X102339160Y-92664042D01*
X102386780Y-92568804D01*
X102434399Y-92521185D01*
X102529637Y-92473566D01*
X102672494Y-92473566D01*
X102767732Y-92521185D01*
X102815351Y-92568804D01*
X102862970Y-92664042D01*
X102862970Y-93044995D01*
X102672494Y-91616423D02*
X103339160Y-91616423D01*
X102291541Y-91854519D02*
X103005827Y-92092614D01*
X103005827Y-91473566D01*
X99134399Y-93544995D02*
X99086780Y-93497376D01*
X99039160Y-93402138D01*
X99039160Y-93164042D01*
X99086780Y-93068804D01*
X99134399Y-93021185D01*
X99229637Y-92973566D01*
X99324875Y-92973566D01*
X99467732Y-93021185D01*
X100039160Y-93592614D01*
X100039160Y-92973566D01*
X99134399Y-92592614D02*
X99086780Y-92544995D01*
X99039160Y-92449757D01*
X99039160Y-92211661D01*
X99086780Y-92116423D01*
X99134399Y-92068804D01*
X99229637Y-92021185D01*
X99324875Y-92021185D01*
X99467732Y-92068804D01*
X100039160Y-92640233D01*
X100039160Y-92021185D01*
X99039160Y-91402138D02*
X99039160Y-91306900D01*
X99086780Y-91211661D01*
X99134399Y-91164042D01*
X99229637Y-91116423D01*
X99420113Y-91068804D01*
X99658208Y-91068804D01*
X99848684Y-91116423D01*
X99943922Y-91164042D01*
X99991541Y-91211661D01*
X100039160Y-91306900D01*
X100039160Y-91402138D01*
X99991541Y-91497376D01*
X99943922Y-91544995D01*
X99848684Y-91592614D01*
X99658208Y-91640233D01*
X99420113Y-91640233D01*
X99229637Y-91592614D01*
X99134399Y-91544995D01*
X99086780Y-91497376D01*
X99039160Y-91402138D01*
X73986380Y-79703466D02*
X73510190Y-80036800D01*
X73986380Y-80274895D02*
X72986380Y-80274895D01*
X72986380Y-79893942D01*
X73034000Y-79798704D01*
X73081619Y-79751085D01*
X73176857Y-79703466D01*
X73319714Y-79703466D01*
X73414952Y-79751085D01*
X73462571Y-79798704D01*
X73510190Y-79893942D01*
X73510190Y-80274895D01*
X72986380Y-79370133D02*
X72986380Y-78751085D01*
X73367333Y-79084419D01*
X73367333Y-78941561D01*
X73414952Y-78846323D01*
X73462571Y-78798704D01*
X73557809Y-78751085D01*
X73795904Y-78751085D01*
X73891142Y-78798704D01*
X73938761Y-78846323D01*
X73986380Y-78941561D01*
X73986380Y-79227276D01*
X73938761Y-79322514D01*
X73891142Y-79370133D01*
X77286380Y-80132038D02*
X77286380Y-80703466D01*
X77286380Y-80417752D02*
X76286380Y-80417752D01*
X76429238Y-80512990D01*
X76524476Y-80608228D01*
X76572095Y-80703466D01*
X76286380Y-79512990D02*
X76286380Y-79417752D01*
X76334000Y-79322514D01*
X76381619Y-79274895D01*
X76476857Y-79227276D01*
X76667333Y-79179657D01*
X76905428Y-79179657D01*
X77095904Y-79227276D01*
X77191142Y-79274895D01*
X77238761Y-79322514D01*
X77286380Y-79417752D01*
X77286380Y-79512990D01*
X77238761Y-79608228D01*
X77191142Y-79655847D01*
X77095904Y-79703466D01*
X76905428Y-79751085D01*
X76667333Y-79751085D01*
X76476857Y-79703466D01*
X76381619Y-79655847D01*
X76334000Y-79608228D01*
X76286380Y-79512990D01*
X77286380Y-78751085D02*
X76286380Y-78751085D01*
X76905428Y-78655847D02*
X77286380Y-78370133D01*
X76619714Y-78370133D02*
X77000666Y-78751085D01*
X102082813Y-98685880D02*
X101749480Y-98209690D01*
X101511384Y-98685880D02*
X101511384Y-97685880D01*
X101892337Y-97685880D01*
X101987575Y-97733500D01*
X102035194Y-97781119D01*
X102082813Y-97876357D01*
X102082813Y-98019214D01*
X102035194Y-98114452D01*
X101987575Y-98162071D01*
X101892337Y-98209690D01*
X101511384Y-98209690D01*
X102463765Y-97781119D02*
X102511384Y-97733500D01*
X102606622Y-97685880D01*
X102844718Y-97685880D01*
X102939956Y-97733500D01*
X102987575Y-97781119D01*
X103035194Y-97876357D01*
X103035194Y-97971595D01*
X102987575Y-98114452D01*
X102416146Y-98685880D01*
X103035194Y-98685880D01*
X101011384Y-94481119D02*
X101059003Y-94433500D01*
X101154241Y-94385880D01*
X101392337Y-94385880D01*
X101487575Y-94433500D01*
X101535194Y-94481119D01*
X101582813Y-94576357D01*
X101582813Y-94671595D01*
X101535194Y-94814452D01*
X100963765Y-95385880D01*
X101582813Y-95385880D01*
X101963765Y-94481119D02*
X102011384Y-94433500D01*
X102106622Y-94385880D01*
X102344718Y-94385880D01*
X102439956Y-94433500D01*
X102487575Y-94481119D01*
X102535194Y-94576357D01*
X102535194Y-94671595D01*
X102487575Y-94814452D01*
X101916146Y-95385880D01*
X102535194Y-95385880D01*
X103154241Y-94385880D02*
X103249480Y-94385880D01*
X103344718Y-94433500D01*
X103392337Y-94481119D01*
X103439956Y-94576357D01*
X103487575Y-94766833D01*
X103487575Y-95004928D01*
X103439956Y-95195404D01*
X103392337Y-95290642D01*
X103344718Y-95338261D01*
X103249480Y-95385880D01*
X103154241Y-95385880D01*
X103059003Y-95338261D01*
X103011384Y-95290642D01*
X102963765Y-95195404D01*
X102916146Y-95004928D01*
X102916146Y-94766833D01*
X102963765Y-94576357D01*
X103011384Y-94481119D01*
X103059003Y-94433500D01*
X103154241Y-94385880D01*
X75017333Y-63444380D02*
X74684000Y-62968190D01*
X74445904Y-63444380D02*
X74445904Y-62444380D01*
X74826857Y-62444380D01*
X74922095Y-62492000D01*
X74969714Y-62539619D01*
X75017333Y-62634857D01*
X75017333Y-62777714D01*
X74969714Y-62872952D01*
X74922095Y-62920571D01*
X74826857Y-62968190D01*
X74445904Y-62968190D01*
X75969714Y-63444380D02*
X75398285Y-63444380D01*
X75684000Y-63444380D02*
X75684000Y-62444380D01*
X75588761Y-62587238D01*
X75493523Y-62682476D01*
X75398285Y-62730095D01*
X77398761Y-62556380D02*
X76827333Y-62556380D01*
X77113047Y-62556380D02*
X77113047Y-61556380D01*
X77017809Y-61699238D01*
X76922571Y-61794476D01*
X76827333Y-61842095D01*
X78017809Y-61556380D02*
X78113047Y-61556380D01*
X78208285Y-61604000D01*
X78255904Y-61651619D01*
X78303523Y-61746857D01*
X78351142Y-61937333D01*
X78351142Y-62175428D01*
X78303523Y-62365904D01*
X78255904Y-62461142D01*
X78208285Y-62508761D01*
X78113047Y-62556380D01*
X78017809Y-62556380D01*
X77922571Y-62508761D01*
X77874952Y-62461142D01*
X77827333Y-62365904D01*
X77779714Y-62175428D01*
X77779714Y-61937333D01*
X77827333Y-61746857D01*
X77874952Y-61651619D01*
X77922571Y-61604000D01*
X78017809Y-61556380D01*
X78779714Y-62556380D02*
X78779714Y-61556380D01*
X78874952Y-62175428D02*
X79160666Y-62556380D01*
X79160666Y-61889714D02*
X78779714Y-62270666D01*
X109688404Y-105722680D02*
X109688404Y-104722680D01*
X109926500Y-104722680D01*
X110069357Y-104770300D01*
X110164595Y-104865538D01*
X110212214Y-104960776D01*
X110259833Y-105151252D01*
X110259833Y-105294109D01*
X110212214Y-105484585D01*
X110164595Y-105579823D01*
X110069357Y-105675061D01*
X109926500Y-105722680D01*
X109688404Y-105722680D01*
X110640785Y-104817919D02*
X110688404Y-104770300D01*
X110783642Y-104722680D01*
X111021738Y-104722680D01*
X111116976Y-104770300D01*
X111164595Y-104817919D01*
X111212214Y-104913157D01*
X111212214Y-105008395D01*
X111164595Y-105151252D01*
X110593166Y-105722680D01*
X111212214Y-105722680D01*
X119182904Y-85288380D02*
X119182904Y-84288380D01*
X119421000Y-84288380D01*
X119563857Y-84336000D01*
X119659095Y-84431238D01*
X119706714Y-84526476D01*
X119754333Y-84716952D01*
X119754333Y-84859809D01*
X119706714Y-85050285D01*
X119659095Y-85145523D01*
X119563857Y-85240761D01*
X119421000Y-85288380D01*
X119182904Y-85288380D01*
X120706714Y-85288380D02*
X120135285Y-85288380D01*
X120421000Y-85288380D02*
X120421000Y-84288380D01*
X120325761Y-84431238D01*
X120230523Y-84526476D01*
X120135285Y-84574095D01*
X109069142Y-86342457D02*
X109116761Y-86390076D01*
X109164380Y-86532933D01*
X109164380Y-86628171D01*
X109116761Y-86771028D01*
X109021523Y-86866266D01*
X108926285Y-86913885D01*
X108735809Y-86961504D01*
X108592952Y-86961504D01*
X108402476Y-86913885D01*
X108307238Y-86866266D01*
X108212000Y-86771028D01*
X108164380Y-86628171D01*
X108164380Y-86532933D01*
X108212000Y-86390076D01*
X108259619Y-86342457D01*
X109164380Y-85390076D02*
X109164380Y-85961504D01*
X109164380Y-85675790D02*
X108164380Y-85675790D01*
X108307238Y-85771028D01*
X108402476Y-85866266D01*
X108450095Y-85961504D01*
X108164380Y-84485314D02*
X108164380Y-84961504D01*
X108640571Y-85009123D01*
X108592952Y-84961504D01*
X108545333Y-84866266D01*
X108545333Y-84628171D01*
X108592952Y-84532933D01*
X108640571Y-84485314D01*
X108735809Y-84437695D01*
X108973904Y-84437695D01*
X109069142Y-84485314D01*
X109116761Y-84532933D01*
X109164380Y-84628171D01*
X109164380Y-84866266D01*
X109116761Y-84961504D01*
X109069142Y-85009123D01*
X105087380Y-89889585D02*
X105087380Y-89794347D01*
X105135000Y-89699109D01*
X105182619Y-89651490D01*
X105277857Y-89603871D01*
X105468333Y-89556252D01*
X105706428Y-89556252D01*
X105896904Y-89603871D01*
X105992142Y-89651490D01*
X106039761Y-89699109D01*
X106087380Y-89794347D01*
X106087380Y-89889585D01*
X106039761Y-89984823D01*
X105992142Y-90032442D01*
X105896904Y-90080061D01*
X105706428Y-90127680D01*
X105468333Y-90127680D01*
X105277857Y-90080061D01*
X105182619Y-90032442D01*
X105135000Y-89984823D01*
X105087380Y-89889585D01*
X105992142Y-89127680D02*
X106039761Y-89080061D01*
X106087380Y-89127680D01*
X106039761Y-89175300D01*
X105992142Y-89127680D01*
X106087380Y-89127680D01*
X106087380Y-88127680D02*
X106087380Y-88699109D01*
X106087380Y-88413395D02*
X105087380Y-88413395D01*
X105230238Y-88508633D01*
X105325476Y-88603871D01*
X105373095Y-88699109D01*
X105420714Y-87270538D02*
X106087380Y-87270538D01*
X105420714Y-87699109D02*
X105944523Y-87699109D01*
X106039761Y-87651490D01*
X106087380Y-87556252D01*
X106087380Y-87413395D01*
X106039761Y-87318157D01*
X105992142Y-87270538D01*
X73575942Y-67971942D02*
X73528323Y-68019561D01*
X73385466Y-68067180D01*
X73290228Y-68067180D01*
X73147371Y-68019561D01*
X73052133Y-67924323D01*
X73004514Y-67829085D01*
X72956895Y-67638609D01*
X72956895Y-67495752D01*
X73004514Y-67305276D01*
X73052133Y-67210038D01*
X73147371Y-67114800D01*
X73290228Y-67067180D01*
X73385466Y-67067180D01*
X73528323Y-67114800D01*
X73575942Y-67162419D01*
X74528323Y-68067180D02*
X73956895Y-68067180D01*
X74242609Y-68067180D02*
X74242609Y-67067180D01*
X74147371Y-67210038D01*
X74052133Y-67305276D01*
X73956895Y-67352895D01*
X75385466Y-67400514D02*
X75385466Y-68067180D01*
X75147371Y-67019561D02*
X74909276Y-67733847D01*
X75528323Y-67733847D01*
X76488214Y-68696380D02*
X76583452Y-68696380D01*
X76678690Y-68744000D01*
X76726309Y-68791619D01*
X76773928Y-68886857D01*
X76821547Y-69077333D01*
X76821547Y-69315428D01*
X76773928Y-69505904D01*
X76726309Y-69601142D01*
X76678690Y-69648761D01*
X76583452Y-69696380D01*
X76488214Y-69696380D01*
X76392976Y-69648761D01*
X76345357Y-69601142D01*
X76297738Y-69505904D01*
X76250119Y-69315428D01*
X76250119Y-69077333D01*
X76297738Y-68886857D01*
X76345357Y-68791619D01*
X76392976Y-68744000D01*
X76488214Y-68696380D01*
X77250119Y-69601142D02*
X77297738Y-69648761D01*
X77250119Y-69696380D01*
X77202500Y-69648761D01*
X77250119Y-69601142D01*
X77250119Y-69696380D01*
X78250119Y-69696380D02*
X77678690Y-69696380D01*
X77964404Y-69696380D02*
X77964404Y-68696380D01*
X77869166Y-68839238D01*
X77773928Y-68934476D01*
X77678690Y-68982095D01*
X79107261Y-69029714D02*
X79107261Y-69696380D01*
X78678690Y-69029714D02*
X78678690Y-69553523D01*
X78726309Y-69648761D01*
X78821547Y-69696380D01*
X78964404Y-69696380D01*
X79059642Y-69648761D01*
X79107261Y-69601142D01*
X86842362Y-97308942D02*
X86794743Y-97356561D01*
X86651886Y-97404180D01*
X86556648Y-97404180D01*
X86413791Y-97356561D01*
X86318553Y-97261323D01*
X86270934Y-97166085D01*
X86223315Y-96975609D01*
X86223315Y-96832752D01*
X86270934Y-96642276D01*
X86318553Y-96547038D01*
X86413791Y-96451800D01*
X86556648Y-96404180D01*
X86651886Y-96404180D01*
X86794743Y-96451800D01*
X86842362Y-96499419D01*
X87794743Y-97404180D02*
X87223315Y-97404180D01*
X87509029Y-97404180D02*
X87509029Y-96404180D01*
X87413791Y-96547038D01*
X87318553Y-96642276D01*
X87223315Y-96689895D01*
X88128077Y-96404180D02*
X88747124Y-96404180D01*
X88413791Y-96785133D01*
X88556648Y-96785133D01*
X88651886Y-96832752D01*
X88699505Y-96880371D01*
X88747124Y-96975609D01*
X88747124Y-97213704D01*
X88699505Y-97308942D01*
X88651886Y-97356561D01*
X88556648Y-97404180D01*
X88270934Y-97404180D01*
X88175696Y-97356561D01*
X88128077Y-97308942D01*
X84706294Y-97826580D02*
X84801532Y-97826580D01*
X84896770Y-97874200D01*
X84944389Y-97921819D01*
X84992008Y-98017057D01*
X85039627Y-98207533D01*
X85039627Y-98445628D01*
X84992008Y-98636104D01*
X84944389Y-98731342D01*
X84896770Y-98778961D01*
X84801532Y-98826580D01*
X84706294Y-98826580D01*
X84611056Y-98778961D01*
X84563437Y-98731342D01*
X84515818Y-98636104D01*
X84468199Y-98445628D01*
X84468199Y-98207533D01*
X84515818Y-98017057D01*
X84563437Y-97921819D01*
X84611056Y-97874200D01*
X84706294Y-97826580D01*
X85468199Y-98731342D02*
X85515818Y-98778961D01*
X85468199Y-98826580D01*
X85420580Y-98778961D01*
X85468199Y-98731342D01*
X85468199Y-98826580D01*
X86468199Y-98826580D02*
X85896770Y-98826580D01*
X86182484Y-98826580D02*
X86182484Y-97826580D01*
X86087246Y-97969438D01*
X85992008Y-98064676D01*
X85896770Y-98112295D01*
X87325341Y-98159914D02*
X87325341Y-98826580D01*
X86896770Y-98159914D02*
X86896770Y-98683723D01*
X86944389Y-98778961D01*
X87039627Y-98826580D01*
X87182484Y-98826580D01*
X87277722Y-98778961D01*
X87325341Y-98731342D01*
X94077642Y-62177142D02*
X94030023Y-62224761D01*
X93887166Y-62272380D01*
X93791928Y-62272380D01*
X93649071Y-62224761D01*
X93553833Y-62129523D01*
X93506214Y-62034285D01*
X93458595Y-61843809D01*
X93458595Y-61700952D01*
X93506214Y-61510476D01*
X93553833Y-61415238D01*
X93649071Y-61320000D01*
X93791928Y-61272380D01*
X93887166Y-61272380D01*
X94030023Y-61320000D01*
X94077642Y-61367619D01*
X95030023Y-62272380D02*
X94458595Y-62272380D01*
X94744309Y-62272380D02*
X94744309Y-61272380D01*
X94649071Y-61415238D01*
X94553833Y-61510476D01*
X94458595Y-61558095D01*
X95410976Y-61367619D02*
X95458595Y-61320000D01*
X95553833Y-61272380D01*
X95791928Y-61272380D01*
X95887166Y-61320000D01*
X95934785Y-61367619D01*
X95982404Y-61462857D01*
X95982404Y-61558095D01*
X95934785Y-61700952D01*
X95363357Y-62272380D01*
X95982404Y-62272380D01*
X93506214Y-64632380D02*
X93601452Y-64632380D01*
X93696690Y-64680000D01*
X93744309Y-64727619D01*
X93791928Y-64822857D01*
X93839547Y-65013333D01*
X93839547Y-65251428D01*
X93791928Y-65441904D01*
X93744309Y-65537142D01*
X93696690Y-65584761D01*
X93601452Y-65632380D01*
X93506214Y-65632380D01*
X93410976Y-65584761D01*
X93363357Y-65537142D01*
X93315738Y-65441904D01*
X93268119Y-65251428D01*
X93268119Y-65013333D01*
X93315738Y-64822857D01*
X93363357Y-64727619D01*
X93410976Y-64680000D01*
X93506214Y-64632380D01*
X94268119Y-65537142D02*
X94315738Y-65584761D01*
X94268119Y-65632380D01*
X94220500Y-65584761D01*
X94268119Y-65537142D01*
X94268119Y-65632380D01*
X95268119Y-65632380D02*
X94696690Y-65632380D01*
X94982404Y-65632380D02*
X94982404Y-64632380D01*
X94887166Y-64775238D01*
X94791928Y-64870476D01*
X94696690Y-64918095D01*
X96125261Y-64965714D02*
X96125261Y-65632380D01*
X95696690Y-64965714D02*
X95696690Y-65489523D01*
X95744309Y-65584761D01*
X95839547Y-65632380D01*
X95982404Y-65632380D01*
X96077642Y-65584761D01*
X96125261Y-65537142D01*
X89143902Y-93417717D02*
X89191521Y-93465336D01*
X89239140Y-93608193D01*
X89239140Y-93703431D01*
X89191521Y-93846288D01*
X89096283Y-93941526D01*
X89001045Y-93989145D01*
X88810569Y-94036764D01*
X88667712Y-94036764D01*
X88477236Y-93989145D01*
X88381998Y-93941526D01*
X88286760Y-93846288D01*
X88239140Y-93703431D01*
X88239140Y-93608193D01*
X88286760Y-93465336D01*
X88334379Y-93417717D01*
X89239140Y-92465336D02*
X89239140Y-93036764D01*
X89239140Y-92751050D02*
X88239140Y-92751050D01*
X88381998Y-92846288D01*
X88477236Y-92941526D01*
X88524855Y-93036764D01*
X89239140Y-91512955D02*
X89239140Y-92084383D01*
X89239140Y-91798669D02*
X88239140Y-91798669D01*
X88381998Y-91893907D01*
X88477236Y-91989145D01*
X88524855Y-92084383D01*
X84879140Y-93989145D02*
X84879140Y-93893907D01*
X84926760Y-93798669D01*
X84974379Y-93751050D01*
X85069617Y-93703431D01*
X85260093Y-93655812D01*
X85498188Y-93655812D01*
X85688664Y-93703431D01*
X85783902Y-93751050D01*
X85831521Y-93798669D01*
X85879140Y-93893907D01*
X85879140Y-93989145D01*
X85831521Y-94084383D01*
X85783902Y-94132002D01*
X85688664Y-94179621D01*
X85498188Y-94227240D01*
X85260093Y-94227240D01*
X85069617Y-94179621D01*
X84974379Y-94132002D01*
X84926760Y-94084383D01*
X84879140Y-93989145D01*
X85783902Y-93227240D02*
X85831521Y-93179621D01*
X85879140Y-93227240D01*
X85831521Y-93274860D01*
X85783902Y-93227240D01*
X85879140Y-93227240D01*
X85879140Y-92227240D02*
X85879140Y-92798669D01*
X85879140Y-92512955D02*
X84879140Y-92512955D01*
X85021998Y-92608193D01*
X85117236Y-92703431D01*
X85164855Y-92798669D01*
X85212474Y-91370098D02*
X85879140Y-91370098D01*
X85212474Y-91798669D02*
X85736283Y-91798669D01*
X85831521Y-91751050D01*
X85879140Y-91655812D01*
X85879140Y-91512955D01*
X85831521Y-91417717D01*
X85783902Y-91370098D01*
X98934122Y-86809642D02*
X98886503Y-86857261D01*
X98743646Y-86904880D01*
X98648408Y-86904880D01*
X98505551Y-86857261D01*
X98410313Y-86762023D01*
X98362694Y-86666785D01*
X98315075Y-86476309D01*
X98315075Y-86333452D01*
X98362694Y-86142976D01*
X98410313Y-86047738D01*
X98505551Y-85952500D01*
X98648408Y-85904880D01*
X98743646Y-85904880D01*
X98886503Y-85952500D01*
X98934122Y-86000119D01*
X99886503Y-86904880D02*
X99315075Y-86904880D01*
X99600789Y-86904880D02*
X99600789Y-85904880D01*
X99505551Y-86047738D01*
X99410313Y-86142976D01*
X99315075Y-86190595D01*
X100505551Y-85904880D02*
X100600789Y-85904880D01*
X100696027Y-85952500D01*
X100743646Y-86000119D01*
X100791265Y-86095357D01*
X100838884Y-86285833D01*
X100838884Y-86523928D01*
X100791265Y-86714404D01*
X100743646Y-86809642D01*
X100696027Y-86857261D01*
X100600789Y-86904880D01*
X100505551Y-86904880D01*
X100410313Y-86857261D01*
X100362694Y-86809642D01*
X100315075Y-86714404D01*
X100267456Y-86523928D01*
X100267456Y-86285833D01*
X100315075Y-86095357D01*
X100362694Y-86000119D01*
X100410313Y-85952500D01*
X100505551Y-85904880D01*
X98362694Y-82544880D02*
X98457932Y-82544880D01*
X98553170Y-82592500D01*
X98600789Y-82640119D01*
X98648408Y-82735357D01*
X98696027Y-82925833D01*
X98696027Y-83163928D01*
X98648408Y-83354404D01*
X98600789Y-83449642D01*
X98553170Y-83497261D01*
X98457932Y-83544880D01*
X98362694Y-83544880D01*
X98267456Y-83497261D01*
X98219837Y-83449642D01*
X98172218Y-83354404D01*
X98124599Y-83163928D01*
X98124599Y-82925833D01*
X98172218Y-82735357D01*
X98219837Y-82640119D01*
X98267456Y-82592500D01*
X98362694Y-82544880D01*
X99124599Y-83449642D02*
X99172218Y-83497261D01*
X99124599Y-83544880D01*
X99076980Y-83497261D01*
X99124599Y-83449642D01*
X99124599Y-83544880D01*
X100124599Y-83544880D02*
X99553170Y-83544880D01*
X99838884Y-83544880D02*
X99838884Y-82544880D01*
X99743646Y-82687738D01*
X99648408Y-82782976D01*
X99553170Y-82830595D01*
X100981741Y-82878214D02*
X100981741Y-83544880D01*
X100553170Y-82878214D02*
X100553170Y-83402023D01*
X100600789Y-83497261D01*
X100696027Y-83544880D01*
X100838884Y-83544880D01*
X100934122Y-83497261D01*
X100981741Y-83449642D01*
X68210133Y-92762342D02*
X68162514Y-92809961D01*
X68019657Y-92857580D01*
X67924419Y-92857580D01*
X67781561Y-92809961D01*
X67686323Y-92714723D01*
X67638704Y-92619485D01*
X67591085Y-92429009D01*
X67591085Y-92286152D01*
X67638704Y-92095676D01*
X67686323Y-92000438D01*
X67781561Y-91905200D01*
X67924419Y-91857580D01*
X68019657Y-91857580D01*
X68162514Y-91905200D01*
X68210133Y-91952819D01*
X68543466Y-91857580D02*
X69210133Y-91857580D01*
X68781561Y-92857580D01*
X70392214Y-90533180D02*
X70487452Y-90533180D01*
X70582690Y-90580800D01*
X70630309Y-90628419D01*
X70677928Y-90723657D01*
X70725547Y-90914133D01*
X70725547Y-91152228D01*
X70677928Y-91342704D01*
X70630309Y-91437942D01*
X70582690Y-91485561D01*
X70487452Y-91533180D01*
X70392214Y-91533180D01*
X70296976Y-91485561D01*
X70249357Y-91437942D01*
X70201738Y-91342704D01*
X70154119Y-91152228D01*
X70154119Y-90914133D01*
X70201738Y-90723657D01*
X70249357Y-90628419D01*
X70296976Y-90580800D01*
X70392214Y-90533180D01*
X71154119Y-91437942D02*
X71201738Y-91485561D01*
X71154119Y-91533180D01*
X71106500Y-91485561D01*
X71154119Y-91437942D01*
X71154119Y-91533180D01*
X72154119Y-91533180D02*
X71582690Y-91533180D01*
X71868404Y-91533180D02*
X71868404Y-90533180D01*
X71773166Y-90676038D01*
X71677928Y-90771276D01*
X71582690Y-90818895D01*
X73011261Y-90866514D02*
X73011261Y-91533180D01*
X72582690Y-90866514D02*
X72582690Y-91390323D01*
X72630309Y-91485561D01*
X72725547Y-91533180D01*
X72868404Y-91533180D01*
X72963642Y-91485561D01*
X73011261Y-91437942D01*
X74814133Y-71934342D02*
X74766514Y-71981961D01*
X74623657Y-72029580D01*
X74528419Y-72029580D01*
X74385561Y-71981961D01*
X74290323Y-71886723D01*
X74242704Y-71791485D01*
X74195085Y-71601009D01*
X74195085Y-71458152D01*
X74242704Y-71267676D01*
X74290323Y-71172438D01*
X74385561Y-71077200D01*
X74528419Y-71029580D01*
X74623657Y-71029580D01*
X74766514Y-71077200D01*
X74814133Y-71124819D01*
X75671276Y-71029580D02*
X75480800Y-71029580D01*
X75385561Y-71077200D01*
X75337942Y-71124819D01*
X75242704Y-71267676D01*
X75195085Y-71458152D01*
X75195085Y-71839104D01*
X75242704Y-71934342D01*
X75290323Y-71981961D01*
X75385561Y-72029580D01*
X75576038Y-72029580D01*
X75671276Y-71981961D01*
X75718895Y-71934342D01*
X75766514Y-71839104D01*
X75766514Y-71601009D01*
X75718895Y-71505771D01*
X75671276Y-71458152D01*
X75576038Y-71410533D01*
X75385561Y-71410533D01*
X75290323Y-71458152D01*
X75242704Y-71505771D01*
X75195085Y-71601009D01*
X76890714Y-73112380D02*
X76985952Y-73112380D01*
X77081190Y-73160000D01*
X77128809Y-73207619D01*
X77176428Y-73302857D01*
X77224047Y-73493333D01*
X77224047Y-73731428D01*
X77176428Y-73921904D01*
X77128809Y-74017142D01*
X77081190Y-74064761D01*
X76985952Y-74112380D01*
X76890714Y-74112380D01*
X76795476Y-74064761D01*
X76747857Y-74017142D01*
X76700238Y-73921904D01*
X76652619Y-73731428D01*
X76652619Y-73493333D01*
X76700238Y-73302857D01*
X76747857Y-73207619D01*
X76795476Y-73160000D01*
X76890714Y-73112380D01*
X77652619Y-74017142D02*
X77700238Y-74064761D01*
X77652619Y-74112380D01*
X77605000Y-74064761D01*
X77652619Y-74017142D01*
X77652619Y-74112380D01*
X78652619Y-74112380D02*
X78081190Y-74112380D01*
X78366904Y-74112380D02*
X78366904Y-73112380D01*
X78271666Y-73255238D01*
X78176428Y-73350476D01*
X78081190Y-73398095D01*
X79509761Y-73445714D02*
X79509761Y-74112380D01*
X79081190Y-73445714D02*
X79081190Y-73969523D01*
X79128809Y-74064761D01*
X79224047Y-74112380D01*
X79366904Y-74112380D01*
X79462142Y-74064761D01*
X79509761Y-74017142D01*
X94553833Y-73157142D02*
X94506214Y-73204761D01*
X94363357Y-73252380D01*
X94268119Y-73252380D01*
X94125261Y-73204761D01*
X94030023Y-73109523D01*
X93982404Y-73014285D01*
X93934785Y-72823809D01*
X93934785Y-72680952D01*
X93982404Y-72490476D01*
X94030023Y-72395238D01*
X94125261Y-72300000D01*
X94268119Y-72252380D01*
X94363357Y-72252380D01*
X94506214Y-72300000D01*
X94553833Y-72347619D01*
X95458595Y-72252380D02*
X94982404Y-72252380D01*
X94934785Y-72728571D01*
X94982404Y-72680952D01*
X95077642Y-72633333D01*
X95315738Y-72633333D01*
X95410976Y-72680952D01*
X95458595Y-72728571D01*
X95506214Y-72823809D01*
X95506214Y-73061904D01*
X95458595Y-73157142D01*
X95410976Y-73204761D01*
X95315738Y-73252380D01*
X95077642Y-73252380D01*
X94982404Y-73204761D01*
X94934785Y-73157142D01*
X93506214Y-68892380D02*
X93601452Y-68892380D01*
X93696690Y-68940000D01*
X93744309Y-68987619D01*
X93791928Y-69082857D01*
X93839547Y-69273333D01*
X93839547Y-69511428D01*
X93791928Y-69701904D01*
X93744309Y-69797142D01*
X93696690Y-69844761D01*
X93601452Y-69892380D01*
X93506214Y-69892380D01*
X93410976Y-69844761D01*
X93363357Y-69797142D01*
X93315738Y-69701904D01*
X93268119Y-69511428D01*
X93268119Y-69273333D01*
X93315738Y-69082857D01*
X93363357Y-68987619D01*
X93410976Y-68940000D01*
X93506214Y-68892380D01*
X94268119Y-69797142D02*
X94315738Y-69844761D01*
X94268119Y-69892380D01*
X94220500Y-69844761D01*
X94268119Y-69797142D01*
X94268119Y-69892380D01*
X95268119Y-69892380D02*
X94696690Y-69892380D01*
X94982404Y-69892380D02*
X94982404Y-68892380D01*
X94887166Y-69035238D01*
X94791928Y-69130476D01*
X94696690Y-69178095D01*
X96125261Y-69225714D02*
X96125261Y-69892380D01*
X95696690Y-69225714D02*
X95696690Y-69749523D01*
X95744309Y-69844761D01*
X95839547Y-69892380D01*
X95982404Y-69892380D01*
X96077642Y-69844761D01*
X96125261Y-69797142D01*
X120372142Y-103849466D02*
X120419761Y-103897085D01*
X120467380Y-104039942D01*
X120467380Y-104135180D01*
X120419761Y-104278038D01*
X120324523Y-104373276D01*
X120229285Y-104420895D01*
X120038809Y-104468514D01*
X119895952Y-104468514D01*
X119705476Y-104420895D01*
X119610238Y-104373276D01*
X119515000Y-104278038D01*
X119467380Y-104135180D01*
X119467380Y-104039942D01*
X119515000Y-103897085D01*
X119562619Y-103849466D01*
X119800714Y-102992323D02*
X120467380Y-102992323D01*
X119419761Y-103230419D02*
X120134047Y-103468514D01*
X120134047Y-102849466D01*
X120766380Y-101870585D02*
X120766380Y-101775347D01*
X120814000Y-101680109D01*
X120861619Y-101632490D01*
X120956857Y-101584871D01*
X121147333Y-101537252D01*
X121385428Y-101537252D01*
X121575904Y-101584871D01*
X121671142Y-101632490D01*
X121718761Y-101680109D01*
X121766380Y-101775347D01*
X121766380Y-101870585D01*
X121718761Y-101965823D01*
X121671142Y-102013442D01*
X121575904Y-102061061D01*
X121385428Y-102108680D01*
X121147333Y-102108680D01*
X120956857Y-102061061D01*
X120861619Y-102013442D01*
X120814000Y-101965823D01*
X120766380Y-101870585D01*
X121671142Y-101108680D02*
X121718761Y-101061061D01*
X121766380Y-101108680D01*
X121718761Y-101156300D01*
X121671142Y-101108680D01*
X121766380Y-101108680D01*
X121766380Y-100108680D02*
X121766380Y-100680109D01*
X121766380Y-100394395D02*
X120766380Y-100394395D01*
X120909238Y-100489633D01*
X121004476Y-100584871D01*
X121052095Y-100680109D01*
X121099714Y-99251538D02*
X121766380Y-99251538D01*
X121099714Y-99680109D02*
X121623523Y-99680109D01*
X121718761Y-99632490D01*
X121766380Y-99537252D01*
X121766380Y-99394395D01*
X121718761Y-99299157D01*
X121671142Y-99251538D01*
X109209633Y-65537142D02*
X109162014Y-65584761D01*
X109019157Y-65632380D01*
X108923919Y-65632380D01*
X108781061Y-65584761D01*
X108685823Y-65489523D01*
X108638204Y-65394285D01*
X108590585Y-65203809D01*
X108590585Y-65060952D01*
X108638204Y-64870476D01*
X108685823Y-64775238D01*
X108781061Y-64680000D01*
X108923919Y-64632380D01*
X109019157Y-64632380D01*
X109162014Y-64680000D01*
X109209633Y-64727619D01*
X109542966Y-64632380D02*
X110162014Y-64632380D01*
X109828680Y-65013333D01*
X109971538Y-65013333D01*
X110066776Y-65060952D01*
X110114395Y-65108571D01*
X110162014Y-65203809D01*
X110162014Y-65441904D01*
X110114395Y-65537142D01*
X110066776Y-65584761D01*
X109971538Y-65632380D01*
X109685823Y-65632380D01*
X109590585Y-65584761D01*
X109542966Y-65537142D01*
X108162014Y-61272380D02*
X108257252Y-61272380D01*
X108352490Y-61320000D01*
X108400109Y-61367619D01*
X108447728Y-61462857D01*
X108495347Y-61653333D01*
X108495347Y-61891428D01*
X108447728Y-62081904D01*
X108400109Y-62177142D01*
X108352490Y-62224761D01*
X108257252Y-62272380D01*
X108162014Y-62272380D01*
X108066776Y-62224761D01*
X108019157Y-62177142D01*
X107971538Y-62081904D01*
X107923919Y-61891428D01*
X107923919Y-61653333D01*
X107971538Y-61462857D01*
X108019157Y-61367619D01*
X108066776Y-61320000D01*
X108162014Y-61272380D01*
X108923919Y-62177142D02*
X108971538Y-62224761D01*
X108923919Y-62272380D01*
X108876300Y-62224761D01*
X108923919Y-62177142D01*
X108923919Y-62272380D01*
X109923919Y-62272380D02*
X109352490Y-62272380D01*
X109638204Y-62272380D02*
X109638204Y-61272380D01*
X109542966Y-61415238D01*
X109447728Y-61510476D01*
X109352490Y-61558095D01*
X110781061Y-61605714D02*
X110781061Y-62272380D01*
X110352490Y-61605714D02*
X110352490Y-62129523D01*
X110400109Y-62224761D01*
X110495347Y-62272380D01*
X110638204Y-62272380D01*
X110733442Y-62224761D01*
X110781061Y-62177142D01*
X110745542Y-72658266D02*
X110793161Y-72705885D01*
X110840780Y-72848742D01*
X110840780Y-72943980D01*
X110793161Y-73086838D01*
X110697923Y-73182076D01*
X110602685Y-73229695D01*
X110412209Y-73277314D01*
X110269352Y-73277314D01*
X110078876Y-73229695D01*
X109983638Y-73182076D01*
X109888400Y-73086838D01*
X109840780Y-72943980D01*
X109840780Y-72848742D01*
X109888400Y-72705885D01*
X109936019Y-72658266D01*
X109936019Y-72277314D02*
X109888400Y-72229695D01*
X109840780Y-72134457D01*
X109840780Y-71896361D01*
X109888400Y-71801123D01*
X109936019Y-71753504D01*
X110031257Y-71705885D01*
X110126495Y-71705885D01*
X110269352Y-71753504D01*
X110840780Y-72324933D01*
X110840780Y-71705885D01*
X108186180Y-70661785D02*
X108186180Y-70566547D01*
X108233800Y-70471309D01*
X108281419Y-70423690D01*
X108376657Y-70376071D01*
X108567133Y-70328452D01*
X108805228Y-70328452D01*
X108995704Y-70376071D01*
X109090942Y-70423690D01*
X109138561Y-70471309D01*
X109186180Y-70566547D01*
X109186180Y-70661785D01*
X109138561Y-70757023D01*
X109090942Y-70804642D01*
X108995704Y-70852261D01*
X108805228Y-70899880D01*
X108567133Y-70899880D01*
X108376657Y-70852261D01*
X108281419Y-70804642D01*
X108233800Y-70757023D01*
X108186180Y-70661785D01*
X109090942Y-69899880D02*
X109138561Y-69852261D01*
X109186180Y-69899880D01*
X109138561Y-69947500D01*
X109090942Y-69899880D01*
X109186180Y-69899880D01*
X109186180Y-68899880D02*
X109186180Y-69471309D01*
X109186180Y-69185595D02*
X108186180Y-69185595D01*
X108329038Y-69280833D01*
X108424276Y-69376071D01*
X108471895Y-69471309D01*
X108519514Y-68042738D02*
X109186180Y-68042738D01*
X108519514Y-68471309D02*
X109043323Y-68471309D01*
X109138561Y-68423690D01*
X109186180Y-68328452D01*
X109186180Y-68185595D01*
X109138561Y-68090357D01*
X109090942Y-68042738D01*
X87842362Y-105873846D02*
X87889981Y-105921465D01*
X87937600Y-106064322D01*
X87937600Y-106159560D01*
X87889981Y-106302418D01*
X87794743Y-106397656D01*
X87699505Y-106445275D01*
X87509029Y-106492894D01*
X87366172Y-106492894D01*
X87175696Y-106445275D01*
X87080458Y-106397656D01*
X86985220Y-106302418D01*
X86937600Y-106159560D01*
X86937600Y-106064322D01*
X86985220Y-105921465D01*
X87032839Y-105873846D01*
X87937600Y-104921465D02*
X87937600Y-105492894D01*
X87937600Y-105207180D02*
X86937600Y-105207180D01*
X87080458Y-105302418D01*
X87175696Y-105397656D01*
X87223315Y-105492894D01*
X86400900Y-106127846D02*
X86400900Y-106699275D01*
X86400900Y-106413560D02*
X85400900Y-106413560D01*
X85543758Y-106508799D01*
X85638996Y-106604037D01*
X85686615Y-106699275D01*
X85734234Y-105270703D02*
X86400900Y-105270703D01*
X85734234Y-105699275D02*
X86258043Y-105699275D01*
X86353281Y-105651656D01*
X86400900Y-105556418D01*
X86400900Y-105413560D01*
X86353281Y-105318322D01*
X86305662Y-105270703D01*
M02*
