G04 #@! TF.GenerationSoftware,KiCad,Pcbnew,(5.1.7)-1*
G04 #@! TF.CreationDate,2020-10-23T01:37:35-05:00*
G04 #@! TF.ProjectId,tent_map_amplitude,74656e74-5f6d-4617-905f-616d706c6974,1*
G04 #@! TF.SameCoordinates,Original*
G04 #@! TF.FileFunction,Soldermask,Top*
G04 #@! TF.FilePolarity,Negative*
%FSLAX46Y46*%
G04 Gerber Fmt 4.6, Leading zero omitted, Abs format (unit mm)*
G04 Created by KiCad (PCBNEW (5.1.7)-1) date 2020-10-23 01:37:35*
%MOMM*%
%LPD*%
G01*
G04 APERTURE LIST*
%ADD10C,1.803200*%
%ADD11C,2.203200*%
%ADD12C,1.643200*%
G04 APERTURE END LIST*
D10*
X119627400Y-58166000D03*
G36*
G01*
X116725800Y-58966000D02*
X116725800Y-57366000D01*
G75*
G02*
X116827400Y-57264400I101600J0D01*
G01*
X118427400Y-57264400D01*
G75*
G02*
X118529000Y-57366000I0J-101600D01*
G01*
X118529000Y-58966000D01*
G75*
G02*
X118427400Y-59067600I-101600J0D01*
G01*
X116827400Y-59067600D01*
G75*
G02*
X116725800Y-58966000I0J101600D01*
G01*
G37*
G36*
G01*
X67475200Y-78016000D02*
X67475200Y-76416000D01*
G75*
G02*
X67576800Y-76314400I101600J0D01*
G01*
X69176800Y-76314400D01*
G75*
G02*
X69278400Y-76416000I0J-101600D01*
G01*
X69278400Y-78016000D01*
G75*
G02*
X69176800Y-78117600I-101600J0D01*
G01*
X67576800Y-78117600D01*
G75*
G02*
X67475200Y-78016000I0J101600D01*
G01*
G37*
X70376800Y-77216000D03*
D11*
X71018400Y-55422800D03*
X71018400Y-57962800D03*
X82162000Y-76504800D03*
X89662000Y-76504800D03*
X98418000Y-76504800D03*
X105918000Y-76504800D03*
X110711600Y-76733400D03*
X118211600Y-76733400D03*
D10*
X89662000Y-63754000D03*
X89662000Y-66294000D03*
X89662000Y-68834000D03*
X89662000Y-71374000D03*
X82042000Y-71374000D03*
X82042000Y-68834000D03*
X82042000Y-66294000D03*
G36*
G01*
X81140400Y-64554000D02*
X81140400Y-62954000D01*
G75*
G02*
X81242000Y-62852400I101600J0D01*
G01*
X82842000Y-62852400D01*
G75*
G02*
X82943600Y-62954000I0J-101600D01*
G01*
X82943600Y-64554000D01*
G75*
G02*
X82842000Y-64655600I-101600J0D01*
G01*
X81242000Y-64655600D01*
G75*
G02*
X81140400Y-64554000I0J101600D01*
G01*
G37*
X105918000Y-63500000D03*
X105918000Y-66040000D03*
X105918000Y-68580000D03*
X105918000Y-71120000D03*
X98298000Y-71120000D03*
X98298000Y-68580000D03*
X98298000Y-66040000D03*
G36*
G01*
X97396400Y-64300000D02*
X97396400Y-62700000D01*
G75*
G02*
X97498000Y-62598400I101600J0D01*
G01*
X99098000Y-62598400D01*
G75*
G02*
X99199600Y-62700000I0J-101600D01*
G01*
X99199600Y-64300000D01*
G75*
G02*
X99098000Y-64401600I-101600J0D01*
G01*
X97498000Y-64401600D01*
G75*
G02*
X97396400Y-64300000I0J101600D01*
G01*
G37*
X120726200Y-63525400D03*
X120726200Y-66065400D03*
X120726200Y-68605400D03*
X120726200Y-71145400D03*
X113106200Y-71145400D03*
X113106200Y-68605400D03*
X113106200Y-66065400D03*
G36*
G01*
X112204600Y-64325400D02*
X112204600Y-62725400D01*
G75*
G02*
X112306200Y-62623800I101600J0D01*
G01*
X113906200Y-62623800D01*
G75*
G02*
X114007800Y-62725400I0J-101600D01*
G01*
X114007800Y-64325400D01*
G75*
G02*
X113906200Y-64427000I-101600J0D01*
G01*
X112306200Y-64427000D01*
G75*
G02*
X112204600Y-64325400I0J101600D01*
G01*
G37*
X116078000Y-99618800D03*
X113538000Y-99618800D03*
X110998000Y-99618800D03*
X108458000Y-99618800D03*
X108458000Y-91998800D03*
X110998000Y-91998800D03*
X113538000Y-91998800D03*
G36*
G01*
X115278000Y-91097200D02*
X116878000Y-91097200D01*
G75*
G02*
X116979600Y-91198800I0J-101600D01*
G01*
X116979600Y-92798800D01*
G75*
G02*
X116878000Y-92900400I-101600J0D01*
G01*
X115278000Y-92900400D01*
G75*
G02*
X115176400Y-92798800I0J101600D01*
G01*
X115176400Y-91198800D01*
G75*
G02*
X115278000Y-91097200I101600J0D01*
G01*
G37*
X97917000Y-86410800D03*
X97917000Y-88950800D03*
X97917000Y-91490800D03*
X97917000Y-94030800D03*
X90297000Y-94030800D03*
X90297000Y-91490800D03*
X90297000Y-88950800D03*
G36*
G01*
X89395400Y-87210800D02*
X89395400Y-85610800D01*
G75*
G02*
X89497000Y-85509200I101600J0D01*
G01*
X91097000Y-85509200D01*
G75*
G02*
X91198600Y-85610800I0J-101600D01*
G01*
X91198600Y-87210800D01*
G75*
G02*
X91097000Y-87312400I-101600J0D01*
G01*
X89497000Y-87312400D01*
G75*
G02*
X89395400Y-87210800I0J101600D01*
G01*
G37*
X82804000Y-87680800D03*
X82804000Y-90220800D03*
X82804000Y-92760800D03*
X82804000Y-95300800D03*
X82804000Y-97840800D03*
X82804000Y-100380800D03*
X82804000Y-102920800D03*
X75184000Y-102920800D03*
X75184000Y-100380800D03*
X75184000Y-97840800D03*
X75184000Y-95300800D03*
X75184000Y-92760800D03*
X75184000Y-90220800D03*
G36*
G01*
X74282400Y-88480800D02*
X74282400Y-86880800D01*
G75*
G02*
X74384000Y-86779200I101600J0D01*
G01*
X75984000Y-86779200D01*
G75*
G02*
X76085600Y-86880800I0J-101600D01*
G01*
X76085600Y-88480800D01*
G75*
G02*
X75984000Y-88582400I-101600J0D01*
G01*
X74384000Y-88582400D01*
G75*
G02*
X74282400Y-88480800I0J101600D01*
G01*
G37*
D11*
X86258400Y-57962800D03*
X86258400Y-55422800D03*
X93878400Y-55422800D03*
X93878400Y-57962800D03*
X101498400Y-55422800D03*
X101498400Y-57962800D03*
X78638400Y-55422800D03*
X78638400Y-57962800D03*
X70891400Y-85648800D03*
X68351400Y-85648800D03*
X71374000Y-105435400D03*
X68834000Y-105435400D03*
X100711000Y-102539800D03*
X100711000Y-105079800D03*
X92710000Y-102412800D03*
X92710000Y-104952800D03*
X100647500Y-111747300D03*
X100647500Y-109207300D03*
X75755500Y-111747300D03*
X75755500Y-109207300D03*
X88455500Y-111747300D03*
X88455500Y-109207300D03*
X72123300Y-63830200D03*
X69583300Y-63830200D03*
X111658400Y-55422800D03*
X111658400Y-57962800D03*
D12*
X113030000Y-109397800D03*
X110490000Y-109397800D03*
X107950000Y-109397800D03*
G36*
G01*
X70837600Y-99871532D02*
X70837600Y-100890068D01*
G75*
G02*
X70545268Y-101182400I-292332J0D01*
G01*
X69726732Y-101182400D01*
G75*
G02*
X69434400Y-100890068I0J292332D01*
G01*
X69434400Y-99871532D01*
G75*
G02*
X69726732Y-99579200I292332J0D01*
G01*
X70545268Y-99579200D01*
G75*
G02*
X70837600Y-99871532I0J-292332D01*
G01*
G37*
G36*
G01*
X72837600Y-99871532D02*
X72837600Y-100890068D01*
G75*
G02*
X72545268Y-101182400I-292332J0D01*
G01*
X71726732Y-101182400D01*
G75*
G02*
X71434400Y-100890068I0J292332D01*
G01*
X71434400Y-99871532D01*
G75*
G02*
X71726732Y-99579200I292332J0D01*
G01*
X72545268Y-99579200D01*
G75*
G02*
X72837600Y-99871532I0J-292332D01*
G01*
G37*
G36*
G01*
X71626732Y-97139200D02*
X72645268Y-97139200D01*
G75*
G02*
X72937600Y-97431532I0J-292332D01*
G01*
X72937600Y-98250068D01*
G75*
G02*
X72645268Y-98542400I-292332J0D01*
G01*
X71626732Y-98542400D01*
G75*
G02*
X71334400Y-98250068I0J292332D01*
G01*
X71334400Y-97431532D01*
G75*
G02*
X71626732Y-97139200I292332J0D01*
G01*
G37*
G36*
G01*
X71626732Y-95139200D02*
X72645268Y-95139200D01*
G75*
G02*
X72937600Y-95431532I0J-292332D01*
G01*
X72937600Y-96250068D01*
G75*
G02*
X72645268Y-96542400I-292332J0D01*
G01*
X71626732Y-96542400D01*
G75*
G02*
X71334400Y-96250068I0J292332D01*
G01*
X71334400Y-95431532D01*
G75*
G02*
X71626732Y-95139200I292332J0D01*
G01*
G37*
G36*
G01*
X110488732Y-88757200D02*
X111507268Y-88757200D01*
G75*
G02*
X111799600Y-89049532I0J-292332D01*
G01*
X111799600Y-89868068D01*
G75*
G02*
X111507268Y-90160400I-292332J0D01*
G01*
X110488732Y-90160400D01*
G75*
G02*
X110196400Y-89868068I0J292332D01*
G01*
X110196400Y-89049532D01*
G75*
G02*
X110488732Y-88757200I292332J0D01*
G01*
G37*
G36*
G01*
X110488732Y-86757200D02*
X111507268Y-86757200D01*
G75*
G02*
X111799600Y-87049532I0J-292332D01*
G01*
X111799600Y-87868068D01*
G75*
G02*
X111507268Y-88160400I-292332J0D01*
G01*
X110488732Y-88160400D01*
G75*
G02*
X110196400Y-87868068I0J292332D01*
G01*
X110196400Y-87049532D01*
G75*
G02*
X110488732Y-86757200I292332J0D01*
G01*
G37*
G36*
G01*
X91627400Y-82856068D02*
X91627400Y-81837532D01*
G75*
G02*
X91919732Y-81545200I292332J0D01*
G01*
X92738268Y-81545200D01*
G75*
G02*
X93030600Y-81837532I0J-292332D01*
G01*
X93030600Y-82856068D01*
G75*
G02*
X92738268Y-83148400I-292332J0D01*
G01*
X91919732Y-83148400D01*
G75*
G02*
X91627400Y-82856068I0J292332D01*
G01*
G37*
G36*
G01*
X89627400Y-82856068D02*
X89627400Y-81837532D01*
G75*
G02*
X89919732Y-81545200I292332J0D01*
G01*
X90738268Y-81545200D01*
G75*
G02*
X91030600Y-81837532I0J-292332D01*
G01*
X91030600Y-82856068D01*
G75*
G02*
X90738268Y-83148400I-292332J0D01*
G01*
X89919732Y-83148400D01*
G75*
G02*
X89627400Y-82856068I0J292332D01*
G01*
G37*
G36*
G01*
X101995732Y-90773200D02*
X103014268Y-90773200D01*
G75*
G02*
X103306600Y-91065532I0J-292332D01*
G01*
X103306600Y-91884068D01*
G75*
G02*
X103014268Y-92176400I-292332J0D01*
G01*
X101995732Y-92176400D01*
G75*
G02*
X101703400Y-91884068I0J292332D01*
G01*
X101703400Y-91065532D01*
G75*
G02*
X101995732Y-90773200I292332J0D01*
G01*
G37*
G36*
G01*
X101995732Y-88773200D02*
X103014268Y-88773200D01*
G75*
G02*
X103306600Y-89065532I0J-292332D01*
G01*
X103306600Y-89884068D01*
G75*
G02*
X103014268Y-90176400I-292332J0D01*
G01*
X101995732Y-90176400D01*
G75*
G02*
X101703400Y-89884068I0J292332D01*
G01*
X101703400Y-89065532D01*
G75*
G02*
X101995732Y-88773200I292332J0D01*
G01*
G37*
G36*
G01*
X75693268Y-79238400D02*
X74674732Y-79238400D01*
G75*
G02*
X74382400Y-78946068I0J292332D01*
G01*
X74382400Y-78127532D01*
G75*
G02*
X74674732Y-77835200I292332J0D01*
G01*
X75693268Y-77835200D01*
G75*
G02*
X75985600Y-78127532I0J-292332D01*
G01*
X75985600Y-78946068D01*
G75*
G02*
X75693268Y-79238400I-292332J0D01*
G01*
G37*
G36*
G01*
X75693268Y-81238400D02*
X74674732Y-81238400D01*
G75*
G02*
X74382400Y-80946068I0J292332D01*
G01*
X74382400Y-80127532D01*
G75*
G02*
X74674732Y-79835200I292332J0D01*
G01*
X75693268Y-79835200D01*
G75*
G02*
X75985600Y-80127532I0J-292332D01*
G01*
X75985600Y-80946068D01*
G75*
G02*
X75693268Y-81238400I-292332J0D01*
G01*
G37*
G36*
G01*
X101666600Y-94029532D02*
X101666600Y-95048068D01*
G75*
G02*
X101374268Y-95340400I-292332J0D01*
G01*
X100555732Y-95340400D01*
G75*
G02*
X100263400Y-95048068I0J292332D01*
G01*
X100263400Y-94029532D01*
G75*
G02*
X100555732Y-93737200I292332J0D01*
G01*
X101374268Y-93737200D01*
G75*
G02*
X101666600Y-94029532I0J-292332D01*
G01*
G37*
G36*
G01*
X103666600Y-94029532D02*
X103666600Y-95048068D01*
G75*
G02*
X103374268Y-95340400I-292332J0D01*
G01*
X102555732Y-95340400D01*
G75*
G02*
X102263400Y-95048068I0J292332D01*
G01*
X102263400Y-94029532D01*
G75*
G02*
X102555732Y-93737200I292332J0D01*
G01*
X103374268Y-93737200D01*
G75*
G02*
X103666600Y-94029532I0J-292332D01*
G01*
G37*
G36*
G01*
X77695600Y-63244732D02*
X77695600Y-64263268D01*
G75*
G02*
X77403268Y-64555600I-292332J0D01*
G01*
X76584732Y-64555600D01*
G75*
G02*
X76292400Y-64263268I0J292332D01*
G01*
X76292400Y-63244732D01*
G75*
G02*
X76584732Y-62952400I292332J0D01*
G01*
X77403268Y-62952400D01*
G75*
G02*
X77695600Y-63244732I0J-292332D01*
G01*
G37*
G36*
G01*
X79695600Y-63244732D02*
X79695600Y-64263268D01*
G75*
G02*
X79403268Y-64555600I-292332J0D01*
G01*
X78584732Y-64555600D01*
G75*
G02*
X78292400Y-64263268I0J292332D01*
G01*
X78292400Y-63244732D01*
G75*
G02*
X78584732Y-62952400I292332J0D01*
G01*
X79403268Y-62952400D01*
G75*
G02*
X79695600Y-63244732I0J-292332D01*
G01*
G37*
D11*
X105570000Y-103174800D03*
G36*
G01*
X116671600Y-102174800D02*
X116671600Y-104174800D01*
G75*
G02*
X116570000Y-104276400I-101600J0D01*
G01*
X114570000Y-104276400D01*
G75*
G02*
X114468400Y-104174800I0J101600D01*
G01*
X114468400Y-102174800D01*
G75*
G02*
X114570000Y-102073200I101600J0D01*
G01*
X116570000Y-102073200D01*
G75*
G02*
X116671600Y-102174800I0J-101600D01*
G01*
G37*
X120167400Y-82194400D03*
G36*
G01*
X109065800Y-83194400D02*
X109065800Y-81194400D01*
G75*
G02*
X109167400Y-81092800I101600J0D01*
G01*
X111167400Y-81092800D01*
G75*
G02*
X111269000Y-81194400I0J-101600D01*
G01*
X111269000Y-83194400D01*
G75*
G02*
X111167400Y-83296000I-101600J0D01*
G01*
X109167400Y-83296000D01*
G75*
G02*
X109065800Y-83194400I0J101600D01*
G01*
G37*
G36*
G01*
X106781634Y-89023700D02*
X107848366Y-89023700D01*
G75*
G02*
X108141600Y-89316934I0J-293234D01*
G01*
X108141600Y-90108666D01*
G75*
G02*
X107848366Y-90401900I-293234J0D01*
G01*
X106781634Y-90401900D01*
G75*
G02*
X106488400Y-90108666I0J293234D01*
G01*
X106488400Y-89316934D01*
G75*
G02*
X106781634Y-89023700I293234J0D01*
G01*
G37*
G36*
G01*
X106781634Y-86948700D02*
X107848366Y-86948700D01*
G75*
G02*
X108141600Y-87241934I0J-293234D01*
G01*
X108141600Y-88033666D01*
G75*
G02*
X107848366Y-88326900I-293234J0D01*
G01*
X106781634Y-88326900D01*
G75*
G02*
X106488400Y-88033666I0J293234D01*
G01*
X106488400Y-87241934D01*
G75*
G02*
X106781634Y-86948700I293234J0D01*
G01*
G37*
G36*
G01*
X78050900Y-68097366D02*
X78050900Y-67030634D01*
G75*
G02*
X78344134Y-66737400I293234J0D01*
G01*
X79135866Y-66737400D01*
G75*
G02*
X79429100Y-67030634I0J-293234D01*
G01*
X79429100Y-68097366D01*
G75*
G02*
X79135866Y-68390600I-293234J0D01*
G01*
X78344134Y-68390600D01*
G75*
G02*
X78050900Y-68097366I0J293234D01*
G01*
G37*
G36*
G01*
X75975900Y-68097366D02*
X75975900Y-67030634D01*
G75*
G02*
X76269134Y-66737400I293234J0D01*
G01*
X77060866Y-66737400D01*
G75*
G02*
X77354100Y-67030634I0J-293234D01*
G01*
X77354100Y-68097366D01*
G75*
G02*
X77060866Y-68390600I-293234J0D01*
G01*
X76269134Y-68390600D01*
G75*
G02*
X75975900Y-68097366I0J293234D01*
G01*
G37*
G36*
G01*
X89480900Y-97231166D02*
X89480900Y-96164434D01*
G75*
G02*
X89774134Y-95871200I293234J0D01*
G01*
X90565866Y-95871200D01*
G75*
G02*
X90859100Y-96164434I0J-293234D01*
G01*
X90859100Y-97231166D01*
G75*
G02*
X90565866Y-97524400I-293234J0D01*
G01*
X89774134Y-97524400D01*
G75*
G02*
X89480900Y-97231166I0J293234D01*
G01*
G37*
G36*
G01*
X87405900Y-97231166D02*
X87405900Y-96164434D01*
G75*
G02*
X87699134Y-95871200I293234J0D01*
G01*
X88490866Y-95871200D01*
G75*
G02*
X88784100Y-96164434I0J-293234D01*
G01*
X88784100Y-97231166D01*
G75*
G02*
X88490866Y-97524400I-293234J0D01*
G01*
X87699134Y-97524400D01*
G75*
G02*
X87405900Y-97231166I0J293234D01*
G01*
G37*
G36*
G01*
X95068900Y-64033366D02*
X95068900Y-62966634D01*
G75*
G02*
X95362134Y-62673400I293234J0D01*
G01*
X96153866Y-62673400D01*
G75*
G02*
X96447100Y-62966634I0J-293234D01*
G01*
X96447100Y-64033366D01*
G75*
G02*
X96153866Y-64326600I-293234J0D01*
G01*
X95362134Y-64326600D01*
G75*
G02*
X95068900Y-64033366I0J293234D01*
G01*
G37*
G36*
G01*
X92993900Y-64033366D02*
X92993900Y-62966634D01*
G75*
G02*
X93287134Y-62673400I293234J0D01*
G01*
X94078866Y-62673400D01*
G75*
G02*
X94372100Y-62966634I0J-293234D01*
G01*
X94372100Y-64033366D01*
G75*
G02*
X94078866Y-64326600I-293234J0D01*
G01*
X93287134Y-64326600D01*
G75*
G02*
X92993900Y-64033366I0J293234D01*
G01*
G37*
G36*
G01*
X85191634Y-92071700D02*
X86258366Y-92071700D01*
G75*
G02*
X86551600Y-92364934I0J-293234D01*
G01*
X86551600Y-93156666D01*
G75*
G02*
X86258366Y-93449900I-293234J0D01*
G01*
X85191634Y-93449900D01*
G75*
G02*
X84898400Y-93156666I0J293234D01*
G01*
X84898400Y-92364934D01*
G75*
G02*
X85191634Y-92071700I293234J0D01*
G01*
G37*
G36*
G01*
X85191634Y-89996700D02*
X86258366Y-89996700D01*
G75*
G02*
X86551600Y-90289934I0J-293234D01*
G01*
X86551600Y-91081666D01*
G75*
G02*
X86258366Y-91374900I-293234J0D01*
G01*
X85191634Y-91374900D01*
G75*
G02*
X84898400Y-91081666I0J293234D01*
G01*
X84898400Y-90289934D01*
G75*
G02*
X85191634Y-89996700I293234J0D01*
G01*
G37*
G36*
G01*
X98944100Y-82194434D02*
X98944100Y-83261166D01*
G75*
G02*
X98650866Y-83554400I-293234J0D01*
G01*
X97859134Y-83554400D01*
G75*
G02*
X97565900Y-83261166I0J293234D01*
G01*
X97565900Y-82194434D01*
G75*
G02*
X97859134Y-81901200I293234J0D01*
G01*
X98650866Y-81901200D01*
G75*
G02*
X98944100Y-82194434I0J-293234D01*
G01*
G37*
G36*
G01*
X101019100Y-82194434D02*
X101019100Y-83261166D01*
G75*
G02*
X100725866Y-83554400I-293234J0D01*
G01*
X99934134Y-83554400D01*
G75*
G02*
X99640900Y-83261166I0J293234D01*
G01*
X99640900Y-82194434D01*
G75*
G02*
X99934134Y-81901200I293234J0D01*
G01*
X100725866Y-81901200D01*
G75*
G02*
X101019100Y-82194434I0J-293234D01*
G01*
G37*
G36*
G01*
X71258100Y-92227434D02*
X71258100Y-93294166D01*
G75*
G02*
X70964866Y-93587400I-293234J0D01*
G01*
X70173134Y-93587400D01*
G75*
G02*
X69879900Y-93294166I0J293234D01*
G01*
X69879900Y-92227434D01*
G75*
G02*
X70173134Y-91934200I293234J0D01*
G01*
X70964866Y-91934200D01*
G75*
G02*
X71258100Y-92227434I0J-293234D01*
G01*
G37*
G36*
G01*
X73333100Y-92227434D02*
X73333100Y-93294166D01*
G75*
G02*
X73039866Y-93587400I-293234J0D01*
G01*
X72248134Y-93587400D01*
G75*
G02*
X71954900Y-93294166I0J293234D01*
G01*
X71954900Y-92227434D01*
G75*
G02*
X72248134Y-91934200I293234J0D01*
G01*
X73039866Y-91934200D01*
G75*
G02*
X73333100Y-92227434I0J-293234D01*
G01*
G37*
G36*
G01*
X77608100Y-71094634D02*
X77608100Y-72161366D01*
G75*
G02*
X77314866Y-72454600I-293234J0D01*
G01*
X76523134Y-72454600D01*
G75*
G02*
X76229900Y-72161366I0J293234D01*
G01*
X76229900Y-71094634D01*
G75*
G02*
X76523134Y-70801400I293234J0D01*
G01*
X77314866Y-70801400D01*
G75*
G02*
X77608100Y-71094634I0J-293234D01*
G01*
G37*
G36*
G01*
X79683100Y-71094634D02*
X79683100Y-72161366D01*
G75*
G02*
X79389866Y-72454600I-293234J0D01*
G01*
X78598134Y-72454600D01*
G75*
G02*
X78304900Y-72161366I0J293234D01*
G01*
X78304900Y-71094634D01*
G75*
G02*
X78598134Y-70801400I293234J0D01*
G01*
X79389866Y-70801400D01*
G75*
G02*
X79683100Y-71094634I0J-293234D01*
G01*
G37*
G36*
G01*
X94372100Y-70586634D02*
X94372100Y-71653366D01*
G75*
G02*
X94078866Y-71946600I-293234J0D01*
G01*
X93287134Y-71946600D01*
G75*
G02*
X92993900Y-71653366I0J293234D01*
G01*
X92993900Y-70586634D01*
G75*
G02*
X93287134Y-70293400I293234J0D01*
G01*
X94078866Y-70293400D01*
G75*
G02*
X94372100Y-70586634I0J-293234D01*
G01*
G37*
G36*
G01*
X96447100Y-70586634D02*
X96447100Y-71653366D01*
G75*
G02*
X96153866Y-71946600I-293234J0D01*
G01*
X95362134Y-71946600D01*
G75*
G02*
X95068900Y-71653366I0J293234D01*
G01*
X95068900Y-70586634D01*
G75*
G02*
X95362134Y-70293400I293234J0D01*
G01*
X96153866Y-70293400D01*
G75*
G02*
X96447100Y-70586634I0J-293234D01*
G01*
G37*
G36*
G01*
X120167366Y-100307900D02*
X119100634Y-100307900D01*
G75*
G02*
X118807400Y-100014666I0J293234D01*
G01*
X118807400Y-99222934D01*
G75*
G02*
X119100634Y-98929700I293234J0D01*
G01*
X120167366Y-98929700D01*
G75*
G02*
X120460600Y-99222934I0J-293234D01*
G01*
X120460600Y-100014666D01*
G75*
G02*
X120167366Y-100307900I-293234J0D01*
G01*
G37*
G36*
G01*
X120167366Y-102382900D02*
X119100634Y-102382900D01*
G75*
G02*
X118807400Y-102089666I0J293234D01*
G01*
X118807400Y-101297934D01*
G75*
G02*
X119100634Y-101004700I293234J0D01*
G01*
X120167366Y-101004700D01*
G75*
G02*
X120460600Y-101297934I0J-293234D01*
G01*
X120460600Y-102089666D01*
G75*
G02*
X120167366Y-102382900I-293234J0D01*
G01*
G37*
G36*
G01*
X109027900Y-62966634D02*
X109027900Y-64033366D01*
G75*
G02*
X108734666Y-64326600I-293234J0D01*
G01*
X107942934Y-64326600D01*
G75*
G02*
X107649700Y-64033366I0J293234D01*
G01*
X107649700Y-62966634D01*
G75*
G02*
X107942934Y-62673400I293234J0D01*
G01*
X108734666Y-62673400D01*
G75*
G02*
X109027900Y-62966634I0J-293234D01*
G01*
G37*
G36*
G01*
X111102900Y-62966634D02*
X111102900Y-64033366D01*
G75*
G02*
X110809666Y-64326600I-293234J0D01*
G01*
X110017934Y-64326600D01*
G75*
G02*
X109724700Y-64033366I0J293234D01*
G01*
X109724700Y-62966634D01*
G75*
G02*
X110017934Y-62673400I293234J0D01*
G01*
X110809666Y-62673400D01*
G75*
G02*
X111102900Y-62966634I0J-293234D01*
G01*
G37*
G36*
G01*
X109724700Y-71653366D02*
X109724700Y-70586634D01*
G75*
G02*
X110017934Y-70293400I293234J0D01*
G01*
X110809666Y-70293400D01*
G75*
G02*
X111102900Y-70586634I0J-293234D01*
G01*
X111102900Y-71653366D01*
G75*
G02*
X110809666Y-71946600I-293234J0D01*
G01*
X110017934Y-71946600D01*
G75*
G02*
X109724700Y-71653366I0J293234D01*
G01*
G37*
G36*
G01*
X107649700Y-71653366D02*
X107649700Y-70586634D01*
G75*
G02*
X107942934Y-70293400I293234J0D01*
G01*
X108734666Y-70293400D01*
G75*
G02*
X109027900Y-70586634I0J-293234D01*
G01*
X109027900Y-71653366D01*
G75*
G02*
X108734666Y-71946600I-293234J0D01*
G01*
X107942934Y-71946600D01*
G75*
G02*
X107649700Y-71653366I0J293234D01*
G01*
G37*
G36*
G01*
X86080634Y-103163700D02*
X87147366Y-103163700D01*
G75*
G02*
X87440600Y-103456934I0J-293234D01*
G01*
X87440600Y-104248666D01*
G75*
G02*
X87147366Y-104541900I-293234J0D01*
G01*
X86080634Y-104541900D01*
G75*
G02*
X85787400Y-104248666I0J293234D01*
G01*
X85787400Y-103456934D01*
G75*
G02*
X86080634Y-103163700I293234J0D01*
G01*
G37*
G36*
G01*
X86080634Y-101088700D02*
X87147366Y-101088700D01*
G75*
G02*
X87440600Y-101381934I0J-293234D01*
G01*
X87440600Y-102173666D01*
G75*
G02*
X87147366Y-102466900I-293234J0D01*
G01*
X86080634Y-102466900D01*
G75*
G02*
X85787400Y-102173666I0J293234D01*
G01*
X85787400Y-101381934D01*
G75*
G02*
X86080634Y-101088700I293234J0D01*
G01*
G37*
M02*
