G04 #@! TF.GenerationSoftware,KiCad,Pcbnew,(5.1.7)-1*
G04 #@! TF.CreationDate,2020-10-30T11:27:04-05:00*
G04 #@! TF.ProjectId,tent_map_amplitude,74656e74-5f6d-4617-905f-616d706c6974,1*
G04 #@! TF.SameCoordinates,Original*
G04 #@! TF.FileFunction,Soldermask,Top*
G04 #@! TF.FilePolarity,Negative*
%FSLAX46Y46*%
G04 Gerber Fmt 4.6, Leading zero omitted, Abs format (unit mm)*
G04 Created by KiCad (PCBNEW (5.1.7)-1) date 2020-10-30 11:27:04*
%MOMM*%
%LPD*%
G01*
G04 APERTURE LIST*
%ADD10O,1.903200X1.903200*%
%ADD11C,2.203200*%
%ADD12C,1.643200*%
%ADD13C,6.203200*%
%ADD14C,1.803200*%
G04 APERTURE END LIST*
D10*
X75412600Y-79913480D03*
X75412600Y-77373480D03*
G36*
G01*
X74461000Y-75683480D02*
X74461000Y-73983480D01*
G75*
G02*
X74562600Y-73881880I101600J0D01*
G01*
X76262600Y-73881880D01*
G75*
G02*
X76364200Y-73983480I0J-101600D01*
G01*
X76364200Y-75683480D01*
G75*
G02*
X76262600Y-75785080I-101600J0D01*
G01*
X74562600Y-75785080D01*
G75*
G02*
X74461000Y-75683480I0J101600D01*
G01*
G37*
D11*
X70561200Y-83619340D03*
X68021200Y-83619340D03*
D12*
X85834220Y-83045300D03*
X83294220Y-83045300D03*
X80754220Y-83045300D03*
G36*
G01*
X86892840Y-87814148D02*
X86892840Y-86795612D01*
G75*
G02*
X87185172Y-86503280I292332J0D01*
G01*
X88003708Y-86503280D01*
G75*
G02*
X88296040Y-86795612I0J-292332D01*
G01*
X88296040Y-87814148D01*
G75*
G02*
X88003708Y-88106480I-292332J0D01*
G01*
X87185172Y-88106480D01*
G75*
G02*
X86892840Y-87814148I0J292332D01*
G01*
G37*
G36*
G01*
X84892840Y-87814148D02*
X84892840Y-86795612D01*
G75*
G02*
X85185172Y-86503280I292332J0D01*
G01*
X86003708Y-86503280D01*
G75*
G02*
X86296040Y-86795612I0J-292332D01*
G01*
X86296040Y-87814148D01*
G75*
G02*
X86003708Y-88106480I-292332J0D01*
G01*
X85185172Y-88106480D01*
G75*
G02*
X84892840Y-87814148I0J292332D01*
G01*
G37*
G36*
G01*
X86310468Y-90726820D02*
X85291932Y-90726820D01*
G75*
G02*
X84999600Y-90434488I0J292332D01*
G01*
X84999600Y-89615952D01*
G75*
G02*
X85291932Y-89323620I292332J0D01*
G01*
X86310468Y-89323620D01*
G75*
G02*
X86602800Y-89615952I0J-292332D01*
G01*
X86602800Y-90434488D01*
G75*
G02*
X86310468Y-90726820I-292332J0D01*
G01*
G37*
G36*
G01*
X86310468Y-92726820D02*
X85291932Y-92726820D01*
G75*
G02*
X84999600Y-92434488I0J292332D01*
G01*
X84999600Y-91615952D01*
G75*
G02*
X85291932Y-91323620I292332J0D01*
G01*
X86310468Y-91323620D01*
G75*
G02*
X86602800Y-91615952I0J-292332D01*
G01*
X86602800Y-92434488D01*
G75*
G02*
X86310468Y-92726820I-292332J0D01*
G01*
G37*
D13*
X70713600Y-108966000D03*
X118618000Y-108966000D03*
X118618000Y-57404000D03*
X70713600Y-57404000D03*
D11*
X79725520Y-111439960D03*
X79725520Y-108899960D03*
D12*
X91970860Y-83050380D03*
X94510860Y-83050380D03*
X97050860Y-83050380D03*
D11*
X71186560Y-69558020D03*
X68646560Y-69558020D03*
D14*
X106693720Y-82760820D03*
G36*
G01*
X103792120Y-83560820D02*
X103792120Y-81960820D01*
G75*
G02*
X103893720Y-81859220I101600J0D01*
G01*
X105493720Y-81859220D01*
G75*
G02*
X105595320Y-81960820I0J-101600D01*
G01*
X105595320Y-83560820D01*
G75*
G02*
X105493720Y-83662420I-101600J0D01*
G01*
X103893720Y-83662420D01*
G75*
G02*
X103792120Y-83560820I0J101600D01*
G01*
G37*
G36*
G01*
X118315840Y-88983720D02*
X118315840Y-87383720D01*
G75*
G02*
X118417440Y-87282120I101600J0D01*
G01*
X120017440Y-87282120D01*
G75*
G02*
X120119040Y-87383720I0J-101600D01*
G01*
X120119040Y-88983720D01*
G75*
G02*
X120017440Y-89085320I-101600J0D01*
G01*
X118417440Y-89085320D01*
G75*
G02*
X118315840Y-88983720I0J101600D01*
G01*
G37*
X121217440Y-88183720D03*
D11*
X98592640Y-55168800D03*
X98592640Y-57708800D03*
X82162000Y-76504800D03*
X89662000Y-76504800D03*
X98418000Y-76504800D03*
X105918000Y-76504800D03*
X110711600Y-76733400D03*
X118211600Y-76733400D03*
D14*
X89662000Y-63754000D03*
X89662000Y-66294000D03*
X89662000Y-68834000D03*
X89662000Y-71374000D03*
X82042000Y-71374000D03*
X82042000Y-68834000D03*
X82042000Y-66294000D03*
G36*
G01*
X81140400Y-64554000D02*
X81140400Y-62954000D01*
G75*
G02*
X81242000Y-62852400I101600J0D01*
G01*
X82842000Y-62852400D01*
G75*
G02*
X82943600Y-62954000I0J-101600D01*
G01*
X82943600Y-64554000D01*
G75*
G02*
X82842000Y-64655600I-101600J0D01*
G01*
X81242000Y-64655600D01*
G75*
G02*
X81140400Y-64554000I0J101600D01*
G01*
G37*
X105918000Y-63500000D03*
X105918000Y-66040000D03*
X105918000Y-68580000D03*
X105918000Y-71120000D03*
X98298000Y-71120000D03*
X98298000Y-68580000D03*
X98298000Y-66040000D03*
G36*
G01*
X97396400Y-64300000D02*
X97396400Y-62700000D01*
G75*
G02*
X97498000Y-62598400I101600J0D01*
G01*
X99098000Y-62598400D01*
G75*
G02*
X99199600Y-62700000I0J-101600D01*
G01*
X99199600Y-64300000D01*
G75*
G02*
X99098000Y-64401600I-101600J0D01*
G01*
X97498000Y-64401600D01*
G75*
G02*
X97396400Y-64300000I0J101600D01*
G01*
G37*
X120726200Y-63525400D03*
X120726200Y-66065400D03*
X120726200Y-68605400D03*
X120726200Y-71145400D03*
X113106200Y-71145400D03*
X113106200Y-68605400D03*
X113106200Y-66065400D03*
G36*
G01*
X112204600Y-64325400D02*
X112204600Y-62725400D01*
G75*
G02*
X112306200Y-62623800I101600J0D01*
G01*
X113906200Y-62623800D01*
G75*
G02*
X114007800Y-62725400I0J-101600D01*
G01*
X114007800Y-64325400D01*
G75*
G02*
X113906200Y-64427000I-101600J0D01*
G01*
X112306200Y-64427000D01*
G75*
G02*
X112204600Y-64325400I0J101600D01*
G01*
G37*
X116078000Y-99618800D03*
X113538000Y-99618800D03*
X110998000Y-99618800D03*
X108458000Y-99618800D03*
X108458000Y-91998800D03*
X110998000Y-91998800D03*
X113538000Y-91998800D03*
G36*
G01*
X115278000Y-91097200D02*
X116878000Y-91097200D01*
G75*
G02*
X116979600Y-91198800I0J-101600D01*
G01*
X116979600Y-92798800D01*
G75*
G02*
X116878000Y-92900400I-101600J0D01*
G01*
X115278000Y-92900400D01*
G75*
G02*
X115176400Y-92798800I0J101600D01*
G01*
X115176400Y-91198800D01*
G75*
G02*
X115278000Y-91097200I101600J0D01*
G01*
G37*
X98201480Y-88455500D03*
X98201480Y-90995500D03*
X98201480Y-93535500D03*
X98201480Y-96075500D03*
X90581480Y-96075500D03*
X90581480Y-93535500D03*
X90581480Y-90995500D03*
G36*
G01*
X89679880Y-89255500D02*
X89679880Y-87655500D01*
G75*
G02*
X89781480Y-87553900I101600J0D01*
G01*
X91381480Y-87553900D01*
G75*
G02*
X91483080Y-87655500I0J-101600D01*
G01*
X91483080Y-89255500D01*
G75*
G02*
X91381480Y-89357100I-101600J0D01*
G01*
X89781480Y-89357100D01*
G75*
G02*
X89679880Y-89255500I0J101600D01*
G01*
G37*
X82826860Y-89575640D03*
X82826860Y-92115640D03*
X82826860Y-94655640D03*
X82826860Y-97195640D03*
X82826860Y-99735640D03*
X82826860Y-102275640D03*
X82826860Y-104815640D03*
X75206860Y-104815640D03*
X75206860Y-102275640D03*
X75206860Y-99735640D03*
X75206860Y-97195640D03*
X75206860Y-94655640D03*
X75206860Y-92115640D03*
G36*
G01*
X74305260Y-90375640D02*
X74305260Y-88775640D01*
G75*
G02*
X74406860Y-88674040I101600J0D01*
G01*
X76006860Y-88674040D01*
G75*
G02*
X76108460Y-88775640I0J-101600D01*
G01*
X76108460Y-90375640D01*
G75*
G02*
X76006860Y-90477240I-101600J0D01*
G01*
X74406860Y-90477240D01*
G75*
G02*
X74305260Y-90375640I0J101600D01*
G01*
G37*
D11*
X85120480Y-57708800D03*
X85120480Y-55168800D03*
X91856560Y-55168800D03*
X91856560Y-57708800D03*
X105328720Y-55168800D03*
X105328720Y-57708800D03*
X78384400Y-55168800D03*
X78384400Y-57708800D03*
X70385940Y-89298780D03*
X67845940Y-89298780D03*
X71412100Y-103027480D03*
X68872100Y-103027480D03*
X100711000Y-102539800D03*
X100711000Y-105079800D03*
X92710000Y-102412800D03*
X92710000Y-104952800D03*
X96207580Y-111439960D03*
X96207580Y-108899960D03*
X87966550Y-111439960D03*
X87966550Y-108899960D03*
X71059040Y-63748920D03*
X68519040Y-63748920D03*
X112064800Y-55168800D03*
X112064800Y-57708800D03*
D12*
X110627160Y-109166660D03*
X108087160Y-109166660D03*
X105547160Y-109166660D03*
G36*
G01*
X70903640Y-99005392D02*
X70903640Y-100023928D01*
G75*
G02*
X70611308Y-100316260I-292332J0D01*
G01*
X69792772Y-100316260D01*
G75*
G02*
X69500440Y-100023928I0J292332D01*
G01*
X69500440Y-99005392D01*
G75*
G02*
X69792772Y-98713060I292332J0D01*
G01*
X70611308Y-98713060D01*
G75*
G02*
X70903640Y-99005392I0J-292332D01*
G01*
G37*
G36*
G01*
X72903640Y-99005392D02*
X72903640Y-100023928D01*
G75*
G02*
X72611308Y-100316260I-292332J0D01*
G01*
X71792772Y-100316260D01*
G75*
G02*
X71500440Y-100023928I0J292332D01*
G01*
X71500440Y-99005392D01*
G75*
G02*
X71792772Y-98713060I292332J0D01*
G01*
X72611308Y-98713060D01*
G75*
G02*
X72903640Y-99005392I0J-292332D01*
G01*
G37*
G36*
G01*
X71692772Y-96273060D02*
X72711308Y-96273060D01*
G75*
G02*
X73003640Y-96565392I0J-292332D01*
G01*
X73003640Y-97383928D01*
G75*
G02*
X72711308Y-97676260I-292332J0D01*
G01*
X71692772Y-97676260D01*
G75*
G02*
X71400440Y-97383928I0J292332D01*
G01*
X71400440Y-96565392D01*
G75*
G02*
X71692772Y-96273060I292332J0D01*
G01*
G37*
G36*
G01*
X71692772Y-94273060D02*
X72711308Y-94273060D01*
G75*
G02*
X73003640Y-94565392I0J-292332D01*
G01*
X73003640Y-95383928D01*
G75*
G02*
X72711308Y-95676260I-292332J0D01*
G01*
X71692772Y-95676260D01*
G75*
G02*
X71400440Y-95383928I0J292332D01*
G01*
X71400440Y-94565392D01*
G75*
G02*
X71692772Y-94273060I292332J0D01*
G01*
G37*
G36*
G01*
X110488732Y-88757200D02*
X111507268Y-88757200D01*
G75*
G02*
X111799600Y-89049532I0J-292332D01*
G01*
X111799600Y-89868068D01*
G75*
G02*
X111507268Y-90160400I-292332J0D01*
G01*
X110488732Y-90160400D01*
G75*
G02*
X110196400Y-89868068I0J292332D01*
G01*
X110196400Y-89049532D01*
G75*
G02*
X110488732Y-88757200I292332J0D01*
G01*
G37*
G36*
G01*
X110488732Y-86757200D02*
X111507268Y-86757200D01*
G75*
G02*
X111799600Y-87049532I0J-292332D01*
G01*
X111799600Y-87868068D01*
G75*
G02*
X111507268Y-88160400I-292332J0D01*
G01*
X110488732Y-88160400D01*
G75*
G02*
X110196400Y-87868068I0J292332D01*
G01*
X110196400Y-87049532D01*
G75*
G02*
X110488732Y-86757200I292332J0D01*
G01*
G37*
G36*
G01*
X100727512Y-92605300D02*
X101746048Y-92605300D01*
G75*
G02*
X102038380Y-92897632I0J-292332D01*
G01*
X102038380Y-93716168D01*
G75*
G02*
X101746048Y-94008500I-292332J0D01*
G01*
X100727512Y-94008500D01*
G75*
G02*
X100435180Y-93716168I0J292332D01*
G01*
X100435180Y-92897632D01*
G75*
G02*
X100727512Y-92605300I292332J0D01*
G01*
G37*
G36*
G01*
X100727512Y-90605300D02*
X101746048Y-90605300D01*
G75*
G02*
X102038380Y-90897632I0J-292332D01*
G01*
X102038380Y-91716168D01*
G75*
G02*
X101746048Y-92008500I-292332J0D01*
G01*
X100727512Y-92008500D01*
G75*
G02*
X100435180Y-91716168I0J292332D01*
G01*
X100435180Y-90897632D01*
G75*
G02*
X100727512Y-90605300I292332J0D01*
G01*
G37*
G36*
G01*
X74519788Y-64445440D02*
X73501252Y-64445440D01*
G75*
G02*
X73208920Y-64153108I0J292332D01*
G01*
X73208920Y-63334572D01*
G75*
G02*
X73501252Y-63042240I292332J0D01*
G01*
X74519788Y-63042240D01*
G75*
G02*
X74812120Y-63334572I0J-292332D01*
G01*
X74812120Y-64153108D01*
G75*
G02*
X74519788Y-64445440I-292332J0D01*
G01*
G37*
G36*
G01*
X74519788Y-66445440D02*
X73501252Y-66445440D01*
G75*
G02*
X73208920Y-66153108I0J292332D01*
G01*
X73208920Y-65334572D01*
G75*
G02*
X73501252Y-65042240I292332J0D01*
G01*
X74519788Y-65042240D01*
G75*
G02*
X74812120Y-65334572I0J-292332D01*
G01*
X74812120Y-66153108D01*
G75*
G02*
X74519788Y-66445440I-292332J0D01*
G01*
G37*
G36*
G01*
X101951080Y-96074232D02*
X101951080Y-97092768D01*
G75*
G02*
X101658748Y-97385100I-292332J0D01*
G01*
X100840212Y-97385100D01*
G75*
G02*
X100547880Y-97092768I0J292332D01*
G01*
X100547880Y-96074232D01*
G75*
G02*
X100840212Y-95781900I292332J0D01*
G01*
X101658748Y-95781900D01*
G75*
G02*
X101951080Y-96074232I0J-292332D01*
G01*
G37*
G36*
G01*
X103951080Y-96074232D02*
X103951080Y-97092768D01*
G75*
G02*
X103658748Y-97385100I-292332J0D01*
G01*
X102840212Y-97385100D01*
G75*
G02*
X102547880Y-97092768I0J292332D01*
G01*
X102547880Y-96074232D01*
G75*
G02*
X102840212Y-95781900I292332J0D01*
G01*
X103658748Y-95781900D01*
G75*
G02*
X103951080Y-96074232I0J-292332D01*
G01*
G37*
G36*
G01*
X77695600Y-63244732D02*
X77695600Y-64263268D01*
G75*
G02*
X77403268Y-64555600I-292332J0D01*
G01*
X76584732Y-64555600D01*
G75*
G02*
X76292400Y-64263268I0J292332D01*
G01*
X76292400Y-63244732D01*
G75*
G02*
X76584732Y-62952400I292332J0D01*
G01*
X77403268Y-62952400D01*
G75*
G02*
X77695600Y-63244732I0J-292332D01*
G01*
G37*
G36*
G01*
X79695600Y-63244732D02*
X79695600Y-64263268D01*
G75*
G02*
X79403268Y-64555600I-292332J0D01*
G01*
X78584732Y-64555600D01*
G75*
G02*
X78292400Y-64263268I0J292332D01*
G01*
X78292400Y-63244732D01*
G75*
G02*
X78584732Y-62952400I292332J0D01*
G01*
X79403268Y-62952400D01*
G75*
G02*
X79695600Y-63244732I0J-292332D01*
G01*
G37*
D11*
X105570000Y-103174800D03*
G36*
G01*
X116671600Y-102174800D02*
X116671600Y-104174800D01*
G75*
G02*
X116570000Y-104276400I-101600J0D01*
G01*
X114570000Y-104276400D01*
G75*
G02*
X114468400Y-104174800I0J101600D01*
G01*
X114468400Y-102174800D01*
G75*
G02*
X114570000Y-102073200I101600J0D01*
G01*
X116570000Y-102073200D01*
G75*
G02*
X116671600Y-102174800I0J-101600D01*
G01*
G37*
X120167400Y-82194400D03*
G36*
G01*
X109065800Y-83194400D02*
X109065800Y-81194400D01*
G75*
G02*
X109167400Y-81092800I101600J0D01*
G01*
X111167400Y-81092800D01*
G75*
G02*
X111269000Y-81194400I0J-101600D01*
G01*
X111269000Y-83194400D01*
G75*
G02*
X111167400Y-83296000I-101600J0D01*
G01*
X109167400Y-83296000D01*
G75*
G02*
X109065800Y-83194400I0J101600D01*
G01*
G37*
G36*
G01*
X106781634Y-89023700D02*
X107848366Y-89023700D01*
G75*
G02*
X108141600Y-89316934I0J-293234D01*
G01*
X108141600Y-90108666D01*
G75*
G02*
X107848366Y-90401900I-293234J0D01*
G01*
X106781634Y-90401900D01*
G75*
G02*
X106488400Y-90108666I0J293234D01*
G01*
X106488400Y-89316934D01*
G75*
G02*
X106781634Y-89023700I293234J0D01*
G01*
G37*
G36*
G01*
X106781634Y-86948700D02*
X107848366Y-86948700D01*
G75*
G02*
X108141600Y-87241934I0J-293234D01*
G01*
X108141600Y-88033666D01*
G75*
G02*
X107848366Y-88326900I-293234J0D01*
G01*
X106781634Y-88326900D01*
G75*
G02*
X106488400Y-88033666I0J293234D01*
G01*
X106488400Y-87241934D01*
G75*
G02*
X106781634Y-86948700I293234J0D01*
G01*
G37*
G36*
G01*
X80057500Y-61788006D02*
X80057500Y-60721274D01*
G75*
G02*
X80350734Y-60428040I293234J0D01*
G01*
X81142466Y-60428040D01*
G75*
G02*
X81435700Y-60721274I0J-293234D01*
G01*
X81435700Y-61788006D01*
G75*
G02*
X81142466Y-62081240I-293234J0D01*
G01*
X80350734Y-62081240D01*
G75*
G02*
X80057500Y-61788006I0J293234D01*
G01*
G37*
G36*
G01*
X77982500Y-61788006D02*
X77982500Y-60721274D01*
G75*
G02*
X78275734Y-60428040I293234J0D01*
G01*
X79067466Y-60428040D01*
G75*
G02*
X79360700Y-60721274I0J-293234D01*
G01*
X79360700Y-61788006D01*
G75*
G02*
X79067466Y-62081240I-293234J0D01*
G01*
X78275734Y-62081240D01*
G75*
G02*
X77982500Y-61788006I0J293234D01*
G01*
G37*
G36*
G01*
X89765380Y-99275866D02*
X89765380Y-98209134D01*
G75*
G02*
X90058614Y-97915900I293234J0D01*
G01*
X90850346Y-97915900D01*
G75*
G02*
X91143580Y-98209134I0J-293234D01*
G01*
X91143580Y-99275866D01*
G75*
G02*
X90850346Y-99569100I-293234J0D01*
G01*
X90058614Y-99569100D01*
G75*
G02*
X89765380Y-99275866I0J293234D01*
G01*
G37*
G36*
G01*
X87690380Y-99275866D02*
X87690380Y-98209134D01*
G75*
G02*
X87983614Y-97915900I293234J0D01*
G01*
X88775346Y-97915900D01*
G75*
G02*
X89068580Y-98209134I0J-293234D01*
G01*
X89068580Y-99275866D01*
G75*
G02*
X88775346Y-99569100I-293234J0D01*
G01*
X87983614Y-99569100D01*
G75*
G02*
X87690380Y-99275866I0J293234D01*
G01*
G37*
G36*
G01*
X95068900Y-64033366D02*
X95068900Y-62966634D01*
G75*
G02*
X95362134Y-62673400I293234J0D01*
G01*
X96153866Y-62673400D01*
G75*
G02*
X96447100Y-62966634I0J-293234D01*
G01*
X96447100Y-64033366D01*
G75*
G02*
X96153866Y-64326600I-293234J0D01*
G01*
X95362134Y-64326600D01*
G75*
G02*
X95068900Y-64033366I0J293234D01*
G01*
G37*
G36*
G01*
X92993900Y-64033366D02*
X92993900Y-62966634D01*
G75*
G02*
X93287134Y-62673400I293234J0D01*
G01*
X94078866Y-62673400D01*
G75*
G02*
X94372100Y-62966634I0J-293234D01*
G01*
X94372100Y-64033366D01*
G75*
G02*
X94078866Y-64326600I-293234J0D01*
G01*
X93287134Y-64326600D01*
G75*
G02*
X92993900Y-64033366I0J293234D01*
G01*
G37*
G36*
G01*
X85874826Y-95235520D02*
X84808094Y-95235520D01*
G75*
G02*
X84514860Y-94942286I0J293234D01*
G01*
X84514860Y-94150554D01*
G75*
G02*
X84808094Y-93857320I293234J0D01*
G01*
X85874826Y-93857320D01*
G75*
G02*
X86168060Y-94150554I0J-293234D01*
G01*
X86168060Y-94942286D01*
G75*
G02*
X85874826Y-95235520I-293234J0D01*
G01*
G37*
G36*
G01*
X85874826Y-97310520D02*
X84808094Y-97310520D01*
G75*
G02*
X84514860Y-97017286I0J293234D01*
G01*
X84514860Y-96225554D01*
G75*
G02*
X84808094Y-95932320I293234J0D01*
G01*
X85874826Y-95932320D01*
G75*
G02*
X86168060Y-96225554I0J-293234D01*
G01*
X86168060Y-97017286D01*
G75*
G02*
X85874826Y-97310520I-293234J0D01*
G01*
G37*
G36*
G01*
X100317334Y-87476660D02*
X101384066Y-87476660D01*
G75*
G02*
X101677300Y-87769894I0J-293234D01*
G01*
X101677300Y-88561626D01*
G75*
G02*
X101384066Y-88854860I-293234J0D01*
G01*
X100317334Y-88854860D01*
G75*
G02*
X100024100Y-88561626I0J293234D01*
G01*
X100024100Y-87769894D01*
G75*
G02*
X100317334Y-87476660I293234J0D01*
G01*
G37*
G36*
G01*
X100317334Y-85401660D02*
X101384066Y-85401660D01*
G75*
G02*
X101677300Y-85694894I0J-293234D01*
G01*
X101677300Y-86486626D01*
G75*
G02*
X101384066Y-86779860I-293234J0D01*
G01*
X100317334Y-86779860D01*
G75*
G02*
X100024100Y-86486626I0J293234D01*
G01*
X100024100Y-85694894D01*
G75*
G02*
X100317334Y-85401660I293234J0D01*
G01*
G37*
G36*
G01*
X71258100Y-92227434D02*
X71258100Y-93294166D01*
G75*
G02*
X70964866Y-93587400I-293234J0D01*
G01*
X70173134Y-93587400D01*
G75*
G02*
X69879900Y-93294166I0J293234D01*
G01*
X69879900Y-92227434D01*
G75*
G02*
X70173134Y-91934200I293234J0D01*
G01*
X70964866Y-91934200D01*
G75*
G02*
X71258100Y-92227434I0J-293234D01*
G01*
G37*
G36*
G01*
X73333100Y-92227434D02*
X73333100Y-93294166D01*
G75*
G02*
X73039866Y-93587400I-293234J0D01*
G01*
X72248134Y-93587400D01*
G75*
G02*
X71954900Y-93294166I0J293234D01*
G01*
X71954900Y-92227434D01*
G75*
G02*
X72248134Y-91934200I293234J0D01*
G01*
X73039866Y-91934200D01*
G75*
G02*
X73333100Y-92227434I0J-293234D01*
G01*
G37*
G36*
G01*
X78380260Y-70916834D02*
X78380260Y-71983566D01*
G75*
G02*
X78087026Y-72276800I-293234J0D01*
G01*
X77295294Y-72276800D01*
G75*
G02*
X77002060Y-71983566I0J293234D01*
G01*
X77002060Y-70916834D01*
G75*
G02*
X77295294Y-70623600I293234J0D01*
G01*
X78087026Y-70623600D01*
G75*
G02*
X78380260Y-70916834I0J-293234D01*
G01*
G37*
G36*
G01*
X80455260Y-70916834D02*
X80455260Y-71983566D01*
G75*
G02*
X80162026Y-72276800I-293234J0D01*
G01*
X79370294Y-72276800D01*
G75*
G02*
X79077060Y-71983566I0J293234D01*
G01*
X79077060Y-70916834D01*
G75*
G02*
X79370294Y-70623600I293234J0D01*
G01*
X80162026Y-70623600D01*
G75*
G02*
X80455260Y-70916834I0J-293234D01*
G01*
G37*
G36*
G01*
X94372100Y-70586634D02*
X94372100Y-71653366D01*
G75*
G02*
X94078866Y-71946600I-293234J0D01*
G01*
X93287134Y-71946600D01*
G75*
G02*
X92993900Y-71653366I0J293234D01*
G01*
X92993900Y-70586634D01*
G75*
G02*
X93287134Y-70293400I293234J0D01*
G01*
X94078866Y-70293400D01*
G75*
G02*
X94372100Y-70586634I0J-293234D01*
G01*
G37*
G36*
G01*
X96447100Y-70586634D02*
X96447100Y-71653366D01*
G75*
G02*
X96153866Y-71946600I-293234J0D01*
G01*
X95362134Y-71946600D01*
G75*
G02*
X95068900Y-71653366I0J293234D01*
G01*
X95068900Y-70586634D01*
G75*
G02*
X95362134Y-70293400I293234J0D01*
G01*
X96153866Y-70293400D01*
G75*
G02*
X96447100Y-70586634I0J-293234D01*
G01*
G37*
G36*
G01*
X120167366Y-100307900D02*
X119100634Y-100307900D01*
G75*
G02*
X118807400Y-100014666I0J293234D01*
G01*
X118807400Y-99222934D01*
G75*
G02*
X119100634Y-98929700I293234J0D01*
G01*
X120167366Y-98929700D01*
G75*
G02*
X120460600Y-99222934I0J-293234D01*
G01*
X120460600Y-100014666D01*
G75*
G02*
X120167366Y-100307900I-293234J0D01*
G01*
G37*
G36*
G01*
X120167366Y-102382900D02*
X119100634Y-102382900D01*
G75*
G02*
X118807400Y-102089666I0J293234D01*
G01*
X118807400Y-101297934D01*
G75*
G02*
X119100634Y-101004700I293234J0D01*
G01*
X120167366Y-101004700D01*
G75*
G02*
X120460600Y-101297934I0J-293234D01*
G01*
X120460600Y-102089666D01*
G75*
G02*
X120167366Y-102382900I-293234J0D01*
G01*
G37*
G36*
G01*
X109027900Y-62966634D02*
X109027900Y-64033366D01*
G75*
G02*
X108734666Y-64326600I-293234J0D01*
G01*
X107942934Y-64326600D01*
G75*
G02*
X107649700Y-64033366I0J293234D01*
G01*
X107649700Y-62966634D01*
G75*
G02*
X107942934Y-62673400I293234J0D01*
G01*
X108734666Y-62673400D01*
G75*
G02*
X109027900Y-62966634I0J-293234D01*
G01*
G37*
G36*
G01*
X111102900Y-62966634D02*
X111102900Y-64033366D01*
G75*
G02*
X110809666Y-64326600I-293234J0D01*
G01*
X110017934Y-64326600D01*
G75*
G02*
X109724700Y-64033366I0J293234D01*
G01*
X109724700Y-62966634D01*
G75*
G02*
X110017934Y-62673400I293234J0D01*
G01*
X110809666Y-62673400D01*
G75*
G02*
X111102900Y-62966634I0J-293234D01*
G01*
G37*
G36*
G01*
X109880434Y-69795900D02*
X110947166Y-69795900D01*
G75*
G02*
X111240400Y-70089134I0J-293234D01*
G01*
X111240400Y-70880866D01*
G75*
G02*
X110947166Y-71174100I-293234J0D01*
G01*
X109880434Y-71174100D01*
G75*
G02*
X109587200Y-70880866I0J293234D01*
G01*
X109587200Y-70089134D01*
G75*
G02*
X109880434Y-69795900I293234J0D01*
G01*
G37*
G36*
G01*
X109880434Y-67720900D02*
X110947166Y-67720900D01*
G75*
G02*
X111240400Y-68014134I0J-293234D01*
G01*
X111240400Y-68805866D01*
G75*
G02*
X110947166Y-69099100I-293234J0D01*
G01*
X109880434Y-69099100D01*
G75*
G02*
X109587200Y-68805866I0J293234D01*
G01*
X109587200Y-68014134D01*
G75*
G02*
X109880434Y-67720900I293234J0D01*
G01*
G37*
G36*
G01*
X86080634Y-103163700D02*
X87147366Y-103163700D01*
G75*
G02*
X87440600Y-103456934I0J-293234D01*
G01*
X87440600Y-104248666D01*
G75*
G02*
X87147366Y-104541900I-293234J0D01*
G01*
X86080634Y-104541900D01*
G75*
G02*
X85787400Y-104248666I0J293234D01*
G01*
X85787400Y-103456934D01*
G75*
G02*
X86080634Y-103163700I293234J0D01*
G01*
G37*
G36*
G01*
X86080634Y-101088700D02*
X87147366Y-101088700D01*
G75*
G02*
X87440600Y-101381934I0J-293234D01*
G01*
X87440600Y-102173666D01*
G75*
G02*
X87147366Y-102466900I-293234J0D01*
G01*
X86080634Y-102466900D01*
G75*
G02*
X85787400Y-102173666I0J293234D01*
G01*
X85787400Y-101381934D01*
G75*
G02*
X86080634Y-101088700I293234J0D01*
G01*
G37*
M02*
