G04 #@! TF.GenerationSoftware,KiCad,Pcbnew,(5.1.7)-1*
G04 #@! TF.CreationDate,2020-10-23T01:37:35-05:00*
G04 #@! TF.ProjectId,tent_map_amplitude,74656e74-5f6d-4617-905f-616d706c6974,1*
G04 #@! TF.SameCoordinates,Original*
G04 #@! TF.FileFunction,Legend,Top*
G04 #@! TF.FilePolarity,Positive*
%FSLAX46Y46*%
G04 Gerber Fmt 4.6, Leading zero omitted, Abs format (unit mm)*
G04 Created by KiCad (PCBNEW (5.1.7)-1) date 2020-10-23 01:37:35*
%MOMM*%
%LPD*%
G01*
G04 APERTURE LIST*
%ADD10C,0.120000*%
%ADD11C,0.100000*%
%ADD12C,0.150000*%
G04 APERTURE END LIST*
D10*
X121247400Y-58166000D02*
G75*
G03*
X121247400Y-58166000I-2620000J0D01*
G01*
X118627400Y-59206000D02*
X118627400Y-60746000D01*
X118627400Y-55586000D02*
X118627400Y-57126000D01*
X118667400Y-59206000D02*
X118667400Y-60746000D01*
X118667400Y-55586000D02*
X118667400Y-57126000D01*
X118707400Y-55587000D02*
X118707400Y-57126000D01*
X118707400Y-59206000D02*
X118707400Y-60745000D01*
X118747400Y-55588000D02*
X118747400Y-57126000D01*
X118747400Y-59206000D02*
X118747400Y-60744000D01*
X118787400Y-55590000D02*
X118787400Y-57126000D01*
X118787400Y-59206000D02*
X118787400Y-60742000D01*
X118827400Y-55593000D02*
X118827400Y-57126000D01*
X118827400Y-59206000D02*
X118827400Y-60739000D01*
X118867400Y-55597000D02*
X118867400Y-57126000D01*
X118867400Y-59206000D02*
X118867400Y-60735000D01*
X118907400Y-55601000D02*
X118907400Y-57126000D01*
X118907400Y-59206000D02*
X118907400Y-60731000D01*
X118947400Y-55605000D02*
X118947400Y-57126000D01*
X118947400Y-59206000D02*
X118947400Y-60727000D01*
X118987400Y-55610000D02*
X118987400Y-57126000D01*
X118987400Y-59206000D02*
X118987400Y-60722000D01*
X119027400Y-55616000D02*
X119027400Y-57126000D01*
X119027400Y-59206000D02*
X119027400Y-60716000D01*
X119067400Y-55623000D02*
X119067400Y-57126000D01*
X119067400Y-59206000D02*
X119067400Y-60709000D01*
X119107400Y-55630000D02*
X119107400Y-57126000D01*
X119107400Y-59206000D02*
X119107400Y-60702000D01*
X119147400Y-55638000D02*
X119147400Y-57126000D01*
X119147400Y-59206000D02*
X119147400Y-60694000D01*
X119187400Y-55646000D02*
X119187400Y-57126000D01*
X119187400Y-59206000D02*
X119187400Y-60686000D01*
X119227400Y-55655000D02*
X119227400Y-57126000D01*
X119227400Y-59206000D02*
X119227400Y-60677000D01*
X119267400Y-55665000D02*
X119267400Y-57126000D01*
X119267400Y-59206000D02*
X119267400Y-60667000D01*
X119307400Y-55675000D02*
X119307400Y-57126000D01*
X119307400Y-59206000D02*
X119307400Y-60657000D01*
X119348400Y-55686000D02*
X119348400Y-57126000D01*
X119348400Y-59206000D02*
X119348400Y-60646000D01*
X119388400Y-55698000D02*
X119388400Y-57126000D01*
X119388400Y-59206000D02*
X119388400Y-60634000D01*
X119428400Y-55711000D02*
X119428400Y-57126000D01*
X119428400Y-59206000D02*
X119428400Y-60621000D01*
X119468400Y-55724000D02*
X119468400Y-57126000D01*
X119468400Y-59206000D02*
X119468400Y-60608000D01*
X119508400Y-55738000D02*
X119508400Y-57126000D01*
X119508400Y-59206000D02*
X119508400Y-60594000D01*
X119548400Y-55752000D02*
X119548400Y-57126000D01*
X119548400Y-59206000D02*
X119548400Y-60580000D01*
X119588400Y-55768000D02*
X119588400Y-57126000D01*
X119588400Y-59206000D02*
X119588400Y-60564000D01*
X119628400Y-55784000D02*
X119628400Y-57126000D01*
X119628400Y-59206000D02*
X119628400Y-60548000D01*
X119668400Y-55801000D02*
X119668400Y-57126000D01*
X119668400Y-59206000D02*
X119668400Y-60531000D01*
X119708400Y-55818000D02*
X119708400Y-57126000D01*
X119708400Y-59206000D02*
X119708400Y-60514000D01*
X119748400Y-55837000D02*
X119748400Y-57126000D01*
X119748400Y-59206000D02*
X119748400Y-60495000D01*
X119788400Y-55856000D02*
X119788400Y-57126000D01*
X119788400Y-59206000D02*
X119788400Y-60476000D01*
X119828400Y-55876000D02*
X119828400Y-57126000D01*
X119828400Y-59206000D02*
X119828400Y-60456000D01*
X119868400Y-55898000D02*
X119868400Y-57126000D01*
X119868400Y-59206000D02*
X119868400Y-60434000D01*
X119908400Y-55919000D02*
X119908400Y-57126000D01*
X119908400Y-59206000D02*
X119908400Y-60413000D01*
X119948400Y-55942000D02*
X119948400Y-57126000D01*
X119948400Y-59206000D02*
X119948400Y-60390000D01*
X119988400Y-55966000D02*
X119988400Y-57126000D01*
X119988400Y-59206000D02*
X119988400Y-60366000D01*
X120028400Y-55991000D02*
X120028400Y-57126000D01*
X120028400Y-59206000D02*
X120028400Y-60341000D01*
X120068400Y-56017000D02*
X120068400Y-57126000D01*
X120068400Y-59206000D02*
X120068400Y-60315000D01*
X120108400Y-56044000D02*
X120108400Y-57126000D01*
X120108400Y-59206000D02*
X120108400Y-60288000D01*
X120148400Y-56071000D02*
X120148400Y-57126000D01*
X120148400Y-59206000D02*
X120148400Y-60261000D01*
X120188400Y-56101000D02*
X120188400Y-57126000D01*
X120188400Y-59206000D02*
X120188400Y-60231000D01*
X120228400Y-56131000D02*
X120228400Y-57126000D01*
X120228400Y-59206000D02*
X120228400Y-60201000D01*
X120268400Y-56162000D02*
X120268400Y-57126000D01*
X120268400Y-59206000D02*
X120268400Y-60170000D01*
X120308400Y-56195000D02*
X120308400Y-57126000D01*
X120308400Y-59206000D02*
X120308400Y-60137000D01*
X120348400Y-56229000D02*
X120348400Y-57126000D01*
X120348400Y-59206000D02*
X120348400Y-60103000D01*
X120388400Y-56265000D02*
X120388400Y-57126000D01*
X120388400Y-59206000D02*
X120388400Y-60067000D01*
X120428400Y-56302000D02*
X120428400Y-57126000D01*
X120428400Y-59206000D02*
X120428400Y-60030000D01*
X120468400Y-56340000D02*
X120468400Y-57126000D01*
X120468400Y-59206000D02*
X120468400Y-59992000D01*
X120508400Y-56381000D02*
X120508400Y-57126000D01*
X120508400Y-59206000D02*
X120508400Y-59951000D01*
X120548400Y-56423000D02*
X120548400Y-57126000D01*
X120548400Y-59206000D02*
X120548400Y-59909000D01*
X120588400Y-56467000D02*
X120588400Y-57126000D01*
X120588400Y-59206000D02*
X120588400Y-59865000D01*
X120628400Y-56513000D02*
X120628400Y-57126000D01*
X120628400Y-59206000D02*
X120628400Y-59819000D01*
X120668400Y-56561000D02*
X120668400Y-59771000D01*
X120708400Y-56612000D02*
X120708400Y-59720000D01*
X120748400Y-56666000D02*
X120748400Y-59666000D01*
X120788400Y-56723000D02*
X120788400Y-59609000D01*
X120828400Y-56783000D02*
X120828400Y-59549000D01*
X120868400Y-56847000D02*
X120868400Y-59485000D01*
X120908400Y-56915000D02*
X120908400Y-59417000D01*
X120948400Y-56988000D02*
X120948400Y-59344000D01*
X120988400Y-57068000D02*
X120988400Y-59264000D01*
X121028400Y-57155000D02*
X121028400Y-59177000D01*
X121068400Y-57251000D02*
X121068400Y-59081000D01*
X121108400Y-57361000D02*
X121108400Y-58971000D01*
X121148400Y-57489000D02*
X121148400Y-58843000D01*
X121188400Y-57648000D02*
X121188400Y-58684000D01*
X121228400Y-57882000D02*
X121228400Y-58450000D01*
X115822625Y-56691000D02*
X116322625Y-56691000D01*
X116072625Y-56441000D02*
X116072625Y-56941000D01*
X66822025Y-75491000D02*
X66822025Y-75991000D01*
X66572025Y-75741000D02*
X67072025Y-75741000D01*
X71977800Y-76932000D02*
X71977800Y-77500000D01*
X71937800Y-76698000D02*
X71937800Y-77734000D01*
X71897800Y-76539000D02*
X71897800Y-77893000D01*
X71857800Y-76411000D02*
X71857800Y-78021000D01*
X71817800Y-76301000D02*
X71817800Y-78131000D01*
X71777800Y-76205000D02*
X71777800Y-78227000D01*
X71737800Y-76118000D02*
X71737800Y-78314000D01*
X71697800Y-76038000D02*
X71697800Y-78394000D01*
X71657800Y-75965000D02*
X71657800Y-78467000D01*
X71617800Y-75897000D02*
X71617800Y-78535000D01*
X71577800Y-75833000D02*
X71577800Y-78599000D01*
X71537800Y-75773000D02*
X71537800Y-78659000D01*
X71497800Y-75716000D02*
X71497800Y-78716000D01*
X71457800Y-75662000D02*
X71457800Y-78770000D01*
X71417800Y-75611000D02*
X71417800Y-78821000D01*
X71377800Y-78256000D02*
X71377800Y-78869000D01*
X71377800Y-75563000D02*
X71377800Y-76176000D01*
X71337800Y-78256000D02*
X71337800Y-78915000D01*
X71337800Y-75517000D02*
X71337800Y-76176000D01*
X71297800Y-78256000D02*
X71297800Y-78959000D01*
X71297800Y-75473000D02*
X71297800Y-76176000D01*
X71257800Y-78256000D02*
X71257800Y-79001000D01*
X71257800Y-75431000D02*
X71257800Y-76176000D01*
X71217800Y-78256000D02*
X71217800Y-79042000D01*
X71217800Y-75390000D02*
X71217800Y-76176000D01*
X71177800Y-78256000D02*
X71177800Y-79080000D01*
X71177800Y-75352000D02*
X71177800Y-76176000D01*
X71137800Y-78256000D02*
X71137800Y-79117000D01*
X71137800Y-75315000D02*
X71137800Y-76176000D01*
X71097800Y-78256000D02*
X71097800Y-79153000D01*
X71097800Y-75279000D02*
X71097800Y-76176000D01*
X71057800Y-78256000D02*
X71057800Y-79187000D01*
X71057800Y-75245000D02*
X71057800Y-76176000D01*
X71017800Y-78256000D02*
X71017800Y-79220000D01*
X71017800Y-75212000D02*
X71017800Y-76176000D01*
X70977800Y-78256000D02*
X70977800Y-79251000D01*
X70977800Y-75181000D02*
X70977800Y-76176000D01*
X70937800Y-78256000D02*
X70937800Y-79281000D01*
X70937800Y-75151000D02*
X70937800Y-76176000D01*
X70897800Y-78256000D02*
X70897800Y-79311000D01*
X70897800Y-75121000D02*
X70897800Y-76176000D01*
X70857800Y-78256000D02*
X70857800Y-79338000D01*
X70857800Y-75094000D02*
X70857800Y-76176000D01*
X70817800Y-78256000D02*
X70817800Y-79365000D01*
X70817800Y-75067000D02*
X70817800Y-76176000D01*
X70777800Y-78256000D02*
X70777800Y-79391000D01*
X70777800Y-75041000D02*
X70777800Y-76176000D01*
X70737800Y-78256000D02*
X70737800Y-79416000D01*
X70737800Y-75016000D02*
X70737800Y-76176000D01*
X70697800Y-78256000D02*
X70697800Y-79440000D01*
X70697800Y-74992000D02*
X70697800Y-76176000D01*
X70657800Y-78256000D02*
X70657800Y-79463000D01*
X70657800Y-74969000D02*
X70657800Y-76176000D01*
X70617800Y-78256000D02*
X70617800Y-79484000D01*
X70617800Y-74948000D02*
X70617800Y-76176000D01*
X70577800Y-78256000D02*
X70577800Y-79506000D01*
X70577800Y-74926000D02*
X70577800Y-76176000D01*
X70537800Y-78256000D02*
X70537800Y-79526000D01*
X70537800Y-74906000D02*
X70537800Y-76176000D01*
X70497800Y-78256000D02*
X70497800Y-79545000D01*
X70497800Y-74887000D02*
X70497800Y-76176000D01*
X70457800Y-78256000D02*
X70457800Y-79564000D01*
X70457800Y-74868000D02*
X70457800Y-76176000D01*
X70417800Y-78256000D02*
X70417800Y-79581000D01*
X70417800Y-74851000D02*
X70417800Y-76176000D01*
X70377800Y-78256000D02*
X70377800Y-79598000D01*
X70377800Y-74834000D02*
X70377800Y-76176000D01*
X70337800Y-78256000D02*
X70337800Y-79614000D01*
X70337800Y-74818000D02*
X70337800Y-76176000D01*
X70297800Y-78256000D02*
X70297800Y-79630000D01*
X70297800Y-74802000D02*
X70297800Y-76176000D01*
X70257800Y-78256000D02*
X70257800Y-79644000D01*
X70257800Y-74788000D02*
X70257800Y-76176000D01*
X70217800Y-78256000D02*
X70217800Y-79658000D01*
X70217800Y-74774000D02*
X70217800Y-76176000D01*
X70177800Y-78256000D02*
X70177800Y-79671000D01*
X70177800Y-74761000D02*
X70177800Y-76176000D01*
X70137800Y-78256000D02*
X70137800Y-79684000D01*
X70137800Y-74748000D02*
X70137800Y-76176000D01*
X70097800Y-78256000D02*
X70097800Y-79696000D01*
X70097800Y-74736000D02*
X70097800Y-76176000D01*
X70056800Y-78256000D02*
X70056800Y-79707000D01*
X70056800Y-74725000D02*
X70056800Y-76176000D01*
X70016800Y-78256000D02*
X70016800Y-79717000D01*
X70016800Y-74715000D02*
X70016800Y-76176000D01*
X69976800Y-78256000D02*
X69976800Y-79727000D01*
X69976800Y-74705000D02*
X69976800Y-76176000D01*
X69936800Y-78256000D02*
X69936800Y-79736000D01*
X69936800Y-74696000D02*
X69936800Y-76176000D01*
X69896800Y-78256000D02*
X69896800Y-79744000D01*
X69896800Y-74688000D02*
X69896800Y-76176000D01*
X69856800Y-78256000D02*
X69856800Y-79752000D01*
X69856800Y-74680000D02*
X69856800Y-76176000D01*
X69816800Y-78256000D02*
X69816800Y-79759000D01*
X69816800Y-74673000D02*
X69816800Y-76176000D01*
X69776800Y-78256000D02*
X69776800Y-79766000D01*
X69776800Y-74666000D02*
X69776800Y-76176000D01*
X69736800Y-78256000D02*
X69736800Y-79772000D01*
X69736800Y-74660000D02*
X69736800Y-76176000D01*
X69696800Y-78256000D02*
X69696800Y-79777000D01*
X69696800Y-74655000D02*
X69696800Y-76176000D01*
X69656800Y-78256000D02*
X69656800Y-79781000D01*
X69656800Y-74651000D02*
X69656800Y-76176000D01*
X69616800Y-78256000D02*
X69616800Y-79785000D01*
X69616800Y-74647000D02*
X69616800Y-76176000D01*
X69576800Y-78256000D02*
X69576800Y-79789000D01*
X69576800Y-74643000D02*
X69576800Y-76176000D01*
X69536800Y-78256000D02*
X69536800Y-79792000D01*
X69536800Y-74640000D02*
X69536800Y-76176000D01*
X69496800Y-78256000D02*
X69496800Y-79794000D01*
X69496800Y-74638000D02*
X69496800Y-76176000D01*
X69456800Y-78256000D02*
X69456800Y-79795000D01*
X69456800Y-74637000D02*
X69456800Y-76176000D01*
X69416800Y-74636000D02*
X69416800Y-76176000D01*
X69416800Y-78256000D02*
X69416800Y-79796000D01*
X69376800Y-74636000D02*
X69376800Y-76176000D01*
X69376800Y-78256000D02*
X69376800Y-79796000D01*
X71996800Y-77216000D02*
G75*
G03*
X71996800Y-77216000I-2620000J0D01*
G01*
X69818400Y-59162800D02*
X72218400Y-59162800D01*
X72218400Y-59162800D02*
X72218400Y-54262800D01*
X72218400Y-54262800D02*
X69818400Y-54262800D01*
X69818400Y-54262800D02*
X69818400Y-59162800D01*
X91182000Y-79124800D02*
X80642000Y-79124800D01*
X91182000Y-73884800D02*
X80642000Y-73884800D01*
X91182000Y-79124800D02*
X91182000Y-73884800D01*
X80642000Y-79124800D02*
X80642000Y-73884800D01*
X107438000Y-79124800D02*
X96898000Y-79124800D01*
X107438000Y-73884800D02*
X96898000Y-73884800D01*
X107438000Y-79124800D02*
X107438000Y-73884800D01*
X96898000Y-79124800D02*
X96898000Y-73884800D01*
X119731600Y-79353400D02*
X109191600Y-79353400D01*
X119731600Y-74113400D02*
X109191600Y-74113400D01*
X119731600Y-79353400D02*
X119731600Y-74113400D01*
X109191600Y-79353400D02*
X109191600Y-74113400D01*
D11*
X82442000Y-62854000D02*
X82442000Y-62554000D01*
X82442000Y-62554000D02*
X82742000Y-62554000D01*
X89242000Y-62854000D02*
X89242000Y-62554000D01*
X89242000Y-62554000D02*
X88942000Y-62554000D01*
X89242000Y-72254000D02*
X89242000Y-72554000D01*
X89242000Y-72554000D02*
X88942000Y-72554000D01*
X82442000Y-72254000D02*
X82442000Y-72554000D01*
X82442000Y-72554000D02*
X82742000Y-72554000D01*
X98698000Y-62600000D02*
X98698000Y-62300000D01*
X98698000Y-62300000D02*
X98998000Y-62300000D01*
X105498000Y-62600000D02*
X105498000Y-62300000D01*
X105498000Y-62300000D02*
X105198000Y-62300000D01*
X105498000Y-72000000D02*
X105498000Y-72300000D01*
X105498000Y-72300000D02*
X105198000Y-72300000D01*
X98698000Y-72000000D02*
X98698000Y-72300000D01*
X98698000Y-72300000D02*
X98998000Y-72300000D01*
X113506200Y-62625400D02*
X113506200Y-62325400D01*
X113506200Y-62325400D02*
X113806200Y-62325400D01*
X120306200Y-62625400D02*
X120306200Y-62325400D01*
X120306200Y-62325400D02*
X120006200Y-62325400D01*
X120306200Y-72025400D02*
X120306200Y-72325400D01*
X120306200Y-72325400D02*
X120006200Y-72325400D01*
X113506200Y-72025400D02*
X113506200Y-72325400D01*
X113506200Y-72325400D02*
X113806200Y-72325400D01*
X116978000Y-92398800D02*
X117278000Y-92398800D01*
X117278000Y-92398800D02*
X117278000Y-92698800D01*
X116978000Y-99198800D02*
X117278000Y-99198800D01*
X117278000Y-99198800D02*
X117278000Y-98898800D01*
X107578000Y-99198800D02*
X107278000Y-99198800D01*
X107278000Y-99198800D02*
X107278000Y-98898800D01*
X107578000Y-92398800D02*
X107278000Y-92398800D01*
X107278000Y-92398800D02*
X107278000Y-92698800D01*
X90697000Y-85510800D02*
X90697000Y-85210800D01*
X90697000Y-85210800D02*
X90997000Y-85210800D01*
X97497000Y-85510800D02*
X97497000Y-85210800D01*
X97497000Y-85210800D02*
X97197000Y-85210800D01*
X97497000Y-94910800D02*
X97497000Y-95210800D01*
X97497000Y-95210800D02*
X97197000Y-95210800D01*
X90697000Y-94910800D02*
X90697000Y-95210800D01*
X90697000Y-95210800D02*
X90997000Y-95210800D01*
X75104000Y-86480800D02*
X74854000Y-86480800D01*
X75484000Y-86480800D02*
X75114000Y-86480800D01*
X76784000Y-85480800D02*
X76484000Y-85480800D01*
X76484000Y-85480800D02*
X75484000Y-86480800D01*
X82384000Y-85980800D02*
X82384000Y-85580800D01*
X82384000Y-85580800D02*
X81984000Y-85580800D01*
X81884000Y-105080800D02*
X82384000Y-105080800D01*
X82384000Y-105080800D02*
X82384000Y-104680800D01*
X75584000Y-104680800D02*
X75584000Y-105080800D01*
X75584000Y-105080800D02*
X75984000Y-105080800D01*
D10*
X87458400Y-54222800D02*
X85058400Y-54222800D01*
X85058400Y-54222800D02*
X85058400Y-59122800D01*
X85058400Y-59122800D02*
X87458400Y-59122800D01*
X87458400Y-59122800D02*
X87458400Y-54222800D01*
X92678400Y-59162800D02*
X95078400Y-59162800D01*
X95078400Y-59162800D02*
X95078400Y-54262800D01*
X95078400Y-54262800D02*
X92678400Y-54262800D01*
X92678400Y-54262800D02*
X92678400Y-59162800D01*
X100298400Y-59162800D02*
X102698400Y-59162800D01*
X102698400Y-59162800D02*
X102698400Y-54262800D01*
X102698400Y-54262800D02*
X100298400Y-54262800D01*
X100298400Y-54262800D02*
X100298400Y-59162800D01*
X77438400Y-59162800D02*
X79838400Y-59162800D01*
X79838400Y-59162800D02*
X79838400Y-54262800D01*
X79838400Y-54262800D02*
X77438400Y-54262800D01*
X77438400Y-54262800D02*
X77438400Y-59162800D01*
X67151400Y-84448800D02*
X67151400Y-86848800D01*
X67151400Y-86848800D02*
X72051400Y-86848800D01*
X72051400Y-86848800D02*
X72051400Y-84448800D01*
X72051400Y-84448800D02*
X67151400Y-84448800D01*
X67634000Y-104235400D02*
X67634000Y-106635400D01*
X67634000Y-106635400D02*
X72534000Y-106635400D01*
X72534000Y-106635400D02*
X72534000Y-104235400D01*
X72534000Y-104235400D02*
X67634000Y-104235400D01*
X99511000Y-106279800D02*
X101911000Y-106279800D01*
X101911000Y-106279800D02*
X101911000Y-101379800D01*
X101911000Y-101379800D02*
X99511000Y-101379800D01*
X99511000Y-101379800D02*
X99511000Y-106279800D01*
X91510000Y-106152800D02*
X93910000Y-106152800D01*
X93910000Y-106152800D02*
X93910000Y-101252800D01*
X93910000Y-101252800D02*
X91510000Y-101252800D01*
X91510000Y-101252800D02*
X91510000Y-106152800D01*
X101847500Y-108007300D02*
X99447500Y-108007300D01*
X99447500Y-108007300D02*
X99447500Y-112907300D01*
X99447500Y-112907300D02*
X101847500Y-112907300D01*
X101847500Y-112907300D02*
X101847500Y-108007300D01*
X76955500Y-108007300D02*
X74555500Y-108007300D01*
X74555500Y-108007300D02*
X74555500Y-112907300D01*
X74555500Y-112907300D02*
X76955500Y-112907300D01*
X76955500Y-112907300D02*
X76955500Y-108007300D01*
X89655500Y-108007300D02*
X87255500Y-108007300D01*
X87255500Y-108007300D02*
X87255500Y-112907300D01*
X87255500Y-112907300D02*
X89655500Y-112907300D01*
X89655500Y-112907300D02*
X89655500Y-108007300D01*
X68383300Y-62630200D02*
X68383300Y-65030200D01*
X68383300Y-65030200D02*
X73283300Y-65030200D01*
X73283300Y-65030200D02*
X73283300Y-62630200D01*
X73283300Y-62630200D02*
X68383300Y-62630200D01*
X110458400Y-59162800D02*
X112858400Y-59162800D01*
X112858400Y-59162800D02*
X112858400Y-54262800D01*
X112858400Y-54262800D02*
X110458400Y-54262800D01*
X110458400Y-54262800D02*
X110458400Y-59162800D01*
X115375000Y-111927800D02*
X105605000Y-111927800D01*
X115375000Y-106857800D02*
X105605000Y-106857800D01*
X115375000Y-111927800D02*
X115375000Y-106857800D01*
X105605000Y-111927800D02*
X105605000Y-106857800D01*
X71363064Y-101115800D02*
X70908936Y-101115800D01*
X71363064Y-99645800D02*
X70908936Y-99645800D01*
X72871000Y-96613736D02*
X72871000Y-97067864D01*
X71401000Y-96613736D02*
X71401000Y-97067864D01*
X111733000Y-88231736D02*
X111733000Y-88685864D01*
X110263000Y-88231736D02*
X110263000Y-88685864D01*
X91101936Y-81611800D02*
X91556064Y-81611800D01*
X91101936Y-83081800D02*
X91556064Y-83081800D01*
X103240000Y-90247736D02*
X103240000Y-90701864D01*
X101770000Y-90247736D02*
X101770000Y-90701864D01*
X74449000Y-79763864D02*
X74449000Y-79309736D01*
X75919000Y-79763864D02*
X75919000Y-79309736D01*
X102192064Y-95273800D02*
X101737936Y-95273800D01*
X102192064Y-93803800D02*
X101737936Y-93803800D01*
X78221064Y-64489000D02*
X77766936Y-64489000D01*
X78221064Y-63019000D02*
X77766936Y-63019000D01*
D11*
X111370000Y-103174800D02*
X111370000Y-102574800D01*
X111370000Y-103174800D02*
X111370000Y-103774800D01*
X111370000Y-103174800D02*
X112070000Y-103174800D01*
X108570000Y-103174800D02*
X110370000Y-103174800D01*
X110370000Y-103874800D02*
X110370000Y-102474800D01*
X110370000Y-102474800D02*
X111370000Y-103174800D01*
X111370000Y-103174800D02*
X110370000Y-103874800D01*
X112070000Y-103174800D02*
X112870000Y-103174800D01*
X106870000Y-103174800D02*
X108570000Y-103174800D01*
X112870000Y-103174800D02*
X112870000Y-102374800D01*
X112870000Y-102374800D02*
X108570000Y-102374800D01*
X108570000Y-102374800D02*
X108570000Y-103174800D01*
X114270000Y-103174800D02*
X112870000Y-103174800D01*
X112870000Y-103174800D02*
X112870000Y-103974800D01*
X112870000Y-103974800D02*
X108570000Y-103974800D01*
X108570000Y-103974800D02*
X108570000Y-103174800D01*
X114367400Y-82194400D02*
X114367400Y-82794400D01*
X114367400Y-82194400D02*
X114367400Y-81594400D01*
X114367400Y-82194400D02*
X113667400Y-82194400D01*
X117167400Y-82194400D02*
X115367400Y-82194400D01*
X115367400Y-81494400D02*
X115367400Y-82894400D01*
X115367400Y-82894400D02*
X114367400Y-82194400D01*
X114367400Y-82194400D02*
X115367400Y-81494400D01*
X113667400Y-82194400D02*
X112867400Y-82194400D01*
X118867400Y-82194400D02*
X117167400Y-82194400D01*
X112867400Y-82194400D02*
X112867400Y-82994400D01*
X112867400Y-82994400D02*
X117167400Y-82994400D01*
X117167400Y-82994400D02*
X117167400Y-82194400D01*
X111467400Y-82194400D02*
X112867400Y-82194400D01*
X112867400Y-82194400D02*
X112867400Y-81394400D01*
X112867400Y-81394400D02*
X117167400Y-81394400D01*
X117167400Y-81394400D02*
X117167400Y-82194400D01*
D10*
X108050000Y-88414048D02*
X108050000Y-88936552D01*
X106580000Y-88414048D02*
X106580000Y-88936552D01*
X77441248Y-66829000D02*
X77963752Y-66829000D01*
X77441248Y-68299000D02*
X77963752Y-68299000D01*
X88871248Y-95962800D02*
X89393752Y-95962800D01*
X88871248Y-97432800D02*
X89393752Y-97432800D01*
X94459248Y-62765000D02*
X94981752Y-62765000D01*
X94459248Y-64235000D02*
X94981752Y-64235000D01*
X86460000Y-91462048D02*
X86460000Y-91984552D01*
X84990000Y-91462048D02*
X84990000Y-91984552D01*
X99553752Y-83462800D02*
X99031248Y-83462800D01*
X99553752Y-81992800D02*
X99031248Y-81992800D01*
X71867752Y-93495800D02*
X71345248Y-93495800D01*
X71867752Y-92025800D02*
X71345248Y-92025800D01*
X78217752Y-72363000D02*
X77695248Y-72363000D01*
X78217752Y-70893000D02*
X77695248Y-70893000D01*
X94981752Y-71855000D02*
X94459248Y-71855000D01*
X94981752Y-70385000D02*
X94459248Y-70385000D01*
X118899000Y-100917552D02*
X118899000Y-100395048D01*
X120369000Y-100917552D02*
X120369000Y-100395048D01*
X109637552Y-64235000D02*
X109115048Y-64235000D01*
X109637552Y-62765000D02*
X109115048Y-62765000D01*
X109115048Y-70385000D02*
X109637552Y-70385000D01*
X109115048Y-71855000D02*
X109637552Y-71855000D01*
X87349000Y-102554048D02*
X87349000Y-103076552D01*
X85879000Y-102554048D02*
X85879000Y-103076552D01*
D12*
X118460733Y-54773142D02*
X118413114Y-54820761D01*
X118270257Y-54868380D01*
X118175019Y-54868380D01*
X118032161Y-54820761D01*
X117936923Y-54725523D01*
X117889304Y-54630285D01*
X117841685Y-54439809D01*
X117841685Y-54296952D01*
X117889304Y-54106476D01*
X117936923Y-54011238D01*
X118032161Y-53916000D01*
X118175019Y-53868380D01*
X118270257Y-53868380D01*
X118413114Y-53916000D01*
X118460733Y-53963619D01*
X118936923Y-54868380D02*
X119127400Y-54868380D01*
X119222638Y-54820761D01*
X119270257Y-54773142D01*
X119365495Y-54630285D01*
X119413114Y-54439809D01*
X119413114Y-54058857D01*
X119365495Y-53963619D01*
X119317876Y-53916000D01*
X119222638Y-53868380D01*
X119032161Y-53868380D01*
X118936923Y-53916000D01*
X118889304Y-53963619D01*
X118841685Y-54058857D01*
X118841685Y-54296952D01*
X118889304Y-54392190D01*
X118936923Y-54439809D01*
X119032161Y-54487428D01*
X119222638Y-54487428D01*
X119317876Y-54439809D01*
X119365495Y-54392190D01*
X119413114Y-54296952D01*
X115130342Y-55316380D02*
X114558914Y-55316380D01*
X114844628Y-55316380D02*
X114844628Y-54316380D01*
X114749390Y-54459238D01*
X114654152Y-54554476D01*
X114558914Y-54602095D01*
X115749390Y-54316380D02*
X115844628Y-54316380D01*
X115939866Y-54364000D01*
X115987485Y-54411619D01*
X116035104Y-54506857D01*
X116082723Y-54697333D01*
X116082723Y-54935428D01*
X116035104Y-55125904D01*
X115987485Y-55221142D01*
X115939866Y-55268761D01*
X115844628Y-55316380D01*
X115749390Y-55316380D01*
X115654152Y-55268761D01*
X115606533Y-55221142D01*
X115558914Y-55125904D01*
X115511295Y-54935428D01*
X115511295Y-54697333D01*
X115558914Y-54506857D01*
X115606533Y-54411619D01*
X115654152Y-54364000D01*
X115749390Y-54316380D01*
X116939866Y-54649714D02*
X116939866Y-55316380D01*
X116511295Y-54649714D02*
X116511295Y-55173523D01*
X116558914Y-55268761D01*
X116654152Y-55316380D01*
X116797009Y-55316380D01*
X116892247Y-55268761D01*
X116939866Y-55221142D01*
X69210133Y-73823142D02*
X69162514Y-73870761D01*
X69019657Y-73918380D01*
X68924419Y-73918380D01*
X68781561Y-73870761D01*
X68686323Y-73775523D01*
X68638704Y-73680285D01*
X68591085Y-73489809D01*
X68591085Y-73346952D01*
X68638704Y-73156476D01*
X68686323Y-73061238D01*
X68781561Y-72966000D01*
X68924419Y-72918380D01*
X69019657Y-72918380D01*
X69162514Y-72966000D01*
X69210133Y-73013619D01*
X69781561Y-73346952D02*
X69686323Y-73299333D01*
X69638704Y-73251714D01*
X69591085Y-73156476D01*
X69591085Y-73108857D01*
X69638704Y-73013619D01*
X69686323Y-72966000D01*
X69781561Y-72918380D01*
X69972038Y-72918380D01*
X70067276Y-72966000D01*
X70114895Y-73013619D01*
X70162514Y-73108857D01*
X70162514Y-73156476D01*
X70114895Y-73251714D01*
X70067276Y-73299333D01*
X69972038Y-73346952D01*
X69781561Y-73346952D01*
X69686323Y-73394571D01*
X69638704Y-73442190D01*
X69591085Y-73537428D01*
X69591085Y-73727904D01*
X69638704Y-73823142D01*
X69686323Y-73870761D01*
X69781561Y-73918380D01*
X69972038Y-73918380D01*
X70067276Y-73870761D01*
X70114895Y-73823142D01*
X70162514Y-73727904D01*
X70162514Y-73537428D01*
X70114895Y-73442190D01*
X70067276Y-73394571D01*
X69972038Y-73346952D01*
X69099442Y-81478380D02*
X68528014Y-81478380D01*
X68813728Y-81478380D02*
X68813728Y-80478380D01*
X68718490Y-80621238D01*
X68623252Y-80716476D01*
X68528014Y-80764095D01*
X69718490Y-80478380D02*
X69813728Y-80478380D01*
X69908966Y-80526000D01*
X69956585Y-80573619D01*
X70004204Y-80668857D01*
X70051823Y-80859333D01*
X70051823Y-81097428D01*
X70004204Y-81287904D01*
X69956585Y-81383142D01*
X69908966Y-81430761D01*
X69813728Y-81478380D01*
X69718490Y-81478380D01*
X69623252Y-81430761D01*
X69575633Y-81383142D01*
X69528014Y-81287904D01*
X69480395Y-81097428D01*
X69480395Y-80859333D01*
X69528014Y-80668857D01*
X69575633Y-80573619D01*
X69623252Y-80526000D01*
X69718490Y-80478380D01*
X70908966Y-80811714D02*
X70908966Y-81478380D01*
X70480395Y-80811714D02*
X70480395Y-81335523D01*
X70528014Y-81430761D01*
X70623252Y-81478380D01*
X70766109Y-81478380D01*
X70861347Y-81430761D01*
X70908966Y-81383142D01*
X72570780Y-58600895D02*
X72570780Y-58029466D01*
X73570780Y-58315180D02*
X72570780Y-58315180D01*
X73570780Y-57696133D02*
X72570780Y-57696133D01*
X72570780Y-57315180D01*
X72618400Y-57219942D01*
X72666019Y-57172323D01*
X72761257Y-57124704D01*
X72904114Y-57124704D01*
X72999352Y-57172323D01*
X73046971Y-57219942D01*
X73094590Y-57315180D01*
X73094590Y-57696133D01*
X73570780Y-56172323D02*
X73570780Y-56743752D01*
X73570780Y-56458038D02*
X72570780Y-56458038D01*
X72713638Y-56553276D01*
X72808876Y-56648514D01*
X72856495Y-56743752D01*
X72666019Y-55791371D02*
X72618400Y-55743752D01*
X72570780Y-55648514D01*
X72570780Y-55410419D01*
X72618400Y-55315180D01*
X72666019Y-55267561D01*
X72761257Y-55219942D01*
X72856495Y-55219942D01*
X72999352Y-55267561D01*
X73570780Y-55838990D01*
X73570780Y-55219942D01*
X68770780Y-59891371D02*
X69770780Y-59558038D01*
X68770780Y-59224704D01*
X69723161Y-58462800D02*
X69770780Y-58558038D01*
X69770780Y-58748514D01*
X69723161Y-58843752D01*
X69675542Y-58891371D01*
X69580304Y-58938990D01*
X69294590Y-58938990D01*
X69199352Y-58891371D01*
X69151733Y-58843752D01*
X69104114Y-58748514D01*
X69104114Y-58558038D01*
X69151733Y-58462800D01*
X69770780Y-57891371D02*
X69723161Y-57986609D01*
X69627923Y-58034228D01*
X68770780Y-58034228D01*
X69770780Y-57367561D02*
X69723161Y-57462800D01*
X69675542Y-57510419D01*
X69580304Y-57558038D01*
X69294590Y-57558038D01*
X69199352Y-57510419D01*
X69151733Y-57462800D01*
X69104114Y-57367561D01*
X69104114Y-57224704D01*
X69151733Y-57129466D01*
X69199352Y-57081847D01*
X69294590Y-57034228D01*
X69580304Y-57034228D01*
X69675542Y-57081847D01*
X69723161Y-57129466D01*
X69770780Y-57224704D01*
X69770780Y-57367561D01*
X69723161Y-56177085D02*
X69770780Y-56272323D01*
X69770780Y-56462800D01*
X69723161Y-56558038D01*
X69675542Y-56605657D01*
X69580304Y-56653276D01*
X69294590Y-56653276D01*
X69199352Y-56605657D01*
X69151733Y-56558038D01*
X69104114Y-56462800D01*
X69104114Y-56272323D01*
X69151733Y-56177085D01*
X69770780Y-55748514D02*
X68770780Y-55748514D01*
X69389828Y-55653276D02*
X69770780Y-55367561D01*
X69104114Y-55367561D02*
X69485066Y-55748514D01*
X69389828Y-54938990D02*
X69389828Y-54177085D01*
X85269142Y-80611942D02*
X85221523Y-80659561D01*
X85078666Y-80707180D01*
X84983428Y-80707180D01*
X84840571Y-80659561D01*
X84745333Y-80564323D01*
X84697714Y-80469085D01*
X84650095Y-80278609D01*
X84650095Y-80135752D01*
X84697714Y-79945276D01*
X84745333Y-79850038D01*
X84840571Y-79754800D01*
X84983428Y-79707180D01*
X85078666Y-79707180D01*
X85221523Y-79754800D01*
X85269142Y-79802419D01*
X86221523Y-80707180D02*
X85650095Y-80707180D01*
X85935809Y-80707180D02*
X85935809Y-79707180D01*
X85840571Y-79850038D01*
X85745333Y-79945276D01*
X85650095Y-79992895D01*
X86792952Y-80135752D02*
X86697714Y-80088133D01*
X86650095Y-80040514D01*
X86602476Y-79945276D01*
X86602476Y-79897657D01*
X86650095Y-79802419D01*
X86697714Y-79754800D01*
X86792952Y-79707180D01*
X86983428Y-79707180D01*
X87078666Y-79754800D01*
X87126285Y-79802419D01*
X87173904Y-79897657D01*
X87173904Y-79945276D01*
X87126285Y-80040514D01*
X87078666Y-80088133D01*
X86983428Y-80135752D01*
X86792952Y-80135752D01*
X86697714Y-80183371D01*
X86650095Y-80230990D01*
X86602476Y-80326228D01*
X86602476Y-80516704D01*
X86650095Y-80611942D01*
X86697714Y-80659561D01*
X86792952Y-80707180D01*
X86983428Y-80707180D01*
X87078666Y-80659561D01*
X87126285Y-80611942D01*
X87173904Y-80516704D01*
X87173904Y-80326228D01*
X87126285Y-80230990D01*
X87078666Y-80183371D01*
X86983428Y-80135752D01*
X88701714Y-79640180D02*
X88796952Y-79640180D01*
X88892190Y-79687800D01*
X88939809Y-79735419D01*
X88987428Y-79830657D01*
X89035047Y-80021133D01*
X89035047Y-80259228D01*
X88987428Y-80449704D01*
X88939809Y-80544942D01*
X88892190Y-80592561D01*
X88796952Y-80640180D01*
X88701714Y-80640180D01*
X88606476Y-80592561D01*
X88558857Y-80544942D01*
X88511238Y-80449704D01*
X88463619Y-80259228D01*
X88463619Y-80021133D01*
X88511238Y-79830657D01*
X88558857Y-79735419D01*
X88606476Y-79687800D01*
X88701714Y-79640180D01*
X89463619Y-80544942D02*
X89511238Y-80592561D01*
X89463619Y-80640180D01*
X89416000Y-80592561D01*
X89463619Y-80544942D01*
X89463619Y-80640180D01*
X90463619Y-80640180D02*
X89892190Y-80640180D01*
X90177904Y-80640180D02*
X90177904Y-79640180D01*
X90082666Y-79783038D01*
X89987428Y-79878276D01*
X89892190Y-79925895D01*
X91320761Y-79973514D02*
X91320761Y-80640180D01*
X90892190Y-79973514D02*
X90892190Y-80497323D01*
X90939809Y-80592561D01*
X91035047Y-80640180D01*
X91177904Y-80640180D01*
X91273142Y-80592561D01*
X91320761Y-80544942D01*
X101525142Y-80611942D02*
X101477523Y-80659561D01*
X101334666Y-80707180D01*
X101239428Y-80707180D01*
X101096571Y-80659561D01*
X101001333Y-80564323D01*
X100953714Y-80469085D01*
X100906095Y-80278609D01*
X100906095Y-80135752D01*
X100953714Y-79945276D01*
X101001333Y-79850038D01*
X101096571Y-79754800D01*
X101239428Y-79707180D01*
X101334666Y-79707180D01*
X101477523Y-79754800D01*
X101525142Y-79802419D01*
X102477523Y-80707180D02*
X101906095Y-80707180D01*
X102191809Y-80707180D02*
X102191809Y-79707180D01*
X102096571Y-79850038D01*
X102001333Y-79945276D01*
X101906095Y-79992895D01*
X102810857Y-79707180D02*
X103477523Y-79707180D01*
X103048952Y-80707180D01*
X104957714Y-79640180D02*
X105052952Y-79640180D01*
X105148190Y-79687800D01*
X105195809Y-79735419D01*
X105243428Y-79830657D01*
X105291047Y-80021133D01*
X105291047Y-80259228D01*
X105243428Y-80449704D01*
X105195809Y-80544942D01*
X105148190Y-80592561D01*
X105052952Y-80640180D01*
X104957714Y-80640180D01*
X104862476Y-80592561D01*
X104814857Y-80544942D01*
X104767238Y-80449704D01*
X104719619Y-80259228D01*
X104719619Y-80021133D01*
X104767238Y-79830657D01*
X104814857Y-79735419D01*
X104862476Y-79687800D01*
X104957714Y-79640180D01*
X105719619Y-80544942D02*
X105767238Y-80592561D01*
X105719619Y-80640180D01*
X105672000Y-80592561D01*
X105719619Y-80544942D01*
X105719619Y-80640180D01*
X106719619Y-80640180D02*
X106148190Y-80640180D01*
X106433904Y-80640180D02*
X106433904Y-79640180D01*
X106338666Y-79783038D01*
X106243428Y-79878276D01*
X106148190Y-79925895D01*
X107576761Y-79973514D02*
X107576761Y-80640180D01*
X107148190Y-79973514D02*
X107148190Y-80497323D01*
X107195809Y-80592561D01*
X107291047Y-80640180D01*
X107433904Y-80640180D01*
X107529142Y-80592561D01*
X107576761Y-80544942D01*
X113818742Y-80840542D02*
X113771123Y-80888161D01*
X113628266Y-80935780D01*
X113533028Y-80935780D01*
X113390171Y-80888161D01*
X113294933Y-80792923D01*
X113247314Y-80697685D01*
X113199695Y-80507209D01*
X113199695Y-80364352D01*
X113247314Y-80173876D01*
X113294933Y-80078638D01*
X113390171Y-79983400D01*
X113533028Y-79935780D01*
X113628266Y-79935780D01*
X113771123Y-79983400D01*
X113818742Y-80031019D01*
X114771123Y-80935780D02*
X114199695Y-80935780D01*
X114485409Y-80935780D02*
X114485409Y-79935780D01*
X114390171Y-80078638D01*
X114294933Y-80173876D01*
X114199695Y-80221495D01*
X115628266Y-79935780D02*
X115437790Y-79935780D01*
X115342552Y-79983400D01*
X115294933Y-80031019D01*
X115199695Y-80173876D01*
X115152076Y-80364352D01*
X115152076Y-80745304D01*
X115199695Y-80840542D01*
X115247314Y-80888161D01*
X115342552Y-80935780D01*
X115533028Y-80935780D01*
X115628266Y-80888161D01*
X115675885Y-80840542D01*
X115723504Y-80745304D01*
X115723504Y-80507209D01*
X115675885Y-80411971D01*
X115628266Y-80364352D01*
X115533028Y-80316733D01*
X115342552Y-80316733D01*
X115247314Y-80364352D01*
X115199695Y-80411971D01*
X115152076Y-80507209D01*
X117505314Y-79868780D02*
X117600552Y-79868780D01*
X117695790Y-79916400D01*
X117743409Y-79964019D01*
X117791028Y-80059257D01*
X117838647Y-80249733D01*
X117838647Y-80487828D01*
X117791028Y-80678304D01*
X117743409Y-80773542D01*
X117695790Y-80821161D01*
X117600552Y-80868780D01*
X117505314Y-80868780D01*
X117410076Y-80821161D01*
X117362457Y-80773542D01*
X117314838Y-80678304D01*
X117267219Y-80487828D01*
X117267219Y-80249733D01*
X117314838Y-80059257D01*
X117362457Y-79964019D01*
X117410076Y-79916400D01*
X117505314Y-79868780D01*
X118267219Y-80773542D02*
X118314838Y-80821161D01*
X118267219Y-80868780D01*
X118219600Y-80821161D01*
X118267219Y-80773542D01*
X118267219Y-80868780D01*
X119267219Y-80868780D02*
X118695790Y-80868780D01*
X118981504Y-80868780D02*
X118981504Y-79868780D01*
X118886266Y-80011638D01*
X118791028Y-80106876D01*
X118695790Y-80154495D01*
X120124361Y-80202114D02*
X120124361Y-80868780D01*
X119695790Y-80202114D02*
X119695790Y-80725923D01*
X119743409Y-80821161D01*
X119838647Y-80868780D01*
X119981504Y-80868780D01*
X120076742Y-80821161D01*
X120124361Y-80773542D01*
X86233095Y-60920380D02*
X86233095Y-61729904D01*
X86280714Y-61825142D01*
X86328333Y-61872761D01*
X86423571Y-61920380D01*
X86614047Y-61920380D01*
X86709285Y-61872761D01*
X86756904Y-61825142D01*
X86804523Y-61729904D01*
X86804523Y-60920380D01*
X87709285Y-60920380D02*
X87518809Y-60920380D01*
X87423571Y-60968000D01*
X87375952Y-61015619D01*
X87280714Y-61158476D01*
X87233095Y-61348952D01*
X87233095Y-61729904D01*
X87280714Y-61825142D01*
X87328333Y-61872761D01*
X87423571Y-61920380D01*
X87614047Y-61920380D01*
X87709285Y-61872761D01*
X87756904Y-61825142D01*
X87804523Y-61729904D01*
X87804523Y-61491809D01*
X87756904Y-61396571D01*
X87709285Y-61348952D01*
X87614047Y-61301333D01*
X87423571Y-61301333D01*
X87328333Y-61348952D01*
X87280714Y-61396571D01*
X87233095Y-61491809D01*
X102489095Y-60666380D02*
X102489095Y-61475904D01*
X102536714Y-61571142D01*
X102584333Y-61618761D01*
X102679571Y-61666380D01*
X102870047Y-61666380D01*
X102965285Y-61618761D01*
X103012904Y-61571142D01*
X103060523Y-61475904D01*
X103060523Y-60666380D01*
X104012904Y-60666380D02*
X103536714Y-60666380D01*
X103489095Y-61142571D01*
X103536714Y-61094952D01*
X103631952Y-61047333D01*
X103870047Y-61047333D01*
X103965285Y-61094952D01*
X104012904Y-61142571D01*
X104060523Y-61237809D01*
X104060523Y-61475904D01*
X104012904Y-61571142D01*
X103965285Y-61618761D01*
X103870047Y-61666380D01*
X103631952Y-61666380D01*
X103536714Y-61618761D01*
X103489095Y-61571142D01*
X114401695Y-60844180D02*
X114401695Y-61653704D01*
X114449314Y-61748942D01*
X114496933Y-61796561D01*
X114592171Y-61844180D01*
X114782647Y-61844180D01*
X114877885Y-61796561D01*
X114925504Y-61748942D01*
X114973123Y-61653704D01*
X114973123Y-60844180D01*
X115877885Y-61177514D02*
X115877885Y-61844180D01*
X115639790Y-60796561D02*
X115401695Y-61510847D01*
X116020742Y-61510847D01*
X118197380Y-95173704D02*
X119006904Y-95173704D01*
X119102142Y-95126085D01*
X119149761Y-95078466D01*
X119197380Y-94983228D01*
X119197380Y-94792752D01*
X119149761Y-94697514D01*
X119102142Y-94649895D01*
X119006904Y-94602276D01*
X118197380Y-94602276D01*
X118197380Y-94221323D02*
X118197380Y-93602276D01*
X118578333Y-93935609D01*
X118578333Y-93792752D01*
X118625952Y-93697514D01*
X118673571Y-93649895D01*
X118768809Y-93602276D01*
X119006904Y-93602276D01*
X119102142Y-93649895D01*
X119149761Y-93697514D01*
X119197380Y-93792752D01*
X119197380Y-94078466D01*
X119149761Y-94173704D01*
X119102142Y-94221323D01*
X105497380Y-98795942D02*
X105497380Y-98224514D01*
X106497380Y-98510228D02*
X105497380Y-98510228D01*
X106497380Y-97414990D02*
X106497380Y-97891180D01*
X105497380Y-97891180D01*
X105497380Y-96891180D02*
X105497380Y-96795942D01*
X105545000Y-96700704D01*
X105592619Y-96653085D01*
X105687857Y-96605466D01*
X105878333Y-96557847D01*
X106116428Y-96557847D01*
X106306904Y-96605466D01*
X106402142Y-96653085D01*
X106449761Y-96700704D01*
X106497380Y-96795942D01*
X106497380Y-96891180D01*
X106449761Y-96986419D01*
X106402142Y-97034038D01*
X106306904Y-97081657D01*
X106116428Y-97129276D01*
X105878333Y-97129276D01*
X105687857Y-97081657D01*
X105592619Y-97034038D01*
X105545000Y-96986419D01*
X105497380Y-96891180D01*
X105925952Y-95986419D02*
X105878333Y-96081657D01*
X105830714Y-96129276D01*
X105735476Y-96176895D01*
X105687857Y-96176895D01*
X105592619Y-96129276D01*
X105545000Y-96081657D01*
X105497380Y-95986419D01*
X105497380Y-95795942D01*
X105545000Y-95700704D01*
X105592619Y-95653085D01*
X105687857Y-95605466D01*
X105735476Y-95605466D01*
X105830714Y-95653085D01*
X105878333Y-95700704D01*
X105925952Y-95795942D01*
X105925952Y-95986419D01*
X105973571Y-96081657D01*
X106021190Y-96129276D01*
X106116428Y-96176895D01*
X106306904Y-96176895D01*
X106402142Y-96129276D01*
X106449761Y-96081657D01*
X106497380Y-95986419D01*
X106497380Y-95795942D01*
X106449761Y-95700704D01*
X106402142Y-95653085D01*
X106306904Y-95605466D01*
X106116428Y-95605466D01*
X106021190Y-95653085D01*
X105973571Y-95700704D01*
X105925952Y-95795942D01*
X105592619Y-95224514D02*
X105545000Y-95176895D01*
X105497380Y-95081657D01*
X105497380Y-94843561D01*
X105545000Y-94748323D01*
X105592619Y-94700704D01*
X105687857Y-94653085D01*
X105783095Y-94653085D01*
X105925952Y-94700704D01*
X106497380Y-95272133D01*
X106497380Y-94653085D01*
X106497380Y-94224514D02*
X105497380Y-94224514D01*
X106497380Y-93748323D02*
X105497380Y-93748323D01*
X105497380Y-93367371D01*
X105545000Y-93272133D01*
X105592619Y-93224514D01*
X105687857Y-93176895D01*
X105830714Y-93176895D01*
X105925952Y-93224514D01*
X105973571Y-93272133D01*
X106021190Y-93367371D01*
X106021190Y-93748323D01*
X93585095Y-83343180D02*
X93585095Y-84152704D01*
X93632714Y-84247942D01*
X93680333Y-84295561D01*
X93775571Y-84343180D01*
X93966047Y-84343180D01*
X94061285Y-84295561D01*
X94108904Y-84247942D01*
X94156523Y-84152704D01*
X94156523Y-83343180D01*
X94585095Y-83438419D02*
X94632714Y-83390800D01*
X94727952Y-83343180D01*
X94966047Y-83343180D01*
X95061285Y-83390800D01*
X95108904Y-83438419D01*
X95156523Y-83533657D01*
X95156523Y-83628895D01*
X95108904Y-83771752D01*
X94537476Y-84343180D01*
X95156523Y-84343180D01*
X93027857Y-96150180D02*
X93599285Y-96150180D01*
X93313571Y-97150180D02*
X93313571Y-96150180D01*
X94408809Y-97150180D02*
X93932619Y-97150180D01*
X93932619Y-96150180D01*
X94932619Y-96150180D02*
X95027857Y-96150180D01*
X95123095Y-96197800D01*
X95170714Y-96245419D01*
X95218333Y-96340657D01*
X95265952Y-96531133D01*
X95265952Y-96769228D01*
X95218333Y-96959704D01*
X95170714Y-97054942D01*
X95123095Y-97102561D01*
X95027857Y-97150180D01*
X94932619Y-97150180D01*
X94837380Y-97102561D01*
X94789761Y-97054942D01*
X94742142Y-96959704D01*
X94694523Y-96769228D01*
X94694523Y-96531133D01*
X94742142Y-96340657D01*
X94789761Y-96245419D01*
X94837380Y-96197800D01*
X94932619Y-96150180D01*
X95837380Y-96578752D02*
X95742142Y-96531133D01*
X95694523Y-96483514D01*
X95646904Y-96388276D01*
X95646904Y-96340657D01*
X95694523Y-96245419D01*
X95742142Y-96197800D01*
X95837380Y-96150180D01*
X96027857Y-96150180D01*
X96123095Y-96197800D01*
X96170714Y-96245419D01*
X96218333Y-96340657D01*
X96218333Y-96388276D01*
X96170714Y-96483514D01*
X96123095Y-96531133D01*
X96027857Y-96578752D01*
X95837380Y-96578752D01*
X95742142Y-96626371D01*
X95694523Y-96673990D01*
X95646904Y-96769228D01*
X95646904Y-96959704D01*
X95694523Y-97054942D01*
X95742142Y-97102561D01*
X95837380Y-97150180D01*
X96027857Y-97150180D01*
X96123095Y-97102561D01*
X96170714Y-97054942D01*
X96218333Y-96959704D01*
X96218333Y-96769228D01*
X96170714Y-96673990D01*
X96123095Y-96626371D01*
X96027857Y-96578752D01*
X96599285Y-96245419D02*
X96646904Y-96197800D01*
X96742142Y-96150180D01*
X96980238Y-96150180D01*
X97075476Y-96197800D01*
X97123095Y-96245419D01*
X97170714Y-96340657D01*
X97170714Y-96435895D01*
X97123095Y-96578752D01*
X96551666Y-97150180D01*
X97170714Y-97150180D01*
X97599285Y-97150180D02*
X97599285Y-96150180D01*
X98075476Y-97150180D02*
X98075476Y-96150180D01*
X98456428Y-96150180D01*
X98551666Y-96197800D01*
X98599285Y-96245419D01*
X98646904Y-96340657D01*
X98646904Y-96483514D01*
X98599285Y-96578752D01*
X98551666Y-96626371D01*
X98456428Y-96673990D01*
X98075476Y-96673990D01*
X78362095Y-83933180D02*
X78362095Y-84742704D01*
X78409714Y-84837942D01*
X78457333Y-84885561D01*
X78552571Y-84933180D01*
X78743047Y-84933180D01*
X78838285Y-84885561D01*
X78885904Y-84837942D01*
X78933523Y-84742704D01*
X78933523Y-83933180D01*
X79933523Y-84933180D02*
X79362095Y-84933180D01*
X79647809Y-84933180D02*
X79647809Y-83933180D01*
X79552571Y-84076038D01*
X79457333Y-84171276D01*
X79362095Y-84218895D01*
X81812142Y-85085180D02*
X81335952Y-85085180D01*
X81335952Y-84085180D01*
X82145476Y-85085180D02*
X82145476Y-84085180D01*
X82478809Y-84799466D01*
X82812142Y-84085180D01*
X82812142Y-85085180D01*
X83193095Y-84085180D02*
X83812142Y-84085180D01*
X83478809Y-84466133D01*
X83621666Y-84466133D01*
X83716904Y-84513752D01*
X83764523Y-84561371D01*
X83812142Y-84656609D01*
X83812142Y-84894704D01*
X83764523Y-84989942D01*
X83716904Y-85037561D01*
X83621666Y-85085180D01*
X83335952Y-85085180D01*
X83240714Y-85037561D01*
X83193095Y-84989942D01*
X84145476Y-84085180D02*
X84764523Y-84085180D01*
X84431190Y-84466133D01*
X84574047Y-84466133D01*
X84669285Y-84513752D01*
X84716904Y-84561371D01*
X84764523Y-84656609D01*
X84764523Y-84894704D01*
X84716904Y-84989942D01*
X84669285Y-85037561D01*
X84574047Y-85085180D01*
X84288333Y-85085180D01*
X84193095Y-85037561D01*
X84145476Y-84989942D01*
X85240714Y-85085180D02*
X85431190Y-85085180D01*
X85526428Y-85037561D01*
X85574047Y-84989942D01*
X85669285Y-84847085D01*
X85716904Y-84656609D01*
X85716904Y-84275657D01*
X85669285Y-84180419D01*
X85621666Y-84132800D01*
X85526428Y-84085180D01*
X85335952Y-84085180D01*
X85240714Y-84132800D01*
X85193095Y-84180419D01*
X85145476Y-84275657D01*
X85145476Y-84513752D01*
X85193095Y-84608990D01*
X85240714Y-84656609D01*
X85335952Y-84704228D01*
X85526428Y-84704228D01*
X85621666Y-84656609D01*
X85669285Y-84608990D01*
X85716904Y-84513752D01*
X86097857Y-84799466D02*
X86574047Y-84799466D01*
X86002619Y-85085180D02*
X86335952Y-84085180D01*
X86669285Y-85085180D01*
X87002619Y-85085180D02*
X87002619Y-84085180D01*
X87574047Y-85085180D01*
X87574047Y-84085180D01*
X83610780Y-58260895D02*
X83610780Y-57689466D01*
X84610780Y-57975180D02*
X83610780Y-57975180D01*
X84610780Y-57356133D02*
X83610780Y-57356133D01*
X83610780Y-56975180D01*
X83658400Y-56879942D01*
X83706019Y-56832323D01*
X83801257Y-56784704D01*
X83944114Y-56784704D01*
X84039352Y-56832323D01*
X84086971Y-56879942D01*
X84134590Y-56975180D01*
X84134590Y-57356133D01*
X84610780Y-55832323D02*
X84610780Y-56403752D01*
X84610780Y-56118038D02*
X83610780Y-56118038D01*
X83753638Y-56213276D01*
X83848876Y-56308514D01*
X83896495Y-56403752D01*
X83944114Y-54975180D02*
X84610780Y-54975180D01*
X83563161Y-55213276D02*
X84277447Y-55451371D01*
X84277447Y-54832323D01*
X87410780Y-57613276D02*
X88410780Y-57279942D01*
X87410780Y-56946609D01*
X88363161Y-56660895D02*
X88410780Y-56565657D01*
X88410780Y-56375180D01*
X88363161Y-56279942D01*
X88267923Y-56232323D01*
X88220304Y-56232323D01*
X88125066Y-56279942D01*
X88077447Y-56375180D01*
X88077447Y-56518038D01*
X88029828Y-56613276D01*
X87934590Y-56660895D01*
X87886971Y-56660895D01*
X87791733Y-56613276D01*
X87744114Y-56518038D01*
X87744114Y-56375180D01*
X87791733Y-56279942D01*
X87744114Y-55803752D02*
X88410780Y-55803752D01*
X87839352Y-55803752D02*
X87791733Y-55756133D01*
X87744114Y-55660895D01*
X87744114Y-55518038D01*
X87791733Y-55422800D01*
X87886971Y-55375180D01*
X88410780Y-55375180D01*
X95430780Y-58600895D02*
X95430780Y-58029466D01*
X96430780Y-58315180D02*
X95430780Y-58315180D01*
X96430780Y-57696133D02*
X95430780Y-57696133D01*
X95430780Y-57315180D01*
X95478400Y-57219942D01*
X95526019Y-57172323D01*
X95621257Y-57124704D01*
X95764114Y-57124704D01*
X95859352Y-57172323D01*
X95906971Y-57219942D01*
X95954590Y-57315180D01*
X95954590Y-57696133D01*
X96430780Y-56172323D02*
X96430780Y-56743752D01*
X96430780Y-56458038D02*
X95430780Y-56458038D01*
X95573638Y-56553276D01*
X95668876Y-56648514D01*
X95716495Y-56743752D01*
X95430780Y-55838990D02*
X95430780Y-55219942D01*
X95811733Y-55553276D01*
X95811733Y-55410419D01*
X95859352Y-55315180D01*
X95906971Y-55267561D01*
X96002209Y-55219942D01*
X96240304Y-55219942D01*
X96335542Y-55267561D01*
X96383161Y-55315180D01*
X96430780Y-55410419D01*
X96430780Y-55696133D01*
X96383161Y-55791371D01*
X96335542Y-55838990D01*
X91630780Y-60248514D02*
X92630780Y-59915180D01*
X91630780Y-59581847D01*
X92583161Y-59296133D02*
X92630780Y-59200895D01*
X92630780Y-59010419D01*
X92583161Y-58915180D01*
X92487923Y-58867561D01*
X92440304Y-58867561D01*
X92345066Y-58915180D01*
X92297447Y-59010419D01*
X92297447Y-59153276D01*
X92249828Y-59248514D01*
X92154590Y-59296133D01*
X92106971Y-59296133D01*
X92011733Y-59248514D01*
X91964114Y-59153276D01*
X91964114Y-59010419D01*
X92011733Y-58915180D01*
X91964114Y-58438990D02*
X92630780Y-58438990D01*
X92059352Y-58438990D02*
X92011733Y-58391371D01*
X91964114Y-58296133D01*
X91964114Y-58153276D01*
X92011733Y-58058038D01*
X92106971Y-58010419D01*
X92630780Y-58010419D01*
X92249828Y-57534228D02*
X92249828Y-56772323D01*
X92630780Y-57153276D02*
X91868876Y-57153276D01*
X92630780Y-55772323D02*
X92630780Y-56343752D01*
X92630780Y-56058038D02*
X91630780Y-56058038D01*
X91773638Y-56153276D01*
X91868876Y-56248514D01*
X91916495Y-56343752D01*
X91583161Y-54629466D02*
X92868876Y-55486609D01*
X91726019Y-54343752D02*
X91678400Y-54296133D01*
X91630780Y-54200895D01*
X91630780Y-53962800D01*
X91678400Y-53867561D01*
X91726019Y-53819942D01*
X91821257Y-53772323D01*
X91916495Y-53772323D01*
X92059352Y-53819942D01*
X92630780Y-54391371D01*
X92630780Y-53772323D01*
X103050780Y-58600895D02*
X103050780Y-58029466D01*
X104050780Y-58315180D02*
X103050780Y-58315180D01*
X104050780Y-57696133D02*
X103050780Y-57696133D01*
X103050780Y-57315180D01*
X103098400Y-57219942D01*
X103146019Y-57172323D01*
X103241257Y-57124704D01*
X103384114Y-57124704D01*
X103479352Y-57172323D01*
X103526971Y-57219942D01*
X103574590Y-57315180D01*
X103574590Y-57696133D01*
X104050780Y-56172323D02*
X104050780Y-56743752D01*
X104050780Y-56458038D02*
X103050780Y-56458038D01*
X103193638Y-56553276D01*
X103288876Y-56648514D01*
X103336495Y-56743752D01*
X104050780Y-55219942D02*
X104050780Y-55791371D01*
X104050780Y-55505657D02*
X103050780Y-55505657D01*
X103193638Y-55600895D01*
X103288876Y-55696133D01*
X103336495Y-55791371D01*
X99250780Y-59248514D02*
X100250780Y-58915180D01*
X99250780Y-58581847D01*
X100203161Y-58296133D02*
X100250780Y-58200895D01*
X100250780Y-58010419D01*
X100203161Y-57915180D01*
X100107923Y-57867561D01*
X100060304Y-57867561D01*
X99965066Y-57915180D01*
X99917447Y-58010419D01*
X99917447Y-58153276D01*
X99869828Y-58248514D01*
X99774590Y-58296133D01*
X99726971Y-58296133D01*
X99631733Y-58248514D01*
X99584114Y-58153276D01*
X99584114Y-58010419D01*
X99631733Y-57915180D01*
X99584114Y-57438990D02*
X100250780Y-57438990D01*
X99679352Y-57438990D02*
X99631733Y-57391371D01*
X99584114Y-57296133D01*
X99584114Y-57153276D01*
X99631733Y-57058038D01*
X99726971Y-57010419D01*
X100250780Y-57010419D01*
X99869828Y-56534228D02*
X99869828Y-55772323D01*
X100250780Y-56153276D02*
X99488876Y-56153276D01*
X100250780Y-54772323D02*
X100250780Y-55343752D01*
X100250780Y-55058038D02*
X99250780Y-55058038D01*
X99393638Y-55153276D01*
X99488876Y-55248514D01*
X99536495Y-55343752D01*
X80190780Y-58600895D02*
X80190780Y-58029466D01*
X81190780Y-58315180D02*
X80190780Y-58315180D01*
X81190780Y-57696133D02*
X80190780Y-57696133D01*
X80190780Y-57315180D01*
X80238400Y-57219942D01*
X80286019Y-57172323D01*
X80381257Y-57124704D01*
X80524114Y-57124704D01*
X80619352Y-57172323D01*
X80666971Y-57219942D01*
X80714590Y-57315180D01*
X80714590Y-57696133D01*
X81190780Y-56172323D02*
X81190780Y-56743752D01*
X81190780Y-56458038D02*
X80190780Y-56458038D01*
X80333638Y-56553276D01*
X80428876Y-56648514D01*
X80476495Y-56743752D01*
X80190780Y-55553276D02*
X80190780Y-55458038D01*
X80238400Y-55362800D01*
X80286019Y-55315180D01*
X80381257Y-55267561D01*
X80571733Y-55219942D01*
X80809828Y-55219942D01*
X81000304Y-55267561D01*
X81095542Y-55315180D01*
X81143161Y-55362800D01*
X81190780Y-55458038D01*
X81190780Y-55553276D01*
X81143161Y-55648514D01*
X81095542Y-55696133D01*
X81000304Y-55743752D01*
X80809828Y-55791371D01*
X80571733Y-55791371D01*
X80381257Y-55743752D01*
X80286019Y-55696133D01*
X80238400Y-55648514D01*
X80190780Y-55553276D01*
X76390780Y-59272323D02*
X77390780Y-58938990D01*
X76390780Y-58605657D01*
X77343161Y-57843752D02*
X77390780Y-57938990D01*
X77390780Y-58129466D01*
X77343161Y-58224704D01*
X77295542Y-58272323D01*
X77200304Y-58319942D01*
X76914590Y-58319942D01*
X76819352Y-58272323D01*
X76771733Y-58224704D01*
X76724114Y-58129466D01*
X76724114Y-57938990D01*
X76771733Y-57843752D01*
X77390780Y-57272323D02*
X77343161Y-57367561D01*
X77247923Y-57415180D01*
X76390780Y-57415180D01*
X77390780Y-56748514D02*
X77343161Y-56843752D01*
X77295542Y-56891371D01*
X77200304Y-56938990D01*
X76914590Y-56938990D01*
X76819352Y-56891371D01*
X76771733Y-56843752D01*
X76724114Y-56748514D01*
X76724114Y-56605657D01*
X76771733Y-56510419D01*
X76819352Y-56462800D01*
X76914590Y-56415180D01*
X77200304Y-56415180D01*
X77295542Y-56462800D01*
X77343161Y-56510419D01*
X77390780Y-56605657D01*
X77390780Y-56748514D01*
X77343161Y-55558038D02*
X77390780Y-55653276D01*
X77390780Y-55843752D01*
X77343161Y-55938990D01*
X77295542Y-55986609D01*
X77200304Y-56034228D01*
X76914590Y-56034228D01*
X76819352Y-55986609D01*
X76771733Y-55938990D01*
X76724114Y-55843752D01*
X76724114Y-55653276D01*
X76771733Y-55558038D01*
X77390780Y-55129466D02*
X76390780Y-55129466D01*
X77009828Y-55034228D02*
X77390780Y-54748514D01*
X76724114Y-54748514D02*
X77105066Y-55129466D01*
X68156295Y-89241380D02*
X68727723Y-89241380D01*
X68442009Y-90241380D02*
X68442009Y-89241380D01*
X69061057Y-90241380D02*
X69061057Y-89241380D01*
X69442009Y-89241380D01*
X69537247Y-89289000D01*
X69584866Y-89336619D01*
X69632485Y-89431857D01*
X69632485Y-89574714D01*
X69584866Y-89669952D01*
X69537247Y-89717571D01*
X69442009Y-89765190D01*
X69061057Y-89765190D01*
X70108676Y-90241380D02*
X70299152Y-90241380D01*
X70394390Y-90193761D01*
X70442009Y-90146142D01*
X70537247Y-90003285D01*
X70584866Y-89812809D01*
X70584866Y-89431857D01*
X70537247Y-89336619D01*
X70489628Y-89289000D01*
X70394390Y-89241380D01*
X70203914Y-89241380D01*
X70108676Y-89289000D01*
X70061057Y-89336619D01*
X70013438Y-89431857D01*
X70013438Y-89669952D01*
X70061057Y-89765190D01*
X70108676Y-89812809D01*
X70203914Y-89860428D01*
X70394390Y-89860428D01*
X70489628Y-89812809D01*
X70537247Y-89765190D01*
X70584866Y-89669952D01*
X67951552Y-87641180D02*
X68284885Y-88641180D01*
X68618219Y-87641180D01*
X69380123Y-88593561D02*
X69284885Y-88641180D01*
X69094409Y-88641180D01*
X68999171Y-88593561D01*
X68951552Y-88545942D01*
X68903933Y-88450704D01*
X68903933Y-88164990D01*
X68951552Y-88069752D01*
X68999171Y-88022133D01*
X69094409Y-87974514D01*
X69284885Y-87974514D01*
X69380123Y-88022133D01*
X69665838Y-87974514D02*
X70046790Y-87974514D01*
X69808695Y-87641180D02*
X69808695Y-88498323D01*
X69856314Y-88593561D01*
X69951552Y-88641180D01*
X70046790Y-88641180D01*
X70380123Y-88641180D02*
X70380123Y-87974514D01*
X70380123Y-88164990D02*
X70427742Y-88069752D01*
X70475361Y-88022133D01*
X70570600Y-87974514D01*
X70665838Y-87974514D01*
X71142028Y-88641180D02*
X71046790Y-88593561D01*
X70999171Y-88498323D01*
X70999171Y-87641180D01*
X68672095Y-106987780D02*
X69243523Y-106987780D01*
X68957809Y-107987780D02*
X68957809Y-106987780D01*
X69576857Y-107987780D02*
X69576857Y-106987780D01*
X69957809Y-106987780D01*
X70053047Y-107035400D01*
X70100666Y-107083019D01*
X70148285Y-107178257D01*
X70148285Y-107321114D01*
X70100666Y-107416352D01*
X70053047Y-107463971D01*
X69957809Y-107511590D01*
X69576857Y-107511590D01*
X70719714Y-107416352D02*
X70624476Y-107368733D01*
X70576857Y-107321114D01*
X70529238Y-107225876D01*
X70529238Y-107178257D01*
X70576857Y-107083019D01*
X70624476Y-107035400D01*
X70719714Y-106987780D01*
X70910190Y-106987780D01*
X71005428Y-107035400D01*
X71053047Y-107083019D01*
X71100666Y-107178257D01*
X71100666Y-107225876D01*
X71053047Y-107321114D01*
X71005428Y-107368733D01*
X70910190Y-107416352D01*
X70719714Y-107416352D01*
X70624476Y-107463971D01*
X70576857Y-107511590D01*
X70529238Y-107606828D01*
X70529238Y-107797304D01*
X70576857Y-107892542D01*
X70624476Y-107940161D01*
X70719714Y-107987780D01*
X70910190Y-107987780D01*
X71005428Y-107940161D01*
X71053047Y-107892542D01*
X71100666Y-107797304D01*
X71100666Y-107606828D01*
X71053047Y-107511590D01*
X71005428Y-107463971D01*
X70910190Y-107416352D01*
X68072095Y-104187780D02*
X68072095Y-103663971D01*
X68024476Y-103568733D01*
X67929238Y-103521114D01*
X67738761Y-103521114D01*
X67643523Y-103568733D01*
X68072095Y-104140161D02*
X67976857Y-104187780D01*
X67738761Y-104187780D01*
X67643523Y-104140161D01*
X67595904Y-104044923D01*
X67595904Y-103949685D01*
X67643523Y-103854447D01*
X67738761Y-103806828D01*
X67976857Y-103806828D01*
X68072095Y-103759209D01*
X68548285Y-103521114D02*
X68548285Y-104187780D01*
X68548285Y-103616352D02*
X68595904Y-103568733D01*
X68691142Y-103521114D01*
X68834000Y-103521114D01*
X68929238Y-103568733D01*
X68976857Y-103663971D01*
X68976857Y-104187780D01*
X69881619Y-104187780D02*
X69881619Y-103663971D01*
X69834000Y-103568733D01*
X69738761Y-103521114D01*
X69548285Y-103521114D01*
X69453047Y-103568733D01*
X69881619Y-104140161D02*
X69786380Y-104187780D01*
X69548285Y-104187780D01*
X69453047Y-104140161D01*
X69405428Y-104044923D01*
X69405428Y-103949685D01*
X69453047Y-103854447D01*
X69548285Y-103806828D01*
X69786380Y-103806828D01*
X69881619Y-103759209D01*
X70119714Y-104283019D02*
X70881619Y-104283019D01*
X71119714Y-104187780D02*
X71119714Y-103521114D01*
X71119714Y-103187780D02*
X71072095Y-103235400D01*
X71119714Y-103283019D01*
X71167333Y-103235400D01*
X71119714Y-103187780D01*
X71119714Y-103283019D01*
X71595904Y-103521114D02*
X71595904Y-104187780D01*
X71595904Y-103616352D02*
X71643523Y-103568733D01*
X71738761Y-103521114D01*
X71881619Y-103521114D01*
X71976857Y-103568733D01*
X72024476Y-103663971D01*
X72024476Y-104187780D01*
X102263380Y-105241704D02*
X102263380Y-104670276D01*
X103263380Y-104955990D02*
X102263380Y-104955990D01*
X103263380Y-104336942D02*
X102263380Y-104336942D01*
X102263380Y-103955990D01*
X102311000Y-103860752D01*
X102358619Y-103813133D01*
X102453857Y-103765514D01*
X102596714Y-103765514D01*
X102691952Y-103813133D01*
X102739571Y-103860752D01*
X102787190Y-103955990D01*
X102787190Y-104336942D01*
X102263380Y-103432180D02*
X102263380Y-102765514D01*
X103263380Y-103194085D01*
X98463380Y-105698847D02*
X99463380Y-105365514D01*
X98463380Y-105032180D01*
X99415761Y-104270276D02*
X99463380Y-104365514D01*
X99463380Y-104555990D01*
X99415761Y-104651228D01*
X99368142Y-104698847D01*
X99272904Y-104746466D01*
X98987190Y-104746466D01*
X98891952Y-104698847D01*
X98844333Y-104651228D01*
X98796714Y-104555990D01*
X98796714Y-104365514D01*
X98844333Y-104270276D01*
X98796714Y-103984561D02*
X98796714Y-103603609D01*
X98463380Y-103841704D02*
X99320523Y-103841704D01*
X99415761Y-103794085D01*
X99463380Y-103698847D01*
X99463380Y-103603609D01*
X99463380Y-103270276D02*
X98796714Y-103270276D01*
X98987190Y-103270276D02*
X98891952Y-103222657D01*
X98844333Y-103175038D01*
X98796714Y-103079800D01*
X98796714Y-102984561D01*
X99463380Y-102508371D02*
X99415761Y-102603609D01*
X99320523Y-102651228D01*
X98463380Y-102651228D01*
X94262380Y-105114704D02*
X94262380Y-104543276D01*
X95262380Y-104828990D02*
X94262380Y-104828990D01*
X95262380Y-104209942D02*
X94262380Y-104209942D01*
X94262380Y-103828990D01*
X94310000Y-103733752D01*
X94357619Y-103686133D01*
X94452857Y-103638514D01*
X94595714Y-103638514D01*
X94690952Y-103686133D01*
X94738571Y-103733752D01*
X94786190Y-103828990D01*
X94786190Y-104209942D01*
X94262380Y-102781371D02*
X94262380Y-102971847D01*
X94310000Y-103067085D01*
X94357619Y-103114704D01*
X94500476Y-103209942D01*
X94690952Y-103257561D01*
X95071904Y-103257561D01*
X95167142Y-103209942D01*
X95214761Y-103162323D01*
X95262380Y-103067085D01*
X95262380Y-102876609D01*
X95214761Y-102781371D01*
X95167142Y-102733752D01*
X95071904Y-102686133D01*
X94833809Y-102686133D01*
X94738571Y-102733752D01*
X94690952Y-102781371D01*
X94643333Y-102876609D01*
X94643333Y-103067085D01*
X94690952Y-103162323D01*
X94738571Y-103209942D01*
X94833809Y-103257561D01*
X90462380Y-106500419D02*
X91462380Y-106167085D01*
X90462380Y-105833752D01*
X91462380Y-105500419D02*
X90462380Y-105500419D01*
X90843333Y-105500419D02*
X90795714Y-105405180D01*
X90795714Y-105214704D01*
X90843333Y-105119466D01*
X90890952Y-105071847D01*
X90986190Y-105024228D01*
X91271904Y-105024228D01*
X91367142Y-105071847D01*
X91414761Y-105119466D01*
X91462380Y-105214704D01*
X91462380Y-105405180D01*
X91414761Y-105500419D01*
X90795714Y-104167085D02*
X91462380Y-104167085D01*
X90795714Y-104595657D02*
X91319523Y-104595657D01*
X91414761Y-104548038D01*
X91462380Y-104452800D01*
X91462380Y-104309942D01*
X91414761Y-104214704D01*
X91367142Y-104167085D01*
X90795714Y-103833752D02*
X90795714Y-103452800D01*
X91462380Y-103690895D02*
X90605238Y-103690895D01*
X90510000Y-103643276D01*
X90462380Y-103548038D01*
X90462380Y-103452800D01*
X90795714Y-103262323D02*
X90795714Y-102881371D01*
X91462380Y-103119466D02*
X90605238Y-103119466D01*
X90510000Y-103071847D01*
X90462380Y-102976609D01*
X90462380Y-102881371D01*
X91414761Y-102167085D02*
X91462380Y-102262323D01*
X91462380Y-102452800D01*
X91414761Y-102548038D01*
X91319523Y-102595657D01*
X90938571Y-102595657D01*
X90843333Y-102548038D01*
X90795714Y-102452800D01*
X90795714Y-102262323D01*
X90843333Y-102167085D01*
X90938571Y-102119466D01*
X91033809Y-102119466D01*
X91129047Y-102595657D01*
X91462380Y-101690895D02*
X90795714Y-101690895D01*
X90986190Y-101690895D02*
X90890952Y-101643276D01*
X90843333Y-101595657D01*
X90795714Y-101500419D01*
X90795714Y-101405180D01*
X97999880Y-111569204D02*
X97999880Y-110997776D01*
X98999880Y-111283490D02*
X97999880Y-111283490D01*
X98999880Y-110664442D02*
X97999880Y-110664442D01*
X97999880Y-110283490D01*
X98047500Y-110188252D01*
X98095119Y-110140633D01*
X98190357Y-110093014D01*
X98333214Y-110093014D01*
X98428452Y-110140633D01*
X98476071Y-110188252D01*
X98523690Y-110283490D01*
X98523690Y-110664442D01*
X97999880Y-109188252D02*
X97999880Y-109664442D01*
X98476071Y-109712061D01*
X98428452Y-109664442D01*
X98380833Y-109569204D01*
X98380833Y-109331109D01*
X98428452Y-109235871D01*
X98476071Y-109188252D01*
X98571309Y-109140633D01*
X98809404Y-109140633D01*
X98904642Y-109188252D01*
X98952261Y-109235871D01*
X98999880Y-109331109D01*
X98999880Y-109569204D01*
X98952261Y-109664442D01*
X98904642Y-109712061D01*
X102169980Y-111061380D02*
X103169980Y-110728047D01*
X102169980Y-110394714D01*
X102789028Y-110061380D02*
X102789028Y-109299476D01*
X73107880Y-111569204D02*
X73107880Y-110997776D01*
X74107880Y-111283490D02*
X73107880Y-111283490D01*
X74107880Y-110664442D02*
X73107880Y-110664442D01*
X73107880Y-110283490D01*
X73155500Y-110188252D01*
X73203119Y-110140633D01*
X73298357Y-110093014D01*
X73441214Y-110093014D01*
X73536452Y-110140633D01*
X73584071Y-110188252D01*
X73631690Y-110283490D01*
X73631690Y-110664442D01*
X73441214Y-109235871D02*
X74107880Y-109235871D01*
X73060261Y-109473966D02*
X73774547Y-109712061D01*
X73774547Y-109093014D01*
X76907880Y-111159680D02*
X77907880Y-110826347D01*
X76907880Y-110493014D01*
X77526928Y-110159680D02*
X77526928Y-109397776D01*
X77907880Y-109778728D02*
X77145976Y-109778728D01*
X85807880Y-111569204D02*
X85807880Y-110997776D01*
X86807880Y-111283490D02*
X85807880Y-111283490D01*
X86807880Y-110664442D02*
X85807880Y-110664442D01*
X85807880Y-110283490D01*
X85855500Y-110188252D01*
X85903119Y-110140633D01*
X85998357Y-110093014D01*
X86141214Y-110093014D01*
X86236452Y-110140633D01*
X86284071Y-110188252D01*
X86331690Y-110283490D01*
X86331690Y-110664442D01*
X85807880Y-109759680D02*
X85807880Y-109140633D01*
X86188833Y-109473966D01*
X86188833Y-109331109D01*
X86236452Y-109235871D01*
X86284071Y-109188252D01*
X86379309Y-109140633D01*
X86617404Y-109140633D01*
X86712642Y-109188252D01*
X86760261Y-109235871D01*
X86807880Y-109331109D01*
X86807880Y-109616823D01*
X86760261Y-109712061D01*
X86712642Y-109759680D01*
X89655500Y-110969204D02*
X89607880Y-111064442D01*
X89607880Y-111207300D01*
X89655500Y-111350157D01*
X89750738Y-111445395D01*
X89845976Y-111493014D01*
X90036452Y-111540633D01*
X90179309Y-111540633D01*
X90369785Y-111493014D01*
X90465023Y-111445395D01*
X90560261Y-111350157D01*
X90607880Y-111207300D01*
X90607880Y-111112061D01*
X90560261Y-110969204D01*
X90512642Y-110921585D01*
X90179309Y-110921585D01*
X90179309Y-111112061D01*
X90607880Y-110493014D02*
X89607880Y-110493014D01*
X90607880Y-109921585D01*
X89607880Y-109921585D01*
X90607880Y-109445395D02*
X89607880Y-109445395D01*
X89607880Y-109207300D01*
X89655500Y-109064442D01*
X89750738Y-108969204D01*
X89845976Y-108921585D01*
X90036452Y-108873966D01*
X90179309Y-108873966D01*
X90369785Y-108921585D01*
X90465023Y-108969204D01*
X90560261Y-109064442D01*
X90607880Y-109207300D01*
X90607880Y-109445395D01*
X69299295Y-60285380D02*
X69870723Y-60285380D01*
X69585009Y-61285380D02*
X69585009Y-60285380D01*
X70204057Y-61285380D02*
X70204057Y-60285380D01*
X70585009Y-60285380D01*
X70680247Y-60333000D01*
X70727866Y-60380619D01*
X70775485Y-60475857D01*
X70775485Y-60618714D01*
X70727866Y-60713952D01*
X70680247Y-60761571D01*
X70585009Y-60809190D01*
X70204057Y-60809190D01*
X71156438Y-60380619D02*
X71204057Y-60333000D01*
X71299295Y-60285380D01*
X71537390Y-60285380D01*
X71632628Y-60333000D01*
X71680247Y-60380619D01*
X71727866Y-60475857D01*
X71727866Y-60571095D01*
X71680247Y-60713952D01*
X71108819Y-61285380D01*
X71727866Y-61285380D01*
X68350095Y-62250580D02*
X68350095Y-61726771D01*
X68302476Y-61631533D01*
X68207238Y-61583914D01*
X68016761Y-61583914D01*
X67921523Y-61631533D01*
X68350095Y-62202961D02*
X68254857Y-62250580D01*
X68016761Y-62250580D01*
X67921523Y-62202961D01*
X67873904Y-62107723D01*
X67873904Y-62012485D01*
X67921523Y-61917247D01*
X68016761Y-61869628D01*
X68254857Y-61869628D01*
X68350095Y-61822009D01*
X68826285Y-61583914D02*
X68826285Y-62250580D01*
X68826285Y-61679152D02*
X68873904Y-61631533D01*
X68969142Y-61583914D01*
X69112000Y-61583914D01*
X69207238Y-61631533D01*
X69254857Y-61726771D01*
X69254857Y-62250580D01*
X70159619Y-62250580D02*
X70159619Y-61726771D01*
X70112000Y-61631533D01*
X70016761Y-61583914D01*
X69826285Y-61583914D01*
X69731047Y-61631533D01*
X70159619Y-62202961D02*
X70064380Y-62250580D01*
X69826285Y-62250580D01*
X69731047Y-62202961D01*
X69683428Y-62107723D01*
X69683428Y-62012485D01*
X69731047Y-61917247D01*
X69826285Y-61869628D01*
X70064380Y-61869628D01*
X70159619Y-61822009D01*
X70397714Y-62345819D02*
X71159619Y-62345819D01*
X71540571Y-62250580D02*
X71445333Y-62202961D01*
X71397714Y-62155342D01*
X71350095Y-62060104D01*
X71350095Y-61774390D01*
X71397714Y-61679152D01*
X71445333Y-61631533D01*
X71540571Y-61583914D01*
X71683428Y-61583914D01*
X71778666Y-61631533D01*
X71826285Y-61679152D01*
X71873904Y-61774390D01*
X71873904Y-62060104D01*
X71826285Y-62155342D01*
X71778666Y-62202961D01*
X71683428Y-62250580D01*
X71540571Y-62250580D01*
X72731047Y-61583914D02*
X72731047Y-62250580D01*
X72302476Y-61583914D02*
X72302476Y-62107723D01*
X72350095Y-62202961D01*
X72445333Y-62250580D01*
X72588190Y-62250580D01*
X72683428Y-62202961D01*
X72731047Y-62155342D01*
X73064380Y-61583914D02*
X73445333Y-61583914D01*
X73207238Y-61250580D02*
X73207238Y-62107723D01*
X73254857Y-62202961D01*
X73350095Y-62250580D01*
X73445333Y-62250580D01*
X113210780Y-58124704D02*
X113210780Y-57553276D01*
X114210780Y-57838990D02*
X113210780Y-57838990D01*
X114210780Y-57219942D02*
X113210780Y-57219942D01*
X113210780Y-56838990D01*
X113258400Y-56743752D01*
X113306019Y-56696133D01*
X113401257Y-56648514D01*
X113544114Y-56648514D01*
X113639352Y-56696133D01*
X113686971Y-56743752D01*
X113734590Y-56838990D01*
X113734590Y-57219942D01*
X114210780Y-55696133D02*
X114210780Y-56267561D01*
X114210780Y-55981847D02*
X113210780Y-55981847D01*
X113353638Y-56077085D01*
X113448876Y-56172323D01*
X113496495Y-56267561D01*
X109410780Y-57724704D02*
X110410780Y-57391371D01*
X109410780Y-57058038D01*
X110363161Y-56296133D02*
X110410780Y-56391371D01*
X110410780Y-56581847D01*
X110363161Y-56677085D01*
X110315542Y-56724704D01*
X110220304Y-56772323D01*
X109934590Y-56772323D01*
X109839352Y-56724704D01*
X109791733Y-56677085D01*
X109744114Y-56581847D01*
X109744114Y-56391371D01*
X109791733Y-56296133D01*
X109843961Y-113304580D02*
X109510628Y-112828390D01*
X109272533Y-113304580D02*
X109272533Y-112304580D01*
X109653485Y-112304580D01*
X109748723Y-112352200D01*
X109796342Y-112399819D01*
X109843961Y-112495057D01*
X109843961Y-112637914D01*
X109796342Y-112733152D01*
X109748723Y-112780771D01*
X109653485Y-112828390D01*
X109272533Y-112828390D01*
X110129676Y-112304580D02*
X110463009Y-113304580D01*
X110796342Y-112304580D01*
X111653485Y-113304580D02*
X111082057Y-113304580D01*
X111367771Y-113304580D02*
X111367771Y-112304580D01*
X111272533Y-112447438D01*
X111177295Y-112542676D01*
X111082057Y-112590295D01*
X70969333Y-102483180D02*
X70636000Y-102006990D01*
X70397904Y-102483180D02*
X70397904Y-101483180D01*
X70778857Y-101483180D01*
X70874095Y-101530800D01*
X70921714Y-101578419D01*
X70969333Y-101673657D01*
X70969333Y-101816514D01*
X70921714Y-101911752D01*
X70874095Y-101959371D01*
X70778857Y-102006990D01*
X70397904Y-102006990D01*
X71540761Y-101911752D02*
X71445523Y-101864133D01*
X71397904Y-101816514D01*
X71350285Y-101721276D01*
X71350285Y-101673657D01*
X71397904Y-101578419D01*
X71445523Y-101530800D01*
X71540761Y-101483180D01*
X71731238Y-101483180D01*
X71826476Y-101530800D01*
X71874095Y-101578419D01*
X71921714Y-101673657D01*
X71921714Y-101721276D01*
X71874095Y-101816514D01*
X71826476Y-101864133D01*
X71731238Y-101911752D01*
X71540761Y-101911752D01*
X71445523Y-101959371D01*
X71397904Y-102006990D01*
X71350285Y-102102228D01*
X71350285Y-102292704D01*
X71397904Y-102387942D01*
X71445523Y-102435561D01*
X71540761Y-102483180D01*
X71731238Y-102483180D01*
X71826476Y-102435561D01*
X71874095Y-102387942D01*
X71921714Y-102292704D01*
X71921714Y-102102228D01*
X71874095Y-102006990D01*
X71826476Y-101959371D01*
X71731238Y-101911752D01*
X67825952Y-100325180D02*
X67254523Y-100325180D01*
X67540238Y-100325180D02*
X67540238Y-99325180D01*
X67445000Y-99468038D01*
X67349761Y-99563276D01*
X67254523Y-99610895D01*
X68254523Y-100325180D02*
X68254523Y-99325180D01*
X68349761Y-99944228D02*
X68635476Y-100325180D01*
X68635476Y-99658514D02*
X68254523Y-100039466D01*
X71064380Y-97007466D02*
X70588190Y-97340800D01*
X71064380Y-97578895D02*
X70064380Y-97578895D01*
X70064380Y-97197942D01*
X70112000Y-97102704D01*
X70159619Y-97055085D01*
X70254857Y-97007466D01*
X70397714Y-97007466D01*
X70492952Y-97055085D01*
X70540571Y-97102704D01*
X70588190Y-97197942D01*
X70588190Y-97578895D01*
X70064380Y-96674133D02*
X70064380Y-96007466D01*
X71064380Y-96436038D01*
X69667380Y-96816847D02*
X69667380Y-97388276D01*
X69667380Y-97102561D02*
X68667380Y-97102561D01*
X68810238Y-97197800D01*
X68905476Y-97293038D01*
X68953095Y-97388276D01*
X69667380Y-96388276D02*
X68667380Y-96388276D01*
X69286428Y-96293038D02*
X69667380Y-96007323D01*
X69000714Y-96007323D02*
X69381666Y-96388276D01*
X111577380Y-85434466D02*
X111101190Y-85767800D01*
X111577380Y-86005895D02*
X110577380Y-86005895D01*
X110577380Y-85624942D01*
X110625000Y-85529704D01*
X110672619Y-85482085D01*
X110767857Y-85434466D01*
X110910714Y-85434466D01*
X111005952Y-85482085D01*
X111053571Y-85529704D01*
X111101190Y-85624942D01*
X111101190Y-86005895D01*
X110577380Y-84577323D02*
X110577380Y-84767800D01*
X110625000Y-84863038D01*
X110672619Y-84910657D01*
X110815476Y-85005895D01*
X111005952Y-85053514D01*
X111386904Y-85053514D01*
X111482142Y-85005895D01*
X111529761Y-84958276D01*
X111577380Y-84863038D01*
X111577380Y-84672561D01*
X111529761Y-84577323D01*
X111482142Y-84529704D01*
X111386904Y-84482085D01*
X111148809Y-84482085D01*
X111053571Y-84529704D01*
X111005952Y-84577323D01*
X110958333Y-84672561D01*
X110958333Y-84863038D01*
X111005952Y-84958276D01*
X111053571Y-85005895D01*
X111148809Y-85053514D01*
X109800380Y-88577847D02*
X109800380Y-89149276D01*
X109800380Y-88863561D02*
X108800380Y-88863561D01*
X108943238Y-88958800D01*
X109038476Y-89054038D01*
X109086095Y-89149276D01*
X109800380Y-88149276D02*
X108800380Y-88149276D01*
X109419428Y-88054038D02*
X109800380Y-87768323D01*
X109133714Y-87768323D02*
X109514666Y-88149276D01*
X93813333Y-81275180D02*
X93480000Y-80798990D01*
X93241904Y-81275180D02*
X93241904Y-80275180D01*
X93622857Y-80275180D01*
X93718095Y-80322800D01*
X93765714Y-80370419D01*
X93813333Y-80465657D01*
X93813333Y-80608514D01*
X93765714Y-80703752D01*
X93718095Y-80751371D01*
X93622857Y-80798990D01*
X93241904Y-80798990D01*
X94718095Y-80275180D02*
X94241904Y-80275180D01*
X94194285Y-80751371D01*
X94241904Y-80703752D01*
X94337142Y-80656133D01*
X94575238Y-80656133D01*
X94670476Y-80703752D01*
X94718095Y-80751371D01*
X94765714Y-80846609D01*
X94765714Y-81084704D01*
X94718095Y-81179942D01*
X94670476Y-81227561D01*
X94575238Y-81275180D01*
X94337142Y-81275180D01*
X94241904Y-81227561D01*
X94194285Y-81179942D01*
X90638523Y-83544419D02*
X90686142Y-83496800D01*
X90781380Y-83449180D01*
X91019476Y-83449180D01*
X91114714Y-83496800D01*
X91162333Y-83544419D01*
X91209952Y-83639657D01*
X91209952Y-83734895D01*
X91162333Y-83877752D01*
X90590904Y-84449180D01*
X91209952Y-84449180D01*
X91638523Y-84449180D02*
X91638523Y-83449180D01*
X91733761Y-84068228D02*
X92019476Y-84449180D01*
X92019476Y-83782514D02*
X91638523Y-84163466D01*
X104607380Y-90641466D02*
X104131190Y-90974800D01*
X104607380Y-91212895D02*
X103607380Y-91212895D01*
X103607380Y-90831942D01*
X103655000Y-90736704D01*
X103702619Y-90689085D01*
X103797857Y-90641466D01*
X103940714Y-90641466D01*
X104035952Y-90689085D01*
X104083571Y-90736704D01*
X104131190Y-90831942D01*
X104131190Y-91212895D01*
X103940714Y-89784323D02*
X104607380Y-89784323D01*
X103559761Y-90022419D02*
X104274047Y-90260514D01*
X104274047Y-89641466D01*
X100402619Y-91712895D02*
X100355000Y-91665276D01*
X100307380Y-91570038D01*
X100307380Y-91331942D01*
X100355000Y-91236704D01*
X100402619Y-91189085D01*
X100497857Y-91141466D01*
X100593095Y-91141466D01*
X100735952Y-91189085D01*
X101307380Y-91760514D01*
X101307380Y-91141466D01*
X100402619Y-90760514D02*
X100355000Y-90712895D01*
X100307380Y-90617657D01*
X100307380Y-90379561D01*
X100355000Y-90284323D01*
X100402619Y-90236704D01*
X100497857Y-90189085D01*
X100593095Y-90189085D01*
X100735952Y-90236704D01*
X101307380Y-90808133D01*
X101307380Y-90189085D01*
X100307380Y-89570038D02*
X100307380Y-89474800D01*
X100355000Y-89379561D01*
X100402619Y-89331942D01*
X100497857Y-89284323D01*
X100688333Y-89236704D01*
X100926428Y-89236704D01*
X101116904Y-89284323D01*
X101212142Y-89331942D01*
X101259761Y-89379561D01*
X101307380Y-89474800D01*
X101307380Y-89570038D01*
X101259761Y-89665276D01*
X101212142Y-89712895D01*
X101116904Y-89760514D01*
X100926428Y-89808133D01*
X100688333Y-89808133D01*
X100497857Y-89760514D01*
X100402619Y-89712895D01*
X100355000Y-89665276D01*
X100307380Y-89570038D01*
X73986380Y-79703466D02*
X73510190Y-80036800D01*
X73986380Y-80274895D02*
X72986380Y-80274895D01*
X72986380Y-79893942D01*
X73034000Y-79798704D01*
X73081619Y-79751085D01*
X73176857Y-79703466D01*
X73319714Y-79703466D01*
X73414952Y-79751085D01*
X73462571Y-79798704D01*
X73510190Y-79893942D01*
X73510190Y-80274895D01*
X72986380Y-79370133D02*
X72986380Y-78751085D01*
X73367333Y-79084419D01*
X73367333Y-78941561D01*
X73414952Y-78846323D01*
X73462571Y-78798704D01*
X73557809Y-78751085D01*
X73795904Y-78751085D01*
X73891142Y-78798704D01*
X73938761Y-78846323D01*
X73986380Y-78941561D01*
X73986380Y-79227276D01*
X73938761Y-79322514D01*
X73891142Y-79370133D01*
X77286380Y-80132038D02*
X77286380Y-80703466D01*
X77286380Y-80417752D02*
X76286380Y-80417752D01*
X76429238Y-80512990D01*
X76524476Y-80608228D01*
X76572095Y-80703466D01*
X76286380Y-79512990D02*
X76286380Y-79417752D01*
X76334000Y-79322514D01*
X76381619Y-79274895D01*
X76476857Y-79227276D01*
X76667333Y-79179657D01*
X76905428Y-79179657D01*
X77095904Y-79227276D01*
X77191142Y-79274895D01*
X77238761Y-79322514D01*
X77286380Y-79417752D01*
X77286380Y-79512990D01*
X77238761Y-79608228D01*
X77191142Y-79655847D01*
X77095904Y-79703466D01*
X76905428Y-79751085D01*
X76667333Y-79751085D01*
X76476857Y-79703466D01*
X76381619Y-79655847D01*
X76334000Y-79608228D01*
X76286380Y-79512990D01*
X77286380Y-78751085D02*
X76286380Y-78751085D01*
X76905428Y-78655847D02*
X77286380Y-78370133D01*
X76619714Y-78370133D02*
X77000666Y-78751085D01*
X101798333Y-96641180D02*
X101465000Y-96164990D01*
X101226904Y-96641180D02*
X101226904Y-95641180D01*
X101607857Y-95641180D01*
X101703095Y-95688800D01*
X101750714Y-95736419D01*
X101798333Y-95831657D01*
X101798333Y-95974514D01*
X101750714Y-96069752D01*
X101703095Y-96117371D01*
X101607857Y-96164990D01*
X101226904Y-96164990D01*
X102179285Y-95736419D02*
X102226904Y-95688800D01*
X102322142Y-95641180D01*
X102560238Y-95641180D01*
X102655476Y-95688800D01*
X102703095Y-95736419D01*
X102750714Y-95831657D01*
X102750714Y-95926895D01*
X102703095Y-96069752D01*
X102131666Y-96641180D01*
X102750714Y-96641180D01*
X100726904Y-92436419D02*
X100774523Y-92388800D01*
X100869761Y-92341180D01*
X101107857Y-92341180D01*
X101203095Y-92388800D01*
X101250714Y-92436419D01*
X101298333Y-92531657D01*
X101298333Y-92626895D01*
X101250714Y-92769752D01*
X100679285Y-93341180D01*
X101298333Y-93341180D01*
X101679285Y-92436419D02*
X101726904Y-92388800D01*
X101822142Y-92341180D01*
X102060238Y-92341180D01*
X102155476Y-92388800D01*
X102203095Y-92436419D01*
X102250714Y-92531657D01*
X102250714Y-92626895D01*
X102203095Y-92769752D01*
X101631666Y-93341180D01*
X102250714Y-93341180D01*
X102869761Y-92341180D02*
X102965000Y-92341180D01*
X103060238Y-92388800D01*
X103107857Y-92436419D01*
X103155476Y-92531657D01*
X103203095Y-92722133D01*
X103203095Y-92960228D01*
X103155476Y-93150704D01*
X103107857Y-93245942D01*
X103060238Y-93293561D01*
X102965000Y-93341180D01*
X102869761Y-93341180D01*
X102774523Y-93293561D01*
X102726904Y-93245942D01*
X102679285Y-93150704D01*
X102631666Y-92960228D01*
X102631666Y-92722133D01*
X102679285Y-92531657D01*
X102726904Y-92436419D01*
X102774523Y-92388800D01*
X102869761Y-92341180D01*
X75017333Y-63444380D02*
X74684000Y-62968190D01*
X74445904Y-63444380D02*
X74445904Y-62444380D01*
X74826857Y-62444380D01*
X74922095Y-62492000D01*
X74969714Y-62539619D01*
X75017333Y-62634857D01*
X75017333Y-62777714D01*
X74969714Y-62872952D01*
X74922095Y-62920571D01*
X74826857Y-62968190D01*
X74445904Y-62968190D01*
X75969714Y-63444380D02*
X75398285Y-63444380D01*
X75684000Y-63444380D02*
X75684000Y-62444380D01*
X75588761Y-62587238D01*
X75493523Y-62682476D01*
X75398285Y-62730095D01*
X77398761Y-62556380D02*
X76827333Y-62556380D01*
X77113047Y-62556380D02*
X77113047Y-61556380D01*
X77017809Y-61699238D01*
X76922571Y-61794476D01*
X76827333Y-61842095D01*
X78017809Y-61556380D02*
X78113047Y-61556380D01*
X78208285Y-61604000D01*
X78255904Y-61651619D01*
X78303523Y-61746857D01*
X78351142Y-61937333D01*
X78351142Y-62175428D01*
X78303523Y-62365904D01*
X78255904Y-62461142D01*
X78208285Y-62508761D01*
X78113047Y-62556380D01*
X78017809Y-62556380D01*
X77922571Y-62508761D01*
X77874952Y-62461142D01*
X77827333Y-62365904D01*
X77779714Y-62175428D01*
X77779714Y-61937333D01*
X77827333Y-61746857D01*
X77874952Y-61651619D01*
X77922571Y-61604000D01*
X78017809Y-61556380D01*
X78779714Y-62556380D02*
X78779714Y-61556380D01*
X78874952Y-62175428D02*
X79160666Y-62556380D01*
X79160666Y-61889714D02*
X78779714Y-62270666D01*
X109688404Y-105722680D02*
X109688404Y-104722680D01*
X109926500Y-104722680D01*
X110069357Y-104770300D01*
X110164595Y-104865538D01*
X110212214Y-104960776D01*
X110259833Y-105151252D01*
X110259833Y-105294109D01*
X110212214Y-105484585D01*
X110164595Y-105579823D01*
X110069357Y-105675061D01*
X109926500Y-105722680D01*
X109688404Y-105722680D01*
X110640785Y-104817919D02*
X110688404Y-104770300D01*
X110783642Y-104722680D01*
X111021738Y-104722680D01*
X111116976Y-104770300D01*
X111164595Y-104817919D01*
X111212214Y-104913157D01*
X111212214Y-105008395D01*
X111164595Y-105151252D01*
X110593166Y-105722680D01*
X111212214Y-105722680D01*
X119182904Y-85288380D02*
X119182904Y-84288380D01*
X119421000Y-84288380D01*
X119563857Y-84336000D01*
X119659095Y-84431238D01*
X119706714Y-84526476D01*
X119754333Y-84716952D01*
X119754333Y-84859809D01*
X119706714Y-85050285D01*
X119659095Y-85145523D01*
X119563857Y-85240761D01*
X119421000Y-85288380D01*
X119182904Y-85288380D01*
X120706714Y-85288380D02*
X120135285Y-85288380D01*
X120421000Y-85288380D02*
X120421000Y-84288380D01*
X120325761Y-84431238D01*
X120230523Y-84526476D01*
X120135285Y-84574095D01*
X107672142Y-85275657D02*
X107719761Y-85323276D01*
X107767380Y-85466133D01*
X107767380Y-85561371D01*
X107719761Y-85704228D01*
X107624523Y-85799466D01*
X107529285Y-85847085D01*
X107338809Y-85894704D01*
X107195952Y-85894704D01*
X107005476Y-85847085D01*
X106910238Y-85799466D01*
X106815000Y-85704228D01*
X106767380Y-85561371D01*
X106767380Y-85466133D01*
X106815000Y-85323276D01*
X106862619Y-85275657D01*
X107767380Y-84323276D02*
X107767380Y-84894704D01*
X107767380Y-84608990D02*
X106767380Y-84608990D01*
X106910238Y-84704228D01*
X107005476Y-84799466D01*
X107053095Y-84894704D01*
X106767380Y-83418514D02*
X106767380Y-83894704D01*
X107243571Y-83942323D01*
X107195952Y-83894704D01*
X107148333Y-83799466D01*
X107148333Y-83561371D01*
X107195952Y-83466133D01*
X107243571Y-83418514D01*
X107338809Y-83370895D01*
X107576904Y-83370895D01*
X107672142Y-83418514D01*
X107719761Y-83466133D01*
X107767380Y-83561371D01*
X107767380Y-83799466D01*
X107719761Y-83894704D01*
X107672142Y-83942323D01*
X105087380Y-89889585D02*
X105087380Y-89794347D01*
X105135000Y-89699109D01*
X105182619Y-89651490D01*
X105277857Y-89603871D01*
X105468333Y-89556252D01*
X105706428Y-89556252D01*
X105896904Y-89603871D01*
X105992142Y-89651490D01*
X106039761Y-89699109D01*
X106087380Y-89794347D01*
X106087380Y-89889585D01*
X106039761Y-89984823D01*
X105992142Y-90032442D01*
X105896904Y-90080061D01*
X105706428Y-90127680D01*
X105468333Y-90127680D01*
X105277857Y-90080061D01*
X105182619Y-90032442D01*
X105135000Y-89984823D01*
X105087380Y-89889585D01*
X105992142Y-89127680D02*
X106039761Y-89080061D01*
X106087380Y-89127680D01*
X106039761Y-89175300D01*
X105992142Y-89127680D01*
X106087380Y-89127680D01*
X106087380Y-88127680D02*
X106087380Y-88699109D01*
X106087380Y-88413395D02*
X105087380Y-88413395D01*
X105230238Y-88508633D01*
X105325476Y-88603871D01*
X105373095Y-88699109D01*
X105420714Y-87270538D02*
X106087380Y-87270538D01*
X105420714Y-87699109D02*
X105944523Y-87699109D01*
X106039761Y-87651490D01*
X106087380Y-87556252D01*
X106087380Y-87413395D01*
X106039761Y-87318157D01*
X105992142Y-87270538D01*
X73525142Y-68937142D02*
X73477523Y-68984761D01*
X73334666Y-69032380D01*
X73239428Y-69032380D01*
X73096571Y-68984761D01*
X73001333Y-68889523D01*
X72953714Y-68794285D01*
X72906095Y-68603809D01*
X72906095Y-68460952D01*
X72953714Y-68270476D01*
X73001333Y-68175238D01*
X73096571Y-68080000D01*
X73239428Y-68032380D01*
X73334666Y-68032380D01*
X73477523Y-68080000D01*
X73525142Y-68127619D01*
X74477523Y-69032380D02*
X73906095Y-69032380D01*
X74191809Y-69032380D02*
X74191809Y-68032380D01*
X74096571Y-68175238D01*
X74001333Y-68270476D01*
X73906095Y-68318095D01*
X75334666Y-68365714D02*
X75334666Y-69032380D01*
X75096571Y-67984761D02*
X74858476Y-68699047D01*
X75477523Y-68699047D01*
X76488214Y-68696380D02*
X76583452Y-68696380D01*
X76678690Y-68744000D01*
X76726309Y-68791619D01*
X76773928Y-68886857D01*
X76821547Y-69077333D01*
X76821547Y-69315428D01*
X76773928Y-69505904D01*
X76726309Y-69601142D01*
X76678690Y-69648761D01*
X76583452Y-69696380D01*
X76488214Y-69696380D01*
X76392976Y-69648761D01*
X76345357Y-69601142D01*
X76297738Y-69505904D01*
X76250119Y-69315428D01*
X76250119Y-69077333D01*
X76297738Y-68886857D01*
X76345357Y-68791619D01*
X76392976Y-68744000D01*
X76488214Y-68696380D01*
X77250119Y-69601142D02*
X77297738Y-69648761D01*
X77250119Y-69696380D01*
X77202500Y-69648761D01*
X77250119Y-69601142D01*
X77250119Y-69696380D01*
X78250119Y-69696380D02*
X77678690Y-69696380D01*
X77964404Y-69696380D02*
X77964404Y-68696380D01*
X77869166Y-68839238D01*
X77773928Y-68934476D01*
X77678690Y-68982095D01*
X79107261Y-69029714D02*
X79107261Y-69696380D01*
X78678690Y-69029714D02*
X78678690Y-69553523D01*
X78726309Y-69648761D01*
X78821547Y-69696380D01*
X78964404Y-69696380D01*
X79059642Y-69648761D01*
X79107261Y-69601142D01*
X88489642Y-100229942D02*
X88442023Y-100277561D01*
X88299166Y-100325180D01*
X88203928Y-100325180D01*
X88061071Y-100277561D01*
X87965833Y-100182323D01*
X87918214Y-100087085D01*
X87870595Y-99896609D01*
X87870595Y-99753752D01*
X87918214Y-99563276D01*
X87965833Y-99468038D01*
X88061071Y-99372800D01*
X88203928Y-99325180D01*
X88299166Y-99325180D01*
X88442023Y-99372800D01*
X88489642Y-99420419D01*
X89442023Y-100325180D02*
X88870595Y-100325180D01*
X89156309Y-100325180D02*
X89156309Y-99325180D01*
X89061071Y-99468038D01*
X88965833Y-99563276D01*
X88870595Y-99610895D01*
X89775357Y-99325180D02*
X90394404Y-99325180D01*
X90061071Y-99706133D01*
X90203928Y-99706133D01*
X90299166Y-99753752D01*
X90346785Y-99801371D01*
X90394404Y-99896609D01*
X90394404Y-100134704D01*
X90346785Y-100229942D01*
X90299166Y-100277561D01*
X90203928Y-100325180D01*
X89918214Y-100325180D01*
X89822976Y-100277561D01*
X89775357Y-100229942D01*
X87918214Y-97830180D02*
X88013452Y-97830180D01*
X88108690Y-97877800D01*
X88156309Y-97925419D01*
X88203928Y-98020657D01*
X88251547Y-98211133D01*
X88251547Y-98449228D01*
X88203928Y-98639704D01*
X88156309Y-98734942D01*
X88108690Y-98782561D01*
X88013452Y-98830180D01*
X87918214Y-98830180D01*
X87822976Y-98782561D01*
X87775357Y-98734942D01*
X87727738Y-98639704D01*
X87680119Y-98449228D01*
X87680119Y-98211133D01*
X87727738Y-98020657D01*
X87775357Y-97925419D01*
X87822976Y-97877800D01*
X87918214Y-97830180D01*
X88680119Y-98734942D02*
X88727738Y-98782561D01*
X88680119Y-98830180D01*
X88632500Y-98782561D01*
X88680119Y-98734942D01*
X88680119Y-98830180D01*
X89680119Y-98830180D02*
X89108690Y-98830180D01*
X89394404Y-98830180D02*
X89394404Y-97830180D01*
X89299166Y-97973038D01*
X89203928Y-98068276D01*
X89108690Y-98115895D01*
X90537261Y-98163514D02*
X90537261Y-98830180D01*
X90108690Y-98163514D02*
X90108690Y-98687323D01*
X90156309Y-98782561D01*
X90251547Y-98830180D01*
X90394404Y-98830180D01*
X90489642Y-98782561D01*
X90537261Y-98734942D01*
X94077642Y-62177142D02*
X94030023Y-62224761D01*
X93887166Y-62272380D01*
X93791928Y-62272380D01*
X93649071Y-62224761D01*
X93553833Y-62129523D01*
X93506214Y-62034285D01*
X93458595Y-61843809D01*
X93458595Y-61700952D01*
X93506214Y-61510476D01*
X93553833Y-61415238D01*
X93649071Y-61320000D01*
X93791928Y-61272380D01*
X93887166Y-61272380D01*
X94030023Y-61320000D01*
X94077642Y-61367619D01*
X95030023Y-62272380D02*
X94458595Y-62272380D01*
X94744309Y-62272380D02*
X94744309Y-61272380D01*
X94649071Y-61415238D01*
X94553833Y-61510476D01*
X94458595Y-61558095D01*
X95410976Y-61367619D02*
X95458595Y-61320000D01*
X95553833Y-61272380D01*
X95791928Y-61272380D01*
X95887166Y-61320000D01*
X95934785Y-61367619D01*
X95982404Y-61462857D01*
X95982404Y-61558095D01*
X95934785Y-61700952D01*
X95363357Y-62272380D01*
X95982404Y-62272380D01*
X93506214Y-64632380D02*
X93601452Y-64632380D01*
X93696690Y-64680000D01*
X93744309Y-64727619D01*
X93791928Y-64822857D01*
X93839547Y-65013333D01*
X93839547Y-65251428D01*
X93791928Y-65441904D01*
X93744309Y-65537142D01*
X93696690Y-65584761D01*
X93601452Y-65632380D01*
X93506214Y-65632380D01*
X93410976Y-65584761D01*
X93363357Y-65537142D01*
X93315738Y-65441904D01*
X93268119Y-65251428D01*
X93268119Y-65013333D01*
X93315738Y-64822857D01*
X93363357Y-64727619D01*
X93410976Y-64680000D01*
X93506214Y-64632380D01*
X94268119Y-65537142D02*
X94315738Y-65584761D01*
X94268119Y-65632380D01*
X94220500Y-65584761D01*
X94268119Y-65537142D01*
X94268119Y-65632380D01*
X95268119Y-65632380D02*
X94696690Y-65632380D01*
X94982404Y-65632380D02*
X94982404Y-64632380D01*
X94887166Y-64775238D01*
X94791928Y-64870476D01*
X94696690Y-64918095D01*
X96125261Y-64965714D02*
X96125261Y-65632380D01*
X95696690Y-64965714D02*
X95696690Y-65489523D01*
X95744309Y-65584761D01*
X95839547Y-65632380D01*
X95982404Y-65632380D01*
X96077642Y-65584761D01*
X96125261Y-65537142D01*
X87762142Y-92366157D02*
X87809761Y-92413776D01*
X87857380Y-92556633D01*
X87857380Y-92651871D01*
X87809761Y-92794728D01*
X87714523Y-92889966D01*
X87619285Y-92937585D01*
X87428809Y-92985204D01*
X87285952Y-92985204D01*
X87095476Y-92937585D01*
X87000238Y-92889966D01*
X86905000Y-92794728D01*
X86857380Y-92651871D01*
X86857380Y-92556633D01*
X86905000Y-92413776D01*
X86952619Y-92366157D01*
X87857380Y-91413776D02*
X87857380Y-91985204D01*
X87857380Y-91699490D02*
X86857380Y-91699490D01*
X87000238Y-91794728D01*
X87095476Y-91889966D01*
X87143095Y-91985204D01*
X87857380Y-90461395D02*
X87857380Y-91032823D01*
X87857380Y-90747109D02*
X86857380Y-90747109D01*
X87000238Y-90842347D01*
X87095476Y-90937585D01*
X87143095Y-91032823D01*
X83497380Y-92937585D02*
X83497380Y-92842347D01*
X83545000Y-92747109D01*
X83592619Y-92699490D01*
X83687857Y-92651871D01*
X83878333Y-92604252D01*
X84116428Y-92604252D01*
X84306904Y-92651871D01*
X84402142Y-92699490D01*
X84449761Y-92747109D01*
X84497380Y-92842347D01*
X84497380Y-92937585D01*
X84449761Y-93032823D01*
X84402142Y-93080442D01*
X84306904Y-93128061D01*
X84116428Y-93175680D01*
X83878333Y-93175680D01*
X83687857Y-93128061D01*
X83592619Y-93080442D01*
X83545000Y-93032823D01*
X83497380Y-92937585D01*
X84402142Y-92175680D02*
X84449761Y-92128061D01*
X84497380Y-92175680D01*
X84449761Y-92223300D01*
X84402142Y-92175680D01*
X84497380Y-92175680D01*
X84497380Y-91175680D02*
X84497380Y-91747109D01*
X84497380Y-91461395D02*
X83497380Y-91461395D01*
X83640238Y-91556633D01*
X83735476Y-91651871D01*
X83783095Y-91747109D01*
X83830714Y-90318538D02*
X84497380Y-90318538D01*
X83830714Y-90747109D02*
X84354523Y-90747109D01*
X84449761Y-90699490D01*
X84497380Y-90604252D01*
X84497380Y-90461395D01*
X84449761Y-90366157D01*
X84402142Y-90318538D01*
X98649642Y-84764942D02*
X98602023Y-84812561D01*
X98459166Y-84860180D01*
X98363928Y-84860180D01*
X98221071Y-84812561D01*
X98125833Y-84717323D01*
X98078214Y-84622085D01*
X98030595Y-84431609D01*
X98030595Y-84288752D01*
X98078214Y-84098276D01*
X98125833Y-84003038D01*
X98221071Y-83907800D01*
X98363928Y-83860180D01*
X98459166Y-83860180D01*
X98602023Y-83907800D01*
X98649642Y-83955419D01*
X99602023Y-84860180D02*
X99030595Y-84860180D01*
X99316309Y-84860180D02*
X99316309Y-83860180D01*
X99221071Y-84003038D01*
X99125833Y-84098276D01*
X99030595Y-84145895D01*
X100221071Y-83860180D02*
X100316309Y-83860180D01*
X100411547Y-83907800D01*
X100459166Y-83955419D01*
X100506785Y-84050657D01*
X100554404Y-84241133D01*
X100554404Y-84479228D01*
X100506785Y-84669704D01*
X100459166Y-84764942D01*
X100411547Y-84812561D01*
X100316309Y-84860180D01*
X100221071Y-84860180D01*
X100125833Y-84812561D01*
X100078214Y-84764942D01*
X100030595Y-84669704D01*
X99982976Y-84479228D01*
X99982976Y-84241133D01*
X100030595Y-84050657D01*
X100078214Y-83955419D01*
X100125833Y-83907800D01*
X100221071Y-83860180D01*
X98078214Y-80500180D02*
X98173452Y-80500180D01*
X98268690Y-80547800D01*
X98316309Y-80595419D01*
X98363928Y-80690657D01*
X98411547Y-80881133D01*
X98411547Y-81119228D01*
X98363928Y-81309704D01*
X98316309Y-81404942D01*
X98268690Y-81452561D01*
X98173452Y-81500180D01*
X98078214Y-81500180D01*
X97982976Y-81452561D01*
X97935357Y-81404942D01*
X97887738Y-81309704D01*
X97840119Y-81119228D01*
X97840119Y-80881133D01*
X97887738Y-80690657D01*
X97935357Y-80595419D01*
X97982976Y-80547800D01*
X98078214Y-80500180D01*
X98840119Y-81404942D02*
X98887738Y-81452561D01*
X98840119Y-81500180D01*
X98792500Y-81452561D01*
X98840119Y-81404942D01*
X98840119Y-81500180D01*
X99840119Y-81500180D02*
X99268690Y-81500180D01*
X99554404Y-81500180D02*
X99554404Y-80500180D01*
X99459166Y-80643038D01*
X99363928Y-80738276D01*
X99268690Y-80785895D01*
X100697261Y-80833514D02*
X100697261Y-81500180D01*
X100268690Y-80833514D02*
X100268690Y-81357323D01*
X100316309Y-81452561D01*
X100411547Y-81500180D01*
X100554404Y-81500180D01*
X100649642Y-81452561D01*
X100697261Y-81404942D01*
X71439833Y-94797942D02*
X71392214Y-94845561D01*
X71249357Y-94893180D01*
X71154119Y-94893180D01*
X71011261Y-94845561D01*
X70916023Y-94750323D01*
X70868404Y-94655085D01*
X70820785Y-94464609D01*
X70820785Y-94321752D01*
X70868404Y-94131276D01*
X70916023Y-94036038D01*
X71011261Y-93940800D01*
X71154119Y-93893180D01*
X71249357Y-93893180D01*
X71392214Y-93940800D01*
X71439833Y-93988419D01*
X71773166Y-93893180D02*
X72439833Y-93893180D01*
X72011261Y-94893180D01*
X70392214Y-90533180D02*
X70487452Y-90533180D01*
X70582690Y-90580800D01*
X70630309Y-90628419D01*
X70677928Y-90723657D01*
X70725547Y-90914133D01*
X70725547Y-91152228D01*
X70677928Y-91342704D01*
X70630309Y-91437942D01*
X70582690Y-91485561D01*
X70487452Y-91533180D01*
X70392214Y-91533180D01*
X70296976Y-91485561D01*
X70249357Y-91437942D01*
X70201738Y-91342704D01*
X70154119Y-91152228D01*
X70154119Y-90914133D01*
X70201738Y-90723657D01*
X70249357Y-90628419D01*
X70296976Y-90580800D01*
X70392214Y-90533180D01*
X71154119Y-91437942D02*
X71201738Y-91485561D01*
X71154119Y-91533180D01*
X71106500Y-91485561D01*
X71154119Y-91437942D01*
X71154119Y-91533180D01*
X72154119Y-91533180D02*
X71582690Y-91533180D01*
X71868404Y-91533180D02*
X71868404Y-90533180D01*
X71773166Y-90676038D01*
X71677928Y-90771276D01*
X71582690Y-90818895D01*
X73011261Y-90866514D02*
X73011261Y-91533180D01*
X72582690Y-90866514D02*
X72582690Y-91390323D01*
X72630309Y-91485561D01*
X72725547Y-91533180D01*
X72868404Y-91533180D01*
X72963642Y-91485561D01*
X73011261Y-91437942D01*
X74509333Y-73001142D02*
X74461714Y-73048761D01*
X74318857Y-73096380D01*
X74223619Y-73096380D01*
X74080761Y-73048761D01*
X73985523Y-72953523D01*
X73937904Y-72858285D01*
X73890285Y-72667809D01*
X73890285Y-72524952D01*
X73937904Y-72334476D01*
X73985523Y-72239238D01*
X74080761Y-72144000D01*
X74223619Y-72096380D01*
X74318857Y-72096380D01*
X74461714Y-72144000D01*
X74509333Y-72191619D01*
X75366476Y-72096380D02*
X75176000Y-72096380D01*
X75080761Y-72144000D01*
X75033142Y-72191619D01*
X74937904Y-72334476D01*
X74890285Y-72524952D01*
X74890285Y-72905904D01*
X74937904Y-73001142D01*
X74985523Y-73048761D01*
X75080761Y-73096380D01*
X75271238Y-73096380D01*
X75366476Y-73048761D01*
X75414095Y-73001142D01*
X75461714Y-72905904D01*
X75461714Y-72667809D01*
X75414095Y-72572571D01*
X75366476Y-72524952D01*
X75271238Y-72477333D01*
X75080761Y-72477333D01*
X74985523Y-72524952D01*
X74937904Y-72572571D01*
X74890285Y-72667809D01*
X76890714Y-73112380D02*
X76985952Y-73112380D01*
X77081190Y-73160000D01*
X77128809Y-73207619D01*
X77176428Y-73302857D01*
X77224047Y-73493333D01*
X77224047Y-73731428D01*
X77176428Y-73921904D01*
X77128809Y-74017142D01*
X77081190Y-74064761D01*
X76985952Y-74112380D01*
X76890714Y-74112380D01*
X76795476Y-74064761D01*
X76747857Y-74017142D01*
X76700238Y-73921904D01*
X76652619Y-73731428D01*
X76652619Y-73493333D01*
X76700238Y-73302857D01*
X76747857Y-73207619D01*
X76795476Y-73160000D01*
X76890714Y-73112380D01*
X77652619Y-74017142D02*
X77700238Y-74064761D01*
X77652619Y-74112380D01*
X77605000Y-74064761D01*
X77652619Y-74017142D01*
X77652619Y-74112380D01*
X78652619Y-74112380D02*
X78081190Y-74112380D01*
X78366904Y-74112380D02*
X78366904Y-73112380D01*
X78271666Y-73255238D01*
X78176428Y-73350476D01*
X78081190Y-73398095D01*
X79509761Y-73445714D02*
X79509761Y-74112380D01*
X79081190Y-73445714D02*
X79081190Y-73969523D01*
X79128809Y-74064761D01*
X79224047Y-74112380D01*
X79366904Y-74112380D01*
X79462142Y-74064761D01*
X79509761Y-74017142D01*
X94553833Y-73157142D02*
X94506214Y-73204761D01*
X94363357Y-73252380D01*
X94268119Y-73252380D01*
X94125261Y-73204761D01*
X94030023Y-73109523D01*
X93982404Y-73014285D01*
X93934785Y-72823809D01*
X93934785Y-72680952D01*
X93982404Y-72490476D01*
X94030023Y-72395238D01*
X94125261Y-72300000D01*
X94268119Y-72252380D01*
X94363357Y-72252380D01*
X94506214Y-72300000D01*
X94553833Y-72347619D01*
X95458595Y-72252380D02*
X94982404Y-72252380D01*
X94934785Y-72728571D01*
X94982404Y-72680952D01*
X95077642Y-72633333D01*
X95315738Y-72633333D01*
X95410976Y-72680952D01*
X95458595Y-72728571D01*
X95506214Y-72823809D01*
X95506214Y-73061904D01*
X95458595Y-73157142D01*
X95410976Y-73204761D01*
X95315738Y-73252380D01*
X95077642Y-73252380D01*
X94982404Y-73204761D01*
X94934785Y-73157142D01*
X93506214Y-68892380D02*
X93601452Y-68892380D01*
X93696690Y-68940000D01*
X93744309Y-68987619D01*
X93791928Y-69082857D01*
X93839547Y-69273333D01*
X93839547Y-69511428D01*
X93791928Y-69701904D01*
X93744309Y-69797142D01*
X93696690Y-69844761D01*
X93601452Y-69892380D01*
X93506214Y-69892380D01*
X93410976Y-69844761D01*
X93363357Y-69797142D01*
X93315738Y-69701904D01*
X93268119Y-69511428D01*
X93268119Y-69273333D01*
X93315738Y-69082857D01*
X93363357Y-68987619D01*
X93410976Y-68940000D01*
X93506214Y-68892380D01*
X94268119Y-69797142D02*
X94315738Y-69844761D01*
X94268119Y-69892380D01*
X94220500Y-69844761D01*
X94268119Y-69797142D01*
X94268119Y-69892380D01*
X95268119Y-69892380D02*
X94696690Y-69892380D01*
X94982404Y-69892380D02*
X94982404Y-68892380D01*
X94887166Y-69035238D01*
X94791928Y-69130476D01*
X94696690Y-69178095D01*
X96125261Y-69225714D02*
X96125261Y-69892380D01*
X95696690Y-69225714D02*
X95696690Y-69749523D01*
X95744309Y-69844761D01*
X95839547Y-69892380D01*
X95982404Y-69892380D01*
X96077642Y-69844761D01*
X96125261Y-69797142D01*
X120372142Y-103849466D02*
X120419761Y-103897085D01*
X120467380Y-104039942D01*
X120467380Y-104135180D01*
X120419761Y-104278038D01*
X120324523Y-104373276D01*
X120229285Y-104420895D01*
X120038809Y-104468514D01*
X119895952Y-104468514D01*
X119705476Y-104420895D01*
X119610238Y-104373276D01*
X119515000Y-104278038D01*
X119467380Y-104135180D01*
X119467380Y-104039942D01*
X119515000Y-103897085D01*
X119562619Y-103849466D01*
X119800714Y-102992323D02*
X120467380Y-102992323D01*
X119419761Y-103230419D02*
X120134047Y-103468514D01*
X120134047Y-102849466D01*
X120766380Y-101870585D02*
X120766380Y-101775347D01*
X120814000Y-101680109D01*
X120861619Y-101632490D01*
X120956857Y-101584871D01*
X121147333Y-101537252D01*
X121385428Y-101537252D01*
X121575904Y-101584871D01*
X121671142Y-101632490D01*
X121718761Y-101680109D01*
X121766380Y-101775347D01*
X121766380Y-101870585D01*
X121718761Y-101965823D01*
X121671142Y-102013442D01*
X121575904Y-102061061D01*
X121385428Y-102108680D01*
X121147333Y-102108680D01*
X120956857Y-102061061D01*
X120861619Y-102013442D01*
X120814000Y-101965823D01*
X120766380Y-101870585D01*
X121671142Y-101108680D02*
X121718761Y-101061061D01*
X121766380Y-101108680D01*
X121718761Y-101156300D01*
X121671142Y-101108680D01*
X121766380Y-101108680D01*
X121766380Y-100108680D02*
X121766380Y-100680109D01*
X121766380Y-100394395D02*
X120766380Y-100394395D01*
X120909238Y-100489633D01*
X121004476Y-100584871D01*
X121052095Y-100680109D01*
X121099714Y-99251538D02*
X121766380Y-99251538D01*
X121099714Y-99680109D02*
X121623523Y-99680109D01*
X121718761Y-99632490D01*
X121766380Y-99537252D01*
X121766380Y-99394395D01*
X121718761Y-99299157D01*
X121671142Y-99251538D01*
X109209633Y-65537142D02*
X109162014Y-65584761D01*
X109019157Y-65632380D01*
X108923919Y-65632380D01*
X108781061Y-65584761D01*
X108685823Y-65489523D01*
X108638204Y-65394285D01*
X108590585Y-65203809D01*
X108590585Y-65060952D01*
X108638204Y-64870476D01*
X108685823Y-64775238D01*
X108781061Y-64680000D01*
X108923919Y-64632380D01*
X109019157Y-64632380D01*
X109162014Y-64680000D01*
X109209633Y-64727619D01*
X109542966Y-64632380D02*
X110162014Y-64632380D01*
X109828680Y-65013333D01*
X109971538Y-65013333D01*
X110066776Y-65060952D01*
X110114395Y-65108571D01*
X110162014Y-65203809D01*
X110162014Y-65441904D01*
X110114395Y-65537142D01*
X110066776Y-65584761D01*
X109971538Y-65632380D01*
X109685823Y-65632380D01*
X109590585Y-65584761D01*
X109542966Y-65537142D01*
X108162014Y-61272380D02*
X108257252Y-61272380D01*
X108352490Y-61320000D01*
X108400109Y-61367619D01*
X108447728Y-61462857D01*
X108495347Y-61653333D01*
X108495347Y-61891428D01*
X108447728Y-62081904D01*
X108400109Y-62177142D01*
X108352490Y-62224761D01*
X108257252Y-62272380D01*
X108162014Y-62272380D01*
X108066776Y-62224761D01*
X108019157Y-62177142D01*
X107971538Y-62081904D01*
X107923919Y-61891428D01*
X107923919Y-61653333D01*
X107971538Y-61462857D01*
X108019157Y-61367619D01*
X108066776Y-61320000D01*
X108162014Y-61272380D01*
X108923919Y-62177142D02*
X108971538Y-62224761D01*
X108923919Y-62272380D01*
X108876300Y-62224761D01*
X108923919Y-62177142D01*
X108923919Y-62272380D01*
X109923919Y-62272380D02*
X109352490Y-62272380D01*
X109638204Y-62272380D02*
X109638204Y-61272380D01*
X109542966Y-61415238D01*
X109447728Y-61510476D01*
X109352490Y-61558095D01*
X110781061Y-61605714D02*
X110781061Y-62272380D01*
X110352490Y-61605714D02*
X110352490Y-62129523D01*
X110400109Y-62224761D01*
X110495347Y-62272380D01*
X110638204Y-62272380D01*
X110733442Y-62224761D01*
X110781061Y-62177142D01*
X109209633Y-69797142D02*
X109162014Y-69844761D01*
X109019157Y-69892380D01*
X108923919Y-69892380D01*
X108781061Y-69844761D01*
X108685823Y-69749523D01*
X108638204Y-69654285D01*
X108590585Y-69463809D01*
X108590585Y-69320952D01*
X108638204Y-69130476D01*
X108685823Y-69035238D01*
X108781061Y-68940000D01*
X108923919Y-68892380D01*
X109019157Y-68892380D01*
X109162014Y-68940000D01*
X109209633Y-68987619D01*
X109590585Y-68987619D02*
X109638204Y-68940000D01*
X109733442Y-68892380D01*
X109971538Y-68892380D01*
X110066776Y-68940000D01*
X110114395Y-68987619D01*
X110162014Y-69082857D01*
X110162014Y-69178095D01*
X110114395Y-69320952D01*
X109542966Y-69892380D01*
X110162014Y-69892380D01*
X108162014Y-72252380D02*
X108257252Y-72252380D01*
X108352490Y-72300000D01*
X108400109Y-72347619D01*
X108447728Y-72442857D01*
X108495347Y-72633333D01*
X108495347Y-72871428D01*
X108447728Y-73061904D01*
X108400109Y-73157142D01*
X108352490Y-73204761D01*
X108257252Y-73252380D01*
X108162014Y-73252380D01*
X108066776Y-73204761D01*
X108019157Y-73157142D01*
X107971538Y-73061904D01*
X107923919Y-72871428D01*
X107923919Y-72633333D01*
X107971538Y-72442857D01*
X108019157Y-72347619D01*
X108066776Y-72300000D01*
X108162014Y-72252380D01*
X108923919Y-73157142D02*
X108971538Y-73204761D01*
X108923919Y-73252380D01*
X108876300Y-73204761D01*
X108923919Y-73157142D01*
X108923919Y-73252380D01*
X109923919Y-73252380D02*
X109352490Y-73252380D01*
X109638204Y-73252380D02*
X109638204Y-72252380D01*
X109542966Y-72395238D01*
X109447728Y-72490476D01*
X109352490Y-72538095D01*
X110781061Y-72585714D02*
X110781061Y-73252380D01*
X110352490Y-72585714D02*
X110352490Y-73109523D01*
X110400109Y-73204761D01*
X110495347Y-73252380D01*
X110638204Y-73252380D01*
X110733442Y-73204761D01*
X110781061Y-73157142D01*
X88651142Y-102981966D02*
X88698761Y-103029585D01*
X88746380Y-103172442D01*
X88746380Y-103267680D01*
X88698761Y-103410538D01*
X88603523Y-103505776D01*
X88508285Y-103553395D01*
X88317809Y-103601014D01*
X88174952Y-103601014D01*
X87984476Y-103553395D01*
X87889238Y-103505776D01*
X87794000Y-103410538D01*
X87746380Y-103267680D01*
X87746380Y-103172442D01*
X87794000Y-103029585D01*
X87841619Y-102981966D01*
X88746380Y-102029585D02*
X88746380Y-102601014D01*
X88746380Y-102315300D02*
X87746380Y-102315300D01*
X87889238Y-102410538D01*
X87984476Y-102505776D01*
X88032095Y-102601014D01*
M02*
